<?xml version="1.0" encoding="UTF-8" standalone="no"?>
<svg
   viewBox="0 0 20 20"
   xml:space="preserve"
   version="1.1"
   id="svg4"
   sodipodi:docname="mouse_lmb_double.svg"
   inkscape:version="1.2.2 (b0a8486541, 2022-12-01)"
   xmlns:inkscape="http://www.inkscape.org/namespaces/inkscape"
   xmlns:sodipodi="http://sodipodi.sourceforge.net/DTD/sodipodi-0.dtd"
   xmlns="http://www.w3.org/2000/svg"
   xmlns:svg="http://www.w3.org/2000/svg"><defs
   id="defs8" /><sodipodi:namedview
   id="namedview6"
   pagecolor="#000000"
   bordercolor="#666666"
   borderopacity="1.0"
   inkscape:showpageshadow="2"
   inkscape:pageopacity="0"
   inkscape:pagecheckerboard="0"
   inkscape:deskcolor="#d1d1d1"
   showgrid="false"
   inkscape:zoom="32"
   inkscape:cx="13.65625"
   inkscape:cy="-3.921875"
   inkscape:window-width="3840"
   inkscape:window-height="2103"
   inkscape:window-x="1920"
   inkscape:window-y="0"
   inkscape:window-maximized="1"
   inkscape:current-layer="svg4" />
    <path
   fill="#ffffff"
   d="M 5.484,2.99 C 3.5593147,2.987787 1.9983395,4.5483141 2,6.473 v 3.015 c -2.2e-6,0.2753632 0.222639,0.4988985 0.498,0.5 l 4.01,0.008 c 0.2761424,0 0.5,-0.2238576 0.5,-0.5 L 7,3.525 V 3.487 C 6.9988985,3.211639 6.7753632,2.9889978 6.5,2.989 Z M 8,2.99 v 1 H 9.516 C 10.9,3.99 12,5.09 12,6.473 v 8.031 c 0,1.385 -1.1,2.484 -2.484,2.484 H 5.484 C 4.1090618,16.996376 2.992178,15.879941 3,14.505 V 10.99 H 2 v 3.516 c 0.0022,1.923246 1.5607537,3.481796 3.484,3.484 h 4.032 c 1.923636,-0.0022 3.482347,-1.561363 3.484,-3.485 V 6.474 C 12.998347,4.5503632 11.439636,2.9912053 9.516,2.989 Z m 9,1.542 c -11.3333333,-3.0213333 -5.666667,-1.5106667 0,0 z"
   id="path2"
   sodipodi:nodetypes="ccccccccccccssssccccccccccccc" />
<text
   xml:space="preserve"
   style="font-style:normal;font-weight:normal;font-size:40px;line-height:1.25;font-family:sans-serif;letter-spacing:0px;word-spacing:0px;fill:#000000;fill-opacity:1;stroke:none"
   x="14.070419"
   y="8.5207663"
   id="text465"><tspan
     sodipodi:role="line"
     id="tspan463"
     x="14.070419"
     y="8.5207663"
     style="font-style:normal;font-variant:normal;font-weight:normal;font-stretch:normal;font-size:8px;font-family:sans-serif;-inkscape-font-specification:'sans-serif, Normal';font-variant-ligatures:normal;font-variant-caps:normal;font-variant-numeric:normal;font-variant-east-asian:normal;fill:#ffffff;stroke:none">2</tspan></text></svg>
