<svg width="122" height="122" viewBox="0 0 122 122" fill="none" xmlns="http://www.w3.org/2000/svg">
<path d="M57.6315 68.5749L57.493 68.5269L57.4383 68.5072L57.3012 68.456C57.2831 68.4492 57.2649 68.4421 57.2469 68.435L57.1108 68.3808C57.0929 68.3737 57.0749 68.3664 57.0572 68.3589L56.9223 68.3014L56.8695 68.278L56.7352 68.2174L56.6835 68.1933L56.5508 68.1292C56.5338 68.121 56.5166 68.1127 56.4998 68.1041L56.368 68.0371C56.3514 68.0286 56.3346 68.0198 56.3182 68.011L56.1874 67.941L56.1386 67.9141L56.0091 67.8404C55.9932 67.8314 55.9773 67.8222 55.9617 67.8129L55.8331 67.7363C55.8177 67.7271 55.8023 67.7176 55.7871 67.7081L55.6592 67.6284L55.6146 67.5996L55.4878 67.5166L55.4445 67.4875L55.3191 67.4014C55.3051 67.3917 55.291 67.3819 55.2772 67.372L55.1524 67.2827L55.1117 67.253L54.9884 67.1605C54.9753 67.1507 54.9623 67.1407 54.9494 67.1306L54.8267 67.0351L54.789 67.0049L54.6678 66.9062C54.6556 66.8963 54.6433 66.8862 54.6313 66.876L54.511 66.7743C54.4993 66.7644 54.4876 66.7544 54.476 66.7443L54.3566 66.6392L54.3231 66.6093L54.205 66.5013C54.1942 66.4915 54.1833 66.4816 54.1727 66.4715L54.0552 66.3604L54.0245 66.3308L53.9084 66.2168C53.8985 66.2071 53.8884 66.1974 53.8787 66.1875L53.7633 66.0702L53.7351 66.0413L53.621 65.9211C53.612 65.9116 53.6029 65.902 53.594 65.8923L53.4805 65.7693L53.4549 65.741L53.3424 65.6147L53.3179 65.5868L53.2064 65.4579L53.1829 65.4302L53.0728 65.2982C53.0653 65.2892 53.0577 65.2803 53.0504 65.2712L52.9411 65.1365L52.8112 64.9721L52.7908 64.9459L52.6836 64.8052C52.6771 64.7967 52.6706 64.7882 52.6642 64.7797L52.5575 64.6362L52.5392 64.6111L52.4334 64.465L52.4162 64.4402L52.3114 64.2911L52.2946 64.2672L52.191 64.1156C52.1857 64.1078 52.1803 64.0998 52.175 64.092L52.0724 63.9374L52.0574 63.9144L51.9553 63.7571L51.9412 63.7348L51.8262 63.553L51.7262 63.3906L51.7134 63.3694L51.6139 63.2042L51.6018 63.1833L51.5032 63.0154L51.4916 62.9954L51.3939 62.8249L51.3829 62.8054L51.2861 62.6323L51.2756 62.6134L51.1796 62.4379L51.1695 62.4192L51.0746 62.2415C51.0714 62.2355 51.0683 62.2293 51.0651 62.2233L50.9708 62.0429L50.9618 62.0256L50.8683 61.8425L50.8596 61.8257L50.7668 61.6403L50.7587 61.624L50.6668 61.4364L50.5681 61.2307C50.5656 61.2255 50.563 61.2202 50.5606 61.215L50.47 61.023L50.4631 61.0078L50.3737 60.8137C50.3715 60.8088 50.3689 60.8038 50.3667 60.7989L50.2781 60.6024C50.2759 60.5977 50.2738 60.5929 50.2717 60.5881L50.1834 60.3896L50.1773 60.3754L50.09 60.175C50.0881 60.1706 50.086 60.1661 50.0841 60.1617L49.9977 59.9586L49.992 59.9457L49.9061 59.741C49.9044 59.7368 49.9026 59.7324 49.9008 59.7282L49.8152 59.5214L49.7256 59.3003L49.6323 59.0667L49.549 58.854C49.5476 58.8504 49.5461 58.8467 49.5447 58.8431L49.4577 58.6178L49.3719 58.3914L49.2901 58.1734L49.2866 58.1634L49.2018 57.9341L49.1215 57.7125L49.1182 57.7033L49.038 57.4803L49.0349 57.4716L48.9556 57.247C48.9546 57.2442 48.9536 57.2411 48.9526 57.2383L48.8735 57.012L48.871 57.0038L48.7924 56.7762C48.7915 56.7736 48.7907 56.771 48.7898 56.7684L48.7117 56.5391L48.7091 56.5316L48.6318 56.3011C48.6309 56.2987 48.6302 56.2961 48.6294 56.2937L48.5522 56.0618L48.5501 56.0549L48.4712 55.815L48.3953 55.5802L48.393 55.574L48.3175 55.3382C48.3169 55.3362 48.3162 55.3341 48.3156 55.3321L48.24 55.0952L48.2383 55.0895L48.1636 54.8514C48.163 54.8496 48.1624 54.8475 48.1619 54.8457L48.0871 54.6065L48.0856 54.6013L48.0112 54.3611L48.0096 54.3562L47.936 54.1148L47.9343 54.1102L47.8609 53.8681L47.8596 53.8637L47.7861 53.6205L47.7851 53.6165L47.7119 53.3723L47.7107 53.3687L47.6382 53.124L47.637 53.1203L47.5643 52.8748L47.5635 52.8713L47.491 52.6251L47.4905 52.622L47.4182 52.3752L47.4176 52.3724L47.3455 52.125L47.3449 52.1222L47.2729 51.8744L47.2725 51.8721L47.2009 51.6233L47.2004 51.6213L47.1289 51.3722L47.1283 51.3705L47.0572 51.1212L47.0566 51.1195L46.9857 50.8699L46.9854 50.8683L46.9143 50.6182L46.9139 50.617L46.8431 50.367L46.8427 50.3658L46.772 50.1155L46.7718 50.1147L46.7009 49.864L46.4889 49.1116L46.0651 47.6158L45.8527 46.8754L45.7107 46.3853L45.6397 46.1418L45.5685 45.8991L45.497 45.657L45.3534 45.1762L45.2816 44.9376L45.2078 44.6954L45.0647 44.2287L44.9183 43.7624L44.8451 43.5315L44.7711 43.3017L44.6973 43.0739L44.623 42.8477L44.5482 42.6228L44.4732 42.3997L44.3981 42.1783L44.3227 41.9588L44.2436 41.7324L44.1702 41.5249L44.0937 41.3112L44.0167 41.0991L43.9396 40.8893L43.8575 40.6711L43.7833 40.4754L43.7049 40.2721L43.6259 40.0707L43.5416 39.8599L43.4667 39.675L43.3869 39.4807L43.3059 39.2886L43.2249 39.0991L43.1438 38.9125L43.062 38.7278L42.9802 38.5465L42.8902 38.3517L42.8145 38.1907L42.7232 38.0011L42.6473 37.8463L42.5635 37.6782L42.4792 37.5132L42.3848 37.3328L42.2994 37.173L42.2243 37.0353L42.1322 36.8707L42.0464 36.7207L41.9544 36.5642L41.8807 36.4413L41.7938 36.3004L41.6974 36.1476L41.6203 36.0287L41.5334 35.8977L41.4465 35.7701L41.3449 35.6258L41.2719 35.5244L41.1722 35.3899L41.0883 35.2809L41 35.1682L40.9159 35.0646L40.8253 34.9562L40.7394 34.8568L40.6451 34.7513L40.5618 34.6608L40.481 34.5758L40.3938 34.4874L40.3 34.3948L40.2291 34.3279L40.1256 34.2336L40.0445 34.1625L39.9588 34.0899L39.883 34.0284L39.792 33.9573L39.7074 33.8943L39.6261 33.836L39.547 33.7817L39.4569 33.7224L39.382 33.6758L39.2966 33.6249L39.2156 33.5788L39.1383 33.5373L39.0495 33.4919L38.9736 33.4556L38.8846 33.4153L38.8114 33.3843L38.7275 33.3505L38.6332 33.3154L38.5578 33.2895L38.482 33.265L38.3855 33.2365L38.2977 33.2131L38.2198 33.1937L38.1256 33.173L38.0441 33.1568L37.9463 33.1397L37.8576 33.1262L37.7655 33.1146L37.6663 33.104L37.5792 33.0966L37.475 33.0901L37.3753 33.0858L37.2705 33.0836L37.1654 33.0834L37.05 33.0857L36.9514 33.0899L36.8463 33.0959L36.7303 33.1046L36.5974 33.1175L36.4934 33.1295L36.3629 33.1472L36.2466 33.165L36.1311 33.1841L36.0007 33.2085L35.8735 33.2344L35.7339 33.2649L35.6076 33.2947L35.4765 33.3273L35.3239 33.3682L35.207 33.4012L35.0661 33.443L34.9264 33.4867L34.7582 33.5411L34.6121 33.5911L34.464 33.6437L34.3305 33.6928L34.1859 33.748L34.0082 33.8176L33.8657 33.8758L33.6959 33.9469L33.5516 34.0095L33.3769 34.0867L33.2342 34.1518L33.07 34.2284L32.8863 34.3162L32.7198 34.3975L32.5516 34.4816L32.3823 34.5679L32.2116 34.657L32.0394 34.7483L31.88 34.8346L31.6914 34.9383L31.5152 35.0366L31.3506 35.1303L31.1597 35.2406L30.9801 35.3458L30.7993 35.4533L30.6176 35.5626L30.4346 35.6744L30.2505 35.788L30.0754 35.8977L29.8796 36.0214L29.6928 36.1411L29.5049 36.2627L29.3161 36.3861L29.1263 36.5111L28.9434 36.6333L28.7444 36.7669L28.5591 36.8926L28.3591 37.0292L28.1652 37.1627L27.9709 37.2979L27.7757 37.4343L27.5852 37.5685L27.3829 37.7117L26.9876 37.9946L26.7893 38.138L26.5902 38.2826L26.3904 38.4281L26.1901 38.5749L25.9928 38.7201L25.5862 39.0212L25.3838 39.172L24.9806 39.4739L24.7744 39.6289L24.5706 39.7826L23.9566 40.2476L23.7512 40.4037C23.17 40.8472 22.3451 40.7673 21.8598 40.2206L20.2251 38.379C19.9442 38.0626 19.9914 37.5742 20.3277 37.3174L20.5342 37.1603C20.5345 37.1601 20.5348 37.1599 20.535 37.1596C20.5352 37.1593 20.5355 37.159 20.5358 37.1588L20.7423 37.0017L20.7434 37.0007L20.9503 36.8436L20.9515 36.8425L21.1582 36.6858L21.1597 36.6848L21.366 36.5283L21.3676 36.527L21.5741 36.3709L21.5762 36.3694L21.7821 36.2142L21.7843 36.2124L21.9904 36.0576L21.9926 36.0558L22.1984 35.9017L22.2011 35.8996L22.4065 35.7458L22.4095 35.7438L22.6146 35.5909L22.6178 35.5887L22.8226 35.4365L22.8257 35.4342L23.0307 35.2827L23.0343 35.2803L23.2386 35.1297L23.2423 35.1269L23.4467 34.9774L23.4504 34.9746L23.6545 34.8258L23.6583 34.8227L23.862 34.6752C23.8634 34.6742 23.8649 34.6729 23.8663 34.6719L24.0696 34.5254C24.0712 34.5242 24.0728 34.5229 24.0744 34.5218L24.277 34.3762C24.2787 34.375 24.2805 34.3739 24.2822 34.3728L24.4844 34.2285C24.4861 34.2272 24.4879 34.2259 24.4896 34.2247L24.6918 34.0815C24.6936 34.0803 24.6953 34.079 24.6971 34.0777L24.899 33.9355C24.9008 33.9342 24.9028 33.9329 24.9047 33.9316L25.1057 33.7909C25.1077 33.7895 25.1099 33.7881 25.1118 33.7867L25.3124 33.6474C25.3145 33.6459 25.3166 33.6443 25.3187 33.6428L25.5192 33.5049C25.5213 33.5035 25.5233 33.5019 25.5254 33.5004L25.7255 33.3638C25.7277 33.3623 25.7299 33.3606 25.7322 33.3591L25.9317 33.2242C25.9341 33.2225 25.9365 33.2208 25.9389 33.2192L26.1376 33.0855C26.1401 33.0838 26.1428 33.082 26.1453 33.0803L26.3434 32.9483C26.346 32.9465 26.3489 32.9449 26.3515 32.9432L26.5491 32.8128C26.5518 32.811 26.5546 32.8089 26.5573 32.8071L26.7547 32.6784C26.7575 32.6766 26.7602 32.6746 26.763 32.6728L26.9598 32.5457C26.9628 32.5438 26.9656 32.5417 26.9686 32.5398L27.1649 32.4145C27.1679 32.4125 27.1709 32.4106 27.1739 32.4087L27.3697 32.285C27.3729 32.283 27.3761 32.281 27.3792 32.279L27.5741 32.1568C27.5774 32.1547 27.5808 32.1527 27.5841 32.1506L27.7786 32.0305C27.7821 32.0284 27.7854 32.0261 27.7888 32.024L27.9827 31.9059C27.9862 31.9038 27.9896 31.9016 27.9931 31.8995L28.1865 31.7831C28.1902 31.7808 28.1941 31.7788 28.1978 31.7766L28.39 31.6623C28.3939 31.66 28.398 31.6575 28.4019 31.6553L28.5934 31.543C28.5974 31.5406 28.6017 31.5384 28.6057 31.5361L28.7966 31.4258C28.8008 31.4233 28.8052 31.4207 28.8094 31.4183L29 31.3101C29.0043 31.3077 29.0088 31.3052 29.0132 31.3028L29.2026 31.1968C29.2071 31.1942 29.2117 31.1917 29.2163 31.1892L29.4054 31.0853C29.4101 31.0827 29.4149 31.0801 29.4195 31.0775L29.6075 30.9758C29.6125 30.9732 29.6176 30.9706 29.6225 30.968L29.8098 30.8686C29.8148 30.8659 29.8201 30.8632 29.8252 30.8605L30.0117 30.7634C30.017 30.7607 30.0226 30.758 30.0279 30.7553L30.2137 30.6602C30.2192 30.6574 30.2248 30.6549 30.2303 30.6521L30.4154 30.5593C30.4211 30.5565 30.4268 30.5536 30.4326 30.5508L30.6171 30.4607C30.6229 30.4579 30.6288 30.4551 30.6346 30.4523L30.8184 30.3645C30.8245 30.3616 30.8307 30.3586 30.8369 30.3557L31.0197 30.2706C31.0261 30.2676 31.0323 30.2644 31.0387 30.2615L31.2208 30.1787C31.2274 30.1757 31.2343 30.1726 31.2409 30.1697L31.4218 30.0894C31.4286 30.0864 31.4354 30.0834 31.4423 30.0805L31.6227 30.0027C31.6299 29.9996 31.637 29.9963 31.6442 29.9933L31.8236 29.9185C31.831 29.9153 31.8384 29.912 31.8459 29.909L32.0246 29.8365C32.0322 29.8334 32.0399 29.8303 32.0476 29.8272L32.2254 29.7574C32.2333 29.7542 32.2412 29.7511 32.2492 29.7481L32.4261 29.6808C32.4344 29.6776 32.4429 29.6743 32.4512 29.6712L32.6268 29.6068C32.6353 29.6036 32.644 29.6005 32.6526 29.5974L32.8278 29.5355C32.8366 29.5323 32.8455 29.529 32.8544 29.526L33.0286 29.467C33.0378 29.4639 33.047 29.4609 33.0563 29.4579L33.2292 29.4014C33.2388 29.3983 33.2486 29.395 33.2582 29.392L33.4302 29.3385C33.4401 29.3354 33.45 29.3323 33.4599 29.3294L33.6313 29.2786C33.6416 29.2756 33.6519 29.2727 33.6622 29.2698L33.8327 29.2217C33.8432 29.2187 33.8537 29.2156 33.8643 29.2128L34.0338 29.168C34.0448 29.1651 34.0559 29.162 34.067 29.1593L34.2352 29.117C34.2465 29.1141 34.258 29.1113 34.2694 29.1086L34.437 29.0694C34.4487 29.0667 34.4606 29.064 34.4723 29.0614L34.6385 29.0251C34.6506 29.0224 34.6628 29.0198 34.6749 29.0174L34.8406 28.9838C34.8531 28.9813 34.8656 28.9788 34.8781 28.9765L35.0427 28.9462C35.0556 28.9438 35.0686 28.9416 35.0816 28.9394L35.245 28.9116C35.2583 28.9094 35.2719 28.9076 35.2852 28.9056L35.4476 28.8808C35.4613 28.8788 35.4751 28.877 35.4889 28.8752L35.6502 28.8537C35.6642 28.8518 35.6785 28.85 35.6926 28.8484L35.8532 28.83C35.8677 28.8283 35.8823 28.8269 35.8969 28.8255L36.0562 28.81C36.071 28.8085 36.086 28.8073 36.1009 28.8061L36.2595 28.7937C36.2748 28.7925 36.2902 28.7916 36.3055 28.7907L36.4627 28.7814C36.4784 28.7805 36.4943 28.7799 36.5101 28.7792L36.6662 28.773C36.6823 28.7723 36.6985 28.7718 36.7145 28.7714L36.87 28.7686C36.8864 28.7683 36.9028 28.7681 36.9191 28.7681L37.0736 28.7682C37.0903 28.7682 37.1069 28.7684 37.1236 28.7687L37.277 28.7722C37.2941 28.7725 37.3111 28.7731 37.3282 28.7738L37.4802 28.7801C37.4976 28.7808 37.5153 28.7818 37.5327 28.7829L37.6836 28.7925C37.7012 28.7936 37.7189 28.7947 37.7365 28.7962L37.8868 28.8088C37.9046 28.8103 37.9225 28.8123 37.9404 28.8142L38.0892 28.83C38.1073 28.832 38.1255 28.8341 38.1436 28.8364L38.2918 28.8554C38.3101 28.8577 38.3284 28.8602 38.3466 28.863L38.4932 28.8854C38.5117 28.8882 38.5304 28.8912 38.5488 28.8944L38.6944 28.9198C38.713 28.9231 38.7317 28.9267 38.7502 28.9304L38.8953 28.9589C38.9139 28.9626 38.9326 28.9664 38.9511 28.9705L39.0945 29.0026C39.1132 29.0067 39.1322 29.0109 39.1508 29.0154L39.2932 29.0504C39.3119 29.055 39.3307 29.06 39.3493 29.0651L39.4911 29.1032C39.5097 29.1082 39.5282 29.1137 39.5467 29.1191L39.6874 29.1605C39.706 29.166 39.7246 29.1717 39.743 29.1776L39.8823 29.2222C39.9007 29.2281 39.9192 29.2342 39.9375 29.2406L40.076 29.2886C40.0943 29.2949 40.1126 29.3015 40.1308 29.3083L40.2682 29.3596C40.2862 29.3663 40.3043 29.373 40.3222 29.3802L40.4586 29.4348C40.4764 29.4419 40.4942 29.4491 40.5118 29.4566L40.6471 29.5141C40.6647 29.5216 40.6821 29.5296 40.6995 29.5375L40.8338 29.598C40.8512 29.6058 40.8684 29.614 40.8855 29.6222L41.0186 29.6864C41.0356 29.6945 41.0525 29.7028 41.0693 29.7113L41.2014 29.7785C41.218 29.7869 41.2344 29.7957 41.2508 29.8045L41.382 29.8746C41.3982 29.8833 41.4144 29.8923 41.4304 29.9014L41.56 29.975C41.5758 29.984 41.5917 29.9932 41.6073 30.0026L41.7363 30.0793C41.7517 30.0885 41.7672 30.0976 41.7824 30.1071L41.9098 30.187C41.9249 30.1964 41.94 30.2062 41.9548 30.2159L42.0813 30.2988C42.0958 30.3084 42.1102 30.3181 42.1245 30.3279L42.2503 30.4142C42.2643 30.4239 42.2784 30.4337 42.2922 30.4436L42.4166 30.5328C42.4303 30.5425 42.4439 30.5524 42.4573 30.5625L42.581 30.655C42.5941 30.6649 42.6071 30.6748 42.62 30.6849L42.7427 30.7805C42.7553 30.7903 42.7676 30.8005 42.78 30.8105L42.9016 30.9094C42.9138 30.9193 42.9258 30.9293 42.9378 30.9394L43.0583 31.0412C43.0701 31.0512 43.0818 31.0611 43.0934 31.0713L43.2125 31.1763C43.2237 31.1861 43.2349 31.1961 43.2459 31.2061L43.3644 31.3142C43.3752 31.3241 43.3861 31.334 43.3967 31.3441L43.5138 31.455C43.5241 31.4648 43.5344 31.4747 43.5445 31.4847L43.661 31.5987C43.6709 31.6084 43.681 31.6182 43.6907 31.6281L43.8057 31.7453C43.8152 31.7549 43.8247 31.7644 43.8339 31.7741L43.9484 31.8944C43.9574 31.904 43.9665 31.9136 43.9754 31.9233L44.0886 32.0461C44.0972 32.0555 44.106 32.065 44.1145 32.0746L44.2266 32.2007C44.2348 32.21 44.243 32.2193 44.2511 32.2287L44.3627 32.3576C44.3705 32.3667 44.3784 32.376 44.3861 32.3852L44.4963 32.517C44.5038 32.5259 44.5113 32.5352 44.5187 32.5442L44.6283 32.6791C44.6354 32.6879 44.6425 32.697 44.6495 32.706L44.7579 32.8434C44.7647 32.852 44.7715 32.8609 44.7782 32.8696L44.8858 33.0104C44.8923 33.0188 44.8988 33.0274 44.9052 33.0359L45.0115 33.1792C45.0177 33.1875 45.0238 33.196 45.0298 33.2044L45.1356 33.3505C45.1415 33.3586 45.1474 33.3672 45.1532 33.3754L45.2577 33.5243C45.2633 33.5323 45.2689 33.5402 45.2744 33.5482L45.3784 33.6999C45.3837 33.7077 45.3888 33.7156 45.394 33.7235L45.497 33.8781C45.502 33.8857 45.5071 33.8935 45.512 33.9011L45.6138 34.058C45.6187 34.0654 45.6234 34.0732 45.6282 34.0807L45.729 34.2406C45.7336 34.2478 45.7383 34.2551 45.7428 34.2624L45.8432 34.425C45.8475 34.432 45.8518 34.4391 45.856 34.4461L45.9551 34.6113C45.9592 34.6181 45.9635 34.6254 45.9676 34.6323L46.0659 34.7997C46.0699 34.8064 46.0739 34.8134 46.0778 34.8202L46.1751 34.9906C46.1789 34.9971 46.1829 35.0036 46.1865 35.0101L46.2831 35.1829C46.2867 35.1892 46.2903 35.1958 46.2938 35.2022L46.3894 35.3775C46.3928 35.3837 46.3962 35.3901 46.3995 35.3963L46.4948 35.5741C46.498 35.5801 46.5011 35.5862 46.5042 35.5923L46.5983 35.7726C46.6013 35.7784 46.6046 35.7841 46.6076 35.79L46.7007 35.9729C46.7036 35.9785 46.7066 35.9841 46.7095 35.9898L46.8022 36.1751C46.8049 36.1806 46.808 36.186 46.8107 36.1915L46.9023 36.3791C46.9049 36.3844 46.9074 36.3899 46.91 36.3952L47.0013 36.5849C47.0038 36.5901 47.006 36.5953 47.0085 36.6005L47.099 36.7925C47.1014 36.7975 47.1036 36.8026 47.1059 36.8076L47.1957 37.0019C47.1979 37.0068 47.2001 37.0117 47.2023 37.0166L47.2913 37.2132C47.2934 37.2179 47.2956 37.2227 47.2977 37.2274L47.3857 37.4259C47.3877 37.4305 47.3897 37.4354 47.3917 37.44L47.4794 37.6406C47.4813 37.6449 47.4831 37.6494 47.4849 37.6538L47.5718 37.8567C47.5737 37.861 47.5752 37.8654 47.577 37.8698L47.6633 38.0746C47.665 38.0787 47.6666 38.0828 47.6683 38.0869L47.7538 38.2941C47.7554 38.2981 47.7573 38.3021 47.7589 38.3061L47.8434 38.5151C47.845 38.519 47.8468 38.5228 47.8483 38.5267L47.9322 38.7373C47.9337 38.7411 47.9353 38.745 47.9368 38.7488L48.0204 38.9615C48.0218 38.9652 48.0233 38.9689 48.0247 38.9725L48.1072 39.1871C48.1086 39.1906 48.11 39.1942 48.1113 39.1977L48.1937 39.4141C48.195 39.4174 48.1962 39.4208 48.1975 39.4242L48.279 39.6421C48.2802 39.6454 48.2816 39.6489 48.2828 39.6522L48.3637 39.8718C48.3649 39.8749 48.3661 39.8782 48.3673 39.8814L48.448 40.1027C48.4491 40.1058 48.4501 40.1092 48.4512 40.1122L48.531 40.3351C48.5321 40.338 48.5331 40.341 48.5341 40.3439L48.6137 40.5685C48.6147 40.5713 48.6155 40.5743 48.6165 40.5771L48.6955 40.8035C48.6965 40.8062 48.6974 40.809 48.6983 40.8117L48.7766 41.0392C48.7775 41.0419 48.7787 41.0446 48.7796 41.0472L48.8573 41.2764C48.8581 41.2788 48.8591 41.2814 48.86 41.2839L48.9373 41.5143C48.9381 41.5168 48.9392 41.5194 48.94 41.5218L49.0168 41.7537C49.0176 41.756 49.0185 41.7584 49.0192 41.7607L49.0957 41.9938C49.0964 41.996 49.0971 41.9983 49.0978 42.0004L49.1741 42.2353C49.1747 42.2374 49.1753 42.2394 49.176 42.2415L49.2519 42.4774C49.2525 42.4793 49.2528 42.4814 49.2535 42.4834L49.329 42.7203C49.3296 42.7221 49.3301 42.7241 49.3307 42.726L49.4058 42.9642C49.4064 42.966 49.407 42.9681 49.4075 42.9699L49.4819 43.2089C49.4825 43.2107 49.4832 43.2126 49.4837 43.2143L49.5579 43.4544L49.5594 43.4593L49.6335 43.7005L49.6347 43.7053L49.7085 43.9474L49.7098 43.9519L49.7829 44.1949L49.7843 44.1991L49.8571 44.4431L49.8583 44.4468L49.9312 44.6916L49.9324 44.6953L50.0047 44.9406L50.0056 44.9439L50.078 45.1903L50.0789 45.1936L50.1508 45.4402L50.1518 45.4432L50.2235 45.6905L50.2242 45.6933L50.2961 45.941L50.2969 45.9435L50.3681 46.1922L50.369 46.1943L50.4401 46.4433L50.4408 46.4449L50.5122 46.6944L50.5124 46.6959L50.5837 46.9457L50.584 46.9473L50.6548 47.1972L50.6552 47.1985L50.7262 47.448C50.7263 47.4484 50.7263 47.4487 50.7263 47.4491C50.7264 47.4495 50.7264 47.4498 50.7265 47.4502L50.7974 47.7001L50.7975 47.7009L50.8681 47.9515L50.9393 48.2027L51.0098 48.4536L51.2924 49.4541L51.434 49.9529L51.575 50.4475L51.7165 50.9405L51.8594 51.4331L52.0008 51.9168L52.0722 52.1589L52.1439 52.3993L52.217 52.6434L52.3599 53.1156L52.4337 53.3566L52.5065 53.5922L52.5795 53.826L52.6528 54.0589L52.7243 54.2841L52.7979 54.5137L52.8742 54.7483L52.9463 54.9682L53.0208 55.1927L53.0985 55.4233L53.171 55.6371L53.2467 55.8568L53.3226 56.0747L53.3988 56.2906L53.4757 56.5044L53.5559 56.726L53.6336 56.9364L53.7078 57.1343L53.7857 57.3401L53.8688 57.5545L53.9434 57.7452L54.0229 57.9441L54.1024 58.1405L54.1825 58.3349L54.2688 58.5397L54.35 58.7297L54.4256 58.9031L54.5071 59.0877L54.5083 59.0899L54.5135 59.1019L54.5895 59.2692L54.6719 59.4486L54.7548 59.6252L54.838 59.7986L54.9217 59.9692L55.0058 60.1374L55.0991 60.32L55.1843 60.4826L55.2598 60.6241L55.3448 60.7801L55.4306 60.9335L55.5281 61.1035L55.6146 61.2513L55.6886 61.3746L55.789 61.5369L55.8764 61.675L55.9545 61.7956L56.045 61.9315L56.1229 62.0455L56.2157 62.178L56.3024 62.2979L56.3979 62.427L56.4809 62.5354L56.5742 62.6534L56.6546 62.7525L56.744 62.8597L56.8299 62.9591L56.9174 63.0573L57.0071 63.155L57.1004 63.2525L57.1743 63.3274L57.2643 63.4157L57.349 63.4961L57.4381 63.5775L57.5208 63.6498L57.6068 63.7225L57.6873 63.7882L57.7773 63.8586L57.8609 63.9209L57.9435 63.98L58.0244 64.036L58.1019 64.0868L58.1879 64.1407L58.2702 64.1898L58.3537 64.2371L58.4327 64.2795L58.5213 64.3245L58.5961 64.3604L58.685 64.4007L58.7576 64.4315L58.8422 64.4656L58.9364 64.5006L59.0118 64.5265L59.0873 64.5509L59.1838 64.5794L59.2719 64.6029L59.3488 64.6219L59.4441 64.643L59.5266 64.6595L59.6249 64.6765L59.7113 64.6895L59.8068 64.7019L59.903 64.712L60.0033 64.7204L60.0946 64.7259L60.194 64.7301L60.2956 64.7324L60.3998 64.7326L60.5153 64.7304L60.6129 64.7266L60.721 64.7201L60.841 64.7113L60.9534 64.7003L61.076 64.6861L61.2027 64.6692L61.2958 64.6551L61.4391 64.6314L61.5588 64.6092L61.6856 64.5836L61.8272 64.553L61.9615 64.5215L62.0837 64.4907L62.2323 64.4511L62.3636 64.4145L62.5157 64.369L62.6574 64.3249L62.8109 64.2744L62.9416 64.2299L63.0958 64.1757L63.2553 64.1165L63.4072 64.0586L63.5609 63.9979L63.694 63.9439L63.8521 63.8781L64.0115 63.8094L64.1925 63.7289L64.3355 63.6642L64.4996 63.5876L64.6831 63.4994L64.8496 63.4181L65.0175 63.3338L65.1868 63.2476L65.3578 63.1585L65.5296 63.0672L65.6893 62.9813L65.8644 62.8849L66.0539 62.7785L66.2187 62.6856L66.3977 62.5823L66.5893 62.4697L66.7701 62.3623L66.9412 62.2598L67.1349 62.1412L67.3088 62.0341L67.5036 61.9119L67.8678 61.6807L68.0561 61.5589L68.2533 61.4294L68.4428 61.3043L68.6332 61.1774L68.8247 61.0486L69.0171 60.9182L69.21 60.7863L69.4038 60.6527L69.5926 60.5223L69.7883 60.3857L69.9895 60.2433L70.1861 60.1037L70.3836 59.963L70.577 59.8245L70.7757 59.6813L70.9753 59.5365L71.3793 59.2407L71.5799 59.0929L71.7812 58.9439L71.9828 58.7943L72.1852 58.6435L72.591 58.3399L72.7947 58.1865L72.9969 58.0349L73.2028 57.8782L74.023 57.2564C74.6052 56.8116 75.432 56.8914 75.9184 57.4392L77.0519 58.7158C77.6024 59.3357 77.5098 60.2928 76.8508 60.7958L76.8271 60.8138L76.8256 60.8148L76.6191 60.972L76.6176 60.973L76.4112 61.1298L76.4097 61.1308L76.2031 61.2872L76.2014 61.2885L75.9949 61.4445L75.9932 61.4462L75.787 61.6013L75.7848 61.6031L75.579 61.758L75.5765 61.7597L75.371 61.9139L75.3683 61.9159L75.1627 62.0694L75.1599 62.0717L74.9544 62.2245L74.9517 62.2269L74.7465 62.379L74.7433 62.3813L74.5383 62.5327L74.5351 62.5353L74.3304 62.6858L74.3267 62.6886L74.1227 62.8382L74.1185 62.8412L73.9149 62.9898L73.9107 62.9928L73.7071 63.1403L73.7028 63.1436L73.4998 63.2902L73.495 63.2938L73.292 63.4393L73.2872 63.4428L73.0847 63.587L73.0794 63.5908L72.8776 63.7341C72.8758 63.7354 72.8738 63.7364 72.872 63.7377L72.6704 63.88C72.6686 63.8814 72.6666 63.8827 72.6647 63.884L72.4634 64.0246L72.4576 64.0289L72.2566 64.1681L72.2504 64.1726L72.0503 64.3107C72.0481 64.3122 72.0458 64.3135 72.0436 64.315L71.8439 64.4518C71.8417 64.4533 71.8391 64.4548 71.8368 64.4564L71.6377 64.5914L71.6305 64.5964L71.4314 64.73L71.4241 64.7352L71.2256 64.8672L71.2179 64.8723L71.0199 65.003L71.0118 65.008L70.8147 65.1371L70.8061 65.1427L70.6096 65.2698L70.6005 65.2756L70.4046 65.4011C70.4015 65.4031 70.3982 65.4048 70.3951 65.4068L70.1997 65.5306L69.995 65.6586L69.7908 65.785C69.7873 65.7872 69.7837 65.7893 69.7803 65.7914L69.5868 65.9097C69.5832 65.9118 69.5795 65.9138 69.5759 65.916L69.3716 66.039L69.1791 66.1532L69.1675 66.1603L68.9756 66.2725L68.9634 66.2794L68.7724 66.39C68.7682 66.3924 68.7639 66.3948 68.7597 66.3972L68.5696 66.5051L68.5563 66.5128L68.3665 66.6187L68.3528 66.6263L68.164 66.7303C68.1593 66.7329 68.1546 66.7355 68.1499 66.738L67.9615 66.8396L67.9469 66.8476L67.7593 66.9469L67.7439 66.9549L67.5415 67.0603L67.3553 67.1553L67.3391 67.1634L67.1537 67.2561L67.1366 67.2644L66.9523 67.3549C66.9464 67.3577 66.9404 67.3604 66.9344 67.3632L66.751 67.451L66.7322 67.4598L66.5497 67.545L66.5304 67.554L66.3486 67.6369C66.342 67.6399 66.3352 67.6426 66.3286 67.6456L66.1473 67.726L66.1268 67.735L65.9463 67.8128L65.9249 67.8222L65.7458 67.8971L65.7232 67.9065L65.5448 67.9791C65.5371 67.9822 65.5292 67.9852 65.5215 67.9882L65.3441 68.0582L65.3199 68.0674L65.1433 68.1348L65.1183 68.1441L64.9423 68.2087L64.9165 68.218L64.7417 68.2801C64.7328 68.2833 64.7236 68.2864 64.7147 68.2895L64.5408 68.3486L64.5131 68.3577L64.3398 68.414L64.3112 68.4236L64.1389 68.4769L64.1091 68.4861L63.9377 68.5368L63.9069 68.5457L63.7367 68.5939L63.7047 68.6027L63.5356 68.6476C63.5247 68.6505 63.5135 68.6536 63.5025 68.6563L63.3339 68.6985L63.1324 68.7462L63.0971 68.7542L62.9305 68.7904L62.8941 68.7981L62.7288 68.8318L62.6909 68.839L62.5267 68.8694C62.5138 68.8717 62.5007 68.874 62.4878 68.8762L62.3241 68.9038L62.2842 68.91L62.1215 68.9346L62.0805 68.9404L61.9189 68.9618L61.8765 68.9671L61.7159 68.9855L61.6725 68.9901L61.5129 69.0055L61.4682 69.0093L61.3095 69.0217L61.2639 69.0249L61.1063 69.034L61.0594 69.0363L60.9028 69.0425L60.8545 69.044L60.6994 69.047L60.6499 69.0474L60.4958 69.0474L60.4454 69.0467L60.2924 69.0434C60.2754 69.0431 60.2582 69.0425 60.2412 69.0418L60.0888 69.0354L60.0367 69.0327L59.8855 69.023L59.8325 69.0193L59.6827 69.0064C59.6649 69.0049 59.6469 69.0033 59.629 69.0014L59.4799 68.9854L59.4254 68.979L59.2776 68.9602L59.2224 68.9525L59.0758 68.93C59.0573 68.9272 59.0387 68.9242 59.0203 68.921L58.8746 68.8956C58.8561 68.8924 58.8376 68.8888 58.8192 68.8852L58.6741 68.8567L58.6183 68.845L58.4745 68.8129L58.4186 68.8001L58.2758 68.765L58.2198 68.7504L58.0784 68.7121C58.0597 68.707 58.0409 68.7018 58.0223 68.6963L57.882 68.655L57.8264 68.638L57.6867 68.5933L57.6315 68.5749Z" fill="#F56FFF"/>
<path d="M66.5235 70.5496L66.353 70.6165L66.3371 70.6228L66.321 70.629L66.2969 70.6382L66.1234 70.7044L66.1119 70.7089L66.1002 70.7131L66.0753 70.7223L66.0655 70.7261L65.8895 70.7906L65.8803 70.794L65.8545 70.8035L65.8456 70.8067L65.8365 70.8096L65.6618 70.8719L65.6588 70.8728C65.6351 70.8812 65.6141 70.8883 65.5997 70.8933L65.4261 70.9524L65.3987 70.9616L65.3709 70.9707L65.367 70.9718L65.3633 70.9732L65.1783 71.0334L65.1516 71.0423L65.1248 71.0507L64.9523 71.104L64.9505 71.1044L64.9487 71.1052L64.9189 71.1144L64.9042 71.1189L64.8892 71.1234L64.7179 71.1741L64.7057 71.1776L64.6934 71.1813L64.6627 71.1899L64.6594 71.191L64.6562 71.1918L64.4862 71.24L64.4642 71.2462L64.4215 71.2578L64.4105 71.2609L64.2414 71.3056L64.2398 71.3062C64.2374 71.3068 64.2323 71.3082 64.2268 71.3097C64.2158 71.3126 64.1954 71.3179 64.1711 71.324L64.1693 71.3245L64.0008 71.3667L63.984 71.3708L63.967 71.3749L63.7657 71.4226L63.754 71.4252L63.7421 71.4279L63.7068 71.4359L63.6939 71.4388L63.6808 71.4418L63.5143 71.4779L63.5061 71.4798L63.4977 71.4816L63.4613 71.4891L63.4522 71.4912L63.443 71.493L63.2775 71.5268L63.2602 71.5302L63.2427 71.5335L63.2046 71.5408L63.1978 71.542L63.1908 71.5434L63.0277 71.5735C62.9953 71.5795 62.9663 71.5845 62.9438 71.5883L62.7812 71.6158L62.7624 71.619L62.7433 71.6221L62.7032 71.6281L62.6996 71.6285L62.6959 71.6292L62.5198 71.656L62.5065 71.6578L62.4655 71.6635L62.4531 71.6653L62.4404 71.667L62.2788 71.6883L62.2698 71.6896L62.261 71.6908L62.2186 71.696L62.1888 71.6996L62.0282 71.718L62.0075 71.7203L61.9642 71.7247L61.9502 71.7263L61.9363 71.7276L61.7767 71.7431L61.7619 71.7444L61.7469 71.7459L61.6829 71.7512L61.5243 71.7636L61.5109 71.7648L61.4977 71.7655L61.452 71.7686L61.4373 71.7697L61.4228 71.7705L61.2652 71.7797L61.2537 71.7804L61.2419 71.7808L61.181 71.784L61.1671 71.7845L61.0106 71.7905L60.9888 71.7914L60.9406 71.7928L60.9239 71.7935L60.7519 71.7968L60.7361 71.7972L60.6708 71.7975L60.4955 71.7976L60.478 71.7977L60.4606 71.7973L60.4101 71.7966H60.398L60.386 71.7964L60.234 71.7929C60.1938 71.7921 60.1569 71.791 60.1256 71.7897L59.9473 71.782L59.8954 71.7793L59.8779 71.7783L59.8607 71.7774L59.7094 71.7677L59.7015 71.7672L59.6937 71.7665L59.6407 71.7629L59.6189 71.7613L59.5968 71.7596L59.4472 71.7466C59.4194 71.7443 59.381 71.7408 59.3374 71.7362L59.3361 71.736L59.187 71.72L59.1729 71.7186L59.1587 71.7168L59.1042 71.7105L59.0912 71.7089L59.078 71.7072L58.9301 71.6883L58.9125 71.6862L58.895 71.6837L58.8399 71.6761L58.8229 71.6736L58.806 71.671L58.6595 71.6486C58.6296 71.644 58.5907 71.6379 58.5473 71.6303L58.4019 71.6047C58.3569 71.5969 58.3173 71.5894 58.2884 71.5836L58.1434 71.5553L58.1279 71.5523L58.0374 71.5334L58.0181 71.5292L57.8744 71.4969L57.8683 71.4957L57.8623 71.4942L57.8065 71.4815L57.7617 71.4709L57.619 71.4358L57.5996 71.4309L57.5805 71.4259L57.5244 71.4113L57.5123 71.408L57.5004 71.4049L57.3608 71.367C57.3311 71.3589 57.2901 71.3478 57.2436 71.3341L57.1059 71.2936L57.075 71.2844L57.0193 71.2672L57.0036 71.2625L56.9878 71.2572L56.8482 71.2126L56.8326 71.2077L56.7465 71.179L56.7311 71.1735L56.5926 71.1255L56.5768 71.1202L56.5612 71.1145L56.5065 71.0949L56.4761 71.0837L56.3419 71.0333C56.2965 71.0164 56.2566 71.0011 56.2281 70.9897L56.0939 70.9361L56.0922 70.9356C56.0737 70.9282 56.0294 70.9106 55.9798 70.8895L55.8451 70.8319L55.8249 70.8236L55.8048 70.8144L55.7521 70.7912L55.7395 70.7854L55.6049 70.7249L55.5869 70.7167L55.5174 70.6841L55.5027 70.6774L55.3555 70.6062C55.3333 70.5955 55.2956 70.5773 55.2527 70.5555L55.1211 70.4884C55.082 70.4685 55.0473 70.4499 55.0207 70.4356L54.8895 70.3657L54.8744 70.3577L54.8593 70.3494L54.8107 70.3224L54.7951 70.314L54.7798 70.3051L54.6542 70.2336C54.6199 70.2142 54.5863 70.1948 54.5544 70.1758L54.4254 70.0992C54.3861 70.0757 54.3524 70.0547 54.329 70.04L54.205 69.9629L54.1859 69.9508L54.1666 69.9385L54.1222 69.9097L54.1155 69.9056L54.1089 69.9012L53.9818 69.8181L53.9532 69.7989L53.9098 69.7699L53.8984 69.762L53.8867 69.7541L53.7633 69.669C53.7372 69.6511 53.7068 69.6303 53.6743 69.607L53.552 69.5193L53.5413 69.5117L53.5307 69.5039L53.4899 69.4741L53.4758 69.464L53.4618 69.4534L53.3405 69.362C53.3101 69.3393 53.2827 69.3183 53.2597 69.3003L53.1367 69.2049L53.1226 69.194L53.1086 69.1826L53.0709 69.1525L53.0615 69.1451L53.0522 69.1374L52.9309 69.0387L52.8557 68.9766C52.8555 68.9765 52.8554 68.9763 52.8553 68.9761C52.8552 68.9758 52.855 68.9757 52.8549 68.9755L52.7348 68.8742L52.6609 68.8104L52.6594 68.8091L52.5399 68.7041L52.5327 68.6976L52.5251 68.6911L52.4917 68.6613L52.4797 68.6503L52.4676 68.6396L52.3495 68.5314C52.3373 68.5203 52.312 68.4972 52.2836 68.4704L52.1659 68.3592L52.1442 68.3385L52.1136 68.3089L52.1061 68.3015L52.0988 68.2942L51.983 68.1807C51.9811 68.1788 51.9805 68.1785 51.9765 68.1745C51.9734 68.1715 51.9688 68.1669 51.9637 68.1619L51.9194 68.1177L51.918 68.1162L51.8027 67.9987L51.7998 67.9959L51.7972 67.9934L51.769 67.9646L51.7402 67.9345L51.6291 67.8174L51.5736 67.7582L51.4599 67.6352L51.4495 67.6242L51.4396 67.6128L51.414 67.5845L51.4075 67.5773L51.4009 67.5702L51.2886 67.4438L51.2813 67.4357L51.2741 67.4274L51.2494 67.3995L51.244 67.3931L51.2384 67.3866L51.1268 67.2578L51.1183 67.2477L51.1096 67.2375L51.0862 67.21L51.0782 67.2006L51.0705 67.1913L50.9639 67.0631C50.963 67.062 50.9592 67.0577 50.9558 67.0536L50.9148 67.0044L50.914 67.0033L50.8048 66.8685L50.7943 66.8556L50.6539 66.6781L50.6458 66.6678L50.6175 66.6314L50.6105 66.6223L50.6038 66.6134L50.4989 66.476L50.351 66.2781L50.3417 66.2656L50.3328 66.2529L50.3144 66.2279L50.3122 66.2248L50.2064 66.0787L50.19 66.056L50.1738 66.0328L50.1669 66.0227L50.0621 65.8737L50.0597 65.8702L50.0573 65.867L50.0407 65.8431L50.0244 65.8194L49.9207 65.6678L49.8859 65.6161L49.884 65.6135L49.7814 65.4588L49.771 65.443L49.7558 65.4201L49.7531 65.416L49.7507 65.4119L49.6484 65.2546L49.639 65.2399L49.6297 65.225L49.6175 65.2058L49.5024 65.0237L49.4931 65.0094L49.4841 64.9945L49.384 64.832L49.38 64.8255L49.376 64.8188L49.3631 64.7978L49.3602 64.7928L49.3572 64.788L49.2578 64.6228L49.2463 64.6039L49.2354 64.5849L49.2304 64.5762L49.1317 64.4082L49.1142 64.3782L49.1053 64.3628L49.0077 64.1922L49.0048 64.1872L49.0021 64.1823L48.991 64.163L48.9826 64.1477L48.8856 63.9747L48.8789 63.9622L48.8683 63.9433L48.8632 63.9341L48.7672 63.7587L48.7616 63.7487L48.7564 63.7386L48.7464 63.7199L48.7451 63.7176L48.7439 63.7153L48.6491 63.5379C48.6379 63.5169 48.6291 63.4996 48.6263 63.4941C48.6255 63.4926 48.6242 63.4905 48.6242 63.4905L48.6239 63.4899L48.534 63.3181L48.5294 63.309L48.5204 63.2917L48.5167 63.2843L48.5127 63.2768L48.4001 63.0565L48.2974 62.851L48.2934 62.8427L48.2891 62.8345L48.1973 62.6468L48.1923 62.6365L48.1873 62.6265L48.0889 62.4211L48.0877 62.4183C48.0869 62.4168 48.0856 62.4143 48.0843 62.4115C48.0818 62.4064 48.078 62.3982 48.0733 62.3885L47.9827 62.1962L47.9751 62.1802L47.9676 62.1637L47.9651 62.1583L47.8884 61.9915C47.8867 61.9881 47.8848 61.9838 47.8827 61.9793C47.8776 61.9686 47.8701 61.9523 47.8611 61.9325L47.8601 61.93L47.7724 61.7361L47.758 61.704L47.6706 61.5075L47.6628 61.4898L47.6552 61.4722L47.6491 61.458L47.5777 61.2938C47.5768 61.2918 47.5741 61.2854 47.5706 61.2777L47.5558 61.2439L47.5537 61.2389L47.474 61.0516L47.4648 61.0308L47.4561 61.0098L47.3701 60.8051C47.3658 60.7948 47.3618 60.7847 47.3599 60.7801L47.2741 60.5731L47.2667 60.555L47.1772 60.3341L47.1745 60.3277L47.1721 60.3213L47.0785 60.0876L47.075 60.0787L46.9899 59.8608L46.9894 59.8598L46.9885 59.8576C46.9872 59.8544 46.9838 59.8458 46.9798 59.8353L46.9794 59.8341L46.8924 59.6089L46.8863 59.5933L46.8005 59.3669L46.7988 59.3625L46.7973 59.358L46.7032 59.1075L46.6977 59.0916L46.6227 58.8887L46.6194 58.88L46.6161 58.8712L46.5358 58.6495L46.5348 58.6467L46.5314 58.6375L46.5304 58.6342L46.4502 58.4112L46.4467 58.4017L46.4434 58.3922L46.4417 58.3874L46.363 58.1643L46.3564 58.146L46.2576 57.8632L46.2531 57.8484L46.1933 57.6746L46.1924 57.6724C46.1902 57.6662 46.1883 57.6604 46.1865 57.6551C46.1854 57.6518 46.1844 57.6486 46.1835 57.6457L46.1785 57.6308C46.1769 57.6261 46.1756 57.6221 46.1747 57.6193C46.1739 57.6167 46.173 57.6139 46.173 57.6139C46.1727 57.6128 46.1733 57.6148 46.1733 57.6148C46.1737 57.616 46.1744 57.6187 46.1755 57.622C46.1771 57.627 46.18 57.6353 46.1835 57.6457L46.1193 57.4572L46.1103 57.4318L46.1018 57.4063L46.0252 57.1783L46.0201 57.1629L45.9296 56.8909L45.9247 56.8747L45.8622 56.6846L45.8598 56.6779L45.8573 56.6695L45.8544 56.661L45.7945 56.4752L45.7912 56.4666L45.6994 56.1804L45.6939 56.163L45.6112 55.9033L45.6103 55.9003L45.5404 55.6772L45.5372 55.6667L45.4624 55.4277L45.4478 55.3808L45.4459 55.3737L45.386 55.1804L45.3825 55.1698L45.3793 55.1593L45.3271 54.9875L45.3235 54.9774L45.3028 54.909L45.2293 54.667L45.2245 54.6514L45.22 54.6358L45.1535 54.4164L45.1385 54.3661L45.1364 54.3578L45.0874 54.1943L45.0743 54.1511L44.9012 53.5672L44.9 53.5617L44.81 53.2559L44.8094 53.2528L44.7593 53.0813L44.7575 53.0737L44.6859 52.8283L44.6848 52.8236L44.5908 52.4997L44.5898 52.4946L44.5581 52.3843L44.557 52.3804L44.5162 52.2382L44.5151 52.2351L44.4445 51.9876L44.4429 51.9833L44.3023 51.4881L44.3019 51.4861L44.2818 51.4152L44.2783 51.4038L44.268 51.367L44.2016 51.1324L44.1963 51.1137L44.1412 50.919C44.141 50.9184 44.1408 50.9178 44.1406 50.9173C44.1403 50.9168 44.1401 50.9162 44.1399 50.9156L43.8427 49.8604L43.4192 48.3657L43.2093 47.6342L43.0706 47.1556L43.001 46.9164L42.9309 46.6777L42.862 46.4445L42.7201 45.9693L42.6512 45.7399L42.5787 45.5022L42.4385 45.0452L42.368 44.82L42.2966 44.5933L42.2234 44.3624L42.0811 43.9216L42.0104 43.7067L41.9415 43.4991L41.8665 43.2762L41.797 43.0713L41.7267 42.8665L41.6474 42.64L41.5812 42.4522L41.5065 42.2434L41.4351 42.0468L41.3661 41.8591L41.2861 41.6462L41.2174 41.465L41.1451 41.2773L41.068 41.081L40.9928 40.8931L40.9229 40.7204L40.8525 40.549L40.7772 40.3697L40.7029 40.1962L40.6229 40.0123L40.5476 39.8422L40.4774 39.687L40.3991 39.5175L40.3266 39.3631L40.2536 39.2115L40.1859 39.0733L40.1062 38.913L40.0362 38.7768L39.9536 38.6187L39.8764 38.4741L39.8242 38.3783L39.7449 38.2362L39.6694 38.1043L39.5886 37.9666L39.5295 37.8682L39.4573 37.7514L39.381 37.6302L39.3253 37.5443L39.2526 37.4346L39.1822 37.3313L39.1022 37.2179L39.0516 37.1474L38.9797 37.0506L38.9232 36.9768L38.8473 36.8801L38.7892 36.8087L38.7272 36.7344L38.6716 36.6705L38.6058 36.5969L38.5538 36.5404L38.5031 36.4869L38.443 36.4262L38.3913 36.3752L38.3634 36.3489L38.2925 36.2841L38.2476 36.2448L38.2052 36.2089L38.1693 36.1797L38.125 36.1452L38.0884 36.1176L38.0483 36.0889L38.019 36.0686L37.9712 36.0373L37.9485 36.023L37.9178 36.005L37.8836 35.9855L37.858 35.9716L37.8343 35.9596L37.8091 35.9477L37.7777 35.9335L37.7615 35.9265L37.736 35.9164L37.7044 35.9045L37.6882 35.8988L37.6719 35.8936L37.6422 35.8848L37.608 35.8758L37.5888 35.8711L37.5569 35.8642L37.5402 35.8608L37.5017 35.8542L37.4768 35.8505L37.447 35.8467L37.4044 35.842L37.3748 35.8394L37.3336 35.837L37.2918 35.8352L37.2327 35.8338L37.1974 35.8339L37.131 35.835L37.0872 35.8368L37.0283 35.8404L36.9556 35.8458L36.8918 35.8523L36.8329 35.8591L36.7493 35.8706L36.6664 35.8831L36.6121 35.8922L36.5222 35.9089L36.4266 35.9288L36.346 35.9464L36.2469 35.9697L36.161 35.9913L36.0565 36.0192L35.9747 36.0421L35.8739 36.0721L35.755 36.1093L35.6294 36.1497L35.515 36.1889L35.3841 36.2354L35.2947 36.2684L35.1836 36.3112L35.0104 36.3788L34.9055 36.4217L34.7701 36.4788L34.6594 36.5268L34.5124 36.5918L34.3745 36.6545L34.2436 36.7157L34.0829 36.7927L33.9494 36.8576L33.7811 36.9417L33.6305 37.0185L33.4986 37.0875L33.3296 37.177L33.2043 37.245L33.0155 37.3486L32.871 37.4296L32.7108 37.5204L32.5355 37.6219L32.3699 37.719L32.2039 37.8176L32.0343 37.9196L31.8795 38.0144L31.7044 38.1224L31.5344 38.2288L31.3486 38.3464L31.1762 38.4569L30.9988 38.5719L30.8203 38.6884L30.6383 38.8081L30.4759 38.9168L30.2769 39.0505L30.1031 39.1684L29.9188 39.2943L29.7249 39.4278L29.5457 39.5525L29.358 39.6838L29.1741 39.8133L28.9818 39.9493L28.5875 40.2314L28.4049 40.3636L28.2058 40.508L28.016 40.6464L27.8156 40.7931L27.6223 40.9355L27.2293 41.2264L27.0303 41.3746L26.6333 41.672L26.4269 41.827L26.2303 41.9755L25.6162 42.4405L25.4152 42.5932L23.4112 44.1225C22.8178 44.5754 21.9755 44.4939 21.48 43.9356L16.7019 38.5529C16.1516 37.9331 16.2441 36.9763 16.9029 36.4733L18.5878 35.1869C18.5884 35.1864 18.589 35.1858 18.5894 35.1852C18.5898 35.1845 18.5903 35.1839 18.5909 35.1834L18.9673 34.8972L18.9684 34.8962L19.0804 34.8111L19.1737 34.7406C19.1747 34.7398 19.1756 34.739 19.1764 34.7381C19.1772 34.7372 19.1781 34.7364 19.1791 34.7357L19.4969 34.4949L19.5427 34.46L19.7036 34.3381L19.7094 34.3336L19.9161 34.1777L19.9407 34.1589L20.0709 34.0611L20.0786 34.0547L20.2842 33.9006L20.2873 33.8978L20.3445 33.8549L20.538 33.7102L20.5417 33.7071L20.5521 33.6995L20.8423 33.4822L20.847 33.4794L20.9708 33.387L20.9903 33.3722L21.0001 33.3655L21.1822 33.2299L21.2016 33.2154L21.2062 33.2121L21.3964 33.0716L21.4369 33.0417L21.4438 33.037L21.5976 32.9236L21.603 32.9194L21.823 32.7585L21.8302 32.7531L21.9747 32.6478L21.9807 32.6428L22.2356 32.4585C22.2426 32.4533 22.2498 32.4476 22.2577 32.4419C22.2579 32.4417 22.2581 32.4416 22.2583 32.4415C22.2585 32.4414 22.2587 32.4413 22.2589 32.4411L22.4619 32.2948C22.4643 32.293 22.467 32.2914 22.4696 32.2895L22.6721 32.1438L22.6747 32.1417L22.6774 32.1399C22.6798 32.1382 22.6824 32.1369 22.6846 32.1353L22.8867 31.9908L22.8888 31.9893C22.8908 31.9879 22.8931 31.9861 22.8956 31.9843L22.8981 31.9827L22.9002 31.981L23.1027 31.8379L23.085 31.8504C23.0862 31.8495 23.0877 31.8484 23.0893 31.8472C23.0946 31.8434 23.1028 31.8375 23.1128 31.8305C23.1129 31.8304 23.1131 31.8302 23.1132 31.8301C23.1133 31.83 23.1135 31.8298 23.1136 31.8297L23.3155 31.6878C23.3194 31.685 23.323 31.6825 23.3256 31.6807C23.3261 31.6803 23.3267 31.6799 23.3274 31.6796C23.328 31.6793 23.3287 31.6789 23.3293 31.6785L23.5286 31.5386C23.5335 31.5351 23.5384 31.5323 23.5428 31.5293L23.7432 31.3896L23.7457 31.388C23.7499 31.385 23.7544 31.3817 23.7591 31.3784L23.7601 31.3779L23.9605 31.2399C23.9651 31.2368 23.9699 31.2337 23.9748 31.2303L24.1539 31.1078C24.1621 31.1021 24.1744 31.0934 24.1896 31.0831L24.1913 31.082L24.3765 30.9566L24.3772 30.9563C24.3772 30.9563 24.3814 30.9535 24.3852 30.9509C24.3892 30.9481 24.3953 30.9438 24.4027 30.9389L24.4033 30.9386L24.6019 30.8047C24.6101 30.7992 24.6176 30.7943 24.6195 30.7931L24.818 30.6609L24.8199 30.6593C24.8317 30.6514 24.8428 30.6444 24.8526 30.6381L25.0281 30.5222C25.0358 30.5171 25.0441 30.5114 25.0531 30.5055L25.0555 30.5039L25.2529 30.3753C25.2587 30.3714 25.2648 30.3674 25.2712 30.3633C25.2714 30.3632 25.2715 30.3631 25.2717 30.3629C25.2718 30.3628 25.272 30.3627 25.2721 30.3626L25.4687 30.2356C25.4739 30.2322 25.4792 30.2287 25.4849 30.2251L25.4883 30.223L25.6842 30.0977C25.693 30.0921 25.7015 30.0867 25.7031 30.0856L25.7047 30.0848L25.9002 29.9616C25.907 29.9573 25.9126 29.9534 25.9161 29.9512C25.9179 29.9501 25.9196 29.949 25.9205 29.9484C25.9217 29.9477 25.9222 29.9473 25.9222 29.9473L26.1131 29.8276L26.1152 29.8262C26.1253 29.8199 26.1336 29.8147 26.137 29.8127L26.1393 29.8113L26.3343 29.6913C26.3414 29.6869 26.3491 29.6816 26.3572 29.6766L26.358 29.6761L26.5481 29.5602C26.5483 29.5601 26.5486 29.56 26.5488 29.5599C26.5491 29.5598 26.5495 29.5596 26.5497 29.5594L26.5508 29.5586L26.5518 29.5579C26.5552 29.5558 26.563 29.551 26.5724 29.5453L26.5741 29.5445L26.7673 29.4281L26.7693 29.4271C26.7779 29.4219 26.7861 29.4171 26.7935 29.4128L26.9846 29.2996C26.9864 29.2985 26.9982 29.2913 27.0112 29.2837L27.2026 29.1712L27.2046 29.17C27.2138 29.1646 27.2224 29.1598 27.2296 29.1557L27.4105 29.0512C27.4105 29.0512 27.4119 29.0505 27.4129 29.0499C27.4143 29.049 27.4171 29.0474 27.4205 29.0454C27.4223 29.0444 27.4241 29.0432 27.4263 29.0419C27.4325 29.0384 27.4414 29.0337 27.4518 29.0278L27.6421 28.9192C27.6505 28.9145 27.6577 28.9106 27.663 28.9076C27.6686 28.9045 27.6733 28.9018 27.6756 28.9005C27.6768 28.8998 27.6783 28.8989 27.6783 28.8989L27.8595 28.7976L27.8609 28.7967C27.8755 28.7886 27.8885 28.7815 27.8923 28.7794L28.0805 28.6764C28.0815 28.6758 28.0832 28.6747 28.0846 28.6739C28.0891 28.6715 28.0991 28.6664 28.1111 28.6599L28.2991 28.5578L28.3008 28.5567C28.3133 28.55 28.3238 28.5444 28.3312 28.5405L28.3329 28.5397L28.5202 28.4403L28.5228 28.439C28.5324 28.4339 28.5406 28.4296 28.5456 28.427C28.5482 28.4256 28.5507 28.4243 28.5522 28.4235C28.5539 28.4226 28.5551 28.4221 28.5551 28.4221L28.7409 28.3257C28.7574 28.3171 28.7713 28.3095 28.7807 28.3048C28.7856 28.3023 28.7902 28.3003 28.7936 28.2986L28.9607 28.213L28.9637 28.2113C28.9762 28.2049 28.9876 28.1994 28.9976 28.1945L29.1824 28.1017L29.1847 28.1006L29.1869 28.0997C29.1869 28.0997 29.1903 28.0978 29.1928 28.0965C29.1982 28.0938 29.2096 28.0883 29.2233 28.0816L29.2263 28.0799L29.4081 27.9917C29.4273 27.9823 29.4443 27.9739 29.4493 27.9715L29.6334 27.8835L29.6288 27.8857C29.6299 27.8852 29.6314 27.8844 29.6334 27.8835C29.6413 27.8797 29.6562 27.8727 29.6733 27.8647L29.675 27.8637L29.6766 27.8628L29.8377 27.7882C29.8402 27.7869 29.8431 27.7856 29.846 27.7842C29.8587 27.7781 29.8773 27.7694 29.8996 27.7592L29.9006 27.7587L30.0827 27.6758C30.0937 27.6708 30.1086 27.6641 30.1255 27.6566L30.3064 27.5764C30.3259 27.5678 30.3431 27.5604 30.3531 27.5561L30.5336 27.478C30.536 27.4769 30.5386 27.4759 30.5414 27.4747C30.5514 27.4703 30.5653 27.4644 30.5816 27.4576L30.5835 27.4566L30.5854 27.4559L30.7649 27.3809C30.7661 27.3804 30.7673 27.3798 30.7687 27.3792C30.7787 27.375 30.7927 27.3693 30.8093 27.3626L30.8114 27.3617L30.9901 27.2891C31.0043 27.2833 31.0206 27.2766 31.0384 27.2696L31.0414 27.2685L31.2192 27.1986L31.2213 27.198C31.2234 27.1971 31.2271 27.1954 31.2313 27.1938C31.2397 27.1905 31.2539 27.1851 31.2709 27.1786L31.2718 27.1782L31.4409 27.1143C31.4409 27.1143 31.4435 27.1131 31.4456 27.1123C31.4456 27.1123 31.4474 27.1119 31.4485 27.1114C31.4488 27.1112 31.4491 27.111 31.4495 27.1108C31.4592 27.1071 31.4792 27.0992 31.503 27.0905L31.5042 27.0901L31.6796 27.0256C31.6893 27.022 31.7106 27.0143 31.7345 27.0058C31.7347 27.0057 31.7349 27.0057 31.735 27.0057C31.7352 27.0056 31.7354 27.0056 31.7356 27.0055L31.9105 26.9435L31.9114 26.9433C31.9197 26.9403 31.9419 26.9321 31.9691 26.9229L31.9721 26.922L32.1462 26.863C32.1647 26.8568 32.1801 26.8518 32.1893 26.8488C32.1941 26.8472 32.1984 26.8458 32.2007 26.8451L32.2028 26.8447L32.3754 26.7879L32.3768 26.7876L32.3783 26.787C32.38 26.7864 32.3848 26.785 32.3895 26.7834C32.3989 26.7804 32.4174 26.7742 32.4396 26.7673L32.4411 26.7669L32.6073 26.7155C32.6105 26.7145 32.6136 26.713 32.6168 26.712C32.6195 26.7112 32.6242 26.7098 32.6295 26.7081C32.6398 26.7049 32.6572 26.6997 32.678 26.6936L32.6792 26.6932L32.8506 26.6424C32.8807 26.6335 32.9105 26.6255 32.9157 26.624L33.0845 26.5762L33.095 26.5732C33.1052 26.5703 33.1282 26.5637 33.1564 26.5562L33.1588 26.5554L33.1612 26.5548L33.3306 26.51C33.3334 26.5092 33.3378 26.5081 33.3424 26.5069C33.3534 26.504 33.373 26.4991 33.3966 26.4931L33.5647 26.4507L33.5656 26.4505C33.5775 26.4475 33.6068 26.44 33.6404 26.4321L33.643 26.4316L33.8106 26.3923C33.8316 26.3873 33.8567 26.3816 33.8844 26.3756L33.8849 26.3755L34.0512 26.3393C34.0745 26.3342 34.1011 26.3283 34.1301 26.3224L34.2945 26.2894L34.2958 26.289C34.3131 26.2854 34.3425 26.2797 34.3767 26.2733L34.3787 26.2729L34.3805 26.2724L34.5418 26.2432C34.5722 26.2375 34.5994 26.2328 34.6211 26.2292L34.7844 26.2011L34.7867 26.2008L34.7887 26.2004C34.8263 26.194 34.8574 26.1895 34.8697 26.1877C34.8717 26.1875 34.8736 26.1871 34.8751 26.1869L35.0327 26.1631L35.035 26.1625L35.0996 26.1533C35.1068 26.1523 35.1133 26.1515 35.1176 26.1509C35.1234 26.1502 35.1238 26.15 35.1267 26.1496L35.2871 26.1284L35.2877 26.1284C35.3085 26.1256 35.3409 26.1213 35.3783 26.117L35.3796 26.117L35.5393 26.099C35.5788 26.0945 35.6137 26.0909 35.6301 26.0894L35.7893 26.0737L35.7923 26.0733C35.8304 26.0697 35.8637 26.0672 35.8861 26.0655L36.0445 26.0528L36.0464 26.0526C36.0904 26.0492 36.129 26.047 36.1443 26.0462L36.301 26.0369L36.3016 26.0368C36.3452 26.0343 36.3831 26.0327 36.4024 26.0319L36.5557 26.0258L36.5587 26.0258C36.5785 26.025 36.6168 26.0234 36.6608 26.0226L36.6638 26.0225L36.8164 26.02C36.8468 26.0194 36.8822 26.019 36.9211 26.019L37.0756 26.019C37.1075 26.019 37.1431 26.0192 37.1814 26.0201H37.1847L37.3355 26.0237C37.3753 26.0245 37.4118 26.0255 37.4436 26.0268L37.5933 26.0331L37.5954 26.0332C37.6361 26.0349 37.6735 26.037 37.7056 26.039C37.7058 26.039 37.706 26.039 37.7062 26.039C37.7064 26.039 37.7066 26.039 37.7067 26.039L37.8575 26.0486C37.8676 26.0492 37.9161 26.0526 37.9674 26.0569L38.1175 26.0692L38.119 26.0694C38.1737 26.0741 38.2273 26.0799 38.2318 26.0803L38.3802 26.0961C38.4167 26.1 38.4542 26.1048 38.4922 26.1097L38.6402 26.1283L38.6436 26.1286C38.6757 26.1327 38.7147 26.1381 38.7579 26.1446L38.7602 26.1451L38.7625 26.1453L38.9048 26.1674C38.9359 26.1721 38.9761 26.1781 39.0212 26.186L39.167 26.2114C39.2166 26.22 39.2597 26.2286 39.2839 26.2334L39.4256 26.2612L39.4288 26.262C39.461 26.2684 39.5011 26.2765 39.5458 26.2864L39.5481 26.2869L39.5501 26.2873L39.6936 26.3192C39.7091 26.3227 39.7573 26.3337 39.8069 26.3459L39.9487 26.3805C39.9489 26.3806 39.9491 26.3806 39.9492 26.3806C39.9494 26.3805 39.9496 26.3806 39.9498 26.3806C39.9987 26.3926 40.0417 26.4045 40.0626 26.4101L40.0651 26.4107L40.0664 26.4109L40.2042 26.4479L40.2064 26.4486L40.2086 26.4491C40.2634 26.4639 40.3138 26.4789 40.3249 26.4822L40.4633 26.5229L40.466 26.5238C40.4997 26.5338 40.5387 26.5459 40.5813 26.5596L40.7205 26.6038L40.8377 26.6428L40.9762 26.6909C41.0183 26.7055 41.0567 26.7194 41.0898 26.7317L41.0922 26.7325L41.2276 26.7833C41.2381 26.7872 41.2877 26.8053 41.3405 26.8263L41.3424 26.8272L41.3445 26.8279L41.4808 26.8825L41.5882 26.9267L41.7234 26.9844C41.7692 27.0039 41.8153 27.0249 41.8292 27.0312L41.9635 27.0916L41.9656 27.0926L41.9679 27.0937C42.0099 27.1127 42.047 27.1302 42.0766 27.1444L42.0795 27.1457L42.2097 27.2087C42.2367 27.2217 42.274 27.2395 42.316 27.2609L42.447 27.3274L42.4483 27.3282C42.4898 27.3493 42.5255 27.3686 42.5472 27.3802L42.6784 27.4501L42.6809 27.4515L42.6831 27.4528C42.7221 27.4737 42.7569 27.4929 42.7849 27.5088L42.7867 27.51L42.7887 27.5112L42.9184 27.5848C42.951 27.6033 42.9826 27.622 43.0132 27.6402L43.1422 27.7166L43.1431 27.7171C43.1469 27.7194 43.1933 27.747 43.2399 27.7761L43.2425 27.7778L43.3702 27.8575C43.4096 27.8822 43.4433 27.9046 43.4616 27.9166L43.588 27.999C43.5881 27.9991 43.5883 27.9993 43.5884 27.9994C43.5886 27.9995 43.5887 27.9997 43.5889 27.9998L43.6803 28.0611L43.8057 28.1474C43.832 28.1655 43.8622 28.1862 43.8945 28.2094L44.0179 28.2978C44.0182 28.298 44.0185 28.2982 44.0187 28.2985C44.019 28.2988 44.0193 28.299 44.0196 28.2992C44.0398 28.3137 44.0705 28.3358 44.1052 28.3618L44.2288 28.4542C44.2589 28.4767 44.2859 28.498 44.3095 28.5164L44.4323 28.6115L44.4346 28.6134C44.458 28.6316 44.4776 28.6476 44.4902 28.6578C44.4965 28.6629 44.5021 28.6675 44.5059 28.6706C44.5107 28.6745 44.5117 28.6752 44.5139 28.677L44.5146 28.6775L44.6361 28.7763C44.6642 28.7991 44.6896 28.8205 44.7117 28.8392L44.8323 28.9408L44.834 28.9422C44.845 28.9516 44.8749 28.9768 44.9081 29.006L44.9098 29.0076L44.9115 29.009L45.0273 29.1112C45.0446 29.1265 45.0699 29.1487 45.0985 29.1749L45.0989 29.1753L45.2174 29.2832C45.2292 29.294 45.256 29.3184 45.286 29.3468L45.2875 29.3481L45.4038 29.4583L45.4678 29.5203L45.5844 29.6341L45.5857 29.6357C45.5879 29.6378 45.5882 29.6381 45.5924 29.6422C45.5955 29.6452 45.6002 29.6496 45.6053 29.6546C45.6154 29.6646 45.6311 29.6801 45.6494 29.6987L45.6529 29.7025L45.7681 29.8196L45.7689 29.8205C45.7714 29.823 45.7759 29.8275 45.7808 29.8325C45.7905 29.8423 45.8065 29.8588 45.8253 29.8786L45.8263 29.8797L45.9409 30.0001C45.9569 30.017 45.9765 30.0377 45.998 30.061L46.1106 30.1834L46.111 30.1838C46.1145 30.1877 46.1404 30.2155 46.167 30.2453L46.1671 30.2454C46.1681 30.2464 46.1691 30.2476 46.1699 30.2487L46.2819 30.3747C46.3005 30.3957 46.3177 30.4152 46.3325 30.4323L46.4416 30.5587L46.444 30.5611C46.4634 30.5836 46.4806 30.6042 46.4949 30.6212L46.6054 30.7532C46.6273 30.7794 46.6463 30.803 46.6535 30.8118L46.7621 30.9454L46.7634 30.9471C46.7791 30.9665 46.7921 30.9827 46.7992 30.9917C46.8028 30.9962 46.806 31.0006 46.8075 31.0025L46.8084 31.0039L46.9168 31.1412L46.9184 31.143C46.934 31.1629 46.9488 31.1821 46.9623 31.1997L46.9629 31.2004L47.0704 31.3411C47.0721 31.3433 47.0785 31.3517 47.0834 31.3581C47.0902 31.367 47.1005 31.3806 47.1125 31.3967C47.1127 31.3969 47.1128 31.3971 47.1129 31.3974C47.113 31.3976 47.1131 31.3978 47.1133 31.398L47.2185 31.5398L47.2561 31.5912C47.2581 31.594 47.2589 31.5951 47.2589 31.5951L47.3623 31.7377L47.3643 31.7405C47.3784 31.76 47.3899 31.7763 47.3957 31.7846C47.3986 31.7888 47.4014 31.793 47.4024 31.7944L47.4034 31.7956L47.4041 31.7966L47.5072 31.9438C47.5073 31.9439 47.5074 31.944 47.5075 31.9441C47.5077 31.9443 47.5078 31.9445 47.5079 31.9446C47.5082 31.9451 47.5088 31.946 47.5094 31.9468C47.5107 31.9487 47.5134 31.9525 47.5163 31.9567C47.5221 31.9649 47.5323 31.9793 47.5442 31.9967L47.6463 32.1458L47.6482 32.1483C47.6644 32.172 47.6772 32.1918 47.6821 32.1993C47.6835 32.2013 47.6849 32.2032 47.6856 32.2042L47.6861 32.2052L47.7856 32.3548L47.7861 32.3555C47.8004 32.377 47.8132 32.3966 47.8182 32.4042L47.9201 32.5611L47.9209 32.5627C47.9366 32.587 47.9494 32.6072 47.9535 32.6137C47.9547 32.6156 47.9563 32.6182 47.9563 32.6182L48.0544 32.7735L48.0551 32.7748C48.0593 32.7815 48.07 32.7982 48.0827 32.8188L48.183 32.9814L48.1844 32.9837C48.1954 33.0016 48.2051 33.0176 48.2126 33.0301L48.2134 33.0317L48.3121 33.1959C48.3203 33.2095 48.3298 33.2252 48.3396 33.242L48.4369 33.4078L48.4376 33.4089C48.4441 33.4199 48.4534 33.4357 48.4637 33.4537L48.4654 33.4567L48.5628 33.6271C48.5688 33.6375 48.5769 33.6518 48.5862 33.6684L48.6827 33.8407L48.7064 33.8837L48.7074 33.8856L48.8031 34.0609C48.81 34.0734 48.8155 34.0842 48.8189 34.0905C48.8206 34.0935 48.8222 34.0963 48.8231 34.0981L48.9184 34.2757L48.9196 34.2785L48.9413 34.3194L48.9431 34.323C48.9436 34.324 48.9443 34.3252 48.9446 34.3257C48.9447 34.3259 48.9448 34.3261 48.9448 34.3263C48.9448 34.3264 48.9449 34.3266 48.945 34.3268L49.035 34.4992C49.0406 34.5097 49.0477 34.5229 49.0555 34.5381L49.0566 34.5403L49.0577 34.5429L49.14 34.7043C49.1401 34.7045 49.1402 34.7047 49.1402 34.7049C49.1402 34.7051 49.1403 34.7052 49.1404 34.7054L49.1412 34.7071C49.1425 34.7095 49.1453 34.7148 49.1488 34.7215L49.1682 34.7598L49.2611 34.9447C49.2612 34.9451 49.2614 34.9455 49.2615 34.9459C49.2617 34.9463 49.2618 34.9467 49.262 34.9471C49.2671 34.957 49.2731 34.9685 49.2793 34.9812L49.2814 34.9854L49.3729 35.1728C49.3794 35.1861 49.3846 35.1972 49.387 35.2023L49.3891 35.2065L49.4788 35.3927L49.4796 35.3946C49.4891 35.4146 49.4971 35.4312 49.5024 35.4426C49.5037 35.4456 49.5049 35.4483 49.5061 35.4509L49.5858 35.6201L49.5871 35.6227C49.5931 35.6354 49.598 35.6462 49.6015 35.6539L49.602 35.6548L49.6917 35.8492L49.6927 35.8511C49.6985 35.8637 49.7032 35.8741 49.7055 35.8791C49.7064 35.8812 49.7077 35.8844 49.7077 35.8844L49.7962 36.0795C49.7963 36.0797 49.7963 36.0798 49.7963 36.08C49.7964 36.0802 49.7964 36.0804 49.7965 36.0806C49.7976 36.083 49.8043 36.0977 49.8111 36.113L49.8114 36.1136L49.8984 36.3097L49.914 36.3454C49.9175 36.3537 49.9205 36.3605 49.9214 36.3627L49.922 36.3643C49.922 36.3642 49.9221 36.3641 49.9221 36.3642L49.9988 36.5398L49.9998 36.5417L50.0007 36.5439C50.0054 36.5546 50.0092 36.5642 50.0124 36.5718L50.0993 36.7741C50.0993 36.7743 50.0994 36.7745 50.0994 36.7746C50.0994 36.7748 50.0995 36.775 50.0996 36.7752C50.1038 36.7851 50.1076 36.7946 50.1113 36.8034L50.1975 37.0082L50.1989 37.0113L50.2095 37.0375L50.2099 37.0387L50.2954 37.2457C50.2989 37.2539 50.3028 37.2631 50.3068 37.2729L50.3076 37.2748L50.3084 37.2764L50.391 37.4813C50.3944 37.4894 50.3982 37.4982 50.402 37.5076L50.4028 37.5098L50.4857 37.7183C50.4857 37.7183 50.4867 37.7205 50.4872 37.7218C50.4887 37.7256 50.4922 37.7343 50.4963 37.7448L50.5793 37.9566L50.5798 37.9575C50.5793 37.9562 50.5792 37.9554 50.5792 37.9554L50.5793 37.9566L50.5806 37.9591C50.5821 37.9628 50.5856 37.9719 50.5899 37.983L50.5909 37.9858L50.6717 38.1964C50.672 38.1971 50.6723 38.1978 50.6727 38.1985C50.6731 38.1992 50.6735 38.1999 50.6737 38.2006C50.6752 38.2044 50.6777 38.2115 50.681 38.2201L50.7634 38.4363L50.7639 38.4381C50.7639 38.4381 50.7654 38.4421 50.7665 38.4449C50.7678 38.4484 50.77 38.4539 50.7724 38.4603L50.7731 38.4616L50.8533 38.6771C50.8516 38.6724 50.8504 38.6687 50.85 38.6676L50.8502 38.6685C50.8508 38.67 50.8522 38.6738 50.8539 38.6783L50.8543 38.6796C50.8562 38.6846 50.8592 38.6918 50.8623 38.7003L50.9436 38.9214C50.9441 38.923 50.945 38.9249 50.9457 38.927C50.9472 38.9309 50.9492 38.9363 50.9516 38.9427L51.0312 39.1609L51.0321 39.1637C51.0376 39.1787 51.0423 39.192 51.0462 39.2031C51.0481 39.2086 51.0498 39.2137 51.0514 39.2183L51.1196 39.4085C51.122 39.4153 51.1241 39.4211 51.1256 39.4253C51.127 39.4294 51.1283 39.4327 51.1288 39.4342L51.129 39.4351L51.2053 39.6503L51.206 39.6521L51.2065 39.6539L51.2267 39.7129L51.2911 39.8967L51.292 39.8989C51.2944 39.9057 51.2964 39.9117 51.298 39.9165L51.2982 39.9174C51.2987 39.9188 51.2992 39.9202 51.2996 39.9214C51.3001 39.9229 51.3007 39.9243 51.3012 39.9256L51.3032 39.9317L51.3755 40.1418C51.3776 40.1479 51.38 40.1543 51.3823 40.1611L51.3833 40.1644L51.4612 40.3936C51.4629 40.3986 51.4649 40.4042 51.4668 40.4097L51.5393 40.6258C51.5423 40.6347 51.5458 40.6448 51.5496 40.656C51.5496 40.6562 51.5497 40.6563 51.5497 40.6565C51.5497 40.6567 51.5498 40.6569 51.5498 40.6571L51.6266 40.8887C51.6283 40.8937 51.6301 40.8993 51.632 40.905L51.7083 41.1378C51.7095 41.1412 51.7112 41.1461 51.713 41.1514L51.7132 41.1523L51.7894 41.3872C51.7907 41.3912 51.792 41.3955 51.7931 41.399C51.7932 41.3991 51.7932 41.3993 51.7932 41.3995C51.7933 41.3997 51.7933 41.3999 51.7934 41.4001C51.7951 41.4054 51.7966 41.41 51.7976 41.4134L51.7984 41.4152C51.7976 41.4127 51.7966 41.4097 51.7955 41.4062L51.8693 41.6351L51.8789 41.6669L51.9486 41.885L51.9494 41.8875C51.9511 41.8928 51.9527 41.898 51.9542 41.9028L51.9531 41.8994C51.9531 41.8993 51.9529 41.8993 51.9529 41.8994C51.9529 41.8994 51.9529 41.8994 51.9529 41.8994L51.9601 41.9223C51.9612 41.9258 51.9621 41.9291 51.9631 41.9322L51.9626 41.9304C51.9618 41.9279 51.961 41.9251 51.9601 41.9223L52.028 42.1377L52.0287 42.1398C52.0322 42.1511 52.0355 42.1611 52.038 42.1693L52.0385 42.1708L52.105 42.3847C52.1015 42.3733 52.0982 42.3634 52.0955 42.3551C52.0945 42.352 52.0934 42.349 52.0925 42.3462C52.0941 42.3511 52.0959 42.3567 52.0978 42.3626C52.1006 42.3712 52.1039 42.3814 52.1074 42.3927L52.1111 42.4037L52.185 42.6437L52.1877 42.6519L52.2843 42.9663L52.2862 42.9742L52.3386 43.1462L52.3428 43.1602L52.4023 43.358L52.4044 43.3638L52.4193 43.4135L52.4863 43.6388L52.4877 43.6428L52.4934 43.6622L52.5592 43.8836L52.5624 43.8936L52.5696 43.9181L52.642 44.1633L52.6468 44.1797L52.6514 44.1958L52.716 44.416L52.7207 44.4313L52.7212 44.4328L52.7702 44.6015L52.7713 44.6045L52.7926 44.6782L52.8831 44.9898L52.8841 44.9939L52.9368 45.1749L52.9401 45.1868L52.9678 45.2833L52.9688 45.2858L53.1558 45.9382L53.1947 46.0752L53.1954 46.0781L53.2277 46.1916L53.2667 46.3284L53.2676 46.333L53.3003 46.4484L53.4657 47.0299C53.4659 47.0306 53.4661 47.0313 53.4661 47.0321C53.4661 47.0328 53.4662 47.0335 53.4664 47.0342L53.4801 47.0826L53.4808 47.0855L53.5141 47.2039L53.585 47.4545L53.5865 47.4598L53.657 47.7109L53.8679 48.4564L53.8683 48.4585L53.9375 48.7039L54.1488 49.4474C54.1489 49.4477 54.149 49.4479 54.1491 49.4481C54.1492 49.4483 54.1493 49.4485 54.1493 49.4488L54.2181 49.69L54.2882 49.935L54.3577 50.1762L54.4984 50.6623L54.6398 51.1456L54.7095 51.3812L54.8509 51.8548L54.9891 52.3114L55.0608 52.5453L55.1311 52.7734L55.2042 53.0072L55.2754 53.2334L55.3452 53.4529L55.4136 53.6665L55.4162 53.6749L55.4888 53.8978L55.5558 54.1021L55.6267 54.3155L55.7043 54.5463L55.775 54.7547L55.8433 54.9527L55.9153 55.1598L55.9863 55.3608L56.0608 55.5684L56.1357 55.7748L56.2132 55.9853L56.2789 56.1603L56.357 56.3661L56.4328 56.5618L56.5039 56.7437L56.5714 56.9126L56.651 57.1089L56.7167 57.2686L56.7969 57.459L56.8705 57.6312L56.9461 57.8047L56.973 57.8657L56.9804 57.8789L57.0263 57.9856L57.0881 58.1221L57.1705 58.3011L57.2338 58.4362L57.3171 58.6095L57.3901 58.7584L57.4545 58.8872L57.5407 59.0555L57.6202 59.2077L57.6743 59.309L57.7539 59.4552L57.8164 59.5669L57.9004 59.7138L57.9829 59.8545L58.0376 59.9458L58.127 60.0901L58.1931 60.1944L58.2588 60.2958L58.3267 60.3977L58.3873 60.4861L58.4515 60.5781L58.5241 60.6783L58.6039 60.7858L58.651 60.8473L58.7191 60.9334L58.7891 61.0195L58.8365 61.0763L58.896 61.1452L58.9606 61.2176L59.0116 61.2732L59.0766 61.341L59.1207 61.3859L59.1787 61.4424L59.2272 61.4885L59.268 61.5255L59.3118 61.5638L59.3641 61.6082L59.4014 61.6387L59.4487 61.6755L59.4834 61.7016L59.5201 61.7276L59.5582 61.7541L59.586 61.7725L59.6234 61.796L59.6536 61.8139L59.6847 61.8315L59.702 61.8408L59.7364 61.8582L59.765 61.872L59.7861 61.8815L59.8099 61.8916L59.8344 61.9014L59.8608 61.9113L59.8811 61.9183L59.9013 61.9248L59.9283 61.9327L59.9583 61.9408L59.9767 61.9453L60.0068 61.9521L60.0314 61.9568L60.0648 61.9625L60.0876 61.9661L60.1271 61.9712L60.1651 61.9752L60.1966 61.9779L60.2318 61.9799L60.2833 61.9822L60.329 61.9835L60.3678 61.9834L60.4379 61.982L60.4755 61.9805L60.5296 61.9775L60.6076 61.9717L60.6641 61.9663L60.7337 61.9582L60.8214 61.9467L60.8611 61.9406L60.9651 61.9232L61.0336 61.9107L61.1204 61.893L61.2214 61.8714L61.3142 61.8495L61.3749 61.8341L61.5049 61.7998L61.5989 61.7734L61.7065 61.7416L61.8244 61.7049L61.9508 61.6629L62.0369 61.6337L62.1697 61.5871L62.2993 61.5386L62.4024 61.4994L62.5503 61.4408L62.5862 61.4267L62.6374 61.406L62.7761 61.3481L62.9042 61.293L63.0601 61.2239L63.1408 61.1872L63.1785 61.1695L63.3238 61.1023L63.492 61.0214L63.6163 60.9607L63.784 60.8764L63.9379 60.7981L64.088 60.7198L64.2271 60.6462L64.3707 60.5689L64.5187 60.4872L64.7083 60.3809L64.7875 60.3366L64.861 60.2948L65.0232 60.2011L65.196 60.0994L65.3568 60.0042L65.5204 59.9056L65.6923 59.8009L65.8532 59.7014L66.0296 59.5911L66.3433 59.3916L66.3794 59.3683L66.4957 59.2936L66.7494 59.1277L66.9274 59.0102L67.108 58.8897L67.2897 58.7675L67.3451 58.7305L67.4694 58.6457L67.6572 58.5172L67.8408 58.391L68.0186 58.2683L68.1119 58.2029L68.2035 58.1383L68.3978 58.0017L68.884 57.6553L69.2795 57.3695L69.3529 57.3161L69.757 57.0208L69.9443 56.8832L70.1422 56.7367L70.3437 56.5868L70.4349 56.5194L70.5374 56.4425L70.9364 56.1439L71.1401 55.9904L71.1426 55.9886L71.145 55.987L71.2269 55.9258L71.3359 55.843L71.9496 55.3782L72.565 54.9101L74.3635 53.5362C74.9568 53.083 75.7993 53.1643 76.2951 53.7226L81.0741 59.1049C81.6244 59.7247 81.5321 60.6815 80.8733 61.1846L78.91 62.684L78.9082 62.6855L78.4008 63.0723L78.3974 63.0744L78.1915 63.2311L78.1892 63.2325L78.075 63.3195L77.9826 63.3896L77.9785 63.3923L77.888 63.4608L77.8865 63.4621L77.8591 63.4827L77.7679 63.5517L77.7636 63.5557L77.6457 63.6442L77.4953 63.7574L77.4919 63.7603L77.4383 63.8005L77.1714 64.0013L77.1697 64.0023L77.0356 64.1029L77.0258 64.1105L76.8791 64.2198L76.8746 64.2237L76.8007 64.2789L76.6678 64.3775L76.6647 64.3802L76.5889 64.4363L76.3837 64.5885L76.3585 64.6076L76.2061 64.7199C76.206 64.72 76.2058 64.7201 76.2057 64.7203C76.2055 64.7204 76.2054 64.7205 76.2052 64.7206L75.9715 64.8927L75.9658 64.8969L75.9527 64.9063L75.7489 65.056L75.7392 65.063L75.5355 65.2116L75.527 65.2176L75.5234 65.2205L75.3549 65.3425L75.3513 65.3453L75.3127 65.3732L75.1323 65.5034L75.1169 65.5149L75.0967 65.5293L74.9013 65.6693L74.8817 65.6835L74.6792 65.8276L74.6771 65.8291L74.671 65.8335L74.4691 65.9768L74.4673 65.9781C74.4601 65.9832 74.453 65.988 74.4463 65.9926L74.2563 66.1266L74.2534 66.1289C74.248 66.1327 74.2435 66.1359 74.2404 66.138C74.2373 66.1402 74.2348 66.1417 74.2338 66.1423L74.2384 66.1393L74.0669 66.259L74.0583 66.2653L74.0236 66.2895L73.8367 66.4192L73.8328 66.4219L73.6118 66.5742C73.6114 66.5744 73.6111 66.5747 73.6109 66.575C73.6106 66.5752 73.6103 66.5755 73.61 66.5757C73.6025 66.5808 73.5954 66.5854 73.589 66.5898L73.3972 66.721L73.3954 66.7226C73.3884 66.7273 73.3817 66.7318 73.3755 66.7359L73.181 66.8676L73.1722 66.8736L72.9989 66.99L72.9875 66.9983L72.9464 67.0255L72.7479 67.1575L72.7468 67.1583L72.7392 67.1633L72.732 67.1681L72.5339 67.2989L72.5053 67.3177L72.4915 67.3266L72.321 67.438L72.3133 67.4432L72.3055 67.4481L72.2966 67.4538L72.1031 67.5788L72.0934 67.5853L72.0835 67.5915L72.0746 67.5974L71.8874 67.7172L71.8864 67.718C71.8791 67.7226 71.872 67.7267 71.8653 67.7309L71.6716 67.8537L71.6645 67.858L71.6576 67.8625L71.4529 67.9905L71.4421 67.9972L71.2379 68.1237L71.2358 68.125C71.2263 68.1309 71.2183 68.1356 71.2149 68.1377L71.2135 68.1385L71.0202 68.2566L71.0189 68.2573C71.0103 68.2625 71.0022 68.2674 70.9947 68.2718L70.7903 68.3949L70.6037 68.506L70.5858 68.5167L70.3631 68.6471L70.345 68.6576L70.3285 68.6669L70.1505 68.7698L70.1484 68.771L70.1463 68.7725C70.133 68.7802 70.1217 68.7866 70.1141 68.7909C70.1122 68.7919 70.1104 68.793 70.1087 68.7939C70.1114 68.7924 70.1144 68.7905 70.1178 68.7886L70.0983 68.7993L69.9126 68.9051L69.7059 69.0206L69.701 69.0233L69.6963 69.0261L69.6825 69.0336L69.6796 69.035L69.491 69.139L69.4886 69.1404C69.4876 69.141 69.4858 69.1419 69.4843 69.1428C69.4796 69.1454 69.4692 69.151 69.4567 69.1578L69.455 69.1589L69.2667 69.2603L69.2644 69.2614L69.2488 69.2702L69.2329 69.2784L69.0453 69.3779L69.0391 69.381L69.0329 69.3843L69.0175 69.3924L69.0156 69.3933L69.0136 69.3946L68.8111 69.4999L68.801 69.5049L68.7909 69.5101L68.6048 69.6053L68.5883 69.6135L68.572 69.6218C68.5708 69.6223 68.5696 69.6229 68.5684 69.6236L68.366 69.7246L68.3319 69.7413L68.164 69.8236L68.1598 69.8257C68.1388 69.836 68.1212 69.8442 68.1092 69.8498C68.108 69.8504 68.1068 69.8511 68.1056 69.8516L67.9388 69.9316L67.9244 69.9384L67.9097 69.9451L67.7127 70.0372L67.7102 70.0382L67.7076 70.0395L67.6885 70.0485L67.6713 70.0563L67.4895 70.1391L67.4876 70.1401C67.47 70.148 67.4553 70.1547 67.4448 70.1592C67.4393 70.1616 67.4342 70.1638 67.4303 70.1654L67.2624 70.2399L67.2465 70.2471L67.2261 70.2559L67.2154 70.2604L67.0254 70.3427L66.9864 70.3593L66.8073 70.4341L66.801 70.4369L66.7945 70.4393L66.772 70.4488L66.7663 70.4512L66.7604 70.4536L66.582 70.5262L66.5807 70.5268C66.5649 70.5332 66.5514 70.5385 66.5415 70.5424L66.5235 70.5496ZM31.4485 27.1114L31.4409 27.1143L31.4394 27.1146C31.4394 27.1146 31.4436 27.1133 31.4485 27.1114ZM49.0193 34.4697L49.0166 34.4647L49.0174 34.4663C49.0185 34.4685 49.0225 34.4756 49.0274 34.4848C49.0238 34.478 49.0209 34.4728 49.0193 34.4697ZM29.0449 28.1715C29.0449 28.1715 29.0449 28.1715 29.0449 28.1715C29.0449 28.1714 29.0449 28.1713 29.0448 28.1713C29.0435 28.172 29.041 28.1733 29.0385 28.1745C29.0375 28.175 29.0364 28.1757 29.0352 28.1763C29.0401 28.174 29.0436 28.1721 29.0449 28.1715ZM38.626 31.7186L38.6218 31.7175C38.6218 31.7175 38.6237 31.718 38.626 31.7186ZM49.5105 35.4604C49.5096 35.4585 49.5085 35.456 49.5071 35.4528C49.5098 35.4588 49.5116 35.4633 49.5122 35.4648L49.5105 35.4604ZM40.8117 32.7662L40.8089 32.7642C40.8111 32.7658 40.813 32.7672 40.8143 32.7682L40.8117 32.7662ZM36.4627 31.5365C36.4615 31.5366 36.4597 31.5366 36.4597 31.5366L36.4586 31.5368C36.4586 31.5368 36.4606 31.5367 36.4627 31.5365ZM41.5129 33.3479L41.5133 33.3483L41.5151 33.35L41.5129 33.3479ZM36.0154 31.5797L36.0118 31.5801L36.0098 31.5805L36.0154 31.5797ZM50.0218 36.5938C50.0203 36.5902 50.0171 36.5825 50.0129 36.5727C50.0139 36.5751 50.0147 36.5773 50.0156 36.5793C50.019 36.5874 50.0219 36.5941 50.0227 36.596L50.0218 36.5938ZM50.2129 37.0459L50.2125 37.0447C50.212 37.0435 50.211 37.0411 50.2099 37.0382L50.2095 37.0375L50.2129 37.0459ZM42.597 34.5446L42.594 34.5407L42.5947 34.5417L42.596 34.5435L42.597 34.5446ZM34.2548 31.9623C34.2578 31.9614 34.2602 31.9606 34.2602 31.9606L34.2485 31.9642C34.251 31.9635 34.2531 31.9628 34.2548 31.9623ZM42.9009 34.9535L42.8977 34.9492C42.8991 34.9511 42.9007 34.9534 42.9025 34.956L42.9009 34.9535ZM43.2049 35.398L43.204 35.3966L43.2034 35.3959C43.2034 35.3959 43.2042 35.3971 43.2049 35.398ZM33.2382 32.3144C33.2407 32.3134 33.2429 32.3124 33.2429 32.3124C33.2429 32.3124 33.2423 32.3127 33.241 32.3132C33.241 32.3132 33.2388 32.314 33.2376 32.3145C33.2363 32.315 33.2347 32.3157 33.2329 32.3164C33.235 32.3156 33.2368 32.3149 33.2382 32.3144ZM50.9424 38.9184L50.9419 38.9166L50.9436 38.9214C50.9431 38.9202 50.9424 38.9184 50.9424 38.9184ZM25.1777 30.4262C25.1755 30.4277 25.1737 30.429 25.1724 30.4299C25.1712 30.4307 25.1695 30.4321 25.1695 30.4321C25.1695 30.4321 25.1734 30.4292 25.1777 30.4262ZM51.0392 39.1838L51.0397 39.1856L51.0462 39.2031L51.0392 39.1838ZM24.9793 30.5555C24.977 30.5571 24.9752 30.5582 24.9741 30.5589L24.9726 30.5601C24.9726 30.5601 24.9761 30.5578 24.9793 30.5555ZM24.9135 30.6C24.9175 30.5975 24.9214 30.595 24.9214 30.595C24.9214 30.595 24.9193 30.5963 24.918 30.5971C24.9151 30.5989 24.9098 30.6021 24.9031 30.6062L24.9006 30.608C24.9059 30.6047 24.9103 30.6019 24.9135 30.6ZM24.3783 30.9553C24.3801 30.9541 24.3841 30.9515 24.3891 30.9481L24.3765 30.9566L24.3783 30.9553ZM31.0909 33.3022C31.0909 33.3022 31.0932 33.3009 31.0949 33.3L31.0908 33.302C31.0906 33.3022 31.0907 33.3023 31.0909 33.3022ZM51.363 40.1064C51.3594 40.0962 51.3563 40.0876 51.3539 40.0812C51.3516 40.075 51.3496 40.07 51.3486 40.0673C51.3481 40.0661 51.3474 40.0643 51.3474 40.0643C51.3474 40.0643 51.3487 40.0678 51.3501 40.0716C51.3517 40.0757 51.354 40.0823 51.3569 40.0901C51.3592 40.0963 51.3621 40.1038 51.3653 40.1125C51.3645 40.1104 51.3637 40.1084 51.363 40.1064ZM44.6099 37.9624C44.6096 37.9616 44.6092 37.9608 44.609 37.96L44.6103 37.9632L44.6099 37.9624ZM51.444 40.3447C51.4424 40.3403 51.4412 40.3367 51.4405 40.3349L51.4398 40.3331C51.4398 40.3331 51.4409 40.3365 51.4421 40.3398C51.4432 40.3426 51.4445 40.3465 51.4462 40.3511C51.4453 40.3487 51.4447 40.3465 51.444 40.3447ZM23.7093 31.4139C23.7068 31.4156 23.7045 31.417 23.7026 31.4184C23.6982 31.4216 23.6945 31.4242 23.6927 31.4256L23.6959 31.4232C23.6989 31.421 23.7038 31.4178 23.7093 31.4139ZM23.5664 31.5126C23.5708 31.5096 23.5746 31.5071 23.5771 31.5054C23.5795 31.5039 23.582 31.5022 23.582 31.5022L23.5813 31.5025C23.5802 31.5032 23.5777 31.505 23.5747 31.507C23.5723 31.5087 23.5688 31.5108 23.5647 31.5137L23.5664 31.5126ZM51.6182 40.8638C51.6168 40.8596 51.6157 40.8562 51.6148 40.8537C51.6137 40.8504 51.6128 40.8477 51.6124 40.8465L51.6119 40.8455C51.6119 40.8455 51.6128 40.8481 51.6137 40.8507C51.6146 40.8533 51.616 40.8574 51.6177 40.8622L51.6182 40.8638ZM51.708 41.1363C51.7076 41.1351 51.707 41.133 51.707 41.133C51.7074 41.1343 51.7077 41.1359 51.7083 41.1378L51.708 41.1363ZM51.8001 41.4207C51.7997 41.4193 51.799 41.4174 51.7984 41.4152C51.7988 41.4167 51.7992 41.4181 51.7995 41.4191C51.8001 41.4211 51.801 41.4234 51.801 41.4234L51.8001 41.4207ZM22.7572 32.0851C22.7619 32.082 22.7661 32.0792 22.7696 32.0768C22.7671 32.0785 22.7641 32.0803 22.7611 32.0823C22.7531 32.0876 22.7425 32.0948 22.7301 32.1033C22.7406 32.0961 22.7499 32.0899 22.7572 32.0851ZM51.9287 41.8485C51.9272 41.8421 51.9248 41.8322 51.9217 41.82C51.9243 41.8303 51.9263 41.8388 51.9277 41.8449C51.9289 41.8497 51.9298 41.8538 51.9304 41.8563L51.9309 41.8581C51.9304 41.8562 51.9297 41.8527 51.9287 41.8485ZM52.046 42.1968C52.0451 42.1934 52.0438 42.189 52.0422 42.1839C52.0429 42.1862 52.0434 42.1883 52.0439 42.1902L52.046 42.1968ZM22.4189 32.3268C22.421 32.3253 22.4238 32.3232 22.4271 32.3207C22.4256 32.3218 22.4239 32.3226 22.4227 32.3235C22.4212 32.3246 22.4201 32.3259 22.4189 32.3268ZM52.1074 42.3927C52.1068 42.3908 52.1063 42.3886 52.1057 42.3868L52.105 42.3847C52.1058 42.3872 52.1066 42.3901 52.1074 42.3927ZM22.169 32.5088L22.1669 32.5103C22.1589 32.5165 22.1526 32.5216 22.1489 32.5245L22.1469 32.5265C22.1482 32.5255 22.1498 32.5239 22.1519 32.5222C22.1558 32.5191 22.1617 32.5145 22.169 32.5088ZM45.7868 40.8321C45.787 40.8327 45.7872 40.8332 45.7873 40.8337C45.7875 40.8344 45.7877 40.8351 45.788 40.8358L45.7868 40.8321ZM46.0985 41.7081C46.0971 41.7041 46.0957 41.7003 46.0947 41.6974L46.0928 41.6919C46.0934 41.6937 46.0941 41.6959 46.095 41.6983L46.0987 41.7089L46.0985 41.7081ZM27.2779 35.6338L27.2758 35.6352L27.2744 35.6361C27.2756 35.6353 27.2768 35.6345 27.2779 35.6338ZM46.3314 42.3926C46.3312 42.3919 46.3309 42.3913 46.3306 42.3906L46.33 42.3891L46.332 42.3946L46.3314 42.3926ZM46.4143 42.6425C46.4122 42.6364 46.4097 42.6289 46.4069 42.6204L46.4066 42.6195C46.4093 42.6275 46.4117 42.6345 46.4137 42.6404C46.4141 42.6417 46.4145 42.6429 46.4149 42.6441L46.4143 42.6425ZM50.941 54.5153C50.941 54.5153 50.9403 54.513 50.9398 54.5114C50.9392 54.5095 50.9383 54.507 50.9373 54.5038L50.9415 54.5171L50.941 54.5153ZM45.5304 55.6442C45.5283 55.6374 45.5264 55.6313 45.525 55.6265C45.5259 55.6296 45.5268 55.6332 45.528 55.637C45.5286 55.6392 45.5296 55.6416 45.5304 55.6442ZM52.4432 58.6814C52.4432 58.6814 52.4429 58.6806 52.4426 58.6797C52.4425 58.6795 52.4423 58.6796 52.4424 58.6797C52.4424 58.6797 52.4424 58.6797 52.4424 58.6798L52.4434 58.6823L52.4432 58.6814ZM74.3318 66.0685C74.3318 66.0685 74.3335 66.0674 74.3348 66.0665L74.3332 66.0674C74.3318 66.0682 74.3305 66.0691 74.3305 66.0691L74.3318 66.0685ZM46.006 57.1194C46.0044 57.1142 46.0033 57.1098 46.0024 57.1068L46.0016 57.1044C46.0022 57.1065 46.003 57.1096 46.0041 57.1131C46.0046 57.1149 46.0053 57.117 46.006 57.1194ZM52.7821 59.4668C52.7821 59.4668 52.782 59.4668 52.782 59.4669C52.782 59.4669 52.782 59.4669 52.782 59.4669C52.7821 59.467 52.7826 59.4683 52.7832 59.4697L52.7839 59.471L52.7821 59.4668ZM71.7983 67.7719C71.7944 67.7742 71.7909 67.7762 71.7883 67.7777L71.7832 67.7809C71.7861 67.7792 71.7915 67.776 71.7983 67.7719ZM47.577 61.2925C47.5759 61.2899 47.5737 61.2846 47.5706 61.2777L47.5777 61.2938L47.577 61.2925ZM70.0983 68.7993C70.0998 68.7985 70.1039 68.7966 70.1087 68.7939C70.1056 68.7957 70.1031 68.797 70.1013 68.798C70.1003 68.7985 70.0993 68.799 70.0983 68.7993ZM56.8758 65.1353L56.8771 65.1363L56.8796 65.1379C56.878 65.1368 56.8758 65.1353 56.8758 65.1353ZM57.3638 65.4481L57.3656 65.4492L57.3663 65.4497L57.3638 65.4481ZM67.4225 70.1688L67.4218 70.169C67.4212 70.1692 67.4207 70.1695 67.4202 70.1699C67.4202 70.1699 67.421 70.1694 67.4225 70.1688ZM66.5199 70.5508L66.5292 70.5471L66.5235 70.5496L66.5199 70.5508ZM23.7347 31.3957C23.7293 31.3994 23.7244 31.4028 23.72 31.4058C23.716 31.4087 23.7125 31.4115 23.7093 31.4139C23.7156 31.4093 23.7243 31.403 23.7347 31.3957ZM22.2051 32.4812C22.203 32.4828 22.2008 32.4841 22.1988 32.4856C22.1897 32.4926 22.1817 32.499 22.1748 32.5043C22.183 32.4979 22.1933 32.4902 22.2051 32.4812Z" fill="#F56FFF"/>
<path d="M80.6976 115.855C80.523 116.468 79.9633 116.89 79.3264 116.89H39.0438C38.4068 116.89 37.8472 116.468 37.6726 115.855L21.7889 60.1126C21.5294 59.202 22.2132 58.2962 23.16 58.2962H28.6893C29.3228 58.2962 29.8803 58.7142 30.0579 59.3222L43.8195 106.447C43.9971 107.055 44.5546 107.473 45.1881 107.473H73.1821C73.8156 107.473 74.3731 107.055 74.5507 106.447L88.3123 59.3222C88.4899 58.7142 89.0474 58.2962 89.6809 58.2962H95.2102C96.157 58.2962 96.8408 59.202 96.5813 60.1126L80.6976 115.855Z" fill="white"/>
<path d="M96.0798 50.4672C95.6019 51.093 94.7072 51.2129 94.0814 50.7349L68.2806 31.0293L66.1769 29.5068L66.1389 29.4778L42.3912 11.2599C41.7665 10.7807 41.6486 9.88572 42.1278 9.26098L44.5365 6.12099C45.0157 5.49622 45.9107 5.37827 46.5355 5.85754L66.5124 21.1823C67.13 21.6561 68.0135 21.5469 68.4972 20.937L72.802 15.5094C73.2928 14.8907 74.193 14.7888 74.8097 15.2821L79.8533 19.3169C80.4632 19.8048 80.567 20.6927 80.086 21.3081L75.9965 26.5409C75.5079 27.1662 75.6238 28.0702 76.2545 28.5519L98.2142 45.3239C98.8399 45.8018 98.9598 46.6965 98.4818 47.3223L96.0798 50.4672Z" fill="white"/>
</svg>
