<svg width="122" height="122" viewBox="0 0 122 122" fill="none" xmlns="http://www.w3.org/2000/svg">
<path d="M87.2729 14.2568C86.0052 14.2568 85.368 15.7873 86.261 16.687L90.8721 21.332C91.424 21.8879 91.424 22.7849 90.8721 23.3408L76.1797 38.1413C75.6279 38.6972 75.6279 39.5942 76.1797 40.1501L81.2101 45.2174C81.7677 45.7791 82.6761 45.7791 83.2337 45.2174L97.8967 30.4467C98.4543 29.885 99.3627 29.8849 99.9203 30.4467L104.492 35.0515C105.388 35.9547 106.929 35.3198 106.929 34.0471V15.6826C106.929 14.8952 106.291 14.2568 105.503 14.2568H87.2729Z" fill="white"/>
<path d="M87.2729 106.929C86.0052 106.929 85.368 105.398 86.261 104.499L90.8721 99.8536C91.424 99.2976 91.424 98.4006 90.8721 97.8447L76.1797 83.0443C75.6279 82.4884 75.6279 81.5913 76.1797 81.0354L81.2101 75.9681C81.7677 75.4064 82.6761 75.4064 83.2337 75.9681L97.8967 90.7389C98.4543 91.3006 99.3627 91.3006 99.9203 90.7389L104.492 86.134C105.388 85.2308 106.929 85.8658 106.929 87.1385V105.503C106.929 106.29 106.291 106.929 105.503 106.929H87.2729Z" fill="white"/>
<path d="M34.0655 14.2568C35.3357 14.2568 35.9718 15.7925 35.0736 16.6907L30.436 21.3283C29.8792 21.8851 29.8792 22.7878 30.436 23.3445L45.229 38.1376C45.7858 38.6944 45.7858 39.5971 45.2291 40.1538L40.1543 45.2286C39.5976 45.7853 38.6948 45.7853 38.1381 45.2286L23.345 30.4355C22.7883 29.8788 21.8855 29.8788 21.3288 30.4355L16.6912 35.0731C15.793 35.9713 14.2573 35.3352 14.2573 34.065V15.6826C14.2573 14.8952 14.8956 14.2568 15.683 14.2568H34.0655Z" fill="white"/>
<path d="M34.0655 106.929C35.3357 106.929 35.9718 105.393 35.0736 104.495L30.436 99.8573C29.8792 99.3005 29.8792 98.3978 30.436 97.841L45.229 83.048C45.7858 82.4912 45.7858 81.5885 45.2291 81.0317L40.1543 75.957C39.5976 75.4002 38.6948 75.4002 38.1381 75.957L23.345 90.75C22.7883 91.3068 21.8855 91.3068 21.3288 90.75L16.6912 86.1124C15.793 85.2143 14.2573 85.8504 14.2573 87.1205V105.503C14.2573 106.29 14.8956 106.929 15.683 106.929H34.0655Z" fill="white"/>
</svg>
