<svg width="122" height="122" viewBox="0 0 122 122" fill="none" xmlns="http://www.w3.org/2000/svg">
<path d="M28.4506 50.1636C27.183 50.1636 26.5457 48.6331 27.4388 47.7334L32.6771 42.4566C33.2289 41.9007 33.2289 41.0037 32.6771 40.4478L16.6799 24.3329C16.128 23.777 16.128 22.88 16.6799 22.3241L22.2606 16.7023C22.8182 16.1406 23.7266 16.1406 24.2842 16.7023L40.252 32.7875C40.8096 33.3492 41.7181 33.3492 42.2757 32.7875L47.4741 27.5508C48.3707 26.6476 49.9116 27.2826 49.9116 28.5553V48.7379C49.9116 49.5253 49.2733 50.1636 48.4859 50.1636H28.4506Z" fill="white"/>
<path d="M28.4506 71.5493C27.183 71.5493 26.5457 73.0798 27.4388 73.9795L32.6771 79.2562C33.2289 79.8122 33.2289 80.7092 32.6771 81.2651L16.6799 97.38C16.128 97.9359 16.128 98.8329 16.6799 99.3888L22.2606 105.011C22.8182 105.572 23.7266 105.572 24.2842 105.011L40.252 88.9254C40.8096 88.3637 41.7181 88.3637 42.2757 88.9254L47.4741 94.1621C48.3707 95.0653 49.9116 94.4303 49.9116 93.1576V72.975C49.9116 72.1876 49.2733 71.5493 48.4859 71.5493H28.4506Z" fill="white"/>
<path d="M92.9235 50.165C94.1936 50.165 94.8297 48.6293 93.9316 47.7312L88.6622 42.4618C88.1054 41.905 88.1054 41.0023 88.6622 40.4455L104.77 24.3381C105.326 23.7813 105.326 22.8786 104.77 22.3218L99.1404 16.6926C98.5837 16.1359 97.681 16.1359 97.1242 16.6926L81.0167 32.8001C80.46 33.3569 79.5573 33.3569 79.0005 32.8001L73.7311 27.5307C72.8329 26.6325 71.2972 27.2686 71.2972 28.5388V48.7393C71.2972 49.5267 71.9356 50.165 72.723 50.165H92.9235Z" fill="white"/>
<path d="M92.9235 71.5493C94.1936 71.5493 94.8297 73.085 93.9316 73.9832L88.6622 79.2526C88.1054 79.8093 88.1054 80.712 88.6622 81.2688L104.77 97.3763C105.326 97.933 105.326 98.8357 104.77 99.3925L99.1404 105.022C98.5837 105.578 97.681 105.578 97.1242 105.022L81.0167 88.9143C80.46 88.3575 79.5573 88.3575 79.0005 88.9143L73.7311 94.1837C72.8329 95.0818 71.2972 94.4457 71.2972 93.1755V72.975C71.2972 72.1876 71.9356 71.5493 72.723 71.5493H92.9235Z" fill="white"/>
</svg>
