<svg width="122" height="122" viewBox="0 0 122 122" fill="none" xmlns="http://www.w3.org/2000/svg">
<path d="M18.1325 95.3676C18.1325 98.9968 15.1904 101.939 11.5612 101.939C7.93204 101.939 4.98999 98.9968 4.98999 95.3676C4.98999 91.7384 7.93204 88.7964 11.5612 88.7964C15.1904 88.7964 18.1325 91.7384 18.1325 95.3676Z" fill="white"/>
<path d="M92.4375 97.3899H33.2964C32.1798 97.3899 31.2743 96.4845 31.2743 95.3678C31.2743 94.2512 32.1798 93.3458 33.2964 93.3457H92.4375C93.5542 93.3457 94.4596 94.2512 94.4596 95.3678C94.4596 96.4845 93.5542 97.3899 92.4375 97.3899Z" fill="white"/>
<path d="M18.1321 72.1157C18.1321 75.7449 15.1901 78.6869 11.5609 78.6869C7.93167 78.6869 4.98962 75.7449 4.98962 72.1157C4.98962 68.4865 7.93167 65.5444 11.5609 65.5444C15.1901 65.5444 18.1321 68.4865 18.1321 72.1157Z" fill="white"/>
<path d="M18.1321 48.8632C18.1321 52.4924 15.1901 55.4345 11.5609 55.4345C7.93167 55.4345 4.98962 52.4924 4.98962 48.8632C4.98962 45.234 7.93167 42.292 11.5609 42.292C15.1901 42.292 18.1321 45.234 18.1321 48.8632Z" fill="white"/>
<path d="M51.3348 46.8413C51.2963 47.5106 51.2733 48.1848 51.2733 48.8638C51.2733 49.5424 51.2963 50.2163 51.3348 50.8853H33.2968C32.1802 50.8852 31.2745 49.9803 31.2743 48.8638C31.2743 47.7472 32.1801 46.8414 33.2968 46.8413H51.3348Z" fill="white"/>
<path d="M58.5546 70.0933C59.6786 71.5373 60.9149 72.8892 62.2499 74.1372H33.2968C32.1801 74.1372 31.2743 73.2314 31.2743 72.1147C31.2746 70.9983 32.1803 70.0933 33.2968 70.0933H58.5546Z" fill="white"/>
<path d="M85.8661 18.5342C102.616 18.5342 116.195 32.1131 116.195 48.8633C116.195 65.6134 102.616 79.1924 85.8661 79.1924C69.1161 79.1922 55.5381 65.6132 55.538 48.8633C55.538 32.1132 69.1161 18.5344 85.8661 18.5342ZM84.7655 29.6553C83.9782 29.6553 83.3398 30.2937 83.3397 31.0811V52.998C83.3397 53.7854 83.9781 54.4238 84.7655 54.4238H96.5731C97.3605 54.4238 97.9989 53.7854 97.9989 52.998V51.7734C97.9986 50.9863 97.3604 50.3486 96.5731 50.3486H88.8641C88.0769 50.3486 87.4386 49.7101 87.4384 48.9229V31.0811C87.4383 30.2938 86.7998 29.6554 86.0126 29.6553H84.7655Z" fill="#5DCEFF"/>
</svg>
