<svg width="122" height="122" viewBox="0 0 122 122" fill="none" xmlns="http://www.w3.org/2000/svg">
<g clip-path="url(#clip0_54_414)">
<path d="M54.0438 35.3146C57.0182 34.8299 60.0565 34.8936 63.0077 35.5041C63.7787 35.6636 64.23 36.4505 64.0262 37.2111L63.0946 40.6877C62.9906 41.0756 63.15 41.9835 63.5338 42.1018C66.6198 43.053 69.3705 44.7675 71.5664 47.0252C71.8424 47.309 72.5882 47.0751 72.87 46.797L75.2762 44.423C75.8509 43.8559 76.7848 43.8768 77.2918 44.5051C79.2041 46.8745 80.7284 49.6903 81.6903 52.5803C81.9415 53.335 81.4752 54.1247 80.7039 54.3195L77.6903 55.0812C77.4903 55.1317 76.4786 56.0342 76.5224 56.2358C76.8069 57.5444 76.9569 58.9033 76.9569 60.297C76.9568 62.1369 76.6953 63.9155 76.208 65.5983C76.1306 65.8658 76.9798 66.6873 77.2469 66.7658L80.7137 67.7853C81.4788 68.0104 81.915 68.8211 81.6317 69.5666C80.5595 72.3882 78.9781 74.9894 76.9666 77.2404C76.4527 77.8155 75.5686 77.8253 75.0077 77.2961L72.2293 74.675C71.9224 74.3854 71.0636 74.073 70.752 74.3576C68.5355 76.3817 65.8389 77.8885 62.8526 78.6875C62.5009 78.7816 62.2711 79.8108 62.3504 80.1662L63.1336 83.6799C63.3049 84.4484 62.8209 85.2143 62.0438 85.341C59.0693 85.8257 56.0311 85.7611 53.0799 85.1506C52.3089 84.991 51.8576 84.2051 52.0614 83.4445L52.993 79.9679C53.0943 79.5901 52.9225 78.6763 52.5472 78.5661C49.4341 77.6521 46.6526 75.9636 44.4243 73.7239C44.1454 73.4436 43.2335 73.7346 42.9422 74.0021L40.2918 76.4367C39.7119 76.9693 38.8057 76.9341 38.3075 76.3244C36.4005 73.9909 34.9379 71.327 33.9911 68.466C33.7437 67.7186 34.1984 66.9345 34.9588 66.7306L38.4364 65.799C38.8274 65.6944 39.4956 65.1252 39.4015 64.7315C39.0615 63.3087 38.8807 61.824 38.8807 60.297C38.8807 58.4448 39.145 56.6542 39.6383 54.9611C39.754 54.5641 39.1758 54.0166 38.7821 53.8898L35.0955 52.7033C34.35 52.4631 33.9337 51.6644 34.2108 50.9318C35.276 48.1159 36.848 45.5185 38.8485 43.2687C39.3767 42.6747 40.294 42.6834 40.8485 43.2531L43.5467 46.0256C43.8242 46.3107 44.6679 46.6217 44.9593 46.3508C47.2613 44.2107 50.0938 42.6338 53.2378 41.8389C53.6309 41.7395 53.8254 40.8842 53.7371 40.4885L52.9539 36.9758C52.7826 36.2072 53.2666 35.4413 54.0438 35.3146ZM57.9188 47.4543C50.8264 47.4544 45.077 53.2046 45.077 60.297C45.0771 67.3894 50.8264 73.1388 57.9188 73.1388C65.0112 73.1388 70.7605 67.3894 70.7606 60.297C70.7606 53.2046 65.0113 47.4543 57.9188 47.4543Z" fill="#EEFF00"/>
<path d="M92.9654 20.4642C102.314 28.4993 108.527 39.508 110.554 51.5703C110.685 52.3492 110.136 53.072 109.353 53.178L102.629 54.0889C101.851 54.1943 101.137 53.6503 101.002 52.877C99.3021 43.1079 94.2416 34.1991 86.6594 27.6822C78.7157 20.8546 68.546 17.1179 58.0449 17.1684C47.5438 17.2188 37.4276 21.0528 29.5809 27.9562C21.7343 34.8596 16.6925 44.3615 15.3948 54.6915C14.097 65.0216 16.632 75.4753 22.5272 84.105C28.4225 92.7347 37.276 98.9519 47.4383 101.598C57.6007 104.244 68.3786 103.139 77.7642 98.4887C86.7132 94.0545 93.8143 86.6855 97.8802 77.6539C98.2075 76.9267 97.8438 76.0829 97.1006 75.7939L92.9682 74.1868C91.8785 73.7629 91.7342 72.2797 92.7218 71.6538L108.224 61.8285C109.056 61.3014 110.158 61.756 110.377 62.716L114.324 80.0374C114.573 81.1292 113.523 82.0685 112.466 81.7009L108.662 80.3789C107.947 80.1303 107.164 80.4853 106.858 81.1783C101.917 92.3986 93.1592 101.557 82.089 107.042C70.6128 112.729 57.4342 114.08 45.0083 110.844C32.5824 107.608 21.7568 100.007 14.5485 89.4546C7.3401 78.9027 4.24055 66.1206 5.82733 53.4896C7.4141 40.8586 13.579 29.2403 23.1733 20.7993C32.7677 12.3583 45.1372 7.67019 57.9773 7.60854C70.8174 7.5469 83.2524 12.1159 92.9654 20.4642Z" fill="white"/>
</g>
<defs>
<clipPath id="clip0_54_414">
<rect width="121.186" height="121.186" fill="white"/>
</clipPath>
</defs>
</svg>
