<svg width="122" height="122" viewBox="0 0 122 122" fill="none" xmlns="http://www.w3.org/2000/svg">
<path d="M116.196 59.7527C117.146 60.3015 117.146 61.6734 116.196 62.2221L68.5555 89.7271C67.605 90.2759 66.4169 89.59 66.4169 88.4924L66.4169 33.4824C66.4169 32.3849 67.605 31.699 68.5555 32.2477L116.196 59.7527Z" fill="#00FF77"/>
<path d="M31.5639 90.8138V103.469C31.5639 104.256 32.2022 104.894 32.9896 104.894H47.6565C48.4439 104.894 49.0823 104.256 49.0823 103.469V90.8546C49.0823 90.8321 49.064 90.8138 49.0414 90.8138C49.0189 90.8138 49.0006 90.7955 49.0006 90.773V23.6686V17.8212C49.0006 17.0338 48.3623 16.3955 47.5749 16.3955H28.724C28.2889 16.3955 27.8776 16.5942 27.6071 16.935L22.2643 23.6686L3.70009 48.1507C3.22936 48.7715 3.34413 49.6552 3.95782 50.1352L12.8741 57.1085C13.4997 57.5978 14.4045 57.4815 14.8861 56.85L30.3076 36.6283C30.44 36.4547 30.6458 36.3529 30.8641 36.3529C31.2506 36.3529 31.5639 36.6662 31.5639 37.0527V90.8138Z" fill="white"/>
</svg>
