<svg width="122" height="122" viewBox="0 0 122 122" fill="none" xmlns="http://www.w3.org/2000/svg">
<path d="M89.1069 59.0011C90.0574 59.5499 90.0574 60.9217 89.1069 61.4705L46.8702 85.8559C45.9197 86.4046 44.7316 85.7187 44.7316 84.6212L44.7316 35.8504C44.7316 34.7529 45.9197 34.067 46.8702 34.6157L89.1069 59.0011Z" fill="#00FF77"/>
<path d="M114.048 57.0405C113.139 44.5934 107.916 32.8535 99.2796 23.8439C90.6433 14.8344 79.1347 9.11962 66.7372 7.68455C54.3396 6.24948 41.8298 9.184 31.3637 15.9824C20.8976 22.7807 13.1307 33.017 9.40168 44.9272L16.1214 47.0311C19.3608 36.685 26.1077 27.793 35.1994 21.8874C44.2911 15.9818 55.158 13.4327 65.9275 14.6793C76.6969 15.9259 86.6942 20.8902 94.1964 28.7166C101.699 36.5429 106.236 46.7412 107.026 57.5537L114.048 57.0405Z" fill="white"/>
<path d="M6.77649 64.8562C7.68605 77.3033 12.9091 89.0433 21.5454 98.0528C30.1817 107.062 41.6903 112.777 54.0878 114.212C66.4853 115.647 78.9951 112.713 89.4612 105.914C99.9274 99.116 107.694 88.8797 111.423 76.9695L104.704 74.8656C101.464 85.2117 94.7173 94.1038 85.6256 100.009C76.5339 105.915 65.6669 108.464 54.8975 107.217C44.128 105.971 34.1308 101.007 26.6286 93.1802C19.1264 85.3538 14.5893 75.1555 13.7992 64.343L6.77649 64.8562Z" fill="white"/>
<path d="M96.3169 77.0994C96.3169 71.0265 101.086 66.1035 106.969 66.1035C112.852 66.1035 117.621 71.0265 117.621 77.0994C117.621 83.1722 112.852 88.0952 106.969 88.0952C101.086 88.0952 96.3169 83.1722 96.3169 77.0994Z" fill="white"/>
<path d="M2.85126 44.4544C2.85126 38.5714 7.46659 33.8022 13.1599 33.8022C18.8532 33.8022 23.4685 38.5714 23.4685 44.4544C23.4685 50.3375 18.8532 55.1067 13.1599 55.1067C7.46659 55.1067 2.85126 50.3375 2.85126 44.4544Z" fill="white"/>
</svg>
