<svg width="122" height="122" viewBox="0 0 122 122" fill="none" xmlns="http://www.w3.org/2000/svg">
<g clip-path="url(#clip0_54_435)">
<path d="M75.0117 17.634C74.2587 16.6802 73.6741 16.9842 74.0807 18.1294C76.6546 25.3796 83.1409 43.2755 85.3091 49.2529C85.6298 50.137 84.9767 51.0568 84.0362 51.059C82.2617 51.0631 80.4701 51.0483 78.711 51.0484L67.1876 51.0522C66.0056 51.0525 65.3263 52.4995 66.0533 53.4314C66.2235 53.6494 66.3883 53.86 66.5443 54.0563L70.9533 59.6019L84.3356 76.4208L98.0423 93.6555L101.837 98.4256C101.905 98.5108 101.975 98.5976 102.046 98.6856C102.79 99.6072 103.391 99.3003 102.982 98.1887C102.824 97.7588 102.697 97.4176 102.652 97.2915L100.047 90.0724L94.5187 74.7536C93.5794 72.1576 92.6076 69.5346 91.6798 66.9216C91.3676 66.0422 92.0156 65.1206 92.9488 65.1135C98.5752 65.0711 104.278 65.1061 109.918 65.1201C111.081 65.123 111.734 63.747 111.015 62.8335C110.751 62.4993 110.491 62.168 110.234 61.8459L105.622 56.0476L92.5819 39.6562L79.9282 23.7401C78.3044 21.6986 76.6312 19.6851 75.0117 17.634Z" fill="#00FF77"/>
<path d="M28.7124 90.8138V103.469C28.7124 104.256 29.3507 104.894 30.1381 104.894H44.8051C45.5925 104.894 46.2308 104.256 46.2308 103.469V90.8546C46.2308 90.8321 46.2125 90.8138 46.19 90.8138C46.1674 90.8138 46.1491 90.7955 46.1491 90.773V23.6686V17.8212C46.1491 17.0338 45.5108 16.3955 44.7234 16.3955H25.8725C25.4374 16.3955 25.0261 16.5942 24.7557 16.935L19.4129 23.6686L0.848653 48.1507C0.377917 48.7715 0.492686 49.6552 1.10638 50.1352L10.0227 57.1085C10.6483 57.5978 11.553 57.4815 12.0347 56.85L27.4562 36.6283C27.5885 36.4547 27.7943 36.3529 28.0126 36.3529C28.3991 36.3529 28.7124 36.6662 28.7124 37.0527V90.8138Z" fill="white"/>
</g>
<defs>
<clipPath id="clip0_54_435">
<rect width="121.186" height="121.186" fill="white"/>
</clipPath>
</defs>
</svg>
