<svg width="122" height="122" viewBox="0 0 122 122" fill="none" xmlns="http://www.w3.org/2000/svg">
<path d="M89.3824 94.119C83.0436 99.5494 75.3059 103.089 67.0523 104.333C58.7987 105.578 50.3614 104.478 42.7031 101.158C35.0447 97.838 28.4737 92.4325 23.7396 85.5579C19.0056 78.6833 16.2991 70.6165 15.929 62.2778" stroke="white" stroke-width="4.98999" stroke-linecap="square" stroke-linejoin="round" stroke-dasharray="15.68 15.68"/>
<path d="M31.9907 26.0269C38.416 20.699 46.2095 17.2844 54.4821 16.1726C62.7546 15.0608 71.1731 16.2966 78.7771 19.7391C86.3811 23.1816 92.8644 28.692 97.4874 35.6418C102.11 42.5916 104.687 50.7008 104.923 59.0444" stroke="white" stroke-width="4.98999" stroke-linecap="square" stroke-linejoin="round" stroke-dasharray="15.68 15.68"/>
<path d="M13.9334 39.1865C14.4349 38.2103 15.8051 38.1429 16.3999 39.0653L28.5202 57.8624C29.115 58.7848 28.4882 60.0051 27.392 60.059L5.05308 61.157C3.95689 61.2109 3.21344 60.0579 3.71487 59.0816L13.9334 39.1865Z" fill="white"/>
<path d="M104.186 82.3644C104.765 83.2967 106.137 83.2525 106.654 82.2849L117.208 62.5653C117.726 61.5976 117.002 60.4322 115.905 60.4676L93.5505 61.188C92.4535 61.2234 91.8062 62.4329 92.3853 63.3652L104.186 82.3644Z" fill="white"/>
<path d="M71.5855 79.6441C70.9553 79.6441 70.3999 79.2303 70.2194 78.6265L67.7489 70.3581C67.5685 69.7543 67.0131 69.3406 66.3829 69.3406H54.1606C53.5304 69.3406 52.975 69.7543 52.7946 70.3581L50.3241 78.6265C50.1437 79.2303 49.5882 79.6441 48.958 79.6441H42.5039C41.5343 79.6441 40.8475 78.697 41.1488 77.7754L54.3783 37.3026C54.5699 36.7164 55.1167 36.3198 55.7334 36.3198H65.2369C65.8557 36.3198 66.4038 36.7189 66.5938 37.3078L79.6507 77.7806C79.9477 78.7012 79.2612 79.6441 78.2938 79.6441H71.5855ZM60.4072 45.0329C60.3817 44.9454 60.3015 44.8854 60.2105 44.8854C60.1191 44.8854 60.0388 44.9458 60.0135 45.0335L55.84 59.5131C55.5773 60.4246 56.2613 61.3337 57.2099 61.3337H63.2652C64.2158 61.3337 64.9002 60.4209 64.6338 59.5084L60.4072 45.0329Z" fill="#00FF77"/>
</svg>
