<svg width="131" height="131" viewBox="0 0 131 131" fill="none" xmlns="http://www.w3.org/2000/svg">
<path d="M62.2991 74.1292L62.1494 74.0774L62.0902 74.056L61.942 74.0007C61.9224 73.9934 61.9028 73.9857 61.8833 73.978L61.7362 73.9194C61.7169 73.9117 61.6975 73.9039 61.6783 73.8958L61.5324 73.8336L61.4754 73.8083L61.3302 73.7429L61.2743 73.7167L61.1308 73.6475C61.1124 73.6386 61.0939 73.6296 61.0757 73.6204L60.9333 73.5479C60.9153 73.5387 60.8972 73.5292 60.8794 73.5196L60.738 73.444L60.6853 73.4149L60.5452 73.3353C60.5281 73.3256 60.5109 73.3156 60.494 73.3055L60.355 73.2227C60.3384 73.2128 60.3218 73.2026 60.3053 73.1923L60.167 73.1061L60.1189 73.075L59.9817 72.9853L59.935 72.9538L59.7994 72.8607C59.7842 72.8502 59.769 72.8396 59.7541 72.8289L59.6192 72.7324L59.5752 72.7003L59.4419 72.6003C59.4278 72.5897 59.4137 72.5789 59.3998 72.568L59.2672 72.4648L59.2264 72.4321L59.0954 72.3254C59.0822 72.3147 59.0688 72.3038 59.0559 72.2928L58.9259 72.1829C58.9132 72.1721 58.9005 72.1614 58.8881 72.1504L58.7589 72.0368L58.7228 72.0045L58.5951 71.8878C58.5834 71.8771 58.5717 71.8664 58.5602 71.8555L58.4332 71.7355L58.4 71.7034L58.2744 71.5802C58.2637 71.5697 58.2529 71.5592 58.2424 71.5485L58.1176 71.4217L58.0871 71.3905L57.9638 71.2606C57.954 71.2503 57.9442 71.2398 57.9346 71.2294L57.8119 71.0965L57.7842 71.0659L57.6627 70.9294L57.6362 70.8991L57.5156 70.7598L57.4902 70.7299L57.3712 70.5871C57.3631 70.5774 57.3549 70.5678 57.3469 70.558L57.2289 70.4124L57.0883 70.2347L57.0664 70.2063L56.9505 70.0543C56.9434 70.0451 56.9364 70.0359 56.9295 70.0267L56.8142 69.8716L56.7944 69.8444L56.68 69.6865L56.6614 69.6597L56.5481 69.4986L56.53 69.4727L56.418 69.3089C56.4122 69.3004 56.4064 69.2918 56.4007 69.2833L56.2898 69.1162L56.2735 69.0914L56.1632 68.9213L56.148 68.8972L56.0236 68.7007L55.9156 68.5251L55.9017 68.5022L55.7942 68.3236L55.781 68.301L55.6745 68.1195L55.6619 68.0979L55.5563 67.9136L55.5444 67.8925L55.4397 67.7054L55.4285 67.6849L55.3246 67.4953L55.3138 67.475L55.2112 67.2829C55.2077 67.2764 55.2043 67.2698 55.2009 67.2633L55.0989 67.0682L55.0892 67.0495L54.9881 66.8517L54.9787 66.8335L54.8785 66.6331L54.8697 66.6155L54.7703 66.4126L54.6636 66.1902C54.6609 66.1846 54.6581 66.1789 54.6555 66.1733L54.5576 65.9657L54.5502 65.9494L54.4535 65.7395C54.4511 65.7342 54.4483 65.7288 54.4459 65.7235L54.3501 65.5111C54.3478 65.506 54.3455 65.5008 54.3432 65.4957L54.2477 65.281L54.2412 65.2658L54.1468 65.0491C54.1447 65.0443 54.1425 65.0395 54.1404 65.0347L54.047 64.8151L54.0409 64.8012L53.948 64.5799C53.9461 64.5754 53.9442 64.5706 53.9423 64.5661L53.8498 64.3425L53.7529 64.1036L53.652 63.851L53.562 63.6211C53.5605 63.6172 53.5589 63.6132 53.5574 63.6093L53.4633 63.3657L53.3705 63.121L53.2821 62.8853L53.2783 62.8746L53.1866 62.6267L53.0999 62.3871L53.0963 62.3772L53.0096 62.1362L53.0063 62.1267L52.9206 61.884C52.9195 61.8809 52.9183 61.8776 52.9173 61.8746L52.8318 61.6299L52.8291 61.6211L52.7441 61.375C52.7431 61.3722 52.7423 61.3694 52.7413 61.3666L52.6569 61.1187L52.654 61.1106L52.5705 60.8614C52.5696 60.8588 52.5688 60.8561 52.568 60.8535L52.4845 60.6028L52.4823 60.5953L52.3969 60.336L52.3149 60.0822L52.3124 60.0754L52.2308 59.8206C52.2301 59.8184 52.2294 59.8161 52.2287 59.8139L52.147 59.5579L52.1452 59.5517L52.0644 59.2943C52.0637 59.2924 52.0631 59.2901 52.0625 59.2882L51.9817 59.0296L51.9801 59.0239L51.8996 58.7643L51.898 58.759L51.8183 58.498L51.8165 58.4931L51.7371 58.2314L51.7357 58.2266L51.6563 57.9638L51.6552 57.9594L51.5761 57.6955L51.5749 57.6915L51.4964 57.427L51.4952 57.423L51.4166 57.1577L51.4157 57.1538L51.3374 56.8878L51.3368 56.8844L51.2587 56.6176L51.2579 56.6146L51.1801 56.3471L51.1793 56.3441L51.1016 56.0762L51.1011 56.0737L51.0237 55.8048L51.0232 55.8026L50.9459 55.5334L50.9452 55.5315L50.8684 55.262L50.8677 55.2602L50.7911 54.9904L50.7908 54.9887L50.7139 54.7183L50.7135 54.717L50.6369 54.4468L50.6365 54.4455L50.5601 54.1749L50.5599 54.174L50.4832 53.903L50.2541 53.0897L49.796 51.4728L49.5664 50.6724L49.4128 50.1425L49.3361 49.8794L49.2591 49.617L49.1819 49.3553L49.0266 48.8355L48.949 48.5776L48.8692 48.3159L48.7145 47.8114L48.5562 47.3073L48.4771 47.0576L48.3972 46.8093L48.3174 46.563L48.2371 46.3184L48.1562 46.0753L48.0752 45.8342L47.9939 45.5949L47.9124 45.3576L47.827 45.1129L47.7476 44.8886L47.6649 44.6575L47.5816 44.4283L47.4984 44.2015L47.4095 43.9656L47.3293 43.7541L47.2446 43.5343L47.1592 43.3166L47.0681 43.0887L46.9871 42.8888L46.9008 42.6788L46.8133 42.4712L46.7258 42.2663L46.638 42.0645L46.5496 41.8649L46.4612 41.6689L46.3639 41.4584L46.282 41.2844L46.1833 41.0793L46.1014 40.912L46.0108 40.7303L45.9196 40.552L45.8176 40.357L45.7253 40.1842L45.6441 40.0354L45.5445 39.8575L45.4518 39.6953L45.3523 39.5261L45.2726 39.3932L45.1787 39.241L45.0745 39.0758L44.9912 38.9473L44.8972 38.8057L44.8033 38.6677L44.6934 38.5117L44.6146 38.4021L44.5068 38.2567L44.4161 38.1389L44.3206 38.017L44.2297 37.905L44.1318 37.7879L44.0389 37.6804L43.937 37.5663L43.847 37.4685L43.7596 37.3767L43.6654 37.2811L43.564 37.181L43.4873 37.1087L43.3754 37.0067L43.2878 36.9299L43.1951 36.8515L43.1131 36.7849L43.0148 36.7081L42.9234 36.6399L42.8355 36.5769L42.75 36.5183L42.6526 36.4541L42.5716 36.4037L42.4793 36.3488L42.3917 36.299L42.3081 36.254L42.2121 36.205L42.1301 36.1658L42.034 36.1222L41.9547 36.0887L41.864 36.0521L41.7622 36.0142L41.6807 35.9862L41.5987 35.9597L41.4944 35.9289L41.3995 35.9036L41.3153 35.8827L41.2134 35.8602L41.1254 35.8428L41.0196 35.8242L40.9237 35.8097L40.8242 35.7972L40.717 35.7856L40.6228 35.7776L40.5102 35.7706L40.4024 35.766L40.2891 35.7636L40.1755 35.7634L40.0507 35.7658L39.9442 35.7704L39.8305 35.7769L39.7051 35.7863L39.5614 35.8003L39.4491 35.8132L39.3079 35.8324L39.1823 35.8516L39.0575 35.8723L38.9165 35.8987L38.7789 35.9266L38.628 35.9596L38.4916 35.9918L38.3498 36.0271L38.1849 36.0713L38.0585 36.1069L37.9061 36.1521L37.7552 36.1994L37.5733 36.2581L37.4154 36.3122L37.2553 36.3691L37.111 36.4221L36.9547 36.4819L36.7626 36.557L36.6086 36.62L36.425 36.6968L36.269 36.7646L36.0802 36.848L35.9259 36.9183L35.7484 37.0012L35.5498 37.096L35.3698 37.184L35.188 37.2749L35.005 37.3681L34.8205 37.4645L34.6344 37.5631L34.4621 37.6564L34.2581 37.7685L34.0677 37.8748L33.8898 37.9761L33.6834 38.0953L33.4892 38.2091L33.2939 38.3252L33.0974 38.4433L32.8995 38.5642L32.7006 38.6871L32.5113 38.8056L32.2997 38.9394L32.0977 39.0688L31.8946 39.2002L31.6905 39.3336L31.4853 39.4687L31.2876 39.6007L31.0725 39.7452L30.8722 39.8811L30.656 40.0288L30.4464 40.1731L30.2363 40.3192L30.0253 40.4667L29.8194 40.6118L29.6008 40.7666L29.1734 41.0723L28.9591 41.2273L28.7438 41.3837L28.5278 41.5409L28.3114 41.6996L28.0981 41.8566L27.6585 42.182L27.4398 42.3451L27.0039 42.6714L26.781 42.8391L26.5607 43.0052L25.8969 43.5078L25.6749 43.6765C25.0467 44.1559 24.155 44.0696 23.6303 43.4786L21.8632 41.4879C21.5596 41.1459 21.6106 40.6179 21.9741 40.3403L22.1974 40.1705C22.1977 40.1703 22.198 40.17 22.1982 40.1697C22.1985 40.1694 22.1987 40.1691 22.1991 40.1689L22.4223 39.9991L22.4236 39.9979L22.6472 39.8281L22.6484 39.827L22.8719 39.6575L22.8736 39.6565L23.0965 39.4873L23.0983 39.4859L23.3215 39.3172L23.3238 39.3155L23.5463 39.1478L23.5487 39.1458L23.7715 38.9785L23.7739 38.9765L23.9964 38.8099L23.9993 38.8077L24.2213 38.6414L24.2246 38.6393L24.4463 38.474L24.4497 38.4716L24.6711 38.307L24.6745 38.3046L24.8961 38.1409L24.9 38.1382L25.1208 37.9754L25.1248 37.9724L25.3457 37.8108L25.3497 37.8078L25.5704 37.6469L25.5745 37.6436L25.7947 37.4841C25.7962 37.483 25.7978 37.4816 25.7993 37.4805L26.0191 37.3222C26.0208 37.3209 26.0226 37.3195 26.0243 37.3183L26.2433 37.1609C26.2451 37.1596 26.2471 37.1584 26.2489 37.1572L26.4675 37.0012C26.4693 36.9999 26.4713 36.9985 26.4731 36.9971L26.6917 36.8423C26.6936 36.841 26.6955 36.8396 26.6974 36.8383L26.9156 36.6846C26.9176 36.6832 26.9198 36.6817 26.9218 36.6803L27.1391 36.5282C27.1412 36.5267 27.1436 36.5252 27.1457 36.5237L27.3626 36.373C27.3648 36.3715 27.3671 36.3697 27.3693 36.3682L27.586 36.2191C27.5883 36.2175 27.5905 36.2158 27.5928 36.2142L27.8091 36.0665C27.8115 36.0649 27.8139 36.0631 27.8164 36.0614L28.032 35.9156C28.0346 35.9138 28.0372 35.912 28.0398 35.9102L28.2546 35.7657C28.2573 35.7639 28.2602 35.7619 28.2629 35.7601L28.4771 35.6173C28.4799 35.6155 28.483 35.6137 28.4858 35.6119L28.6994 35.4709C28.7023 35.4689 28.7053 35.4667 28.7083 35.4647L28.9217 35.3257C28.9247 35.3237 28.9276 35.3215 28.9306 35.3195L29.1434 35.1822C29.1466 35.1801 29.1496 35.1779 29.1528 35.1758L29.365 35.0403C29.3683 35.0382 29.3716 35.0361 29.3749 35.0341L29.5864 34.9003C29.5899 34.8982 29.5933 34.896 29.5968 34.8939L29.8074 34.7618C29.811 34.7595 29.8146 34.7573 29.8182 34.7551L30.0285 34.6253C30.0322 34.623 30.0358 34.6205 30.0395 34.6182L30.2491 34.4906C30.2528 34.4883 30.2566 34.4859 30.2604 34.4836L30.4694 34.3577C30.4734 34.3553 30.4776 34.3531 30.4816 34.3507L30.6894 34.2272C30.6936 34.2247 30.698 34.2221 30.7022 34.2196L30.9093 34.0982C30.9136 34.0957 30.9182 34.0933 30.9225 34.0908L31.1289 33.9715C31.1334 33.9689 31.1382 33.9661 31.1427 33.9635L31.3488 33.8465C31.3534 33.8439 31.3583 33.8412 31.363 33.8386L31.5678 33.724C31.5727 33.7212 31.5776 33.7185 31.5826 33.7158L31.787 33.6035C31.7921 33.6007 31.7972 33.5978 31.8023 33.5951L32.0055 33.4852C32.0109 33.4823 32.0164 33.4795 32.0217 33.4767L32.2241 33.3692C32.2296 33.3663 32.2353 33.3634 32.2408 33.3605L32.4424 33.2555C32.4481 33.2526 32.4542 33.2497 32.4599 33.2467L32.6608 33.1439C32.6667 33.1409 32.6728 33.1382 32.6788 33.1352L32.8788 33.0349C32.885 33.0318 32.8912 33.0287 32.8974 33.0257L33.0968 32.9283C33.1031 32.9252 33.1095 32.9222 33.1158 32.9192L33.3144 32.8244C33.3211 32.8212 33.3277 32.8179 33.3344 32.8148L33.5321 32.7228C33.539 32.7196 33.5457 32.7161 33.5526 32.713L33.7494 32.6235C33.7566 32.6202 33.764 32.6169 33.7712 32.6137L33.9667 32.527C33.9741 32.5237 33.9815 32.5205 33.9889 32.5173L34.1839 32.4332C34.1917 32.4298 34.1993 32.4263 34.2071 32.423L34.4011 32.3421C34.4091 32.3388 34.4171 32.3352 34.4252 32.3319L34.6183 32.2535C34.6266 32.2501 34.6349 32.2468 34.6432 32.2435L34.8354 32.168C34.8439 32.1646 34.8525 32.1612 34.8611 32.1579L35.0524 32.0852C35.0613 32.0818 35.0705 32.0782 35.0795 32.0749L35.2693 32.0052C35.2785 32.0018 35.2879 31.9984 35.2972 31.9951L35.4865 31.9281C35.4961 31.9247 35.5057 31.9212 35.5154 31.9179L35.7036 31.8541C35.7136 31.8507 35.7236 31.8475 35.7336 31.8443L35.9205 31.7832C35.9309 31.7799 35.9415 31.7763 35.9519 31.7731L36.1378 31.7152C36.1484 31.7119 36.1592 31.7085 36.1699 31.7053L36.3552 31.6505C36.3663 31.6472 36.3774 31.6441 36.3885 31.641L36.5729 31.589C36.5843 31.5858 36.5956 31.5824 36.6071 31.5794L36.7902 31.5309C36.8021 31.5278 36.8142 31.5245 36.8261 31.5215L37.0079 31.4758C37.0202 31.4727 37.0326 31.4696 37.045 31.4667L37.2261 31.4243C37.2387 31.4214 37.2516 31.4184 37.2643 31.4157L37.444 31.3764C37.457 31.3735 37.4702 31.3707 37.4833 31.3681L37.6624 31.3318C37.6759 31.3291 37.6894 31.3264 37.703 31.3239L37.8809 31.2912C37.8949 31.2886 37.9089 31.2861 37.923 31.2838L38.0995 31.2538C38.1139 31.2514 38.1286 31.2494 38.143 31.2473L38.3186 31.2205C38.3334 31.2183 38.3483 31.2163 38.3632 31.2144L38.5376 31.1912C38.5527 31.1891 38.5681 31.1872 38.5834 31.1854L38.757 31.1655C38.7727 31.1637 38.7885 31.1622 38.8043 31.1607L38.9765 31.1439C38.9925 31.1423 39.0087 31.141 39.0248 31.1398L39.1963 31.1263C39.2128 31.125 39.2294 31.124 39.246 31.1231L39.4159 31.1131C39.4329 31.1121 39.4501 31.1113 39.4671 31.1107L39.6359 31.1039C39.6532 31.1032 39.6708 31.1026 39.6881 31.1022L39.8562 31.0992C39.8739 31.0988 39.8916 31.0986 39.9093 31.0986L40.0763 31.0987C40.0943 31.0988 40.1123 31.0989 40.1303 31.0993L40.2961 31.103C40.3146 31.1034 40.333 31.104 40.3515 31.1048L40.5158 31.1116C40.5346 31.1124 40.5537 31.1134 40.5725 31.1146L40.7356 31.1249C40.7547 31.1262 40.7738 31.1273 40.7928 31.1289L40.9553 31.1426C40.9746 31.1443 40.9939 31.1464 41.0132 31.1484L41.1741 31.1656C41.1937 31.1677 41.2134 31.17 41.2329 31.1725L41.3931 31.193C41.4129 31.1955 41.4326 31.1982 41.4523 31.2012L41.6108 31.2255C41.6308 31.2285 41.651 31.2317 41.6709 31.2352L41.8283 31.2627C41.8484 31.2662 41.8687 31.2701 41.8887 31.274L42.0454 31.3049C42.0655 31.3088 42.0858 31.313 42.1058 31.3175L42.2609 31.3521C42.2811 31.3566 42.3015 31.361 42.3216 31.366L42.4756 31.4038C42.4959 31.4088 42.5161 31.4142 42.5362 31.4197L42.6895 31.4608C42.7096 31.4663 42.7296 31.4722 42.7496 31.4781L42.9017 31.5228C42.9218 31.5288 42.942 31.5349 42.9619 31.5413L43.1124 31.5895C43.1323 31.5959 43.1523 31.6025 43.1721 31.6094L43.3218 31.6612C43.3416 31.6681 43.3614 31.6752 43.381 31.6826L43.5295 31.738C43.5491 31.7453 43.5686 31.7525 43.588 31.7603L43.7353 31.8193C43.7546 31.827 43.7738 31.8347 43.7929 31.8428L43.9392 31.9051C43.9582 31.9132 43.977 31.9218 43.9958 31.9303L44.141 31.9957C44.1597 32.0042 44.1784 32.013 44.1969 32.0219L44.3408 32.0913C44.3591 32.1001 44.3774 32.109 44.3955 32.1182L44.5383 32.1908C44.5563 32.2 44.5741 32.2094 44.5918 32.219L44.7336 32.2948C44.7511 32.3042 44.7686 32.3139 44.7859 32.3237L44.926 32.4033C44.9431 32.413 44.9603 32.423 44.9772 32.4331L45.1166 32.516C45.1332 32.5259 45.1499 32.5358 45.1664 32.5461L45.3042 32.6325C45.3204 32.6426 45.3367 32.6532 45.3527 32.6637L45.4895 32.7533C45.5052 32.7636 45.5207 32.7741 45.5362 32.7848L45.6722 32.8781C45.6874 32.8885 45.7026 32.8991 45.7175 32.9098L45.852 33.0062C45.8667 33.0168 45.8815 33.0275 45.896 33.0383L46.0297 33.1384C46.0438 33.149 46.0579 33.1598 46.0718 33.1707L46.2044 33.274C46.2181 33.2846 46.2314 33.2956 46.2448 33.3065L46.3762 33.4133C46.3894 33.424 46.4024 33.4349 46.4153 33.4458L46.5457 33.5559C46.5584 33.5666 46.5711 33.5774 46.5835 33.5883L46.7123 33.7018C46.7244 33.7125 46.7365 33.7232 46.7484 33.7341L46.8765 33.8509C46.8882 33.8616 46.8999 33.8723 46.9114 33.8832L47.038 34.0031C47.0492 34.0137 47.0603 34.0245 47.0712 34.0352L47.1972 34.1585C47.2079 34.169 47.2187 34.1795 47.2292 34.1902L47.3536 34.3169C47.3638 34.3273 47.3741 34.3376 47.3841 34.3481L47.5078 34.4782C47.5176 34.4885 47.5274 34.4989 47.537 34.5093L47.6593 34.6421C47.6687 34.6523 47.6782 34.6626 47.6874 34.6729L47.8085 34.8092C47.8174 34.8192 47.8263 34.8294 47.835 34.8395L47.9556 34.9788C47.9642 34.9887 47.9726 34.9987 47.981 35.0087L48.1001 35.1511C48.1082 35.1608 48.1163 35.1708 48.1243 35.1806L48.2427 35.3263C48.2505 35.3359 48.2581 35.3458 48.2658 35.3554L48.3829 35.5039C48.3902 35.5133 48.3976 35.5228 48.4048 35.5323L48.5211 35.6845C48.5281 35.6936 48.5352 35.7028 48.5421 35.7121L48.657 35.867C48.6637 35.876 48.6703 35.8851 48.6768 35.8942L48.7912 36.0521C48.7976 36.0609 48.804 36.0702 48.8102 36.0791L48.9231 36.24C48.9292 36.2486 48.9353 36.2572 48.9412 36.2659L49.0536 36.4299C49.0593 36.4383 49.0649 36.4468 49.0705 36.4553L49.1818 36.6225C49.1872 36.6307 49.1927 36.6391 49.1981 36.6474L49.3081 36.8169C49.3134 36.825 49.3185 36.8334 49.3236 36.8415L49.4326 37.0143C49.4376 37.0221 49.4427 37.03 49.4476 37.0379L49.556 37.2136C49.5607 37.2212 49.5653 37.2289 49.5699 37.2365L49.677 37.415C49.6815 37.4224 49.6862 37.4303 49.6906 37.4377L49.7968 37.6187C49.8011 37.626 49.8055 37.6335 49.8097 37.6409L49.9149 37.825C49.9189 37.8321 49.9233 37.8391 49.9272 37.8462L50.0316 38.0329C50.0354 38.0398 50.0393 38.0469 50.0431 38.0538L50.1466 38.2433C50.1502 38.25 50.1538 38.2569 50.1574 38.2636L50.2604 38.4558C50.2639 38.4623 50.2672 38.4689 50.2707 38.4755L50.3723 38.6704C50.3756 38.6767 50.3791 38.6829 50.3824 38.6892L50.4831 38.8869C50.4862 38.893 50.4894 38.899 50.4925 38.9051L50.5927 39.1055C50.5957 39.1115 50.599 39.1173 50.6019 39.1233L50.7009 39.326C50.7037 39.3318 50.7065 39.3377 50.7093 39.3435L50.808 39.5485C50.8107 39.5541 50.8131 39.5598 50.8157 39.5653L50.9136 39.7729C50.9161 39.7783 50.9185 39.7838 50.921 39.7892L51.0181 39.9992C51.0205 40.0045 51.0229 40.0099 51.0253 40.0151L51.1215 40.2276C51.1238 40.2327 51.1261 40.2379 51.1284 40.243L51.2235 40.4576C51.2257 40.4626 51.2278 40.4678 51.23 40.4728L51.3248 40.6896C51.3268 40.6944 51.3287 40.6992 51.3308 40.7039L51.4247 40.9232C51.4267 40.9279 51.4284 40.9327 51.4303 40.9374L51.5235 41.1588C51.5254 41.1633 51.5272 41.1677 51.529 41.1722L51.6214 41.3961C51.6232 41.4004 51.6252 41.4047 51.627 41.4091L51.7183 41.635C51.72 41.6392 51.7219 41.6433 51.7236 41.6475L51.8143 41.8752C51.8159 41.8793 51.8176 41.8835 51.8192 41.8876L51.9096 42.1176C51.9111 42.1215 51.9127 42.1255 51.9142 42.1295L52.0035 42.3615C52.0049 42.3653 52.0064 42.3691 52.0079 42.3729L52.0969 42.6068C52.0983 42.6104 52.0997 42.6141 52.101 42.6177L52.1891 42.8533C52.1905 42.8568 52.1919 42.8606 52.1932 42.8642L52.2807 43.1015C52.282 43.1049 52.2833 43.1085 52.2846 43.1119L52.3718 43.3512C52.373 43.3545 52.3741 43.3582 52.3753 43.3615L52.4616 43.6024C52.4627 43.6056 52.4638 43.6087 52.4649 43.6119L52.551 43.8547C52.5521 43.8578 52.5529 43.861 52.5539 43.864L52.6394 44.1087C52.6404 44.1116 52.6414 44.1147 52.6425 44.1176L52.7271 44.3636C52.7281 44.3664 52.7293 44.3693 52.7302 44.3722L52.8143 44.6199C52.8152 44.6226 52.8163 44.6253 52.8172 44.628L52.9007 44.8771C52.9016 44.8798 52.9028 44.8826 52.9036 44.8853L52.9867 45.1358C52.9875 45.1383 52.9885 45.141 52.9893 45.1435L53.0719 45.3955C53.0727 45.3978 53.0735 45.4003 53.0743 45.4026L53.1567 45.6565C53.1574 45.6587 53.1581 45.661 53.1588 45.6632L53.2408 45.9182C53.2415 45.9203 53.2418 45.9225 53.2425 45.9247L53.3242 46.1807C53.3248 46.1828 53.3254 46.1849 53.326 46.1869L53.4072 46.4444C53.4079 46.4464 53.4084 46.4486 53.4091 46.4506L53.4895 46.709C53.4901 46.7109 53.4909 46.7129 53.4915 46.7148L53.5716 46.9743L53.5732 46.9796L53.6534 47.2403L53.6547 47.2455L53.7344 47.5073L53.7358 47.5121L53.8149 47.7748L53.8164 47.7793L53.8951 48.0431L53.8963 48.0471L53.9752 48.3117L53.9764 48.3157L54.0546 48.5809L54.0556 48.5844L54.1338 48.8508L54.1348 48.8543L54.2125 49.121L54.2136 49.1241L54.2911 49.3915L54.2918 49.3945L54.3696 49.6624L54.3704 49.665L54.4475 49.9338L54.4484 49.9361L54.5253 50.2052L54.526 50.2071L54.6032 50.4767L54.6034 50.4784L54.6805 50.7484L54.6808 50.75L54.7573 51.0203L54.7577 51.0216L54.8345 51.2914C54.8346 51.2917 54.8347 51.2921 54.8347 51.2925C54.8347 51.2929 54.8348 51.2933 54.8349 51.2937L54.9115 51.5638L54.9117 51.5647L54.988 51.8356L55.0649 52.1072L55.1411 52.3784L55.4466 53.4599L55.5996 53.9991L55.7521 54.5338L55.9051 55.0666L56.0595 55.5992L56.2124 56.1221L56.2896 56.3838L56.367 56.6436L56.4461 56.9076L56.6006 57.4179L56.6803 57.6785L56.759 57.9332L56.8379 58.1859L56.9172 58.4376L56.9944 58.6811L57.074 58.9293L57.1565 59.1829L57.2344 59.4206L57.315 59.6632L57.3989 59.9125L57.4773 60.1437L57.5591 60.3812L57.6412 60.6167L57.7236 60.85L57.8067 61.0812L57.8935 61.3207L57.9773 61.5482L58.0576 61.7621L58.1419 61.9845L58.2316 62.2163L58.3123 62.4225L58.3982 62.6375L58.4841 62.8498L58.5708 63.0599L58.664 63.2814L58.7518 63.4867L58.8336 63.6742L58.9216 63.8737L58.923 63.8761L58.9285 63.8891L59.0107 64.07L59.0998 64.2638L59.1894 64.4547L59.2794 64.6421L59.3698 64.8266L59.4608 65.0084L59.5616 65.2058L59.6536 65.3816L59.7353 65.5346L59.8271 65.7032L59.92 65.869L60.0253 66.0528L60.1189 66.2125L60.1988 66.3458L60.3074 66.5212L60.4019 66.6705L60.4862 66.801L60.5841 66.9478L60.6683 67.071L60.7686 67.2143L60.8623 67.3439L60.9656 67.4834L61.0553 67.6006L61.1561 67.7282L61.2431 67.8353L61.3396 67.9512L61.4325 68.0587L61.5272 68.1648L61.6241 68.2705L61.725 68.3759L61.8048 68.4568L61.9021 68.5523L61.9937 68.6391L62.0901 68.7272L62.1794 68.8053L62.2724 68.8839L62.3594 68.9549L62.4567 69.031L62.547 69.0984L62.6364 69.1623L62.7238 69.2228L62.8076 69.2776L62.9005 69.336L62.9896 69.389L63.0797 69.4401L63.1652 69.486L63.2609 69.5346L63.3418 69.5735L63.4379 69.617L63.5163 69.6503L63.6078 69.6871L63.7097 69.725L63.7912 69.753L63.8728 69.7794L63.977 69.8102L64.0723 69.8356L64.1554 69.8561L64.2585 69.879L64.3476 69.8968L64.4539 69.9151L64.5473 69.9292L64.6505 69.9426L64.7545 69.9535L64.8629 69.9626L64.9617 69.9686L65.0691 69.973L65.1789 69.9755L65.2916 69.9758L65.4164 69.9734L65.5219 69.9693L65.6388 69.9622L65.7685 69.9527L65.89 69.9408L66.0225 69.9255L66.1594 69.9073L66.2601 69.8921L66.415 69.8664L66.5444 69.8424L66.6815 69.8148L66.8345 69.7817L66.9798 69.7476L67.1118 69.7143L67.2725 69.6714L67.4144 69.6319L67.5788 69.5828L67.732 69.5351L67.8979 69.4805L68.0392 69.4324L68.206 69.3737L68.3783 69.3098L68.5426 69.2472L68.7087 69.1816L68.8525 69.1232L69.0234 69.0521L69.1958 68.9779L69.3914 68.8908L69.546 68.8209L69.7234 68.738L69.9218 68.6427L70.1018 68.5548L70.2832 68.4637L70.4663 68.3705L70.6511 68.2742L70.8369 68.1755L71.0094 68.0827L71.1987 67.9784L71.4036 67.8635L71.5817 67.763L71.7752 67.6514L71.9824 67.5297L72.1778 67.4135L72.3628 67.3027L72.5721 67.1745L72.7601 67.0587L72.9707 66.9266L73.3643 66.6767L73.5679 66.545L73.7812 66.4051L73.9859 66.2699L74.1918 66.1327L74.3988 65.9934L74.6067 65.8525L74.8153 65.7098L75.0248 65.5655L75.2289 65.4245L75.4404 65.2769L75.6579 65.1229L75.8704 64.972L76.0839 64.8199L76.293 64.6702L76.5078 64.5154L76.7235 64.3588L77.1602 64.0391L77.3771 63.8794L77.5948 63.7183L77.8127 63.5566L78.0315 63.3935L78.4701 63.0653L78.6903 62.8996L78.9089 62.7356L79.1315 62.5663L80.018 61.8941C80.6474 61.4133 81.5411 61.4995 82.067 62.0917L83.2923 63.4717C83.8873 64.1418 83.7873 65.1764 83.0749 65.7201L83.0493 65.7397L83.0477 65.7407L82.8244 65.9106L82.8228 65.9117L82.5997 66.0812L82.5981 66.0822L82.3747 66.2513L82.3729 66.2527L82.1497 66.4214L82.1478 66.4232L81.9249 66.5908L81.9225 66.5928L81.7001 66.7602L81.6974 66.7621L81.4752 66.9288L81.4723 66.931L81.25 67.0969L81.247 67.0994L81.025 67.2646L81.0219 67.2671L80.8001 67.4316L80.7967 67.434L80.5751 67.5977L80.5716 67.6005L80.3504 67.7632L80.3464 67.7662L80.1259 67.9279L80.1214 67.9312L79.9012 68.0918L79.8967 68.095L79.6765 68.2545L79.6719 68.2581L79.4525 68.4166L79.4473 68.4204L79.2279 68.5777L79.2227 68.5815L79.0038 68.7374L78.9981 68.7415L78.7799 68.8964C78.7779 68.8978 78.7758 68.899 78.7738 68.9003L78.556 69.0542C78.554 69.0556 78.5518 69.0571 78.5498 69.0585L78.3321 69.2104L78.3259 69.2151L78.1087 69.3656L78.1019 69.3704L77.8856 69.5197C77.8832 69.5213 77.8807 69.5228 77.8784 69.5244L77.6625 69.6722C77.6601 69.6739 77.6573 69.6755 77.6548 69.6772L77.4396 69.8232L77.4318 69.8285L77.2166 69.9729L77.2087 69.9786L76.9941 70.1213L76.9858 70.1268L76.7717 70.2681L76.763 70.2735L76.5499 70.4131L76.5406 70.4191L76.3282 70.5565L76.3184 70.5628L76.1066 70.6984C76.1033 70.7005 76.0997 70.7024 76.0964 70.7045L75.8852 70.8384L75.6638 70.9768L75.4431 71.1135C75.4394 71.1158 75.4355 71.1181 75.4317 71.1204L75.2226 71.2482C75.2187 71.2505 75.2147 71.2526 75.2108 71.255L74.99 71.388L74.7818 71.5114L74.7694 71.5191L74.5619 71.6404L74.5487 71.6479L74.3422 71.7674C74.3377 71.77 74.333 71.7726 74.3285 71.7751L74.123 71.8919L74.1086 71.9002L73.9034 72.0146L73.8886 72.0228L73.6846 72.1352C73.6795 72.138 73.6744 72.1409 73.6693 72.1436L73.4657 72.2534L73.4499 72.2621L73.2471 72.3694L73.2304 72.3781L73.0117 72.492L72.8104 72.5947L72.7928 72.6035L72.5924 72.7037L72.574 72.7126L72.3748 72.8104C72.3684 72.8135 72.3618 72.8164 72.3554 72.8194L72.1572 72.9144L72.1368 72.9238L71.9395 73.0159L71.9186 73.0256L71.7222 73.1152C71.715 73.1185 71.7077 73.1215 71.7005 73.1247L71.5045 73.2117L71.4823 73.2213L71.2873 73.3054L71.2641 73.3156L71.0705 73.3966L71.0461 73.4067L70.8533 73.4852C70.845 73.4886 70.8364 73.4918 70.8281 73.4951L70.6362 73.5707L70.6101 73.5807L70.4193 73.6535L70.3922 73.6635L70.2019 73.7334L70.174 73.7435L69.9851 73.8106C69.9754 73.814 69.9655 73.8174 69.9559 73.8207L69.768 73.8846L69.738 73.8945L69.5507 73.9554L69.5197 73.9657L69.3335 74.0234L69.3013 74.0333L69.116 74.0881L69.0827 74.0976L68.8987 74.1498L68.8641 74.1593L68.6814 74.2078C68.6695 74.211 68.6574 74.2143 68.6455 74.2173L68.4633 74.2628L68.2455 74.3144L68.2073 74.3231L68.0273 74.3622L67.9879 74.3705L67.8092 74.4069L67.7683 74.4147L67.5907 74.4476C67.5768 74.4501 67.5626 74.4526 67.5487 74.455L67.3717 74.4848L67.3286 74.4915L67.1527 74.5181L67.1084 74.5244L66.9337 74.5475L66.8878 74.5532L66.7142 74.5731L66.6673 74.5781L66.4948 74.5947L66.4465 74.5989L66.275 74.6123L66.2256 74.6157L66.0553 74.6255L66.0045 74.6281L65.8353 74.6347L65.7831 74.6364L65.6154 74.6396L65.5619 74.64L65.3953 74.64L65.3409 74.6393L65.1755 74.6357C65.1571 74.6353 65.1385 74.6347 65.1201 74.6339L64.9554 74.627L64.8991 74.6241L64.7356 74.6137L64.6784 74.6097L64.5164 74.5957C64.4971 74.5941 64.4777 74.5923 64.4584 74.5903L64.2971 74.573L64.2383 74.5661L64.0785 74.5458L64.0189 74.5374L63.8604 74.5131C63.8404 74.5101 63.8202 74.5069 63.8003 74.5034L63.6429 74.4759C63.6229 74.4724 63.6029 74.4686 63.5829 74.4647L63.4262 74.4339L63.3658 74.4213L63.2103 74.3865L63.1499 74.3727L62.9956 74.3348L62.935 74.3189L62.7822 74.2775C62.762 74.2721 62.7416 74.2664 62.7216 74.2605L62.5698 74.2159L62.5097 74.1974L62.3588 74.1491L62.2991 74.1292Z" fill="#B621C1"/>
<path d="M71.9112 76.2638L71.7269 76.3362L71.7097 76.343L71.6923 76.3497L71.6663 76.3597L71.4787 76.4312L71.4662 76.4361L71.4537 76.4406L71.4267 76.4506L71.4161 76.4546L71.2258 76.5244L71.2159 76.5281L71.188 76.5383L71.1784 76.5418L71.1686 76.545L70.9797 76.6123L70.9765 76.6132C70.9508 76.6223 70.9282 76.6301 70.9126 76.6354L70.7249 76.6993L70.6954 76.7092L70.6653 76.719L70.6611 76.7203L70.6571 76.7218L70.457 76.7869L70.4282 76.7965L70.3993 76.8055L70.2128 76.8631L70.2109 76.8637L70.2089 76.8645L70.1767 76.8744L70.1608 76.8793L70.1446 76.8841L69.9593 76.939L69.9461 76.9427L69.9329 76.9467L69.8997 76.9561L69.8961 76.9572L69.8926 76.9581L69.7089 77.0102L69.6851 77.0169L69.6389 77.0295L69.6271 77.0328L69.4442 77.0811L69.4426 77.0817C69.44 77.0824 69.4345 77.0839 69.4285 77.0855C69.4166 77.0887 69.3946 77.0944 69.3683 77.101L69.3664 77.1015L69.1842 77.1471L69.1661 77.1516L69.1477 77.156L68.93 77.2076L68.9174 77.2104L68.9045 77.2133L68.8664 77.2219L68.8525 77.2251L68.8383 77.2283L68.6583 77.2674L68.6495 77.2694L68.6404 77.2713L68.601 77.2794L68.5912 77.2817L68.5812 77.2836L68.4023 77.3202L68.3836 77.3239L68.3647 77.3275L68.3236 77.3353L68.3161 77.3366L68.3086 77.3382L68.1323 77.3707C68.0973 77.3771 68.0659 77.3826 68.0416 77.3867L67.8658 77.4165L67.8455 77.4199L67.8248 77.4232L67.7816 77.4298L67.7776 77.4302L67.7736 77.4309L67.5833 77.4599L67.5689 77.4618L67.5246 77.468L67.5112 77.4699L67.4974 77.4717L67.3228 77.4948L67.313 77.4962L67.3035 77.4975L67.2576 77.5031L67.2255 77.507L67.0518 77.5269L67.0294 77.5294L66.9827 77.5342L66.9676 77.5359L66.9525 77.5373L66.7799 77.5541L66.764 77.5555L66.7478 77.557L66.6785 77.5628L66.5071 77.5762L66.4927 77.5775L66.4784 77.5783L66.4289 77.5816L66.4131 77.5827L66.3974 77.5836L66.2271 77.5936L66.2146 77.5944L66.2019 77.5948L66.1361 77.5982L66.121 77.5988L65.9519 77.6053L65.9283 77.6062L65.8762 77.6078L65.8581 77.6085L65.6722 77.6121L65.6551 77.6125L65.5845 77.6129L65.3951 77.613L65.3761 77.6131L65.3573 77.6126L65.3027 77.6119H65.2896L65.2766 77.6117L65.1123 77.6079C65.0689 77.607 65.0289 77.6058 64.9952 77.6044L64.8024 77.5961L64.7463 77.5931L64.7274 77.5921L64.7088 77.5911L64.5453 77.5807L64.5367 77.5801L64.5283 77.5793L64.471 77.5754L64.4474 77.5737L64.4235 77.5718L64.2618 77.5579C64.2318 77.5553 64.1902 77.5516 64.1431 77.5466L64.1418 77.5464L63.9805 77.5291L63.9653 77.5275L63.9499 77.5256L63.891 77.5188L63.877 77.517L63.8628 77.5152L63.7029 77.4949L63.6838 77.4926L63.6649 77.4898L63.6053 77.4816L63.587 77.4789L63.5687 77.4761L63.4104 77.4519C63.378 77.4469 63.336 77.4403 63.289 77.4321L63.1318 77.4045C63.0832 77.396 63.0405 77.3879 63.0092 77.3817L62.8524 77.351L62.8357 77.3478L62.7379 77.3274L62.717 77.3228L62.5616 77.2879L62.5551 77.2866L62.5486 77.285L62.4882 77.2713L62.4399 77.2598L62.2855 77.2218L62.2646 77.2166L62.2439 77.2112L62.1833 77.1953L62.1702 77.1918L62.1574 77.1884L62.0064 77.1474C61.9744 77.1388 61.93 77.1268 61.8798 77.1119L61.7309 77.0682L61.6975 77.0582L61.6373 77.0396L61.6203 77.0345L61.6033 77.0288L61.4524 76.9806L61.4355 76.9752L61.3424 76.9442L61.3257 76.9383L61.176 76.8864L61.159 76.8807L61.1421 76.8745L61.083 76.8534L61.0501 76.8412L60.905 76.7868C60.8559 76.7685 60.8128 76.752 60.782 76.7397L60.637 76.6817L60.6351 76.6811C60.6151 76.6731 60.5672 76.6541 60.5136 76.6313L60.368 76.569L60.3462 76.56L60.3244 76.5501L60.2675 76.5251L60.2539 76.5188L60.1084 76.4534L60.0889 76.4446L60.0138 76.4093L59.9979 76.402L59.8388 76.3251C59.8148 76.3135 59.774 76.2938 59.7276 76.2702L59.5854 76.1978C59.5431 76.1762 59.5056 76.1561 59.4768 76.1406L59.335 76.0651L59.3187 76.0564L59.3024 76.0475L59.2498 76.0183L59.233 76.0092L59.2164 75.9996L59.0807 75.9223C59.0436 75.9013 59.0072 75.8804 58.9727 75.8598L58.8334 75.777C58.7909 75.7517 58.7544 75.7289 58.7291 75.7131L58.5951 75.6297L58.5744 75.6166L58.5535 75.6033L58.5056 75.5721L58.4983 75.5677L58.4912 75.563L58.3538 75.4732L58.3229 75.4524L58.2759 75.421L58.2636 75.4125L58.251 75.404L58.1176 75.312C58.0894 75.2926 58.0565 75.2702 58.0213 75.2449L57.8891 75.1502L57.8776 75.142L57.8662 75.1335L57.8221 75.1013L57.8068 75.0904L57.7917 75.0789L57.6605 74.9802C57.6277 74.9556 57.5981 74.9329 57.5732 74.9135L57.4403 74.8103L57.425 74.7985L57.4099 74.7862L57.3691 74.7537L57.359 74.7456L57.3489 74.7373L57.2178 74.6307L57.1365 74.5635C57.1363 74.5633 57.1362 74.5631 57.136 74.5629C57.1359 74.5627 57.1358 74.5625 57.1356 74.5623L57.0058 74.4528L56.9259 74.3839L56.9243 74.3825L56.7952 74.2689L56.7873 74.2619L56.7792 74.2548L56.743 74.2227L56.73 74.2108L56.717 74.1992L56.5893 74.0823C56.5761 74.0703 56.5487 74.0453 56.518 74.0163L56.3908 73.8961L56.3674 73.8737L56.3343 73.8417L56.3262 73.8337L56.3183 73.8259L56.1931 73.7031C56.191 73.7011 56.1904 73.7007 56.1861 73.6964C56.1828 73.6932 56.1778 73.6883 56.1722 73.6828L56.1243 73.635L56.1228 73.6334L55.9982 73.5064L55.9951 73.5034L55.9922 73.5007L55.9618 73.4696L55.9307 73.437L55.8106 73.3105L55.7506 73.2465L55.6276 73.1134L55.6165 73.1015L55.6057 73.0892L55.578 73.0587L55.571 73.0508L55.5639 73.0432L55.4425 72.9066L55.4346 72.8978L55.4268 72.8888L55.4002 72.8587L55.3943 72.8518L55.3882 72.8448L55.2676 72.7055L55.2584 72.6946L55.249 72.6836L55.2236 72.6538L55.2151 72.6437L55.2068 72.6336L55.0915 72.495C55.0906 72.4938 55.0864 72.4892 55.0827 72.4848L55.0384 72.4315L55.0376 72.4304L54.9195 72.2847L54.9081 72.2707L54.7564 72.0788L54.7476 72.0677L54.717 72.0283L54.7095 72.0186L54.7022 72.0089L54.5888 71.8603L54.429 71.6465L54.4189 71.6329L54.4092 71.6192L54.3894 71.5922L54.387 71.5888L54.2727 71.4309L54.2549 71.4063L54.2373 71.3813L54.2299 71.3703L54.1166 71.2093L54.1141 71.2055L54.1114 71.202L54.0935 71.1763L54.0759 71.1506L53.9638 70.9867L53.9262 70.9308L53.9242 70.9281L53.8132 70.7608L53.802 70.7437L53.7855 70.719L53.7826 70.7145L53.78 70.7101L53.6694 70.5401L53.6593 70.5242L53.6492 70.508L53.636 70.4873L53.5116 70.2905L53.5016 70.2749L53.4918 70.2589L53.3837 70.0832L53.3793 70.0762L53.375 70.069L53.361 70.0463L53.3579 70.0408L53.3546 70.0357L53.2472 69.8571L53.2348 69.8366L53.223 69.8161L53.2176 69.8067L53.1109 69.6251L53.092 69.5926L53.0824 69.576L52.9768 69.3916L52.9737 69.3862L52.9708 69.3809L52.9588 69.36L52.9497 69.3436L52.8448 69.1565L52.8377 69.143L52.8261 69.1226L52.8207 69.1126L52.7169 68.923L52.7109 68.9122L52.7052 68.9013L52.6944 68.8811L52.693 68.8786L52.6917 68.8761L52.5893 68.6843C52.5772 68.6617 52.5676 68.6429 52.5645 68.637C52.5637 68.6353 52.5623 68.6331 52.5623 68.6331L52.562 68.6324L52.4648 68.4467L52.4599 68.4369L52.4501 68.4182L52.446 68.4102L52.4418 68.402L52.3201 68.1639L52.209 67.9418L52.2047 67.9328L52.2001 67.924L52.1008 67.721L52.0954 67.7099L52.09 67.6991L51.9836 67.4771L51.9823 67.4741C51.9815 67.4724 51.9801 67.4697 51.9786 67.4667C51.976 67.4612 51.9718 67.4524 51.9668 67.4418L51.8688 67.234L51.8606 67.2167L51.8526 67.1988L51.8498 67.193L51.7669 67.0126C51.7651 67.009 51.763 67.0044 51.7607 66.9995C51.7553 66.9879 51.7471 66.9703 51.7374 66.9489L51.7363 66.9462L51.6415 66.7366L51.6259 66.7019L51.5315 66.4895L51.523 66.4704L51.5148 66.4513L51.5082 66.436L51.431 66.2584C51.4301 66.2563 51.4271 66.2494 51.4234 66.2411L51.4073 66.2045L51.4051 66.1991L51.3189 65.9967L51.309 65.9742L51.2996 65.9515L51.2067 65.7302C51.202 65.7191 51.1976 65.7082 51.1956 65.7032L51.1029 65.4794L51.0948 65.4598L50.9981 65.221L50.9952 65.2142L50.9925 65.2072L50.8914 64.9546L50.8876 64.9449L50.7956 64.7094L50.7951 64.7084L50.7942 64.706C50.7928 64.7025 50.7891 64.6932 50.7847 64.6819L50.7843 64.6806L50.6903 64.4371L50.6836 64.4203L50.591 64.1755L50.589 64.1708L50.5875 64.1659L50.4857 63.8951L50.4797 63.8779L50.3987 63.6586L50.3951 63.6492L50.3916 63.6396L50.3048 63.4L50.3037 63.397L50.3001 63.3871L50.2989 63.3835L50.2123 63.1425L50.2084 63.1321L50.2048 63.1219L50.2031 63.1167L50.1179 62.8756L50.1108 62.8557L50.0041 62.55L49.9992 62.5341L49.9345 62.3461L49.9335 62.3438C49.9312 62.3371 49.9292 62.3308 49.9272 62.3251C49.926 62.3216 49.925 62.3181 49.9239 62.3149L49.9185 62.2988C49.9168 62.2937 49.9154 62.2894 49.9145 62.2864C49.9135 62.2836 49.9126 62.2806 49.9126 62.2806C49.9122 62.2793 49.9129 62.2815 49.9129 62.2815C49.9133 62.2829 49.9141 62.2857 49.9152 62.2893C49.917 62.2948 49.9201 62.3037 49.9239 62.3149L49.8546 62.1111L49.8448 62.0837L49.8356 62.0562L49.7528 61.8097L49.7473 61.793L49.6494 61.499L49.6442 61.4815L49.5766 61.276L49.5741 61.2687L49.5713 61.2596L49.5682 61.2505L49.5034 61.0497L49.4998 61.0403L49.4007 60.731L49.3947 60.7121L49.3053 60.4314L49.3043 60.4282L49.2288 60.1871L49.2253 60.1757L49.1444 59.9174L49.1287 59.8667L49.1266 59.859L49.0618 59.65L49.0581 59.6386L49.0546 59.6272L48.9982 59.4414L48.9943 59.4305L48.972 59.3566L48.8925 59.095L48.8873 59.0781L48.8824 59.0613L48.8105 58.8241L48.7943 58.7697L48.792 58.7608L48.739 58.584L48.7249 58.5373L48.5377 57.9061L48.5365 57.9002L48.4392 57.5696L48.4386 57.5662L48.3844 57.3809L48.3824 57.3727L48.3051 57.1073L48.3038 57.1023L48.2022 56.7522L48.2012 56.7466L48.1669 56.6274L48.1657 56.6232L48.1216 56.4695L48.1204 56.4662L48.0441 56.1986L48.0424 56.1939L47.8903 55.6587L47.8899 55.6565L47.8682 55.5799L47.8645 55.5676L47.8533 55.5277L47.7816 55.2742L47.7758 55.2539L47.7162 55.0434C47.7161 55.0428 47.7158 55.0422 47.7155 55.0416C47.7153 55.041 47.715 55.0404 47.7148 55.0398L47.3936 53.8991L46.9358 52.2834L46.7088 51.4926L46.559 50.9752L46.4837 50.7167L46.408 50.4587L46.3335 50.2065L46.18 49.6929L46.1056 49.4449L46.0272 49.188L45.8756 48.694L45.7994 48.4506L45.7223 48.2054L45.6431 47.9558L45.4892 47.4794L45.4128 47.247L45.3384 47.0226L45.2573 46.7817L45.1822 46.5602L45.1062 46.3388L45.0205 46.094L44.9489 45.8909L44.8682 45.6653L44.791 45.4528L44.7164 45.2499L44.6299 45.0197L44.5556 44.8239L44.4775 44.6209L44.3941 44.4087L44.3129 44.2056L44.2372 44.019L44.1612 43.8336L44.0798 43.6398L43.9995 43.4522L43.913 43.2535L43.8315 43.0696L43.7557 42.9018L43.6711 42.7186L43.5927 42.5517L43.5138 42.3878L43.4406 42.2384L43.3544 42.0652L43.2788 41.9179L43.1894 41.747L43.106 41.5907L43.0496 41.4871L42.9639 41.3335L42.8823 41.1909L42.7949 41.0421L42.731 40.9357L42.653 40.8094L42.5705 40.6785L42.5103 40.5856L42.4318 40.467L42.3556 40.3554L42.2691 40.2327L42.2144 40.1565L42.1368 40.0519L42.0757 39.9721L41.9936 39.8676L41.9308 39.7904L41.8637 39.71L41.8037 39.6411L41.7326 39.5614L41.6763 39.5004L41.6215 39.4425L41.5566 39.3769L41.5006 39.3218L41.4705 39.2934L41.3939 39.2233L41.3454 39.1809L41.2995 39.142L41.2607 39.1104L41.2128 39.0732L41.1732 39.0434L41.1299 39.0123L41.0982 38.9904L41.0465 38.9566L41.022 38.9411L40.9888 38.9216L40.9519 38.9005L40.9242 38.8855L40.8985 38.8726L40.8713 38.8597L40.8374 38.8443L40.8198 38.8367L40.7923 38.8258L40.7581 38.813L40.7406 38.8068L40.723 38.8012L40.6909 38.7917L40.6539 38.782L40.6332 38.7769L40.5987 38.7694L40.5806 38.7658L40.539 38.7586L40.5121 38.7546L40.4799 38.7505L40.4339 38.7454L40.4019 38.7426L40.3573 38.74L40.3122 38.7381L40.2483 38.7366L40.21 38.7367L40.1383 38.7378L40.091 38.7398L40.0273 38.7437L39.9487 38.7495L39.8797 38.7565L39.816 38.7639L39.7256 38.7763L39.636 38.7898L39.5774 38.7997L39.4802 38.8177L39.3768 38.8393L39.2897 38.8583L39.1826 38.8835L39.0897 38.9068L38.9768 38.937L38.8884 38.9618L38.7794 38.9942L38.6509 39.0344L38.5151 39.078L38.3914 39.1205L38.2499 39.1706L38.1533 39.2063L38.0332 39.2526L37.846 39.3257L37.7326 39.3721L37.5861 39.4337L37.4665 39.4857L37.3076 39.556L37.1586 39.6237L37.017 39.6899L36.8433 39.7731L36.699 39.8433L36.5171 39.9342L36.3543 40.0172L36.2117 40.0918L36.0291 40.1886L35.8936 40.262L35.6895 40.3741L35.5333 40.4616L35.3601 40.5598L35.1706 40.6694L34.9916 40.7744L34.8122 40.881L34.6288 40.9913L34.4615 41.0937L34.2723 41.2105L34.0885 41.3255L33.8876 41.4526L33.7012 41.5721L33.5094 41.6964L33.3165 41.8224L33.1198 41.9518L32.9442 42.0693L32.7291 42.2138L32.5412 42.3412L32.342 42.4773L32.1325 42.6217L31.9386 42.7564L31.7357 42.8983L31.5369 43.0384L31.3291 43.1853L30.9029 43.4903L30.7055 43.6332L30.4903 43.7893L30.2851 43.9389L30.0684 44.0975L29.8595 44.2514L29.4347 44.5659L29.2196 44.7261L28.7904 45.0476L28.5673 45.2151L28.3547 45.3756L27.691 45.8783L27.4736 46.0433L25.3073 47.6966C24.6659 48.1861 23.7554 48.098 23.2198 47.4945L18.0547 41.6759C17.4599 41.0058 17.5598 39.9715 18.272 39.4278L20.0934 38.0372C20.094 38.0367 20.0946 38.0361 20.095 38.0354C20.0955 38.0347 20.096 38.034 20.0967 38.0335L20.5036 37.7241L20.5048 37.723L20.6258 37.6311L20.7267 37.5548C20.7277 37.554 20.7287 37.5531 20.7296 37.5522C20.7305 37.5512 20.7315 37.5503 20.7325 37.5495L21.076 37.2892L21.1256 37.2515L21.2995 37.1198L21.3058 37.1149L21.5292 36.9463L21.5558 36.926L21.6965 36.8202L21.7049 36.8134L21.9271 36.6468L21.9305 36.6438L21.9923 36.5974L22.2015 36.441L22.2055 36.4376L22.2167 36.4294L22.5304 36.1945L22.5355 36.1915L22.6693 36.0916L22.6904 36.0756L22.701 36.0683L22.8979 35.9218L22.9188 35.9061L22.9238 35.9025L23.1294 35.7507L23.1731 35.7184L23.1807 35.7133L23.3469 35.5906L23.3527 35.5862L23.5905 35.4122L23.5983 35.4063L23.7545 35.2926L23.761 35.2872L24.0366 35.0879C24.0442 35.0823 24.0519 35.0761 24.0604 35.0699C24.0606 35.0698 24.0608 35.0697 24.0611 35.0695C24.0613 35.0694 24.0615 35.0693 24.0617 35.0691L24.2812 34.9109C24.2838 34.909 24.2867 34.9073 24.2895 34.9053L24.5084 34.7477L24.5112 34.7454L24.5142 34.7435C24.5167 34.7417 24.5195 34.7403 24.522 34.7385L24.7404 34.5823L24.7427 34.5807C24.7449 34.5792 24.7473 34.5773 24.75 34.5753L24.7527 34.5735L24.755 34.5717L24.9738 34.417L24.9548 34.4305C24.9561 34.4296 24.9577 34.4283 24.9594 34.4271C24.9651 34.423 24.9739 34.4166 24.9848 34.409C24.9849 34.4089 24.9851 34.4088 24.9852 34.4086C24.9854 34.4085 24.9856 34.4083 24.9857 34.4082L25.2039 34.2548C25.2082 34.2518 25.212 34.2491 25.2148 34.2471C25.2154 34.2467 25.2161 34.2463 25.2168 34.2459C25.2175 34.2456 25.2182 34.2452 25.2188 34.2447L25.4343 34.0935C25.4396 34.0897 25.4449 34.0866 25.4496 34.0834L25.6663 33.9324L25.6689 33.9307C25.6735 33.9275 25.6784 33.9238 25.6834 33.9204L25.6845 33.9198L25.9012 33.7706C25.9061 33.7672 25.9113 33.7639 25.9166 33.7603L26.1102 33.6278C26.119 33.6216 26.1323 33.6123 26.1489 33.6011L26.1507 33.5999L26.3509 33.4644L26.3516 33.4641C26.3516 33.4641 26.3561 33.461 26.3602 33.4582C26.3646 33.4552 26.3712 33.4506 26.3791 33.4453L26.3798 33.4449L26.5944 33.3002C26.6033 33.2942 26.6115 33.289 26.6135 33.2876L26.8281 33.1447L26.8301 33.143C26.8429 33.1345 26.8549 33.1269 26.8655 33.1201L27.0552 32.9948C27.0635 32.9893 27.0725 32.9831 27.0823 32.9767L27.0849 32.975L27.2982 32.8359C27.3045 32.8318 27.3111 32.8275 27.318 32.823C27.3182 32.8229 27.3184 32.8228 27.3185 32.8226C27.3187 32.8225 27.3188 32.8223 27.319 32.8222L27.5315 32.685C27.5371 32.6813 27.5429 32.6775 27.549 32.6736L27.5527 32.6713L27.7645 32.5359C27.774 32.5298 27.7831 32.524 27.7849 32.5229L27.7866 32.522L27.998 32.3887C28.0053 32.3841 28.0113 32.3799 28.0151 32.3775C28.017 32.3763 28.0189 32.3751 28.0199 32.3745C28.0211 32.3737 28.0218 32.3734 28.0218 32.3734L28.2281 32.244L28.2304 32.2424C28.2413 32.2356 28.2502 32.23 28.2539 32.2278L28.2564 32.2263L28.4672 32.0966C28.4749 32.0918 28.4832 32.0861 28.492 32.0807L28.4928 32.0801L28.6983 31.9549C28.6986 31.9547 28.6988 31.9546 28.6991 31.9545C28.6994 31.9544 28.6998 31.9543 28.7001 31.954L28.7012 31.9532L28.7023 31.9524C28.706 31.9501 28.7144 31.945 28.7246 31.9388L28.7264 31.9379L28.9353 31.812L28.9374 31.811C28.9468 31.8054 28.9556 31.8002 28.9636 31.7955L29.1701 31.6732C29.1722 31.672 29.1849 31.6642 29.1989 31.656L29.4058 31.5344L29.408 31.533C29.418 31.5272 29.4272 31.522 29.435 31.5176L29.6306 31.4047C29.6306 31.4047 29.632 31.4039 29.6331 31.4032C29.6347 31.4023 29.6377 31.4006 29.6414 31.3984C29.6434 31.3973 29.6453 31.396 29.6476 31.3946C29.6543 31.3908 29.6639 31.3857 29.6752 31.3793L29.881 31.262C29.89 31.2569 29.8978 31.2526 29.9035 31.2494C29.9096 31.246 29.9146 31.2431 29.9172 31.2417C29.9184 31.241 29.92 31.2401 29.92 31.2401L30.1159 31.1305L30.1174 31.1296C30.1332 31.1208 30.1473 31.1131 30.1514 31.1108L30.3549 30.9994C30.3559 30.9989 30.3577 30.9977 30.3592 30.9968C30.3641 30.9942 30.3749 30.9886 30.3879 30.9816L30.5911 30.8713L30.5929 30.8701C30.6064 30.8628 30.6178 30.8568 30.6259 30.8526L30.6276 30.8517L30.8301 30.7443L30.8329 30.7429C30.8433 30.7374 30.8521 30.7328 30.8576 30.7299C30.8604 30.7284 30.8631 30.727 30.8647 30.7261C30.8666 30.7252 30.8679 30.7246 30.8679 30.7246L31.0687 30.6204C31.0866 30.6111 31.1015 30.6029 31.1118 30.5978C31.1171 30.5951 31.1219 30.5929 31.1257 30.5911L31.3063 30.4985L31.3095 30.4967C31.323 30.4898 31.3354 30.4839 31.3461 30.4786L31.546 30.3782L31.5484 30.377L31.5508 30.3761C31.5508 30.3761 31.5545 30.374 31.5572 30.3726C31.5631 30.3697 31.5754 30.3638 31.5902 30.3566L31.5935 30.3547L31.7899 30.2593C31.8107 30.2491 31.829 30.2401 31.8345 30.2375L32.0335 30.1423L32.0286 30.1448C32.0297 30.1443 32.0314 30.1434 32.0335 30.1423C32.042 30.1382 32.0582 30.1307 32.0766 30.1221L32.0785 30.1209L32.0802 30.1201L32.2543 30.0394C32.2571 30.038 32.2601 30.0366 32.2633 30.0351C32.2771 30.0285 32.2971 30.019 32.3212 30.008L32.3223 30.0075L32.5192 29.9178C32.531 29.9124 32.5472 29.9052 32.5654 29.8971L32.761 29.8104C32.7821 29.8011 32.8006 29.7932 32.8114 29.7885L33.0065 29.704C33.0092 29.7029 33.012 29.7018 33.015 29.7005C33.0258 29.6957 33.0409 29.6894 33.0585 29.682L33.0606 29.681L33.0626 29.6802L33.2566 29.5991C33.2579 29.5985 33.2593 29.5979 33.2607 29.5973C33.2716 29.5927 33.2867 29.5865 33.3046 29.5793L33.3069 29.5783L33.5 29.4999C33.5155 29.4936 33.533 29.4864 33.5522 29.4788L33.5556 29.4776L33.7477 29.402L33.75 29.4013C33.7523 29.4004 33.7563 29.3986 33.7608 29.3968C33.7699 29.3932 33.7852 29.3874 33.8036 29.3804L33.8046 29.3799L33.9873 29.3108C33.9873 29.3108 33.9902 29.3096 33.9924 29.3087C33.9924 29.3087 33.9944 29.3083 33.9956 29.3078C33.9959 29.3075 33.9963 29.3073 33.9966 29.3071C34.0071 29.3031 34.0288 29.2946 34.0545 29.2851L34.0558 29.2847L34.2454 29.215C34.2559 29.2111 34.2789 29.2027 34.3047 29.1936C34.3049 29.1935 34.3051 29.1935 34.3053 29.1935C34.3055 29.1934 34.3057 29.1934 34.3059 29.1933L34.495 29.1263L34.496 29.126C34.505 29.1228 34.5289 29.114 34.5584 29.104L34.5616 29.103L34.7498 29.0393C34.7698 29.0325 34.7865 29.0271 34.7963 29.0239C34.8016 29.0222 34.8063 29.0207 34.8088 29.0199L34.8109 29.0194L34.9975 28.958L34.9991 28.9577L35.0007 28.9571C35.0025 28.9565 35.0077 28.9549 35.0128 28.9532C35.023 28.9499 35.0429 28.9432 35.067 28.9357L35.0686 28.9354L35.2482 28.8797C35.2517 28.8787 35.2551 28.8771 35.2585 28.876C35.2614 28.8751 35.2665 28.8736 35.2722 28.8718C35.2833 28.8684 35.3022 28.8627 35.3246 28.8561L35.3259 28.8556L35.5112 28.8008C35.5438 28.7912 35.576 28.7825 35.5817 28.7809L35.7641 28.7292L35.7754 28.726C35.7864 28.7228 35.8113 28.7157 35.8418 28.7076L35.8445 28.7067L35.847 28.7061L36.0301 28.6576C36.0331 28.6568 36.0379 28.6556 36.0429 28.6543C36.0547 28.6511 36.0759 28.6458 36.1015 28.6394L36.2831 28.5936L36.2841 28.5933C36.297 28.5901 36.3286 28.5819 36.3651 28.5734L36.3679 28.5729L36.549 28.5304C36.5717 28.5251 36.5989 28.5189 36.6287 28.5124L36.6293 28.5123L36.8091 28.4731C36.8342 28.4676 36.8631 28.4612 36.8944 28.4549L37.0721 28.4191L37.0734 28.4187C37.0922 28.4149 37.124 28.4087 37.161 28.4018L37.1631 28.4014L37.1651 28.4009L37.3394 28.3692C37.3723 28.3631 37.4017 28.358 37.4251 28.3541L37.6017 28.3237L37.6041 28.3234L37.6063 28.3229C37.6469 28.3161 37.6806 28.3112 37.6939 28.3093C37.696 28.309 37.698 28.3086 37.6997 28.3083L37.87 28.2826L37.8726 28.282L37.9423 28.272C37.9502 28.271 37.9572 28.2701 37.9618 28.2695C37.9681 28.2687 37.9685 28.2685 37.9716 28.2681L38.1451 28.2452L38.1457 28.2451C38.1682 28.2421 38.2032 28.2375 38.2436 28.2329L38.2451 28.2328L38.4177 28.2134C38.4604 28.2084 38.4981 28.2047 38.5158 28.2029L38.6879 28.186L38.6912 28.1856C38.7324 28.1817 38.7684 28.179 38.7925 28.1771L38.9638 28.1634L38.9659 28.1632C39.0134 28.1595 39.0551 28.1572 39.0717 28.1562L39.2411 28.1463L39.2417 28.1462C39.2889 28.1434 39.3299 28.1416 39.3507 28.1408L39.5164 28.1343L39.5196 28.1342C39.541 28.1333 39.5825 28.1317 39.6301 28.1308L39.6333 28.1307L39.7983 28.128C39.8311 28.1273 39.8693 28.1269 39.9114 28.1269L40.0784 28.1269C40.1129 28.1269 40.1514 28.1271 40.1928 28.128H40.1963L40.3593 28.132C40.4023 28.1329 40.4418 28.1339 40.4762 28.1354L40.6381 28.1421L40.6403 28.1423C40.6843 28.1441 40.7247 28.1463 40.7594 28.1485C40.7596 28.1485 40.7599 28.1485 40.7601 28.1485C40.7603 28.1485 40.7605 28.1485 40.7607 28.1485L40.9236 28.1588C40.9345 28.1595 40.9869 28.1632 41.0424 28.1678L41.2046 28.1811L41.2063 28.1814C41.2654 28.1864 41.3234 28.1927 41.3283 28.1932L41.4887 28.2102C41.5281 28.2144 41.5687 28.2196 41.6097 28.2249L41.7697 28.245L41.7733 28.2454C41.8081 28.2498 41.8502 28.2556 41.897 28.2627L41.8994 28.2632L41.9019 28.2634L42.0557 28.2873C42.0894 28.2924 42.1328 28.2989 42.1816 28.3074L42.3392 28.3348C42.3928 28.3442 42.4394 28.3534 42.4656 28.3586L42.6187 28.3887L42.6222 28.3896C42.657 28.3964 42.7003 28.4052 42.7487 28.416L42.7511 28.4165L42.7533 28.4169L42.9085 28.4514C42.9252 28.4551 42.9773 28.4671 43.0309 28.4803L43.1842 28.5177C43.1844 28.5178 43.1846 28.5178 43.1848 28.5177C43.185 28.5177 43.1852 28.5177 43.1854 28.5178C43.2383 28.5308 43.2847 28.5436 43.3073 28.5497L43.31 28.5503L43.3114 28.5505L43.4604 28.5905L43.4627 28.5913L43.4652 28.5918C43.5244 28.6078 43.5789 28.624 43.5908 28.6276L43.7405 28.6716L43.7434 28.6726C43.7798 28.6833 43.822 28.6965 43.868 28.7112L44.0185 28.759L44.1452 28.8012L44.2949 28.8532C44.3404 28.869 44.3819 28.884 44.4177 28.8973L44.4203 28.8982L44.5667 28.9531C44.578 28.9573 44.6316 28.9768 44.6887 28.9996L44.6907 29.0005L44.6931 29.0013L44.8404 29.0603L44.9565 29.1081L45.1027 29.1705C45.1521 29.1915 45.202 29.2143 45.2169 29.2211L45.3622 29.2864L45.3644 29.2874L45.367 29.2886C45.4123 29.3091 45.4525 29.3281 45.4845 29.3435L45.4875 29.3448L45.6283 29.413C45.6575 29.427 45.6979 29.4463 45.7432 29.4693L45.8848 29.5413L45.8863 29.5421C45.9311 29.5649 45.9697 29.5858 45.9931 29.5984L46.1349 29.6739L46.1376 29.6754L46.1401 29.6768C46.1822 29.6994 46.2198 29.7202 46.2501 29.7374L46.2521 29.7386L46.2543 29.7399L46.3944 29.8195C46.4296 29.8395 46.4638 29.8597 46.4969 29.8793L46.6363 29.9619L46.6373 29.9625C46.6414 29.965 46.6916 29.9948 46.7419 30.0263L46.7448 30.0281L46.8828 30.1143C46.9254 30.141 46.9618 30.1652 46.9816 30.1781L47.1182 30.2673C47.1184 30.2674 47.1185 30.2675 47.1187 30.2677C47.1188 30.2678 47.119 30.2679 47.1192 30.2681L47.218 30.3344L47.3536 30.4277C47.382 30.4472 47.4146 30.4696 47.4496 30.4947L47.5829 30.5902C47.5832 30.5904 47.5835 30.5907 47.5838 30.591C47.5841 30.5913 47.5844 30.5915 47.5848 30.5918C47.6066 30.6075 47.6398 30.6313 47.6773 30.6594L47.811 30.7594C47.8434 30.7837 47.8726 30.8067 47.8981 30.8266L48.0309 30.9294L48.0334 30.9314C48.0587 30.9511 48.0798 30.9684 48.0935 30.9794C48.1003 30.9849 48.1064 30.9899 48.1104 30.9932C48.1157 30.9975 48.1167 30.9982 48.1192 31.0002L48.1199 31.0007L48.2513 31.1075C48.2816 31.1321 48.3091 31.1553 48.3329 31.1755L48.4633 31.2854L48.4651 31.2868C48.4771 31.2969 48.5094 31.3243 48.5453 31.3558L48.547 31.3576L48.5489 31.359L48.6741 31.4695C48.6928 31.486 48.7201 31.5101 48.7511 31.5383L48.7515 31.5388L48.8796 31.6555C48.8923 31.6671 48.9213 31.6935 48.9537 31.7242L48.9553 31.7256L49.0811 31.8447L49.1503 31.9118L49.2763 32.0348L49.2778 32.0365C49.2801 32.0387 49.2804 32.039 49.285 32.0435C49.2884 32.0468 49.2934 32.0515 49.2989 32.0569C49.3099 32.0677 49.3268 32.0845 49.3466 32.1046L49.3504 32.1087L49.4749 32.2353L49.4758 32.2362C49.4785 32.239 49.4834 32.2439 49.4886 32.2492C49.4991 32.2599 49.5163 32.2777 49.5367 32.2991L49.5378 32.3003L49.6617 32.4305C49.6789 32.4486 49.7002 32.471 49.7234 32.4962L49.8451 32.6285L49.8455 32.629C49.8494 32.6332 49.8774 32.6633 49.9061 32.6955L49.9062 32.6956C49.9073 32.6967 49.9083 32.6979 49.9093 32.6992L50.0303 32.8354C50.0504 32.8581 50.069 32.8791 50.085 32.8976L50.2029 33.0343L50.2055 33.0369C50.2265 33.0612 50.2451 33.0834 50.2605 33.1018L50.38 33.2445C50.4037 33.2728 50.4242 33.2983 50.432 33.3079L50.5494 33.4522L50.5508 33.4541C50.5678 33.4751 50.5819 33.4926 50.5895 33.5023C50.5934 33.5072 50.5968 33.5119 50.5985 33.514L50.5994 33.5155L50.7167 33.6639L50.7183 33.6659C50.7353 33.6874 50.7512 33.7081 50.7658 33.7272L50.7664 33.7279L50.8827 33.8801C50.8845 33.8824 50.8914 33.8914 50.8967 33.8984C50.904 33.908 50.9152 33.9227 50.9282 33.9401C50.9283 33.9404 50.9285 33.9406 50.9286 33.9408C50.9287 33.941 50.9288 33.9413 50.929 33.9415L51.0428 34.0948L51.0834 34.1504C51.0856 34.1533 51.0864 34.1546 51.0864 34.1546L51.1982 34.3087L51.2004 34.3117C51.2156 34.3328 51.228 34.3505 51.2343 34.3595C51.2375 34.3639 51.2405 34.3685 51.2416 34.37L51.2426 34.3713L51.2434 34.3724L51.3548 34.5315C51.3549 34.5316 51.3551 34.5318 51.3552 34.5319C51.3553 34.532 51.3555 34.5322 51.3556 34.5324C51.3559 34.5329 51.3566 34.5339 51.3572 34.5347C51.3586 34.5368 51.3615 34.5409 51.3647 34.5454C51.3709 34.5543 51.382 34.5698 51.3949 34.5887L51.5052 34.7499L51.5072 34.7526C51.5247 34.7782 51.5386 34.7996 51.5439 34.8077C51.5454 34.8099 51.547 34.8119 51.5477 34.813L51.5482 34.8141L51.6558 34.9758L51.6564 34.9766C51.6718 34.9998 51.6856 35.0209 51.691 35.0292L51.8011 35.1988L51.802 35.2005C51.819 35.2268 51.8328 35.2486 51.8373 35.2557C51.8385 35.2578 51.8403 35.2605 51.8403 35.2605L51.9464 35.4285L51.9471 35.4299C51.9517 35.4371 51.9632 35.4551 51.977 35.4774L52.0854 35.6531L52.0869 35.6557C52.0988 35.675 52.1093 35.6923 52.1174 35.7058L52.1183 35.7075L52.2249 35.885C52.2338 35.8997 52.244 35.9167 52.2547 35.9348L52.3598 36.1141L52.3606 36.1152C52.3676 36.1272 52.3776 36.1442 52.3888 36.1637L52.3906 36.1669L52.4959 36.3512C52.5024 36.3624 52.5112 36.3778 52.5212 36.3958L52.6255 36.5821L52.6512 36.6285L52.6522 36.6306L52.7557 36.8201C52.7631 36.8336 52.7691 36.8452 52.7728 36.852C52.7746 36.8553 52.7763 36.8583 52.7773 36.8602L52.8803 37.0522L52.8816 37.0553L52.9051 37.0995L52.907 37.1034C52.9075 37.1044 52.9083 37.1057 52.9086 37.1063C52.9088 37.1065 52.9088 37.1067 52.9089 37.1069C52.9089 37.1071 52.909 37.1073 52.909 37.1075L53.0064 37.2938C53.0124 37.3053 53.0201 37.3195 53.0285 37.3359L53.0297 37.3383L53.0309 37.3411L53.1199 37.5156C53.12 37.5158 53.1201 37.516 53.1201 37.5162C53.1201 37.5164 53.1202 37.5166 53.1203 37.5168L53.1212 37.5186C53.1225 37.5212 53.1256 37.5269 53.1294 37.5342L53.1503 37.5755L53.2507 37.7755C53.2509 37.7759 53.2511 37.7763 53.2512 37.7767C53.2514 37.7772 53.2516 37.7776 53.2518 37.778C53.2572 37.7887 53.2637 37.8012 53.2704 37.8149L53.2727 37.8194L53.3716 38.022C53.3787 38.0364 53.3843 38.0484 53.3869 38.0539L53.3892 38.0584L53.4861 38.2598L53.4869 38.2618C53.4973 38.2834 53.5059 38.3014 53.5116 38.3137C53.513 38.3169 53.5144 38.3199 53.5156 38.3226L53.6018 38.5055L53.6032 38.5083C53.6097 38.5221 53.615 38.5338 53.6188 38.5421L53.6193 38.5431L53.7163 38.7532L53.7173 38.7553C53.7236 38.7689 53.7287 38.7801 53.7311 38.7855C53.7322 38.7878 53.7336 38.7913 53.7336 38.7913L53.8292 39.0021C53.8293 39.0023 53.8293 39.0025 53.8294 39.0027C53.8294 39.0029 53.8294 39.0031 53.8295 39.0033C53.8307 39.006 53.838 39.0218 53.8453 39.0384L53.8457 39.0391L53.9397 39.251L53.9565 39.2896C53.9604 39.2985 53.9635 39.3059 53.9646 39.3083L53.9652 39.31C53.9652 39.3099 53.9653 39.3098 53.9653 39.3099L54.0483 39.4997L54.0493 39.5018L54.0503 39.5041C54.0553 39.5157 54.0595 39.5261 54.0629 39.5343L54.1568 39.753C54.1569 39.7532 54.1569 39.7534 54.157 39.7536C54.157 39.7538 54.1571 39.754 54.1571 39.7542C54.1617 39.7649 54.1659 39.7752 54.1698 39.7847L54.263 40.006L54.2645 40.0094L54.276 40.0378L54.2765 40.0391L54.3689 40.2628C54.3726 40.2717 54.3769 40.2816 54.3812 40.2922L54.382 40.2943L54.3829 40.296L54.4722 40.5175C54.4758 40.5263 54.48 40.5357 54.484 40.5459L54.485 40.5483L54.5745 40.7737C54.5745 40.7737 54.5756 40.7761 54.5762 40.7774C54.5778 40.7816 54.5816 40.791 54.586 40.8023L54.6758 41.0312L54.6763 41.0323C54.6757 41.0308 54.6756 41.03 54.6756 41.03L54.6758 41.0312L54.6772 41.034C54.6787 41.038 54.6826 41.0478 54.6872 41.0598L54.6883 41.0628L54.7756 41.2905C54.7759 41.2913 54.7763 41.292 54.7767 41.2928C54.7772 41.2935 54.7775 41.2942 54.7778 41.295C54.7794 41.2991 54.7822 41.3069 54.7857 41.3161L54.8748 41.5498L54.8753 41.5517C54.8753 41.5517 54.8769 41.556 54.8781 41.5591C54.8796 41.5629 54.8819 41.5688 54.8845 41.5758L54.8852 41.5772L54.9719 41.8101C54.97 41.8051 54.9688 41.8011 54.9683 41.7998L54.9686 41.8008C54.9692 41.8025 54.9708 41.8065 54.9726 41.8115L54.9731 41.8128C54.9751 41.8182 54.9783 41.826 54.9816 41.8352L55.0695 42.0743C55.0701 42.0759 55.071 42.078 55.0719 42.0803C55.0734 42.0845 55.0756 42.0903 55.0782 42.0973L55.1642 42.3331L55.1652 42.3361C55.1711 42.3523 55.1763 42.3667 55.1805 42.3788C55.1825 42.3846 55.1843 42.3902 55.1861 42.3952L55.2598 42.6007C55.2624 42.6081 55.2646 42.6144 55.2662 42.6189C55.2678 42.6233 55.2692 42.6269 55.2697 42.6285L55.27 42.6295L55.3524 42.8621L55.3532 42.8641L55.3538 42.866L55.3756 42.9299L55.4452 43.1285L55.4462 43.1308C55.4488 43.1382 55.4509 43.1448 55.4526 43.1499L55.4529 43.1509C55.4534 43.1524 55.454 43.1539 55.4544 43.1551C55.455 43.1568 55.4556 43.1584 55.4561 43.1598L55.4582 43.1663L55.5364 43.3935C55.5387 43.4 55.5413 43.407 55.5438 43.4143L55.5449 43.4179L55.629 43.6656C55.6309 43.6711 55.6331 43.6771 55.6351 43.6831L55.7135 43.9167C55.7168 43.9262 55.7205 43.9371 55.7246 43.9493C55.7246 43.9495 55.7247 43.9497 55.7247 43.9499C55.7247 43.9501 55.7248 43.9503 55.7249 43.9505L55.8079 44.2008C55.8097 44.2062 55.8116 44.2123 55.8137 44.2185L55.8962 44.4701C55.8974 44.4738 55.8993 44.479 55.9012 44.4848L55.9015 44.4858L55.9838 44.7397C55.9853 44.7441 55.9866 44.7486 55.9878 44.7524C55.9879 44.7526 55.988 44.7528 55.988 44.753C55.988 44.7532 55.9881 44.7534 55.9881 44.7536C55.99 44.7593 55.9916 44.7643 55.9927 44.768L55.9935 44.77C55.9927 44.7673 55.9916 44.764 55.9904 44.7602L56.0702 45.0077L56.0806 45.0421L56.1559 45.2779L56.1568 45.2805C56.1586 45.2863 56.1604 45.2918 56.162 45.2971L56.1608 45.2934C56.1608 45.2932 56.1606 45.2933 56.1606 45.2934C56.1606 45.2934 56.1606 45.2934 56.1606 45.2934L56.1684 45.3182C56.1695 45.3219 56.1706 45.3255 56.1716 45.3288L56.171 45.3269C56.1702 45.3241 56.1693 45.3212 56.1684 45.3182L56.2418 45.551L56.2425 45.5532C56.2463 45.5655 56.2498 45.5762 56.2525 45.5851L56.2531 45.5868L56.325 45.8179C56.3212 45.8057 56.3176 45.795 56.3147 45.786C56.3136 45.7826 56.3125 45.7794 56.3115 45.7764C56.3132 45.7817 56.3151 45.7877 56.3172 45.7941C56.3203 45.8034 56.3238 45.8144 56.3276 45.8267L56.3316 45.8385L56.4115 46.098L56.4144 46.1068L56.5188 46.4467L56.5209 46.4553L56.5775 46.6411L56.5821 46.6563L56.6464 46.8701L56.6486 46.8764L56.6648 46.9301L56.7372 47.1737L56.7387 47.178L56.7448 47.199L56.816 47.4383L56.8194 47.4491L56.8272 47.4756L56.9055 47.7406L56.9107 47.7584L56.9157 47.7758L56.9855 48.0138L56.9905 48.0304L56.9911 48.032L57.044 48.2143L57.0452 48.2176L57.0682 48.2973L57.1661 48.6341L57.1672 48.6386L57.2241 48.8341L57.2277 48.847L57.2576 48.9514L57.2588 48.9541L57.4608 49.6593L57.503 49.8074L57.5037 49.8105L57.5386 49.9332L57.5808 50.081L57.5818 50.086L57.6171 50.2109L57.7959 50.8394C57.7962 50.8402 57.7963 50.841 57.7963 50.8417C57.7963 50.8425 57.7965 50.8433 57.7967 50.844L57.8115 50.8963L57.8122 50.8995L57.8482 51.0275L57.9249 51.2984L57.9265 51.3042L58.0027 51.5755L58.2307 52.3815L58.2311 52.3837L58.3059 52.649L58.5343 53.4527C58.5344 53.453 58.5345 53.4532 58.5346 53.4534C58.5347 53.4537 58.5348 53.4539 58.5349 53.4542L58.6092 53.7149L58.685 53.9797L58.7601 54.2405L58.9123 54.7659L59.0651 55.2884L59.1405 55.5431L59.2933 56.0551L59.4427 56.5486L59.5201 56.8015L59.5962 57.048L59.6752 57.3007L59.7522 57.5453L59.8276 57.7825L59.9015 58.0135L59.9043 58.0226L59.9829 58.2635L60.0553 58.4844L60.1319 58.7151L60.2158 58.9645L60.2922 59.1899L60.366 59.4039L60.4438 59.6277L60.5206 59.845L60.6011 60.0694L60.6821 60.2925L60.766 60.5201L60.837 60.7092L60.9213 60.9317L61.0033 61.1432L61.0802 61.3399L61.1531 61.5225L61.2392 61.7347L61.3102 61.9073L61.3969 62.1131L61.4765 62.2993L61.5582 62.4868L61.5872 62.5527L61.5953 62.5671L61.6448 62.6824L61.7116 62.8299L61.8007 63.0234L61.8692 63.1695L61.9592 63.3568L62.0381 63.5178L62.1077 63.6569L62.2009 63.839L62.2869 64.0034L62.3454 64.1129L62.4314 64.271L62.499 64.3917L62.5897 64.5505L62.6789 64.7026L62.7381 64.8013L62.8347 64.9573L62.9062 65.07L62.9771 65.1797L63.0506 65.2898L63.1161 65.3854L63.1855 65.4848L63.2639 65.5932L63.3502 65.7093L63.4012 65.7759L63.4748 65.8689L63.5504 65.962L63.6017 66.0233L63.666 66.0978L63.7358 66.1762L63.7909 66.2362L63.8612 66.3095L63.9089 66.358L63.9716 66.4191L64.024 66.4689L64.0681 66.509L64.1155 66.5504L64.172 66.5984L64.2123 66.6314L64.2635 66.6711L64.301 66.6994L64.3406 66.7274L64.3818 66.756L64.4119 66.7759L64.4523 66.8014L64.4849 66.8207L64.5185 66.8398L64.5373 66.8498L64.5745 66.8686L64.6053 66.8835L64.6281 66.8938L64.6539 66.9047L64.6804 66.9153L64.7089 66.9259L64.7309 66.9335L64.7527 66.9405L64.7819 66.9491L64.8143 66.9578L64.8342 66.9627L64.8667 66.9701L64.8933 66.9752L64.9294 66.9814L64.9541 66.9852L64.9968 66.9907L65.0379 66.9951L65.0719 66.998L65.1099 67.0001L65.1656 67.0027L65.215 67.004L65.257 67.004L65.3327 67.0024L65.3734 67.0008L65.4319 66.9976L65.5162 66.9913L65.5773 66.9854L65.6525 66.9767L65.7473 66.9643L65.7903 66.9576L65.9026 66.9388L65.9768 66.9254L66.0706 66.9062L66.1797 66.8829L66.28 66.8592L66.3456 66.8425L66.4862 66.8055L66.5878 66.777L66.7041 66.7426L66.8316 66.7029L66.9682 66.6575L67.0612 66.6259L67.2048 66.5755L67.3449 66.5231L67.4564 66.4807L67.6162 66.4174L67.6551 66.4021L67.7103 66.3797L67.8603 66.3172L67.9987 66.2576L68.1673 66.1829L68.2545 66.1432L68.2953 66.1242L68.4524 66.0515L68.6342 65.9641L68.7686 65.8984L68.9499 65.8073L69.1163 65.7226L69.2785 65.638L69.4289 65.5584L69.5841 65.4749L69.744 65.3866L69.949 65.2716L70.0346 65.2238L70.1141 65.1786L70.2895 65.0773L70.4762 64.9674L70.6501 64.8644L70.8269 64.7579L71.0127 64.6446L71.1867 64.5371L71.3773 64.4179L71.7164 64.2022L71.7554 64.1771L71.8811 64.0963L72.1554 63.9169L72.3478 63.7899L72.543 63.6597L72.7394 63.5276L72.7994 63.4876L72.9337 63.396L73.1368 63.257L73.3352 63.1206L73.5274 62.988L73.6282 62.9173L73.7273 62.8474L73.9374 62.6997L74.4628 62.3253L74.8904 62.0164L74.9697 61.9586L75.4066 61.6394L75.6091 61.4907L75.823 61.3323L76.0408 61.1703L76.1394 61.0974L76.2502 61.0143L76.6815 60.6915L76.9017 60.5256L76.9044 60.5236L76.907 60.5219L76.9955 60.4558L77.1134 60.3662L77.7768 59.8638L78.442 59.3578L80.3862 57.8727C81.0275 57.3827 81.9383 57.4706 82.4742 58.0741L87.6402 63.8923C88.2351 64.5623 88.1353 65.5966 87.4232 66.1404L85.3009 67.7613L85.2989 67.7629L84.7504 68.181L84.7467 68.1833L84.5242 68.3527L84.5216 68.3542L84.3982 68.4483L84.2984 68.524L84.2939 68.5269L84.1961 68.6009L84.1944 68.6024L84.1649 68.6246L84.0663 68.6993L84.0616 68.7036L83.9342 68.7992L83.7716 68.9216L83.7679 68.9248L83.71 68.9681L83.4214 69.1852L83.4196 69.1864L83.2747 69.2951L83.2641 69.3033L83.1055 69.4215L83.1006 69.4257L83.0207 69.4853L82.8771 69.5919L82.8738 69.5948L82.7918 69.6555L82.57 69.82L82.5427 69.8406L82.378 69.962C82.3778 69.9622 82.3777 69.9623 82.3775 69.9624C82.3774 69.9626 82.3772 69.9627 82.377 69.9628L82.1244 70.1488L82.1182 70.1534L82.104 70.1636L81.8837 70.3253L81.8733 70.3329L81.6531 70.4935L81.6439 70.5001L81.64 70.5032L81.4579 70.6351L81.454 70.6381L81.4122 70.6682L81.2172 70.809L81.2005 70.8215L81.1788 70.837L80.9675 70.9883L80.9463 71.0037L80.7274 71.1595L80.7251 71.1611L80.7186 71.1659L80.5003 71.3207L80.4984 71.3221C80.4905 71.3277 80.4829 71.3328 80.4756 71.3379L80.2703 71.4827L80.2671 71.4852C80.2613 71.4893 80.2564 71.4927 80.2531 71.4951C80.2497 71.4974 80.247 71.499 80.246 71.4997L80.2509 71.4964L80.0655 71.6258L80.0563 71.6326L80.0187 71.6588L79.8167 71.799L79.8125 71.8019L79.5735 71.9666C79.5732 71.9668 79.5729 71.9671 79.5726 71.9674C79.5723 71.9676 79.572 71.9679 79.5716 71.9681C79.5635 71.9737 79.5558 71.9787 79.5489 71.9833L79.3416 72.1252L79.3396 72.1269C79.332 72.1321 79.3249 72.1369 79.3182 72.1413L79.1078 72.2837L79.0984 72.2901L78.9111 72.416L78.8987 72.425L78.8542 72.4544L78.6397 72.5971L78.6386 72.5979L78.6304 72.6033L78.6225 72.6086L78.4084 72.7499L78.3774 72.7702L78.3626 72.7798L78.1782 72.9002L78.1699 72.9059L78.1614 72.9113L78.1518 72.9174L77.9427 73.0525L77.9322 73.0595L77.9215 73.0662L77.9118 73.0726L77.7095 73.2021L77.7084 73.2029C77.7006 73.2079 77.6929 73.2124 77.6857 73.2169L77.4762 73.3496L77.4685 73.3544L77.4611 73.3592L77.2398 73.4976L77.2281 73.5047L77.0074 73.6416L77.0052 73.6429C76.9948 73.6493 76.9862 73.6544 76.9826 73.6566L76.9811 73.6576L76.7721 73.7852L76.7707 73.7859C76.7614 73.7916 76.7526 73.7968 76.7445 73.8017L76.5236 73.9346L76.3218 74.0548L76.3025 74.0664L76.0617 74.2073L76.0423 74.2186L76.0243 74.2287L75.8319 74.34L75.8297 74.3413L75.8275 74.3429C75.813 74.3512 75.8009 74.3581 75.7926 74.3627C75.7905 74.3638 75.7886 74.365 75.7868 74.366C75.7897 74.3644 75.7929 74.3623 75.7966 74.3603L75.7755 74.3719L75.5748 74.4862L75.3514 74.6111L75.346 74.614L75.341 74.617L75.326 74.6251L75.3229 74.6267L75.119 74.7391L75.1165 74.7406C75.1154 74.7412 75.1135 74.7422 75.1118 74.7431C75.1067 74.746 75.0955 74.752 75.0819 74.7594L75.0801 74.7605L74.8766 74.8702L74.8741 74.8714L74.8573 74.8809L74.84 74.8897L74.6372 74.9973L74.6306 75.0006L74.6238 75.0042L74.6072 75.0129L74.6051 75.014L74.6029 75.0153L74.384 75.1291L74.3732 75.1346L74.3623 75.1402L74.161 75.2431L74.1432 75.252L74.1256 75.261C74.1243 75.2615 74.123 75.2621 74.1218 75.2629L73.903 75.3721L73.8661 75.3901L73.6846 75.4791L73.68 75.4814C73.6574 75.4925 73.6383 75.5014 73.6253 75.5075C73.624 75.5081 73.6227 75.5088 73.6215 75.5094L73.4411 75.5959L73.4255 75.6032L73.4097 75.6105L73.1968 75.7099L73.1941 75.7111L73.1913 75.7125L73.1705 75.7222L73.152 75.7306L72.9555 75.8201L72.9534 75.8212C72.9344 75.8298 72.9184 75.837 72.9071 75.8419C72.9012 75.8445 72.8957 75.8468 72.8915 75.8486L72.7099 75.9291L72.6928 75.9368L72.6707 75.9464L72.6591 75.9513L72.4538 76.0402L72.4116 76.0582L72.218 76.1391L72.2112 76.1421L72.2042 76.1447L72.1798 76.1549L72.1737 76.1575L72.1673 76.1601L71.9744 76.2386L71.973 76.2393C71.956 76.2462 71.9414 76.2519 71.9307 76.2561L71.9112 76.2638ZM33.9956 29.3078L33.9873 29.3108L33.9858 29.3112C33.9858 29.3112 33.9903 29.3098 33.9956 29.3078ZM52.9893 37.2619L52.9865 37.2566L52.9873 37.2584C52.9886 37.2606 52.9929 37.2684 52.9982 37.2783C52.9943 37.271 52.9912 37.2653 52.9893 37.2619ZM31.3973 30.4537C31.3973 30.4537 31.3973 30.4537 31.3973 30.4537C31.3974 30.4536 31.3973 30.4535 31.3972 30.4535C31.3958 30.4542 31.3931 30.4556 31.3904 30.4569C31.3893 30.4574 31.3882 30.4583 31.3868 30.4589C31.3922 30.4564 31.3959 30.4543 31.3973 30.4537ZM41.7544 34.2881L41.7499 34.2869C41.7499 34.2869 41.7519 34.2874 41.7544 34.2881ZM53.5203 38.3329C53.5194 38.3309 53.5182 38.3281 53.5167 38.3247C53.5196 38.3312 53.5215 38.3361 53.5223 38.3377L53.5203 38.3329ZM44.1171 35.4206L44.1141 35.4184C44.1164 35.4201 44.1184 35.4216 44.1199 35.4227L44.1171 35.4206ZM39.4159 34.0913C39.4146 34.0913 39.4127 34.0913 39.4127 34.0913L39.4115 34.0915C39.4115 34.0915 39.4136 34.0914 39.4159 34.0913ZM44.875 36.0494L44.8755 36.0498L44.8775 36.0516L44.875 36.0494ZM38.9324 34.1379L38.9284 34.1383L38.9263 34.1387L38.9324 34.1379ZM54.0731 39.5581C54.0715 39.5542 54.068 39.5459 54.0635 39.5353C54.0645 39.5379 54.0655 39.5403 54.0664 39.5424C54.07 39.5512 54.0732 39.5584 54.074 39.5604L54.0731 39.5581ZM54.2797 40.0469L54.2793 40.0455C54.2787 40.0442 54.2776 40.0416 54.2764 40.0385L54.276 40.0378L54.2797 40.0469ZM46.0469 37.343L46.0437 37.3387L46.0445 37.3398L46.0459 37.3418L46.0469 37.343ZM37.0292 34.5515C37.0324 34.5505 37.035 34.5497 37.035 34.5497L37.0224 34.5536C37.0251 34.5528 37.0274 34.552 37.0292 34.5515ZM46.3755 37.785L46.3721 37.7804C46.3735 37.7824 46.3752 37.7848 46.3772 37.7876L46.3755 37.785ZM46.7041 38.2655L46.7031 38.264L46.7025 38.2632C46.7025 38.2632 46.7034 38.2644 46.7041 38.2655ZM35.9302 34.9321C35.9329 34.931 35.9353 34.93 35.9353 34.93C35.9353 34.93 35.9346 34.9302 35.9332 34.9308C35.9332 34.9308 35.9309 34.9317 35.9296 34.9322C35.9282 34.9327 35.9264 34.9335 35.9245 34.9343C35.9268 34.9334 35.9287 34.9327 35.9302 34.9321ZM55.0683 42.0709L55.0678 42.069L55.0695 42.0743C55.069 42.0729 55.0683 42.0709 55.0683 42.0709ZM27.2169 32.891C27.2145 32.8927 27.2126 32.894 27.2112 32.895C27.2099 32.8959 27.2081 32.8974 27.2081 32.8974C27.2081 32.8974 27.2123 32.8943 27.2169 32.891ZM55.1728 42.3579L55.1734 42.3598L55.1805 42.3788L55.1728 42.3579ZM27.0024 33.0308C27 33.0325 26.998 33.0337 26.9968 33.0345L26.9953 33.0357C26.9953 33.0357 26.999 33.0332 27.0024 33.0308ZM26.9314 33.0788C26.9357 33.0762 26.9398 33.0735 26.9398 33.0735C26.9398 33.0735 26.9377 33.0749 26.9362 33.0758C26.9331 33.0777 26.9273 33.0811 26.9201 33.0856L26.9174 33.0876C26.9232 33.084 26.9279 33.0809 26.9314 33.0788ZM26.3528 33.463C26.3547 33.4617 26.3591 33.4589 26.3644 33.4552L26.3509 33.4644L26.3528 33.463ZM33.609 35.9999C33.609 35.9999 33.6115 35.9985 33.6133 35.9976L33.609 35.9998C33.6087 35.9999 33.6088 36.0001 33.609 35.9999ZM55.5229 43.3552C55.519 43.3442 55.5156 43.3348 55.5131 43.328C55.5105 43.3212 55.5084 43.3158 55.5073 43.3129C55.5068 43.3116 55.5061 43.3096 55.5061 43.3096C55.5061 43.3096 55.5074 43.3135 55.509 43.3176C55.5106 43.322 55.5132 43.3291 55.5163 43.3375C55.5188 43.3442 55.522 43.3524 55.5254 43.3618C55.5246 43.3595 55.5237 43.3573 55.5229 43.3552ZM48.2229 41.0375C48.2225 41.0367 48.2222 41.0358 48.2219 41.035L48.2234 41.0384L48.2229 41.0375ZM55.6105 43.6128C55.6087 43.608 55.6074 43.6042 55.6067 43.6022L55.6059 43.6002C55.6059 43.6002 55.6072 43.6039 55.6085 43.6075C55.6096 43.6105 55.611 43.6147 55.6128 43.6197C55.6119 43.6171 55.6112 43.6148 55.6105 43.6128ZM25.6296 33.9586C25.627 33.9605 25.6245 33.9621 25.6224 33.9635C25.6177 33.967 25.6137 33.9699 25.6117 33.9713L25.6152 33.9687C25.6183 33.9664 25.6236 33.9629 25.6296 33.9586ZM25.4751 34.0654C25.4799 34.0621 25.484 34.0594 25.4867 34.0576C25.4893 34.0559 25.492 34.0541 25.492 34.0541L25.4913 34.0545C25.4901 34.0553 25.4874 34.0572 25.4841 34.0594C25.4815 34.0611 25.4778 34.0635 25.4733 34.0665L25.4751 34.0654ZM55.7988 44.1739C55.7973 44.1694 55.7961 44.1657 55.7951 44.163C55.7939 44.1594 55.793 44.1565 55.7925 44.1552L55.792 44.1541C55.792 44.1541 55.793 44.157 55.7939 44.1597C55.7949 44.1626 55.7964 44.167 55.7982 44.1722L55.7988 44.1739ZM55.8959 44.4685C55.8954 44.4672 55.8947 44.4649 55.8947 44.4649C55.8952 44.4664 55.8956 44.4681 55.8962 44.4701L55.8959 44.4685ZM55.9954 44.7759C55.9949 44.7744 55.9943 44.7723 55.9935 44.77C55.994 44.7716 55.9944 44.7731 55.9948 44.7742C55.9954 44.7764 55.9964 44.7788 55.9964 44.7788L55.9954 44.7759ZM24.6004 34.6842C24.6054 34.6809 24.61 34.6778 24.6138 34.6753C24.6111 34.6771 24.6079 34.679 24.6046 34.6813C24.5959 34.687 24.5845 34.6947 24.5711 34.7039C24.5825 34.6962 24.5925 34.6895 24.6004 34.6842ZM56.1344 45.2383C56.1328 45.2314 56.1302 45.2208 56.1269 45.2076C56.1296 45.2187 56.1318 45.2279 56.1333 45.2345C56.1346 45.2397 56.1356 45.2441 56.1362 45.2468L56.1368 45.2487C56.1363 45.2467 56.1355 45.2429 56.1344 45.2383ZM56.2613 45.6149C56.2602 45.6112 56.2588 45.6065 56.2572 45.601C56.2579 45.6034 56.2584 45.6057 56.259 45.6077L56.2613 45.6149ZM24.2347 34.9456C24.2369 34.9439 24.24 34.9416 24.2436 34.9389C24.2419 34.9402 24.2402 34.941 24.2388 34.942C24.2372 34.9432 24.236 34.9446 24.2347 34.9456ZM56.3276 45.8267C56.327 45.8246 56.3264 45.8223 56.3257 45.8202L56.325 45.8179C56.3259 45.8207 56.3267 45.8238 56.3276 45.8267ZM23.9646 35.1423L23.9623 35.1439C23.9536 35.1506 23.9468 35.1561 23.9429 35.1592L23.9407 35.1614C23.942 35.1603 23.9438 35.1586 23.946 35.1568C23.9503 35.1534 23.9567 35.1484 23.9646 35.1423ZM49.4951 44.1397C49.4953 44.1403 49.4955 44.1409 49.4956 44.1414C49.4958 44.1422 49.4961 44.1429 49.4964 44.1436L49.4951 44.1397ZM49.832 45.0865C49.8305 45.0822 49.8291 45.0782 49.828 45.075L49.8259 45.0691C49.8265 45.071 49.8273 45.0734 49.8282 45.076L49.8323 45.0875L49.832 45.0865ZM29.4872 38.5203L29.485 38.5219L29.4835 38.5229C29.4847 38.522 29.486 38.5211 29.4872 38.5203ZM50.0838 45.8266C50.0836 45.8258 50.0833 45.8251 50.0829 45.8244L50.0823 45.8227L50.0844 45.8287L50.0838 45.8266ZM50.1734 46.0967C50.1712 46.0901 50.1685 46.082 50.1654 46.0728L50.1651 46.0718C50.168 46.0804 50.1706 46.0881 50.1727 46.0944C50.1732 46.0958 50.1736 46.0971 50.1741 46.0984L50.1734 46.0967ZM55.0667 58.931C55.0667 58.931 55.066 58.9285 55.0655 58.9268C55.0648 58.9247 55.0638 58.922 55.0627 58.9186L55.0672 58.9329L55.0667 58.931ZM49.2179 60.1514C49.2157 60.1439 49.2136 60.1374 49.2121 60.1322C49.213 60.1356 49.2141 60.1394 49.2153 60.1435C49.216 60.146 49.2171 60.1486 49.2179 60.1514ZM56.6906 63.4345C56.6906 63.4345 56.6903 63.4336 56.6899 63.4326C56.6899 63.4325 56.6897 63.4325 56.6897 63.4327C56.6897 63.4327 56.6897 63.4327 56.6897 63.4327L56.6908 63.4354L56.6906 63.4345ZM80.3518 71.4199C80.3518 71.4199 80.3537 71.4187 80.3552 71.4178L80.3534 71.4186C80.3519 71.4196 80.3504 71.4206 80.3504 71.4206L80.3518 71.4199ZM49.7321 61.746C49.7303 61.7404 49.7291 61.7357 49.7281 61.7324L49.7273 61.7298C49.728 61.7321 49.7288 61.7354 49.73 61.7392C49.7306 61.7411 49.7313 61.7434 49.7321 61.746ZM57.057 64.2836C57.0569 64.2835 57.0568 64.2835 57.0568 64.2836C57.0568 64.2836 57.0568 64.2836 57.0568 64.2836C57.0569 64.2837 57.0575 64.2851 57.0581 64.2867L57.0588 64.2881L57.057 64.2836ZM77.6132 73.2612C77.6089 73.2638 77.6052 73.2659 77.6024 73.2675L77.5969 73.2709C77.6 73.2691 77.6058 73.2656 77.6132 73.2612ZM51.4303 66.2571C51.4291 66.2543 51.4267 66.2485 51.4234 66.2411L51.431 66.2584L51.4303 66.2571ZM75.7755 74.3719C75.7771 74.371 75.7816 74.3689 75.7868 74.366C75.7835 74.3679 75.7807 74.3694 75.7787 74.3704C75.7777 74.371 75.7766 74.3715 75.7755 74.3719ZM61.4822 70.4111L61.4836 70.4121L61.4862 70.4139C61.4846 70.4127 61.4822 70.4111 61.4822 70.4111ZM62.0097 70.7492L62.0117 70.7504L62.0124 70.751L62.0097 70.7492ZM72.883 75.8522L72.8823 75.8525C72.8817 75.8527 72.8811 75.853 72.8806 75.8534C72.8806 75.8534 72.8814 75.8529 72.883 75.8522ZM71.9073 76.2652L71.9173 76.2612L71.9112 76.2638L71.9073 76.2652ZM25.6571 33.939C25.6513 33.9431 25.6459 33.9467 25.6412 33.95C25.6369 33.9531 25.6331 33.9562 25.6296 33.9586C25.6364 33.9537 25.6458 33.947 25.6571 33.939ZM24.0036 35.1125C24.0014 35.1142 23.999 35.1156 23.9968 35.1172C23.9869 35.1247 23.9783 35.1316 23.9709 35.1374C23.9797 35.1305 23.9909 35.1221 24.0036 35.1125Z" fill="#B621C1"/>
<path d="M87.2332 125.239C87.0445 125.901 86.4395 126.358 85.751 126.358H42.206C41.5175 126.358 40.9125 125.901 40.7238 125.239L23.5537 64.9816C23.2732 63.9973 24.0124 63.0181 25.0358 63.0181H31.013C31.6977 63.0181 32.3004 63.4699 32.4924 64.1272L47.3685 115.069C47.5605 115.726 48.1631 116.178 48.8479 116.178H79.1091C79.7939 116.178 80.3965 115.726 80.5885 115.069L95.4646 64.1272C95.6566 63.4699 96.2592 63.0181 96.944 63.0181H102.921C103.945 63.0181 104.684 63.9973 104.403 64.9816L87.2332 125.239Z" fill="#232323"/>
<path d="M103.861 54.5551C103.345 55.2316 102.377 55.3611 101.701 54.8445L73.8106 33.5429L71.5366 31.8972L71.4955 31.8658L45.8245 12.1725C45.1492 11.6544 45.0217 10.687 45.5398 10.0117L48.1435 6.61739C48.6616 5.94202 49.6291 5.81452 50.3044 6.3326L71.8992 22.8985C72.5668 23.4106 73.5218 23.2926 74.0447 22.6334L78.6982 16.7662C79.2287 16.0973 80.2018 15.9871 80.8684 16.5204L86.3205 20.882C86.9798 21.4095 87.092 22.3692 86.5721 23.0345L82.1515 28.6911C81.6232 29.367 81.7486 30.3442 82.4303 30.8649L106.168 48.9952C106.845 49.5118 106.974 50.479 106.458 51.1554L103.861 54.5551Z" fill="#232323"/>
</svg>
