<svg width="131" height="131" viewBox="0 0 131 131" fill="none" xmlns="http://www.w3.org/2000/svg">
<path d="M94.341 15.4116C92.9707 15.4116 92.2819 17.0661 93.2473 18.0386L98.2318 23.0598C98.8284 23.6607 98.8284 24.6304 98.2318 25.2313L82.3495 41.2304C81.753 41.8313 81.753 42.801 82.3495 43.4019L87.7872 48.8796C88.39 49.4868 89.372 49.4868 89.9747 48.8796L105.825 32.9126C106.428 32.3054 107.41 32.3054 108.013 32.9126L112.954 37.8904C113.923 38.8668 115.589 38.1804 115.589 36.8046V16.9528C115.589 16.1016 114.899 15.4116 114.048 15.4116H94.341Z" fill="#232323"/>
<path d="M94.341 115.588C92.9707 115.588 92.2819 113.934 93.2473 112.961L98.2318 107.94C98.8284 107.339 98.8284 106.37 98.2318 105.769L82.3495 89.7696C81.753 89.1687 81.753 88.199 82.3495 87.5981L87.7872 82.1204C88.39 81.5132 89.372 81.5132 89.9747 82.1204L105.825 98.0874C106.428 98.6946 107.41 98.6946 108.013 98.0874L112.954 93.1096C113.923 92.1332 115.589 92.8196 115.589 94.1954V114.047C115.589 114.898 114.899 115.588 114.048 115.588H94.341Z" fill="#232323"/>
<path d="M36.8239 15.4116C38.1969 15.4116 38.8846 17.0717 37.9137 18.0426L32.9005 23.0558C32.2986 23.6576 32.2986 24.6335 32.9005 25.2353L48.8916 41.2264C49.4934 41.8283 49.4934 42.8041 48.8916 43.4059L43.4059 48.8917C42.804 49.4935 41.8282 49.4935 41.2263 48.8917L25.2352 32.9006C24.6334 32.2987 23.6575 32.2987 23.0557 32.9006L18.0425 37.9138C17.0716 38.8847 15.4115 38.197 15.4115 36.824V16.9528C15.4115 16.1016 16.1015 15.4116 16.9527 15.4116H36.8239Z" fill="#232323"/>
<path d="M36.8245 115.588C38.1976 115.588 38.8852 113.928 37.9143 112.957L32.9011 107.944C32.2993 107.342 32.2993 106.367 32.9011 105.765L48.8922 89.7736C49.4941 89.1717 49.4941 88.1959 48.8922 87.5941L43.4065 82.1083C42.8046 81.5065 41.8288 81.5065 41.2269 82.1083L25.2359 98.0994C24.634 98.7013 23.6582 98.7013 23.0563 98.0994L18.0431 93.0862C17.0722 92.1153 15.4122 92.803 15.4122 94.176V114.047C15.4122 114.898 16.1022 115.588 16.9533 115.588H36.8245Z" fill="#232323"/>
</svg>
