<svg width="131" height="131" viewBox="0 0 131 131" fill="none" xmlns="http://www.w3.org/2000/svg">
<path d="M30.754 54.2261C29.3837 54.2261 28.6948 52.5716 29.6602 51.5991L35.3227 45.895C35.9193 45.294 35.9193 44.3244 35.3227 43.7234L18.0299 26.3035C17.4334 25.7026 17.4334 24.7329 18.0299 24.1319L24.0626 18.0549C24.6654 17.4477 25.6474 17.4477 26.2502 18.0549L43.5111 35.4427C44.1139 36.0499 45.0959 36.0499 45.6987 35.4427L51.3181 29.782C52.2873 28.8056 53.953 29.492 53.953 30.8678V52.6849C53.953 53.5361 53.263 54.2261 52.4119 54.2261H30.754Z" fill="#232323"/>
<path d="M30.754 77.3438C29.3837 77.3438 28.6948 78.9982 29.6602 79.9707L35.3227 85.6748C35.9193 86.2758 35.9193 87.2455 35.3227 87.8464L18.0299 105.266C17.4334 105.867 17.4334 106.837 18.0299 107.438L24.0626 113.515C24.6654 114.122 25.6474 114.122 26.2502 113.515L43.5111 96.1271C44.1139 95.5199 45.0959 95.5199 45.6987 96.1271L51.3181 101.788C52.2873 102.764 53.953 102.078 53.953 100.702V78.8849C53.953 78.0338 53.263 77.3438 52.4119 77.3438H30.754Z" fill="#232323"/>
<path d="M100.448 54.2261C101.821 54.2261 102.508 52.566 101.537 51.5951L95.8413 45.899C95.2394 45.2971 95.2394 44.3213 95.8413 43.7194L113.253 26.3075C113.855 25.7056 113.855 24.7298 113.253 24.1279L107.168 18.0428C106.566 17.441 105.59 17.441 104.989 18.0428L87.5766 35.4548C86.9748 36.0566 85.9989 36.0566 85.3971 35.4548L79.7009 29.7586C78.73 28.7877 77.07 29.4754 77.07 30.8484V52.6849C77.07 53.5361 77.76 54.2261 78.6112 54.2261H100.448Z" fill="#232323"/>
<path d="M100.448 77.3438C101.821 77.3438 102.508 79.0038 101.537 79.9747L95.8413 85.6708C95.2394 86.2727 95.2394 87.2485 95.8413 87.8504L113.253 105.262C113.855 105.864 113.855 106.84 113.253 107.442L107.168 113.527C106.566 114.129 105.59 114.129 104.989 113.527L87.5766 96.115C86.9748 95.5132 85.9989 95.5132 85.3971 96.115L79.7009 101.811C78.73 102.782 77.07 102.094 77.07 100.721V78.8849C77.07 78.0338 77.76 77.3438 78.6112 77.3438H100.448Z" fill="#232323"/>
</svg>
