<svg width="131" height="131" viewBox="0 0 131 131" fill="none" xmlns="http://www.w3.org/2000/svg">
<path d="M19.6012 103.092C19.6012 107.015 16.4209 110.195 12.4978 110.195C8.57467 110.195 5.39435 107.015 5.39435 103.092C5.39435 99.1686 8.57467 95.9883 12.4978 95.9883C16.4209 95.9883 19.6012 99.1686 19.6012 103.092Z" fill="#232323"/>
<path d="M99.9241 105.277H35.9933C34.7862 105.277 33.8074 104.299 33.8074 103.092C33.8075 101.885 34.7863 100.906 35.9933 100.906H99.9241C101.131 100.906 102.11 101.885 102.11 103.092C102.11 104.299 101.131 105.277 99.9241 105.277Z" fill="#232323"/>
<path d="M19.6009 77.957C19.6009 81.8801 16.4206 85.0604 12.4974 85.0604C8.57433 85.0604 5.39401 81.8801 5.39401 77.957C5.39401 74.0338 8.57433 70.8535 12.4974 70.8535C16.4206 70.8535 19.6009 74.0338 19.6009 77.957Z" fill="#232323"/>
<path d="M19.6009 52.8212C19.6009 56.7443 16.4206 59.9246 12.4974 59.9246C8.57433 59.9246 5.39401 56.7443 5.39401 52.8212C5.39401 48.8981 8.57433 45.7178 12.4974 45.7178C16.4206 45.7178 19.6009 48.8981 19.6009 52.8212Z" fill="#232323"/>
<path d="M55.492 50.6357C55.4503 51.3593 55.4266 52.0882 55.4266 52.8223C55.4266 53.5559 55.4503 54.2846 55.492 55.0078H35.993C34.7861 55.0076 33.8074 54.0283 33.8074 52.8213C33.8077 51.6145 34.7862 50.636 35.993 50.6357H55.492Z" fill="#232323"/>
<path d="M63.2947 75.7695C64.51 77.331 65.8474 78.7921 67.2908 80.1416H35.993C34.7861 80.1414 33.8074 79.1621 33.8074 77.9551C33.8077 76.7483 34.7862 75.7698 35.993 75.7695H63.2947Z" fill="#232323"/>
<path d="M92.8208 20.0356C110.927 20.0357 125.606 34.7142 125.606 52.8208C125.606 70.9275 110.928 85.6059 92.8208 85.606C74.7141 85.606 60.0357 70.9275 60.0357 52.8208C60.0358 34.7142 74.7142 20.0356 92.8208 20.0356ZM91.6314 32.0581C90.7804 32.0581 90.0906 32.7482 90.0904 33.5991V57.2915C90.0904 58.1427 90.7802 58.8325 91.6314 58.8325H104.395C105.246 58.8325 105.936 58.1427 105.936 57.2915V55.9683C105.936 55.1171 105.246 54.4272 104.395 54.4272H96.0611C95.2102 54.427 94.5203 53.7371 94.5201 52.8862V33.5991C94.5198 32.7482 93.83 32.0581 92.979 32.0581H91.6314Z" fill="#1099D3"/>
</svg>
