<svg width="131" height="131" viewBox="0 0 131 131" fill="none" xmlns="http://www.w3.org/2000/svg">
<g clip-path="url(#clip0_54_477)">
<path d="M58.4207 38.1711C61.636 37.6471 64.9209 37.7162 68.1111 38.3762C68.9444 38.5488 69.431 39.3989 69.2107 40.2209L68.2039 43.9787C68.0914 44.3986 68.264 45.3788 68.6793 45.5068C72.015 46.5352 74.988 48.3893 77.3615 50.8298C77.66 51.1367 78.4666 50.884 78.7713 50.5832L81.3728 48.0168C81.9941 47.404 83.0035 47.4266 83.5515 48.1057C85.6187 50.6672 87.2666 53.711 88.3064 56.8352C88.578 57.6511 88.0737 58.5045 87.24 58.7151L83.9822 59.5383C83.7679 59.5924 82.6723 60.571 82.7193 60.787C83.0269 62.2015 83.1892 63.6703 83.1892 65.177C83.1892 67.1656 82.9067 69.0881 82.3802 70.907C82.2966 71.196 83.2151 72.0843 83.5037 72.1692L87.2508 73.2707C88.0778 73.5141 88.5482 74.3906 88.242 75.1965C87.083 78.2467 85.3744 81.059 83.2 83.4924C82.6446 84.114 81.6892 84.1248 81.0828 83.553L78.0789 80.719C77.747 80.4059 76.8184 80.0684 76.4815 80.376C74.0855 82.5643 71.1708 84.1936 67.9426 85.0574C67.5625 85.1592 67.3145 86.2714 67.4002 86.6555L68.2468 90.4534C68.432 91.284 67.9089 92.1122 67.0691 92.2493C63.8537 92.7732 60.5689 92.7032 57.3787 92.0432C56.5453 91.8708 56.0579 91.0215 56.2781 90.1995L57.2849 86.4407C57.3943 86.0326 57.2082 85.0434 56.8029 84.9245C53.4374 83.9365 50.43 82.112 48.0211 79.6909C47.7197 79.3879 46.7345 79.7023 46.4197 79.9914L43.5545 82.6243C42.9276 83.1998 41.9485 83.1611 41.4099 82.5022C39.3485 79.9796 37.7665 77.0999 36.7429 74.0071C36.4756 73.199 36.9687 72.3524 37.7908 72.1321L41.5486 71.1252C41.9712 71.012 42.6938 70.3964 42.5922 69.9709C42.2249 68.4327 42.0301 66.8277 42.0301 65.177C42.0301 63.1745 42.3155 61.2385 42.8487 59.4081C42.9736 58.9791 42.349 58.3881 41.9236 58.2512L37.9383 56.968C37.1322 56.7085 36.6826 55.845 36.9822 55.053C38.1337 52.0091 39.8325 49.2016 41.9949 46.7698C42.5658 46.1277 43.5566 46.1366 44.156 46.7522L47.073 49.7493C47.3732 50.0576 48.2864 50.3938 48.6015 50.1008C51.0901 47.7874 54.1519 46.0828 57.5507 45.2238C57.9752 45.1165 58.185 44.1921 58.0896 43.7649L57.2429 39.967C57.0577 39.1363 57.5806 38.308 58.4207 38.1711ZM62.6092 51.2942C54.9425 51.2944 48.7273 57.5103 48.7273 65.177C48.7275 72.8435 54.9426 79.0586 62.6092 79.0588C70.2759 79.0588 76.4917 72.8437 76.492 65.177C76.492 57.5101 70.276 51.2942 62.6092 51.2942Z" fill="#FF8C00"/>
<path d="M100.495 22.1203C110.6 30.8061 117.317 42.7064 119.508 55.7456C119.65 56.5876 119.056 57.3689 118.21 57.4835L110.941 58.4682C110.1 58.5821 109.328 57.994 109.182 57.1581C107.345 46.5979 101.874 36.9676 93.6779 29.9228C85.0909 22.5423 74.0976 18.503 62.746 18.5575C51.3945 18.612 40.459 22.7566 31.9769 30.2191C23.4948 37.6815 18.0446 47.9529 16.6418 59.1196C15.239 70.2862 17.9792 81.5866 24.3519 90.9152C30.7246 100.244 40.2952 106.964 51.2805 109.825C62.2658 112.686 73.9167 111.491 84.0624 106.464C93.7361 101.67 101.412 93.7046 105.807 83.9416C106.161 83.1556 105.768 82.2434 104.965 81.931L100.498 80.1937C99.3197 79.7355 99.1637 78.1322 100.231 77.4556L116.989 66.8346C117.888 66.2648 119.08 66.7562 119.317 67.794L123.583 86.5182C123.852 87.6984 122.718 88.7137 121.574 88.3164L117.462 86.8873C116.689 86.6186 115.843 87.0023 115.513 87.7514C110.171 99.8804 100.704 109.78 88.7374 115.71C76.3318 121.857 62.0859 123.318 48.6537 119.82C35.2215 116.322 23.5191 108.105 15.727 96.6981C7.93481 85.2916 4.58424 71.4743 6.29952 57.8203C8.0148 44.1664 14.6789 31.6072 25.0503 22.4825C35.4217 13.3579 48.793 8.29013 62.673 8.22349C76.553 8.15685 89.995 13.0958 100.495 22.1203Z" fill="#232323"/>
</g>
<defs>
<clipPath id="clip0_54_477">
<rect width="131" height="131" fill="white"/>
</clipPath>
</defs>
</svg>
