<svg width="131" height="131" viewBox="0 0 131 131" fill="none" xmlns="http://www.w3.org/2000/svg">
<path d="M96.6209 101.741C89.7686 107.611 81.4044 111.437 72.4823 112.783C63.5602 114.128 54.4397 112.939 46.1611 109.35C37.8825 105.761 30.7793 99.9181 25.6619 92.4868C20.5444 85.0554 17.6188 76.3353 17.2187 67.3212" stroke="#232323" stroke-width="5.39412" stroke-linecap="square" stroke-linejoin="round" stroke-dasharray="16.95 16.95"/>
<path d="M34.5811 28.1345C41.5268 22.3751 49.9515 18.6839 58.894 17.4821C67.8366 16.2803 76.9368 17.6162 85.1567 21.3375C93.3765 25.0587 100.385 31.0154 105.382 38.5281C110.38 46.0407 113.165 54.8067 113.42 63.826" stroke="#232323" stroke-width="5.39412" stroke-linecap="square" stroke-linejoin="round" stroke-dasharray="16.95 16.95"/>
<path d="M15.0611 42.3604C15.6032 41.3051 17.0844 41.2323 17.7273 42.2294L30.8293 62.5488C31.4722 63.5459 30.7946 64.8651 29.6097 64.9233L5.46155 66.1102C4.27659 66.1685 3.47293 64.9221 4.01498 63.8668L15.0611 42.3604Z" fill="#232323"/>
<path d="M112.624 89.0344C113.25 90.0422 114.732 89.9945 115.292 88.9484L126.7 67.6318C127.26 66.5858 126.477 65.326 125.291 65.3642L101.127 66.143C99.941 66.1812 99.2412 67.4887 99.8672 68.4965L112.624 89.0344Z" fill="#232323"/>
<path d="M77.3829 86.0961C76.7017 86.0961 76.1013 85.6489 75.9062 84.9962L73.2356 76.0582C73.0406 75.4054 72.4402 74.9582 71.7589 74.9582H58.5469C57.8656 74.9582 57.2652 75.4054 57.0702 76.0582L54.3996 84.9962C54.2046 85.6489 53.6041 86.0961 52.9229 86.0961H45.9461C44.8979 86.0961 44.1555 85.0724 44.4812 84.0761L58.7821 40.3255C58.9892 39.6918 59.5803 39.2632 60.247 39.2632H70.5202C71.189 39.2632 71.7815 39.6946 71.9869 40.3312L86.1013 84.0818C86.4223 85.0769 85.6802 86.0961 84.6345 86.0961H77.3829ZM65.2993 48.6819C65.2717 48.5874 65.1851 48.5224 65.0866 48.5224C64.9879 48.5224 64.9011 48.5877 64.8738 48.6826L60.3622 64.3348C60.0782 65.3201 60.8177 66.3028 61.8431 66.3028H68.3888C69.4164 66.3028 70.1562 65.3161 69.8682 64.3297L65.2993 48.6819Z" fill="#07C45F"/>
</svg>
