<svg width="131" height="131" viewBox="0 0 131 131" fill="none" xmlns="http://www.w3.org/2000/svg">
<path d="M82.273 24.3107C81.5566 23.4034 81.0005 23.6927 81.3873 24.7821C83.8358 31.6789 90.006 48.7028 92.0685 54.3888C92.3736 55.2299 91.7523 56.1049 90.8577 56.1069C89.1696 56.1109 87.4653 56.0968 85.792 56.0968L74.8301 56.1004C73.7058 56.1008 73.0596 57.4772 73.7512 58.3637C73.913 58.5711 74.0697 58.7714 74.2182 58.9582L78.4123 64.2335L91.1424 80.2328L104.181 96.6276L107.791 101.165C107.856 101.246 107.922 101.329 107.99 101.413C108.697 102.289 109.269 101.997 108.881 100.94C108.73 100.531 108.609 100.206 108.566 100.087L106.088 93.2191L100.829 78.6469C99.9358 76.1774 99.0114 73.6822 98.1288 71.1965C97.8318 70.36 98.4483 69.4833 99.336 69.4766C104.688 69.4362 110.113 69.4695 115.478 69.4829C116.584 69.4856 117.206 68.1767 116.521 67.3077C116.271 66.9898 116.023 66.6746 115.779 66.3682L111.392 60.8524L98.987 45.2598L86.9499 30.1194C85.4052 28.1773 83.8135 26.262 82.273 24.3107Z" fill="#07C45F"/>
<path d="M38.2299 93.9256V105.964C38.2299 106.713 38.8371 107.32 39.5862 107.32H53.5384C54.2874 107.32 54.8946 106.713 54.8946 105.964V93.9644C54.8946 93.943 54.8772 93.9256 54.8558 93.9256C54.8343 93.9256 54.8169 93.9082 54.8169 93.8867V30.0525V24.49C54.8169 23.741 54.2097 23.1338 53.4607 23.1338H35.5284C35.1145 23.1338 34.7232 23.3228 34.466 23.647L29.3835 30.0525L11.724 53.3415C11.2762 53.932 11.3854 54.7727 11.9692 55.2293L20.4509 61.8628C21.046 62.3282 21.9067 62.2176 22.3649 61.6169L37.0349 42.3806C37.1608 42.2155 37.3566 42.1186 37.5642 42.1186C37.9319 42.1186 38.2299 42.4166 38.2299 42.7843V93.9256Z" fill="#232323"/>
</svg>
