<svg width="131" height="131" viewBox="0 0 131 131" fill="none" xmlns="http://www.w3.org/2000/svg">
<path d="M96.3237 63.7804C97.3512 64.3736 97.3512 65.8566 96.3237 66.4498L50.6664 92.8101C49.6389 93.4033 48.3546 92.6618 48.3546 91.4754L48.3546 38.7548C48.3546 37.5684 49.6389 36.8269 50.6664 37.4201L96.3237 63.7804Z" fill="#07C45F"/>
<path d="M123.287 61.6604C122.304 48.2052 116.658 35.5145 107.322 25.7753C97.9862 16.0361 85.5456 9.85852 72.144 8.30723C58.7425 6.75594 45.2196 9.92811 33.9058 17.277C22.592 24.626 14.1961 35.6913 10.1651 48.5661L17.4291 50.8404C20.9308 39.6564 28.2241 30.0442 38.0521 23.6603C47.8801 17.2765 59.6272 14.5209 71.2688 15.8684C82.9104 17.216 93.7173 22.5823 101.827 31.0425C109.937 39.5028 114.841 50.5269 115.695 62.2151L123.287 61.6604Z" fill="#232323"/>
<path d="M7.32602 70.1106C8.30925 83.5658 13.9552 96.2565 23.291 105.996C32.6267 115.735 45.0674 121.912 58.4689 123.464C71.8705 125.015 85.3934 121.843 96.7072 114.494C108.021 107.145 116.417 96.0797 120.448 83.2049L113.184 80.9306C109.682 92.1146 102.389 101.727 92.5609 108.111C82.7329 114.495 70.9858 117.25 59.3442 115.903C47.7025 114.555 36.8956 109.189 28.7859 100.728C20.6761 92.2682 15.7716 81.2441 14.9175 69.5559L7.32602 70.1106Z" fill="#232323"/>
<path d="M104.12 83.3443C104.12 76.7797 109.275 71.4579 115.635 71.4579C121.994 71.4579 127.149 76.7797 127.149 83.3443C127.149 89.909 121.994 95.2307 115.635 95.2307C109.275 95.2307 104.12 89.909 104.12 83.3443Z" fill="#232323"/>
<path d="M3.08342 48.0556C3.08342 41.6961 8.07253 36.5407 14.2269 36.5407C20.3813 36.5407 25.3704 41.6961 25.3704 48.0556C25.3704 54.4151 20.3813 59.5706 14.2269 59.5706C8.07253 59.5706 3.08342 54.4151 3.08342 48.0556Z" fill="#232323"/>
</svg>
