<svg width="131" height="131" viewBox="0 0 131 131" fill="none" xmlns="http://www.w3.org/2000/svg">
<path d="M118.737 63.0769C119.641 63.5989 119.641 64.904 118.737 65.426L73.4184 91.5906C72.5143 92.1127 71.3841 91.4601 71.3841 90.4161L71.3841 38.0868C71.3841 37.0428 72.5143 36.3903 73.4184 36.9123L118.737 63.0769Z" fill="#07C45F"/>
<path d="M38.2299 92.6253V104.664C38.2299 105.413 38.8371 106.02 39.5862 106.02H53.5384C54.2874 106.02 54.8946 105.413 54.8946 104.664V92.6641C54.8946 92.6427 54.8772 92.6253 54.8558 92.6253C54.8343 92.6253 54.8169 92.6079 54.8169 92.5864V28.7522V23.1897C54.8169 22.4407 54.2097 21.8335 53.4607 21.8335H35.5284C35.1145 21.8335 34.7232 22.0225 34.466 22.3467L29.3835 28.7522L11.724 52.0412C11.2762 52.6318 11.3854 53.4724 11.9692 53.929L20.4509 60.5625C21.046 61.0279 21.9067 60.9173 22.3649 60.3166L37.0349 41.0803C37.1608 40.9152 37.3566 40.8183 37.5642 40.8183C37.9319 40.8183 38.2299 41.1164 38.2299 41.484V92.6253Z" fill="#232323"/>
</svg>
