<?xml version="1.0" encoding="UTF-8" standalone="no"?>
<!-- Created with Inkscape (http://www.inkscape.org/) -->

<svg
   width="127.99999"
   height="63.999996"
   viewBox="0 0 33.866664 16.933332"
   version="1.1"
   id="svg1"
   xml:space="preserve"
   xmlns="http://www.w3.org/2000/svg"
   xmlns:svg="http://www.w3.org/2000/svg"><defs
     id="defs1"><linearGradient
       id="swatch18"><stop
         style="stop-color:#ffeb00;stop-opacity:0.87843137;"
         offset="0"
         id="stop18" /></linearGradient><linearGradient
       id="swatch1"><stop
         style="stop-color:#ffea00;stop-opacity:1;"
         offset="0"
         id="stop1" /></linearGradient><style
       id="style1">.c{fill:#ec008c;}.c,.d{stroke-width:0px;}.d{fill:#00b9f2;}</style><linearGradient
       id="swatch16"><stop
         style="stop-color:#00b9f2;stop-opacity:1;"
         offset="0"
         id="stop17" /></linearGradient><style
       id="style1-0">.c{fill:#ec008c;}.c,.d{stroke-width:0px;}.d{fill:#00b9f2;}</style><style
       id="style1-9">.c{fill:#ec008c;}.c,.d{stroke-width:0px;}.d{fill:#00b9f2;}</style><style
       id="style1-94">.c{fill:#ec008c;}.c,.d{stroke-width:0px;}.d{fill:#00b9f2;}</style><style
       id="style1-7">.c{fill:#ec008c;}.c,.d{stroke-width:0px;}.d{fill:#00b9f2;}</style></defs><g
     id="layer1"
     style="display:inline"><path
       style="fill:none;stroke:#ffea00;stroke-width:0.667761px;stroke-linecap:butt;stroke-linejoin:miter;stroke-opacity:1"
       d="m 2.640029,4.5378957 2.884693,0.016287 -0.024311,-3.1575852 2.2480904,0.029099 0.00774,3.1159643"
       id="path17-2-4" /><path
       style="display:inline;fill:none;stroke:#ffea00;stroke-width:0.667761px;stroke-linecap:butt;stroke-linejoin:miter;stroke-opacity:1"
       d="m 7.426068,4.6086997 2.884693,0.016287 -0.02431,-3.1575852 2.248091,0.029099 0.0077,3.1159644"
       id="path17-6-61-0" /><path
       style="display:inline;fill:none;stroke:#ffea00;stroke-width:0.667761px;stroke-linecap:butt;stroke-linejoin:miter;stroke-opacity:1"
       d="m 12.198908,4.7026336 2.884693,0.016287 -0.02431,-3.1575852 2.24809,0.029099 0.0077,3.1159644"
       id="path17-64-0-5" /><path
       style="display:inline;fill:none;stroke:#ffea00;stroke-width:0.667761px;stroke-linecap:butt;stroke-linejoin:miter;stroke-opacity:1"
       d="m 17.026695,4.7797405 2.884693,0.016287 -0.02431,-3.1575852 2.24809,0.029099 0.0077,3.1159644"
       id="path17-8-6-9" /><path
       style="display:inline;fill:none;stroke:#ffea00;stroke-width:0.667761px;stroke-linecap:butt;stroke-linejoin:miter;stroke-opacity:1"
       d="m 21.846672,4.811592 2.884693,0.016287 -0.02431,-3.1575852 2.24809,0.029099 0.0077,3.1159644"
       id="path17-7-1-4" /><path
       style="display:inline;fill:none;stroke:#ffea00;stroke-width:0.667761px;stroke-linecap:butt;stroke-linejoin:miter;stroke-opacity:1"
       d="m 26.671383,4.8690897 2.884693,0.016287 -0.02431,-3.1575852 2.248091,0.029099 0.0077,3.1159644"
       id="path17-0-59-6" /><path
       style="display:inline;fill:none;stroke:#ffea00;stroke-width:0.667761px;stroke-linecap:butt;stroke-linejoin:miter;stroke-opacity:1"
       d="m 2.5493058,14.889092 12.8727132,0.01629 -0.02431,-3.157586 2.24809,0.0291 0.0077,3.115965"
       id="path17-64-0-5-5" /><path
       style="display:inline;fill:none;stroke:#ffea00;stroke-width:0.667808;stroke-linecap:butt;stroke-linejoin:miter;stroke-dasharray:none;stroke-opacity:1"
       d="m 17.365113,14.966198 2.884693,0.01629 -0.02431,-3.157585 2.24809,0.0291 0.0077,3.115965"
       id="path17-8-6-9-4" /><path
       style="fill:none;stroke:#ffea00;stroke-width:0.529167;stroke-linecap:butt;stroke-linejoin:miter;stroke-dasharray:none;stroke-opacity:1"
       d="m 1.8851486,10.172322 h 1.04175 V 7.2744168 h 3.0028401 v 2.9068492 l 0.9597,0.0082 V 7.2839768 h 3.03645 v 2.9122642 l 0.9978703,-0.0049 V 7.2795608 H 13.93937 V 10.184248 H 24.91045 V 7.2481418 h 3.03984 v 2.9469292 h 0.99654 V 7.2897948 h 2.96781 v 2.8959592 h 1.04733"
       id="path55-9" /><path
       style="fill:none;stroke:#ffea00;stroke-width:0.67618;stroke-linecap:butt;stroke-linejoin:miter;stroke-dasharray:none;stroke-opacity:1"
       d="M 22.182044,15.190982 H 32.635623"
       id="path121" /></g></svg>
