<?xml version="1.0" encoding="UTF-8" standalone="no"?>
<!-- Created with Inkscape (http://www.inkscape.org/) -->

<svg
   width="128"
   height="64"
   viewBox="0 0 33.866666 16.933333"
   version="1.1"
   id="svg1"
   xmlns="http://www.w3.org/2000/svg"
   xmlns:svg="http://www.w3.org/2000/svg">
  <defs
     id="defs1" />
  <g
     id="layer1">
    <path
       style="fill:none;stroke:#ec008c;stroke-width:1.05833;stroke-miterlimit:10;stroke-dasharray:none;stroke-opacity:1"
       d="M 32.350694,0.66114322 32.31933,15.715671 H 1.2545443"
       id="path2" />
    <path
       style="fill:none;stroke:#ffea00;stroke-width:1.05833;stroke-miterlimit:10;stroke-dasharray:none;stroke-opacity:1"
       d="m 1.9296153,8.4666668 c 0.9235111,-3.5989784 1.7339339,-3.8430007 2.4065918,0 2.8396353,9.2470602 5.0276775,2.3128842 7.4018109,0 0.52624,-0.5363499 1.115658,-0.3777433 1.724998,0 0.550911,0.4072788 0.818053,0.1524273 1.12909,0 2.60718,-5.8582555 2.888719,-0.4513161 4.234087,0 0.404679,0.1572873 0.744703,0.088351 1.066363,0 2.877977,-2.3175408 2.826639,-1.4655931 3.920451,0 0.910433,1.9530422 2.031664,3.3961432 4.26545,0 1.084784,-1.2846747 2.123719,-2.8474371 4.101354,0"
       id="path1" />
    <circle
       id="path3"
       style="fill:#00b9f2;stroke:none;stroke-width:0.23322;stroke-dasharray:none"
       cx="32.304516"
       cy="8.2486277"
       r="1.3993183" />
  </g>
</svg>
