<?xml version="1.0" encoding="UTF-8" standalone="no"?>
<!-- Created with Inkscape (http://www.inkscape.org/) -->

<svg
   width="128"
   height="64"
   viewBox="0 0 33.866666 16.933333"
   version="1.1"
   id="svg1"
   xmlns="http://www.w3.org/2000/svg"
   xmlns:svg="http://www.w3.org/2000/svg">
  <defs
     id="defs1" />
  <g
     id="layer1">
    <path
       style="fill:none;stroke:#ffea00;stroke-width:1.05833333;stroke-miterlimit:10;stroke-dasharray:none;stroke-opacity:1"
       d="M 0.76970734,8.4681566 C 1.3367041,6.4525762 1.9037067,4.4528039 2.4706996,3.0870756 3.0377022,1.7213475 3.6046951,1.0135255 4.1716978,1.1791402 4.7386905,1.3447549 5.3056834,2.3857471 5.872686,3.97581 c 0.5669928,1.5900629 1.1339954,3.7079657 1.7009883,5.6961821 0.5670026,1.9882269 1.1339955,3.8160609 1.7009981,4.9192249 0.5669928,1.103064 1.1339846,1.461147 1.7009976,0.967094 0.567012,-0.493952 1.134025,-1.836839 1.700939,-3.609045 0.567012,-1.772306 1.134025,-3.9493187 1.701038,-5.8559635 0.567012,-1.9066347 1.134025,-3.5126958 1.701037,-4.3231101 0.566914,-0.81040833 1.133927,-0.80888255 1.700939,0 0.567013,0.8088835 1.134026,2.4170156 1.701038,4.3231101 0.566914,1.9060945 1.133927,4.0828565 1.700939,5.8559635 0.567012,1.773006 1.134024,3.113492 1.701037,3.609045 0.567012,0.495654 1.133926,0.134568 1.700939,-0.967094 0.567013,-1.101763 1.134025,-2.931299 1.701038,-4.9192249 0.567012,-1.9879463 1.134025,-4.1050987 1.700939,-5.6961821 0.567012,-1.5910834 1.134025,-2.6293943 1.701038,-2.7966698 0.567012,-0.1672755 1.134025,0.5434379 1.700939,1.9079354 0.567012,1.3644976 1.134025,3.3655006 1.701037,5.381081"
       title="sin(x)*3.5"
       id="path1" />
  </g>
</svg>
