<?xml version="1.0" encoding="UTF-8" standalone="no"?>
<!-- Created with Inkscape (http://www.inkscape.org/) -->

<svg
   width="127.99999"
   height="63.999996"
   viewBox="0 0 33.866664 16.933332"
   version="1.1"
   id="svg1"
   xml:space="preserve"
   xmlns="http://www.w3.org/2000/svg"
   xmlns:svg="http://www.w3.org/2000/svg"><defs
     id="defs1"><linearGradient
       id="swatch18"><stop
         style="stop-color:#ffeb00;stop-opacity:0.87843137;"
         offset="0"
         id="stop18" /></linearGradient><linearGradient
       id="swatch1"><stop
         style="stop-color:#ffea00;stop-opacity:1;"
         offset="0"
         id="stop1" /></linearGradient><style
       id="style1">.c{fill:#ec008c;}.c,.d{stroke-width:0px;}.d{fill:#00b9f2;}</style></defs><g
     id="layer1"
     style="display:inline"><path
       style="fill:none;stroke:#ffea00;stroke-width:0.663182;stroke-miterlimit:10;stroke-dasharray:none;stroke-opacity:1"
       d="M 1.0733746,12.477653 C 1.6206231,11.657637 2.1678774,10.844052 2.715122,10.288421 3.2623753,9.7327902 3.8096199,9.4448209 4.3568741,9.5121994 c 0.5472446,0.067378 1.0944893,0.4908946 1.6417425,1.1377936 0.5472447,0.646899 1.0944989,1.508544 1.6417435,2.317427 0.5472532,0.808887 1.0944979,1.552521 1.6417518,2.001331 0.547245,0.448769 1.0944871,0.594451 1.6417511,0.393451 0.547263,-0.200959 1.094527,-0.747297 1.641697,-1.468299 0.547262,-0.721043 1.094526,-1.606736 1.64179,-2.382433 0.547263,-0.775692 1.094527,-1.4291 1.64179,-1.758808 0.547168,-0.3297056 1.094432,-0.3290846 1.641695,0 0.547264,0.329085 1.094528,0.983336 1.641791,1.758808 0.547168,0.775474 1.094432,1.661064 1.641695,2.382433 0.547262,0.721327 1.094526,1.266689 1.64179,1.468299 0.547263,0.201651 1.094431,0.05475 1.641695,-0.393451 0.547264,-0.44824 1.094527,-1.192566 1.641792,-2.001331 0.547262,-0.808774 1.094527,-1.670113 1.641695,-2.317427 0.547263,-0.647315 1.094527,-1.0697395 1.64179,-1.1377936 0.547264,-0.068054 1.094527,0.2210911 1.641696,0.7762216 0.547262,0.555131 1.094527,1.369216 1.64179,2.189232"
       title="sin(x)*3.5"
       id="path1-7" /><path
       style="display:inline;fill:none;stroke:#00b9f2;stroke-width:0.663182;stroke-miterlimit:10;stroke-dasharray:none;stroke-opacity:1"
       d="M 1.0034159,4.2990821 C 1.5506644,3.479066 1.9342161,2.338076 2.4814607,1.782445 3.028714,1.226814 3.7162751,1.6404275 4.2635293,1.7078055 c 0.5472446,0.06738 1.3283502,-0.023599 1.8756034,0.6233002 0.5472443,0.646899 0.042126,1.7657904 0.5893695,2.5746736 0.547253,0.8088873 1.936397,1.4355906 2.483651,1.8844005 0.547245,0.4487688 1.0944868,0.5944509 1.6417508,0.3934511 0.547263,-0.2009588 0.673577,-1.6125822 1.220747,-2.3335844 0.547262,-0.7210428 1.679179,-0.6245197 2.226443,-1.4002169 0.547263,-0.775692 0.930824,-1.5460304 1.478087,-1.8757384 0.617326,0.067857 1.094432,-0.329085 1.641695,0 0.547264,0.329085 0.837281,1.0534943 1.384544,1.8289663 0.547168,0.7754734 1.562154,1.2868865 2.109417,2.008255 0.547262,0.7213275 0.954209,1.5473224 1.501473,1.7489323 0.547263,0.2016509 0.930729,-0.4129747 1.477993,-0.8611728 0.547264,-0.44824 1.117913,-1.3796543 1.665178,-2.1884195 0.547262,-0.8087734 1.655793,-0.2201755 2.202961,-0.8674895 0.547263,-0.647315 0.650191,-1.9116391 1.197454,-1.9796931 0.547264,-0.06805 0.556647,0.6654266 1.103816,1.2205576 0.547262,0.55513 1.585635,0.9950385 2.132898,1.8150546"
       title="sin(x)*3.5"
       id="path1-7-5" /></g></svg>
