<?xml version="1.0" encoding="UTF-8" standalone="no"?>
<!-- Created with Inkscape (http://www.inkscape.org/) -->

<svg
   width="128"
   height="64"
   viewBox="0 0 33.866666 16.933333"
   version="1.1"
   id="svg1"
   inkscape:version="1.3.1 (91b66b0783, 2023-11-16)"
   sodipodi:docname="filter-frequency.svg"
   inkscape:export-filename="filter-frequency.png"
   inkscape:export-xdpi="96"
   inkscape:export-ydpi="96"
   xmlns:inkscape="http://www.inkscape.org/namespaces/inkscape"
   xmlns:sodipodi="http://sodipodi.sourceforge.net/DTD/sodipodi-0.dtd"
   xmlns="http://www.w3.org/2000/svg"
   xmlns:svg="http://www.w3.org/2000/svg">
  <sodipodi:namedview
     id="namedview1"
     pagecolor="#ffffff"
     bordercolor="#000000"
     borderopacity="0.25"
     inkscape:showpageshadow="2"
     inkscape:pageopacity="0.0"
     inkscape:pagecheckerboard="0"
     inkscape:deskcolor="#d1d1d1"
     inkscape:document-units="px"
     inkscape:zoom="8.4359982"
     inkscape:cx="58.202953"
     inkscape:cy="29.220016"
     inkscape:window-width="1920"
     inkscape:window-height="1051"
     inkscape:window-x="-9"
     inkscape:window-y="-9"
     inkscape:window-maximized="1"
     inkscape:current-layer="layer1" />
  <defs
     id="defs1">
    <marker
       style="overflow:visible"
       id="Triangle"
       refX="0"
       refY="0"
       orient="auto-start-reverse"
       inkscape:stockid="Triangle arrow"
       markerWidth="0.40000001"
       markerHeight="0.40000001"
       viewBox="0 0 1 1"
       inkscape:isstock="true"
       inkscape:collect="always"
       preserveAspectRatio="xMidYMid">
      <path
         transform="scale(0.5)"
         style="fill:context-stroke;fill-rule:evenodd;stroke:context-stroke;stroke-width:1pt"
         d="M 5.77,0 -2.88,5 V -5 Z"
         id="path135" />
    </marker>
    <marker
       style="overflow:visible"
       id="marker6"
       refX="0"
       refY="0"
       orient="auto-start-reverse"
       inkscape:stockid="Triangle arrow"
       markerWidth="0.40000001"
       markerHeight="0.40000001"
       viewBox="0 0 1 1"
       inkscape:isstock="true"
       inkscape:collect="always"
       preserveAspectRatio="xMidYMid">
      <path
         transform="scale(0.5)"
         style="fill:context-stroke;fill-rule:evenodd;stroke:context-stroke;stroke-width:1pt"
         d="M 5.77,0 -2.88,5 V -5 Z"
         id="path6" />
    </marker>
  </defs>
  <g
     inkscape:label="Layer 1"
     inkscape:groupmode="layer"
     id="layer1">
    <text
       xml:space="preserve"
       style="font-size:7.05556px;fill:#ffea00;fill-opacity:1;stroke:#ffea00;stroke-width:0.529167;stroke-miterlimit:10;stroke-dasharray:none;stroke-opacity:1"
       x="27.328993"
       y="15.430895"
       id="text6"><tspan
         sodipodi:role="line"
         id="tspan6"
         style="font-size:7.05556px;fill:#ffea00;fill-opacity:1;stroke-width:0.529167;stroke-dasharray:none"
         x="27.328993"
         y="15.430895">f</tspan></text>
    <path
       style="fill:none;stroke:#ec008c;stroke-width:1.05833;stroke-miterlimit:10;stroke-dasharray:none;stroke-opacity:1"
       d="M 1.4549547,8.48586 V 1.2722305"
       id="path1" />
    <path
       style="fill:none;stroke:#ec008c;stroke-width:1.05833;stroke-miterlimit:10;stroke-dasharray:none;stroke-opacity:1"
       d="M 25.948371,8.4701781 V 1.4760939"
       id="path4" />
    <path
       style="fill:none;stroke:#ec008c;stroke-width:1.05833;stroke-miterlimit:10;stroke-dasharray:none;stroke-opacity:1"
       d="M 0.26458368,8.4686711 H 33.602083"
       id="path2"
       sodipodi:nodetypes="cc" />
    <path
       style="fill:none;fill-opacity:1;stroke:#00b9f2;stroke-width:1.0502;stroke-miterlimit:10;stroke-dasharray:none;stroke-opacity:1"
       d="M 0.80377188,9.7310787 C 1.4050547,8.5636062 2.006331,7.3511126 2.607618,6.2194067 3.208895,5.0877008 3.810181,4.0389583 4.411458,3.1812864 5.012745,2.3236243 5.614022,1.6594253 6.215298,1.2563733 6.816585,0.85332221 7.417862,0.71351711 8.019148,0.84994051 c 0.601277,0.1364233 1.202564,0.55044459 1.80387,1.19762179 0.601225,0.6471672 1.202551,1.5278467 1.803778,2.5495157 0.601327,1.021669 1.202554,2.1835792 1.80388,3.3646476 0.601327,1.1810586 1.202554,2.3795524 1.80388,3.4713564 0.601227,1.091805 1.202554,2.074625 1.80378,2.847257 0.601327,0.772631 1.202554,1.332808 1.803881,1.623628 0.601226,0.29082 1.202553,0.310411 1.80378,0.05818 0.601326,-0.252227 1.202653,-0.777356 1.80388,-1.519468 0.601326,-0.742211 1.202553,-1.701502 1.80388,-2.777358 0.601227,-1.075855 1.202553,-2.2672505 1.80378,-3.4502781 0.601327,-1.1830276 1.202553,-2.3557968 1.80388,-3.3969292 0.601327,-1.0411324 1.202553,-1.9483047 1.80388,-2.6283442 0.601227,-0.6800396 1.202554,-1.1306141 1.80378,-1.30637989 0.601327,-0.1757657 1.202554,-0.074886 1.80388,0.29062769"
       title="sin(x)*2"
       id="path7"
       sodipodi:nodetypes="cccccccccccccccsccc" />
    <path
       style="fill:none;stroke:#ffea00;stroke-width:1.05833;stroke-miterlimit:10;stroke-dasharray:none;stroke-opacity:1;marker-start:url(#Triangle);marker-end:url(#marker6)"
       d="M 2.823969,3.3422284 H 24.665238"
       id="path5"
       sodipodi:nodetypes="cc" />
  </g>
</svg>
