<?xml version="1.0" encoding="UTF-8" standalone="no"?>
<!-- Created with Inkscape (http://www.inkscape.org/) -->

<svg
   width="127.99999"
   height="63.999996"
   viewBox="0 0 33.866664 16.933332"
   version="1.1"
   id="svg1"
   xml:space="preserve"
   xmlns="http://www.w3.org/2000/svg"
   xmlns:svg="http://www.w3.org/2000/svg"><defs
     id="defs1"><linearGradient
       id="swatch18"><stop
         style="stop-color:#ffeb00;stop-opacity:0.87843137;"
         offset="0"
         id="stop18" /></linearGradient><linearGradient
       id="swatch1"><stop
         style="stop-color:#ffea00;stop-opacity:1;"
         offset="0"
         id="stop1" /></linearGradient></defs><g
     id="layer1"
     style="display:inline"><g
       id="g106"
       transform="translate(144.79009,106.51196)"
       style="stroke:#ffea00;stroke-width:0.529167;stroke-dasharray:none;stroke-opacity:1"><path
         style="fill:none;stroke:#ffea00;stroke-width:0.529167;stroke-linecap:butt;stroke-linejoin:miter;stroke-dasharray:none;stroke-opacity:1"
         d="m -124.05474,-96.701715 -1.09271,-0.233871 1.73075,-2.463971 1.17931,0.301707 -1.81745,2.395354 -0.92714,0.489886 -7.87118,2.885282 c -0.42547,0.152007 -0.54907,0.08041 -0.89267,0.264843 l -0.34964,0.178237 c -0.28129,0.04782 -0.55993,0.126352 -0.84849,0.08954 -0.99553,-0.250711 -0.88842,-0.885154 -0.40437,-1.650779 l 11.92422,-4.963285"
         id="path90" /><path
         style="fill:none;stroke:#ffea00;stroke-width:0.529167;stroke-linecap:butt;stroke-linejoin:miter;stroke-dasharray:none;stroke-opacity:1"
         d="m -132.55548,-93.384 c 0.13175,0.254806 0.1088,0.504217 0.6861,0.704779 0.22358,0.05866 0.50747,0.01033 0.82557,-0.10035 0.36277,-0.138884 0.71802,-0.20616 1.05038,-0.349079 l 7.53283,-2.830168 1.13372,-0.71572 1.34765,-2.358454 -1.13768,-0.06712 -1.256,2.45424 1.04603,-0.02867"
         id="path91" /><path
         style="fill:none;stroke:#ffea00;stroke-width:0.529167;stroke-linecap:butt;stroke-linejoin:miter;stroke-dasharray:none;stroke-opacity:1"
         d="m -121.12439,-99.09717 -1.73659,0.859642"
         id="path92" /><path
         style="fill:none;stroke:#ffea00;stroke-width:0.529167;stroke-linecap:butt;stroke-linejoin:miter;stroke-dasharray:none;stroke-opacity:1"
         d="m -119.95045,-99.030779 0.0342,-0.02176 c 0.62357,-0.461106 1.27588,-0.877747 1.95299,-1.256051 0.70234,-0.35171 1.48335,-0.57645 2.31624,-0.93071 1.07723,-0.46677 1.95184,-1.071 2.75228,-1.90721 -1.70613,-0.52779 -3.52144,-0.20483 -5.2573,-0.0189 l -0.48587,0.18397 c -0.3738,0.10964 -0.75433,0.18932 -1.14614,0.21881 l -0.24301,0.0117"
         id="path93" /><path
         style="fill:none;stroke:#ffea00;stroke-width:0.529167;stroke-linecap:butt;stroke-linejoin:miter;stroke-dasharray:none;stroke-opacity:1"
         d="m -118.03254,-101.37946 -9.81198,2.660239 -10.13051,1.756392 -2.28433,0.421425 -1.6861,0.67395 1.6182,-0.05678 0.10651,-0.03464 7.91846,-0.232776 c 0.33266,-0.01016 0.4892,0.03973 0.73041,0.06075"
         id="path98" /><path
         style="fill:none;stroke:#ffea00;stroke-width:0.529167;stroke-linecap:butt;stroke-linejoin:miter;stroke-dasharray:none;stroke-opacity:1"
         d="m -118.18847,-103.15991 c -0.36502,-0.20521 -0.73288,-0.39387 -1.12608,-0.43495 -0.15619,-0.0279 -0.32945,-0.0101 -0.50676,0.0185 -0.56506,0.072 -1.79328,0.86927 -2.06892,1.11318 -1.41653,1.15388 -2.85484,2.25085 -4.32356,3.268291"
         id="path99" /><path
         style="fill:none;stroke:#ffea00;stroke-width:0.529167;stroke-linecap:butt;stroke-linejoin:miter;stroke-dasharray:none;stroke-opacity:1"
         d="m -120.15918,-102.73159 c 0.0192,-0.33408 0.20657,-0.61466 0.43758,-0.83613"
         id="path100" /><path
         style="fill:none;stroke:#ffea00;stroke-width:0.529167;stroke-linecap:butt;stroke-linejoin:miter;stroke-dasharray:none;stroke-opacity:1"
         d="m -121.10128,-96.910733 1.17598,1.466464 c 0.0212,0.04055 0.10593,0.06112 -0.0453,0.155853 l -0.91952,0.429149 -0.0556,-0.02479 -0.6273,0.207613 -2.64671,-0.544134"
         id="path101" /><path
         style="fill:none;stroke:#ffea00;stroke-width:0.529167;stroke-linecap:butt;stroke-linejoin:miter;stroke-dasharray:none;stroke-opacity:1"
         d="m -129.17112,-98.524403 -1.12262,-1.030843 c -0.14639,-0.196087 -0.81218,0.553898 -0.77032,0.589828 l 0.10603,0.748403"
         id="path102" /><path
         style="fill:none;stroke:#ffea00;stroke-width:0.529167;stroke-linecap:butt;stroke-linejoin:miter;stroke-dasharray:none;stroke-opacity:1"
         d="m -128.00884,-93.835401 0.20613,0.915778 -1.38835,0.367059 -0.85155,-0.514255"
         id="path103" /><path
         style="fill:none;stroke:#ffea00;stroke-width:0.529167;stroke-linecap:butt;stroke-linejoin:miter;stroke-dasharray:none;stroke-opacity:1"
         d="m -134.02679,-97.684316 -3.25748,-2.598424 -0.55284,0.821665 0.37987,1.527828 -0.0869,0.112803 0.17901,0.701796"
         id="path104" /><path
         style="fill:none;stroke:#ffea00;stroke-width:0.529167;stroke-linecap:butt;stroke-linejoin:miter;stroke-dasharray:none;stroke-opacity:1"
         d="m -137.09661,-96.000561 0.16027,0.594223 0.10501,-0.0087 0.0709,0.747102"
         id="path105" /><path
         style="fill:none;stroke:#ffea00;stroke-width:0.529167;stroke-linecap:butt;stroke-linejoin:miter;stroke-dasharray:none;stroke-opacity:1"
         d="m -134.53729,-95.250724 -7.16291,1.750005 -0.5309,0.374703 4.7094,-0.817417 0.80802,-0.224177 -0.009,0.06914 0.18115,-0.008 1.16417,-0.378058"
         id="path106" /></g></g></svg>
