<?xml version="1.0" encoding="UTF-8" standalone="no"?>
<!-- Created with Inkscape (http://www.inkscape.org/) -->

<svg
   width="128"
   height="64"
   viewBox="0 0 33.866666 16.933333"
   version="1.1"
   id="svg1"
   inkscape:version="1.3.1 (91b66b0783, 2023-11-16)"
   sodipodi:docname="filter-ac-couple.svg"
   inkscape:export-filename="filter-ac-couple.png"
   inkscape:export-xdpi="96"
   inkscape:export-ydpi="96"
   xmlns:inkscape="http://www.inkscape.org/namespaces/inkscape"
   xmlns:sodipodi="http://sodipodi.sourceforge.net/DTD/sodipodi-0.dtd"
   xmlns="http://www.w3.org/2000/svg"
   xmlns:svg="http://www.w3.org/2000/svg">
  <sodipodi:namedview
     id="namedview1"
     pagecolor="#ffffff"
     bordercolor="#000000"
     borderopacity="0.25"
     inkscape:showpageshadow="2"
     inkscape:pageopacity="0.0"
     inkscape:pagecheckerboard="0"
     inkscape:deskcolor="#d1d1d1"
     inkscape:document-units="px"
     inkscape:zoom="256"
     inkscape:cx="119.76953"
     inkscape:cy="1.0957031"
     inkscape:window-width="1920"
     inkscape:window-height="1051"
     inkscape:window-x="-9"
     inkscape:window-y="-9"
     inkscape:window-maximized="1"
     inkscape:current-layer="layer1" />
  <defs
     id="defs1" />
  <g
     inkscape:label="Layer 1"
     inkscape:groupmode="layer"
     id="layer1">
    <path
       style="fill:none;stroke:#ec008c;stroke-width:1.06188;stroke-miterlimit:10;stroke-dasharray:none;stroke-opacity:1"
       d="M 0.29104166,10.803467 H 33.602083"
       id="path2"
       sodipodi:nodetypes="cc" />
    <path
       style="fill:none;stroke:#00b9f2;stroke-width:1.05982;stroke-miterlimit:10;stroke-dasharray:none;stroke-opacity:1"
       d="M 0.71999966,6.1661663 C 1.2914535,5.3807307 1.8629083,4.5956411 2.434363,3.8856957 3.0058077,3.1757503 3.5772624,2.5420503 4.1487173,2.0441901 4.720172,1.54633 5.2916268,1.1857227 5.8630816,0.99574649 6.4345363,0.80576946 7.005981,0.78763969 7.5774359,0.94209619 8.1488907,1.0965527 8.7203454,1.4243845 9.2918002,1.8935556 9.863255,2.3627268 10.43474,2.973452 11.006205,3.6670651 c 0.571364,0.693613 1.142829,1.4697122 1.714294,2.2543096 0.571465,0.7845971 1.142929,1.5767313 1.714394,2.3013667 0.571466,0.7246356 1.14293,1.3804235 1.714395,1.9056486 0.571364,0.525158 1.142829,0.918437 1.714294,1.143197 0.571464,0.224761 1.14293,0.279756 1.714395,0.16083 0.571464,-0.118925 1.142929,-0.412741 1.714293,-0.852497 0.571465,-0.439754 1.14293,-1.0257942 1.714395,-1.7017371 0.571465,-0.6760127 1.142929,-1.4415137 1.714394,-2.2236465 0.571465,-0.78211 1.14293,-1.5798749 1.714294,-2.3176434 0.571465,-0.7377617 1.14293,-1.4142459 1.714395,-1.9657161 0.571464,-0.5514633 1.142929,-0.9765066 1.714395,-1.2355665 0.571464,-0.25906744 1.142929,-0.3508792 1.714293,-0.26769354 0.571465,0.0831854 1.14293,0.34226974 1.714394,0.75169404"
       title="sin(x)*2"
       id="path1"
       sodipodi:nodetypes="ccsssscsscsscccccccc" />
    <path
       style="fill:none;stroke:#ffea00;stroke-width:1.05982;stroke-miterlimit:10;stroke-dasharray:none;stroke-opacity:1"
       d="M 0.72000011,10.803467 C 1.291454,10.018029 1.862909,9.2329806 2.434364,8.5230352 3.0058079,7.8130898 3.5772629,7.1793048 4.1487179,6.6814446 4.7201729,6.1835845 5.2916279,5.8229772 5.8630819,5.633001 6.4345368,5.4430239 7.0059818,5.4248942 7.5774368,5.5793505 c 0.571454,0.1544565 1.1429089,0.4822883 1.7143639,0.9514594 0.571455,0.4691712 1.1429403,1.0798964 1.7144053,1.7735095 0.571363,0.693613 1.142829,1.4697124 1.714294,2.2543126 0.571465,0.784598 1.142929,1.576732 1.714394,2.301368 0.571466,0.724635 1.14293,1.380424 1.714395,1.905649 0.571363,0.525158 1.142828,0.918437 1.714293,1.143197 0.571464,0.224761 1.14293,0.279756 1.714395,0.16083 0.571464,-0.118925 1.142929,-0.412741 1.714293,-0.852497 0.571465,-0.439754 1.14293,-1.025794 1.714395,-1.701738 0.571465,-0.676012 1.142929,-1.441513 1.714394,-2.223647 0.571465,-0.782111 1.14293,-1.5798786 1.714294,-2.3176467 0.571465,-0.7377617 1.14293,-1.4142459 1.714395,-1.9657161 0.571464,-0.5514633 1.142929,-0.9765066 1.714395,-1.2355665 0.571464,-0.2590675 1.142929,-0.3508792 1.714293,-0.2676936 0.571465,0.083185 1.14293,0.3422698 1.714394,0.7516941"
       title="sin(x)*2"
       id="path1-6"
       sodipodi:nodetypes="ccsssscsscsscccccccc" />
  </g>
</svg>
