<?xml version="1.0" encoding="UTF-8" standalone="no"?>
<!-- Created with Inkscape (http://www.inkscape.org/) -->

<svg
   width="128"
   height="64"
   viewBox="0 0 33.866666 16.933333"
   version="1.1"
   id="svg1"
   xmlns="http://www.w3.org/2000/svg"
   xmlns:svg="http://www.w3.org/2000/svg">
  <defs
     id="defs1" />
  <g
     id="layer1">
    <path
       style="fill:none;stroke:#ec008c;stroke-width:1.0623;stroke-miterlimit:10;stroke-dasharray:none;stroke-opacity:1"
       d="M 0.26458342,15.036803 H 33.602083"
       id="path2" />
    <path
       style="fill:none;stroke:#ffea00;stroke-width:1.05833;stroke-miterlimit:10;stroke-dasharray:none;stroke-opacity:1"
       d="m 0.7547944,14.790407 c 0.5697658,-0.785546 1.1395326,0.781526 1.7092993,0.07148 0.5697568,-0.710045 1.1395235,0.130256 1.7092904,-0.367674 0.5697667,-0.49793 1.1395335,0.364594 1.7093003,0.174591 0.5697667,-0.190004 1.1395234,-0.145409 1.7092903,0.0091 0.5697668,0.154478 1.1395335,-0.52128 1.7093003,-0.05204 0.5697668,0.469237 1.139564,-0.739042 1.709341,-0.04533 0.569676,0.69371 1.139453,-13.3023441 1.70923,-12.5176369 0.569777,0.7847068 1.139553,11.9583079 1.70933,12.6830449 0.569778,0.724737 1.139554,-0.908927 1.709331,-0.383628 0.569676,0.525231 1.139453,0.04038 1.70923,0.265176 0.569776,0.224792 1.139554,0.436613 1.709331,0.31767 0.569776,-0.118941 1.139553,0.308564 1.709229,-0.131253 0.569777,-0.439816 1.139554,0.542243 1.709331,-0.133795 0.569777,-0.676107 1.139553,0.659647 1.70933,-0.122596 0.569777,-0.782219 1.139554,0.709448 1.70923,-0.02842 0.569777,-0.737865 1.139554,0.655555 1.709331,0.104007 0.569776,-0.55154 1.139553,-11.2325448 1.709331,-11.4916409 0.569776,-0.2591037 1.139553,11.5986089 1.709229,11.6818059 0.569777,0.0832 1.139554,-0.5045 1.70933,-0.09502"
       title="sin(x)*2"
       id="path1" />
  </g>
</svg>
