<?xml version="1.0" encoding="UTF-8" standalone="no"?>
<!-- Created with Inkscape (http://www.inkscape.org/) -->

<svg
   width="127.99999"
   height="63.999996"
   viewBox="0 0 33.866664 16.933332"
   version="1.1"
   id="svg1"
   xml:space="preserve"
   xmlns="http://www.w3.org/2000/svg"
   xmlns:svg="http://www.w3.org/2000/svg"><defs
     id="defs1"><linearGradient
       id="swatch18"><stop
         style="stop-color:#ffeb00;stop-opacity:0.87843137;"
         offset="0"
         id="stop18" /></linearGradient><linearGradient
       id="swatch1"><stop
         style="stop-color:#ffea00;stop-opacity:1;"
         offset="0"
         id="stop1" /></linearGradient></defs><g
     id="layer1"
     style="display:inline"><path
       style="fill:none;stroke:#00b9f2;stroke-width:0.661458;stroke-linecap:butt;stroke-linejoin:miter;stroke-dasharray:none;stroke-opacity:1"
       d="m 0.75283805,12.948193 c 0.37911815,0.500242 0.28456485,-1.240389 1.53620835,0.101337 0.129905,0.550739 0.4244885,-0.682189 1.1349417,-0.601023 0.3953116,2.240351 0.8005767,0.820913 1.2839818,-0.241879 0.275316,-0.928783 1.3030913,0.574997 1.9620055,0.886316 0.3672058,0.08784 0.9870543,-0.869346 1.6297249,-0.56924 0.7806439,0.364536 1.5982008,0.684051 2.3866267,1.14954 1.261518,1.648362 1.13621,-1.018196 1.522638,-3.099201 0.343787,-0.7736981 0.754653,-0.7951201 1.162178,-0.8540111 0.865934,-1.043418 1.731867,-0.942593 2.597801,-0.906128 1.384662,-0.05228 1.123182,2.2882521 0.821873,3.9863951 0.173287,1.008654 0.318285,2.068943 1.103596,1.960525 1.012315,-0.595714 0.899459,-1.89831 1.427774,-2.927446 0.722933,-0.63478 0.7033,0.843111 1.203352,1.593272 0.458133,1.08056 1.966683,0.819711 2.617033,0.522324 0.751975,-0.172283 1.24991,-0.788238 1.692043,-1.63706 0.288322,-0.671152 1.141785,-0.05303 1.655051,-0.05384 0.605464,0.194067 1.353086,0.564097 1.974356,0.791134 0.905012,0.581447 1.901249,0.389654 2.845419,0.409242 0.811153,-0.119773 1.232268,-0.456916 1.727927,-0.655592"
       id="path80" /><path
       style="fill:none;stroke:#ffea00;stroke-width:0.661458;stroke-linecap:butt;stroke-linejoin:miter;stroke-dasharray:none;stroke-opacity:1"
       d="M 0.72353853,8.9276136 H 10.000123 V 1.4801702 h 9.201472 v 7.4201249 h 13.787458"
       id="path81" /></g></svg>
