<?xml version="1.0" encoding="UTF-8" standalone="no"?>
<!-- Created with Inkscape (http://www.inkscape.org/) -->

<svg
   width="128"
   height="64"
   viewBox="0 0 33.866666 16.933333"
   version="1.1"
   id="svg1"
   xmlns="http://www.w3.org/2000/svg"
   xmlns:svg="http://www.w3.org/2000/svg">
  <defs
     id="defs1" />
  <g
     id="layer1">
    <path
       style="fill:none;stroke:#ec008c;stroke-width:1.0623;stroke-miterlimit:10;stroke-dasharray:none;stroke-opacity:1"
       d="M 0.26458342,8.4666667 H 33.602083"
       id="path2" />
    <path
       style="fill:none;stroke:#00b9f2;stroke-width:1.05833;stroke-miterlimit:10;stroke-dasharray:none;stroke-opacity:1"
       d="M 0.7547944,6.6953327 C 1.3245602,5.9097873 1.894327,5.1245879 2.4640937,4.4145432 3.0338505,3.7044985 3.6036172,3.0707099 4.1733841,2.5727801 4.7431508,2.0748503 5.3129176,1.7141926 5.8826844,1.5241898 6.4524511,1.3341862 7.0222078,1.3160539 7.5919747,1.470532 8.1617415,1.6250101 8.7315082,1.9528878 9.301275,2.4221245 c 0.5697668,0.4692368 1.139564,1.0800474 1.709341,1.7737575 0.569676,0.69371 1.139453,1.4699177 1.70923,2.2546249 0.569777,0.7847068 1.139553,1.5769518 1.70933,2.3016885 0.569778,0.7247369 1.139554,1.3806166 1.709331,1.9059156 0.569676,0.525231 1.139453,0.918565 1.70923,1.143357 0.569776,0.224792 1.139554,0.279795 1.709331,0.160852 0.569776,-0.118941 1.139553,-0.412799 1.709229,-0.852616 0.569777,-0.439816 1.139554,-1.025938 1.709331,-1.7019754 0.569777,-0.6761073 1.139553,-1.4417153 1.70933,-2.2239575 0.569777,-0.7822194 1.139554,-1.5800958 1.70923,-2.3179675 0.569777,-0.7378649 1.139554,-1.4144437 1.709331,-1.965991 0.569776,-0.5515404 1.139553,-0.9766432 1.709331,-1.2357393 0.569776,-0.2591037 1.139553,-0.3509283 1.709229,-0.267731 0.569777,0.083197 1.139554,0.3423176 1.70933,0.7517992"
       title="sin(x)*2"
       id="path1" />
    <path
       style="fill:none;stroke:#ffea00;stroke-width:1.05833;stroke-miterlimit:10;stroke-dasharray:none;stroke-opacity:1"
       d="m 0.7547944,10.281992 c 0.5697658,0.785546 1.1395326,1.570746 1.7092993,2.280791 0.5697568,0.710045 1.1395235,1.343834 1.7092904,1.841764 0.5697667,0.49793 1.1395335,0.858587 1.7093003,1.04859 0.5697667,0.190004 1.1395234,0.208136 1.7092903,0.05366 0.5697668,-0.154478 1.1395335,-0.482356 1.7093003,-0.951593 0.5697668,-0.469236 1.139564,-1.080047 1.709341,-1.773758 0.569676,-0.69371 1.139453,-1.469918 1.70923,-2.254626 0.569777,-0.7847154 1.139553,-1.5769604 1.70933,-2.3016971 0.569778,-0.7247369 1.139554,-1.3806166 1.709331,-1.9059156 0.569676,-0.525231 1.139453,-0.918565 1.70923,-1.143357 0.569776,-0.224792 1.139554,-0.279795 1.709331,-0.160852 0.569776,0.118941 1.139553,0.412799 1.709229,0.852616 0.569777,0.439816 1.139554,1.025938 1.709331,1.7019754 0.569777,0.6761073 1.139553,1.4417153 1.70933,2.2239575 0.569777,0.7822278 1.139554,1.5801048 1.70923,2.3179768 0.569777,0.737865 1.139554,1.414445 1.709331,1.965992 0.569776,0.551541 1.139553,0.976643 1.709331,1.23574 0.569776,0.259103 1.139553,0.350928 1.709229,0.267731 0.569777,-0.0832 1.139554,-0.342318 1.70933,-0.7518"
       title="sin(x)*2"
       id="path3" />
  </g>
</svg>
