<?xml version="1.0" encoding="UTF-8" standalone="no"?>
<!-- Created with Inkscape (http://www.inkscape.org/) -->

<svg
   width="128"
   height="64"
   viewBox="0 0 33.866666 16.933333"
   version="1.1"
   id="svg1"
   inkscape:version="1.3.1 (91b66b0783, 2023-11-16)"
   sodipodi:docname="filter-peaks.svg"
   inkscape:export-filename="filter-peaks.png"
   inkscape:export-xdpi="96"
   inkscape:export-ydpi="96"
   xmlns:inkscape="http://www.inkscape.org/namespaces/inkscape"
   xmlns:sodipodi="http://sodipodi.sourceforge.net/DTD/sodipodi-0.dtd"
   xmlns="http://www.w3.org/2000/svg"
   xmlns:svg="http://www.w3.org/2000/svg">
  <sodipodi:namedview
     id="namedview1"
     pagecolor="#ffffff"
     bordercolor="#000000"
     borderopacity="0.25"
     inkscape:showpageshadow="2"
     inkscape:pageopacity="0.0"
     inkscape:pagecheckerboard="0"
     inkscape:deskcolor="#d1d1d1"
     inkscape:document-units="mm"
     inkscape:zoom="11.930303"
     inkscape:cx="67.475235"
     inkscape:cy="28.624587"
     inkscape:window-width="1920"
     inkscape:window-height="1051"
     inkscape:window-x="-9"
     inkscape:window-y="-9"
     inkscape:window-maximized="1"
     inkscape:current-layer="layer1" />
  <defs
     id="defs1" />
  <g
     inkscape:label="Layer 1"
     inkscape:groupmode="layer"
     id="layer1">
    <path
       style="fill:none;stroke:#ec008c;stroke-width:1.0623;stroke-miterlimit:10;stroke-dasharray:none;stroke-opacity:1"
       d="M 0.26458342,15.036803 H 33.602083"
       id="path2"
       sodipodi:nodetypes="cc" />
    <path
       style="fill:none;stroke:#00b9f2;stroke-width:1.05833333;stroke-miterlimit:10;stroke-dasharray:none;stroke-opacity:1"
       d="m 0.73328599,14.844995 c 0.57052331,-0.709655 1.14104751,0.706023 1.71157171,0.06457 0.5705143,-0.641447 1.1410384,0.117672 1.7115628,-0.332153 0.5705242,-0.449825 1.1410484,0.329371 1.7115727,0.157724 0.5705242,-0.171648 1.1410383,-0.131361 1.7115627,0.0082 0.5705243,0.139554 1.1410485,-0.470919 1.7115727,-0.04701 0.5705243,0.423904 1.1410794,-0.667643 1.7116134,-0.04095 0.570433,0.62669 1.140966,-12.0172047 1.7115,-11.3083081 0.570535,0.7088962 1.14107,10.8030151 1.711605,11.4577361 0.570535,0.65472 1.141069,-0.821116 1.711603,-0.346566 0.570434,0.474488 1.140968,0.03648 1.711503,0.239557 0.570533,0.203075 1.141069,0.394432 1.711603,0.28698 0.570534,-0.10745 1.141068,0.278754 1.711501,-0.118573 0.570535,-0.397325 1.141069,0.489857 1.711604,-0.120869 0.570534,-0.610788 1.141068,0.595919 1.711602,-0.110752 0.570535,-0.706648 1.141069,0.640909 1.711503,-0.02567 0.570534,-0.66658 1.141069,0.592222 1.711603,0.09396 0.570534,-0.498256 1.141068,-10.1473685 1.711604,-10.3814333 0.570533,-0.2340717 1.141068,10.4780673 1.711501,10.5532263 0.570534,0.07516 1.141069,-0.45576 1.711602,-0.08584"
       title="sin(x)*2"
       id="path1"
       sodipodi:nodetypes="ccsssscsscsscccccccc" />
    <circle
       style="fill:none;stroke:#ffea00;stroke-width:1.05833;stroke-miterlimit:10;stroke-dasharray:none;stroke-opacity:1"
       id="path3"
       cx="12.642327"
       cy="2.9795425"
       r="2.1954525" />
    <circle
       style="fill:none;stroke:#ffea00;stroke-width:1.05833;stroke-miterlimit:10;stroke-dasharray:none;stroke-opacity:1"
       id="path3-7"
       cx="29.810854"
       cy="3.9888232"
       r="2.1954525" />
  </g>
</svg>
