<?xml version="1.0" encoding="UTF-8" standalone="no"?>
<!-- Created with Inkscape (http://www.inkscape.org/) -->

<svg
   width="127.99999"
   height="63.999996"
   viewBox="0 0 33.866664 16.933332"
   version="1.1"
   id="svg1"
   xml:space="preserve"
   xmlns="http://www.w3.org/2000/svg"
   xmlns:svg="http://www.w3.org/2000/svg"><defs
     id="defs1"><linearGradient
       id="swatch18"><stop
         style="stop-color:#ffeb00;stop-opacity:0.87843137;"
         offset="0"
         id="stop18" /></linearGradient><linearGradient
       id="swatch1"><stop
         style="stop-color:#ffea00;stop-opacity:1;"
         offset="0"
         id="stop1" /></linearGradient><style
       id="style1">.c{fill:#ec008c;}.c,.d{stroke-width:0px;}.d{fill:#00b9f2;}</style></defs><g
     id="layer1"
     style="display:inline"><g
       id="g125"><path
         style="fill:none;stroke:#00b9f2;stroke-width:0.667761px;stroke-linecap:butt;stroke-linejoin:miter;stroke-opacity:1"
         d="M 1.3357091,5.631069 4.220402,5.647356 4.196091,2.4897708 l 2.2480903,0.029099 0.00774,3.1159643"
         id="path17-2" /><path
         style="display:inline;fill:none;stroke:#00b9f2;stroke-width:0.667761px;stroke-linecap:butt;stroke-linejoin:miter;stroke-opacity:1"
         d="m 6.1217481,5.701873 2.884693,0.016287 -0.024311,-3.1575852 2.2480909,0.029099 0.0077,3.1159644"
         id="path17-6-61" /><path
         style="display:inline;fill:none;stroke:#00b9f2;stroke-width:0.667761px;stroke-linecap:butt;stroke-linejoin:miter;stroke-opacity:1"
         d="m 10.894588,5.7958069 2.884693,0.016287 -0.02431,-3.1575852 2.24809,0.029099 0.0077,3.1159644"
         id="path17-64-0" /><path
         style="display:inline;fill:none;stroke:#00b9f2;stroke-width:0.667761px;stroke-linecap:butt;stroke-linejoin:miter;stroke-opacity:1"
         d="m 15.722375,5.8729138 2.884693,0.016287 -0.02431,-3.1575852 2.24809,0.029099 0.0077,3.1159644"
         id="path17-8-6" /><path
         style="display:inline;fill:none;stroke:#00b9f2;stroke-width:0.667761px;stroke-linecap:butt;stroke-linejoin:miter;stroke-opacity:1"
         d="m 20.542352,5.9047653 2.884693,0.016287 -0.02431,-3.1575852 2.24809,0.029099 0.0077,3.1159644"
         id="path17-7-1" /><path
         style="display:inline;fill:none;stroke:#00b9f2;stroke-width:0.667761px;stroke-linecap:butt;stroke-linejoin:miter;stroke-opacity:1"
         d="m 25.367063,5.962263 2.884693,0.016287 -0.02431,-3.1575852 2.248091,0.029099 0.0077,3.1159644"
         id="path17-0-59" /><path
         style="fill:none;stroke:#ffea00;stroke-width:0.529167;stroke-linecap:butt;stroke-linejoin:miter;stroke-dasharray:none;stroke-opacity:1"
         d="m 1.0769224,12.588412 h 1.04175 V 9.6905068 h 3.00284 v 2.9068492 l 0.9597,0.0082 V 9.7000668 h 3.03645 v 2.9122642 l 0.9978696,-0.0049 V 9.6956508 h 3.015611 v 2.9046872 h 10.97108 V 9.6642318 h 3.03984 v 2.9469292 h 0.99654 V 9.7058848 h 2.96781 v 2.8959592 h 1.04733"
         id="path55" /></g></g></svg>
