<?xml version="1.0" encoding="UTF-8" standalone="no"?>
<!-- Created with Inkscape (http://www.inkscape.org/) -->

<svg
   width="128"
   height="64"
   viewBox="0 0 33.866666 16.933333"
   version="1.1"
   id="svg1"
   xmlns="http://www.w3.org/2000/svg"
   xmlns:svg="http://www.w3.org/2000/svg">
  <defs
     id="defs1" />
  <g
     id="layer1">
    <path
       style="fill:none;stroke:#ec008c;stroke-width:1.0623;stroke-miterlimit:10;stroke-dasharray:none;stroke-opacity:1"
       d="M 0.26458354,8.4666667 H 33.602083"
       id="path2" />
    <path
       style="fill:none;stroke:#00b9f2;stroke-width:1.03892;stroke-miterlimit:10;stroke-dasharray:none;stroke-opacity:1"
       d="M 0.784041 8.46667 C 1.35068 7.33338 1.91732 6.20092 2.48397 5.17671 C 3.05061 4.15249 3.61725 3.23843 4.18389 2.5206 C 4.75053 1.80278 5.31718 1.28322 5.88382 1.01009 C 6.45046 0.736963 7.0171 0.712014 7.58374 0.9362 C 8.15039 1.16039 8.71703 1.63485 9.28367 2.31316 C 9.85031 2.99147 10.417 3.87393 10.9836 4.87568 C 11.5502 5.87743 12.1169 6.99787 12.6835 8.13006 C 13.2502 9.26224 13.8168 10.4048 14.3834 11.4493 C 14.9501 12.4938 15.5167 13.4383 16.0834 14.1939 C 16.65 14.9494 17.2167 15.514 17.7833 15.835 C 18.3499 16.1561 18.9166 16.2319 19.4832 16.0566 C 20.0499 15.8813 20.6165 15.4537 21.1831 14.8158 C 21.7498 14.1779 22.3164 13.3293 22.8831 12.3518 C 23.4497 11.3742 24.0164 10.2682 24.583 9.13924 C 25.1496 8.01033 25.7163 6.85987 26.2829 5.79712 C 26.8496 4.73437 27.4162 3.76117 27.9828 2.96933 C 28.5495 2.17748 29.1161 1.56904 29.6828 1.20067 C 30.2494 0.832303 30.8161 0.705846 31.3827 0.831918 C 31.9493 0.957991 32.516 1.33788 33.0826 1.93411"
       title="sin(x)*2"
       id="path3" />
    <path
       style="fill:none;stroke:#ffea00;stroke-width:1.03892;stroke-miterlimit:10;stroke-dasharray:none;stroke-opacity:1"
       d="M 0.784041 15.7284 C 1.35068 15.3582 1.91732 14.7477 2.48397 13.9549 C 3.05061 13.162 3.61725 12.1872 4.18389 11.124 C 4.75053 10.0607 5.31718 8.90986 5.88382 7.78108 C 6.45046 6.65229 7.0171 5.54713 7.58374 4.57029 C 8.15039 3.59344 8.71703 2.74689 9.28367 2.11019 C 9.85031 1.47349 10.417 1.04865 10.9836 0.874758 C 11.5502 0.700869 12.1169 0.779591 12.6835 1.10202 C 13.2502 1.42444 13.8168 1.99156 14.3834 2.74818 C 14.9501 3.5048 15.5167 4.45105 16.0834 5.49609 C 16.65 6.54114 17.2167 7.68421 17.7833 8.81633 C 18.3499 9.94845 18.9166 11.0681 19.4832 12.0692 C 20.0499 13.0703 20.6165 13.9508 21.1831 14.628 C 21.7498 15.3052 22.3164 15.7769 22.8831 15.9997 C 23.4497 16.2225 24.0164 16.1946 24.583 15.9201 C 25.1496 15.6456 25.7163 15.1234 26.2829 14.4044 C 26.8496 13.6855 27.4162 12.7696 27.9828 11.7448 C 28.5495 10.72 29.1161 9.58688 29.6828 8.4536 C 30.2494 7.32032 30.8161 6.1883 31.3827 5.1649 C 31.9493 4.14151 32.516 3.22867 33.0826 2.51234"
       title="sin(x)*2"
       id="path4" />
  </g>
</svg>
