<?xml version="1.0" encoding="UTF-8" standalone="no"?>
<!-- Created with Inkscape (http://www.inkscape.org/) -->

<svg
   width="128"
   height="64"
   viewBox="0 0 33.866666 16.933333"
   version="1.1"
   id="svg1"
   xmlns="http://www.w3.org/2000/svg"
   xmlns:svg="http://www.w3.org/2000/svg">
  <defs
     id="defs1" />
  <g
     id="layer1">
    <path
       id="path4"
       style="fill:#ffea00;stroke:none;stroke-width:1.05833333;stroke-miterlimit:10;stroke-dasharray:none;stroke-opacity:1;fill-opacity:1"
       d="M 29.899467 1.1570353 C 29.828591 1.1509455 29.757436 1.1583468 29.68656 1.1792562 C 29.119548 1.3465315 28.552383 2.3849029 27.985372 3.9759847 C 27.5827 5.1061115 27.18043 6.5093089 26.777694 7.9354329 L 32.937524 7.9354329 C 32.420885 6.1057459 31.904388 4.3304277 31.387748 3.0871501 C 30.891699 1.8932159 30.395601 1.199664 29.899467 1.1570353 z M 3.9589315 1.1575521 C 3.4628065 1.2007567 2.966777 1.8921392 2.4706502 3.0871501 C 1.9540281 4.3315491 1.4369837 6.1059186 0.92035726 7.9354329 L 7.0807048 7.9354329 C 6.6779477 6.5089567 6.2752639 5.1054601 5.8725098 3.9759847 C 5.3055077 2.3859234 4.7388305 1.3448707 4.1718384 1.1792562 C 4.1009631 1.1585544 4.0298065 1.15138 3.9589315 1.1575521 z M 16.929199 1.1627197 C 16.645706 1.162529 16.362062 1.3652308 16.078605 1.7704346 C 15.511594 2.5808481 14.944428 4.1865353 14.377417 6.0931681 C 14.202063 6.682817 14.026705 7.3140346 13.851351 7.9354329 L 20.006531 7.9354329 C 19.831171 7.3140527 19.655809 6.6827144 19.480465 6.0931681 C 18.913453 4.1870755 18.346806 2.5793173 17.779793 1.7704346 C 17.496288 1.3659937 17.212693 1.1629104 16.929199 1.1627197 z " />
    <path
       style="fill:none;stroke:#00b9f2;stroke-width:1.05833333;stroke-miterlimit:10;stroke-dasharray:none;stroke-opacity:1"
       d="M 0.76970734,8.4681566 C 1.3367041,6.4525762 1.9037067,4.4528039 2.4706996,3.0870756 3.0377022,1.7213475 3.6046951,1.0135255 4.1716978,1.1791402 4.7386905,1.3447549 5.3056834,2.3857471 5.872686,3.97581 c 0.5669928,1.5900629 1.1339954,3.7079657 1.7009883,5.6961821 0.5670026,1.9882269 1.1339955,3.8160609 1.7009981,4.9192249 0.5669928,1.103064 1.1339846,1.461147 1.7009976,0.967094 0.567012,-0.493952 1.134025,-1.836839 1.700939,-3.609045 0.567012,-1.772306 1.134025,-3.9493187 1.701038,-5.8559635 0.567012,-1.9066347 1.134025,-3.5126958 1.701037,-4.3231101 0.566914,-0.81040833 1.133927,-0.80888255 1.700939,0 0.567013,0.8088835 1.134026,2.4170156 1.701038,4.3231101 0.566914,1.9060945 1.133927,4.0828565 1.700939,5.8559635 0.567012,1.773006 1.134024,3.113492 1.701037,3.609045 0.567012,0.495654 1.133926,0.134568 1.700939,-0.967094 0.567013,-1.101763 1.134025,-2.931299 1.701038,-4.9192249 0.567012,-1.9879463 1.134025,-4.1050987 1.700939,-5.6961821 0.567012,-1.5910834 1.134025,-2.6293943 1.701038,-2.7966698 0.567012,-0.1672755 1.134025,0.5434379 1.700939,1.9079354 0.567012,1.3644976 1.134025,3.3655006 1.701037,5.381081"
       title="sin(x)*3.5"
       id="path1" />
    <path
       style="fill:none;stroke:#ec008c;stroke-width:1.0623;stroke-miterlimit:10;stroke-dasharray:none;stroke-opacity:1"
       d="M 0.26458342,8.4666667 H 33.602083"
       id="path2" />
  </g>
</svg>
