<?xml version="1.0" encoding="UTF-8" standalone="no"?>
<!-- Created with Inkscape (http://www.inkscape.org/) -->

<svg
   width="127.99999"
   height="63.999996"
   viewBox="0 0 33.866664 16.933332"
   version="1.1"
   id="svg1"
   xml:space="preserve"
   xmlns="http://www.w3.org/2000/svg"
   xmlns:svg="http://www.w3.org/2000/svg"><defs
     id="defs1"><linearGradient
       id="swatch18"><stop
         style="stop-color:#ffeb00;stop-opacity:0.87843137;"
         offset="0"
         id="stop18" /></linearGradient><linearGradient
       id="swatch1"><stop
         style="stop-color:#ffea00;stop-opacity:1;"
         offset="0"
         id="stop1" /></linearGradient><style
       id="style1">.c{fill:#ec008c;}.c,.d{stroke-width:0px;}.d{fill:#00b9f2;}</style><linearGradient
       id="swatch16"><stop
         style="stop-color:#00b9f2;stop-opacity:1;"
         offset="0"
         id="stop17" /></linearGradient></defs><g
     id="layer1"
     style="display:inline"><path
       style="display:inline;fill:none;stroke:#ffea00;stroke-width:0.79375;stroke-linecap:butt;stroke-linejoin:miter;stroke-dasharray:none;stroke-opacity:1"
       d="m 19.658884,6.2364847 c 2.767814,-6.41344726 3.525247,-2.5268115 4.485348,0.169009 1.236967,2.2724109 2.309792,-2.1686597 3.190047,-3.5269222 0.541552,-0.8356324 1.310287,-0.3899334 1.377555,-0.3559832 1.407564,0.7104015 2.143707,3.1727437 2.750376,5.4552013"
       id="path79-2" /><path
       style="fill:none;stroke:#00b9f2;stroke-width:0.585679;stroke-linecap:butt;stroke-linejoin:miter;stroke-dasharray:none;stroke-opacity:1"
       d="m 1.2911564,10.265267 c 0.191059,0.778224 0.1434051,-1.9296641 0.7741791,0.15765 C 2.1307997,11.279698 2.279254,9.3616395 2.6372932,9.4879094 2.8365113,12.973208 3.0407437,10.764998 3.2843601,9.1116197 3.4231087,7.6667187 3.9410576,10.006139 4.2731179,10.490456 4.4581749,10.627107 4.7705508,9.1380197 5.0944271,9.6048929 5.4878337,10.171999 5.8998464,10.669067 6.2971789,11.393224 6.932922,13.957569 6.8697765,9.8092239 7.0645144,6.5718189 7.2377687,5.3681825 7.4448284,5.3348564 7.6501998,5.2432401 8.0865937,3.6200022 8.5229827,3.7768549 8.9593717,3.8335832 9.6571816,3.7522512 9.5254078,7.3934006 9.3735613,10.03519 c 0.087324,1.569156 0.1603988,3.218639 0.5561585,3.049974 0.5101632,-0.926748 0.4532872,-2.953187 0.7195352,-4.5542065 0.364324,-0.9875228 0.354432,1.3116223 0.606433,2.4786425 0.230877,1.681018 0.991118,1.275218 1.318864,0.812574 0.378963,-0.268018 0.629897,-1.226255 0.85271,-2.5467614 0.145305,-1.0441066 0.575409,-0.0825 0.834074,-0.083763 0.305125,0.3019085 0.68189,0.8775624 0.994982,1.2307624 0.456083,0.904552 0.958142,0.606182 1.433961,0.636654 0.408782,-0.186329 0.621007,-0.71082 0.870798,-1.019899"
       id="path80-4" /><path
       style="fill:none;stroke:#ffea00;stroke-width:0.79375;stroke-linecap:butt;stroke-linejoin:miter;stroke-dasharray:none;stroke-opacity:1"
       d="m 19.523711,11.577763 c 0.01243,1.055537 0.515486,1.620443 1.274542,1.929352 1.121621,0.0041 1.705814,-3.9578518 3.215586,-3.6833081 1.454388,-8.97e-5 0.849863,3.3700421 2.502311,3.6833081 1.92011,0.01375 2.250414,-3.39027 3.730081,-3.671615 0.815196,-0.3311932 1.283491,1.082689 1.368085,1.824114"
       id="path110" /></g></svg>
