<?xml version="1.0" encoding="UTF-8" standalone="no"?>
<!-- Created with Inkscape (http://www.inkscape.org/) -->

<svg
   width="127.99999"
   height="63.999996"
   viewBox="0 0 33.866664 16.933332"
   version="1.1"
   id="svg1"
   xml:space="preserve"
   xmlns="http://www.w3.org/2000/svg"
   xmlns:svg="http://www.w3.org/2000/svg"><defs
     id="defs1"><linearGradient
       id="swatch18"><stop
         style="stop-color:#ffeb00;stop-opacity:0.87843137;"
         offset="0"
         id="stop18" /></linearGradient><linearGradient
       id="swatch1"><stop
         style="stop-color:#ffea00;stop-opacity:1;"
         offset="0"
         id="stop1" /></linearGradient><style
       id="style1">.c{fill:#ec008c;}.c,.d{stroke-width:0px;}.d{fill:#00b9f2;}</style><linearGradient
       id="swatch16"><stop
         style="stop-color:#00b9f2;stop-opacity:1;"
         offset="0"
         id="stop17" /></linearGradient><style
       id="style1-0">.c{fill:#ec008c;}.c,.d{stroke-width:0px;}.d{fill:#00b9f2;}</style><style
       id="style1-9">.c{fill:#ec008c;}.c,.d{stroke-width:0px;}.d{fill:#00b9f2;}</style></defs><g
     id="layer1"
     style="display:inline"><path
       style="display:inline;fill:none;stroke:#00b9f2;stroke-width:0.659103;stroke-linecap:butt;stroke-linejoin:miter;stroke-dasharray:none;stroke-opacity:1"
       d="m 1.5213575,6.7233208 h 2.99342 v -5.13699 h 9.6350695 v 5.13699 h 6.17392 v -5.13699 h 8.79317 v 5.13699 h 4.02241"
       id="path96-6-1" /><path
       style="display:inline;fill:none;stroke:#ffea00;stroke-width:0.659103;stroke-linecap:butt;stroke-linejoin:miter;stroke-dasharray:none;stroke-opacity:1"
       d="m 1.3229166,14.660812 c 1.0522855,0.245155 2.1124911,0.52595 2.99342,0 1.2195707,-1.104353 1.7034217,-4.26508 2.38125,-5.2031354 0.8265607,-1.2088678 2.5857401,-3.6097141 5.3025174,0.7937504 0.453758,0.478914 1.168316,3.411254 1.752864,4.177875 0.695939,0.996529 3.597506,1.510458 5.876264,0.198437 0.76271,-0.706128 0.02194,-4.35435 2.050521,-5.4346458 2.686906,-2.5210352 4.712152,-0.7321417 5.419733,0.9260418 0.268313,0.91604 0.49044,3.601405 1.81901,4.541677 1.065572,0.825693 2.681583,7e-5 4.02241,0"
       id="path96-6-1-7" /></g></svg>
