<?xml version="1.0" encoding="UTF-8" standalone="no"?>
<!-- Created with Inkscape (http://www.inkscape.org/) -->

<svg
   width="127.99999"
   height="63.999996"
   viewBox="0 0 33.866664 16.933332"
   version="1.1"
   id="svg1"
   xml:space="preserve"
   xmlns="http://www.w3.org/2000/svg"
   xmlns:svg="http://www.w3.org/2000/svg"><defs
     id="defs1"><linearGradient
       id="swatch18"><stop
         style="stop-color:#ffeb00;stop-opacity:0.87843137;"
         offset="0"
         id="stop18" /></linearGradient><linearGradient
       id="swatch1"><stop
         style="stop-color:#ffea00;stop-opacity:1;"
         offset="0"
         id="stop1" /></linearGradient><style
       id="style1">.c{fill:#ec008c;}.c,.d{stroke-width:0px;}.d{fill:#00b9f2;}</style></defs><g
     id="layer1"
     style="display:inline"><path
       style="fill:none;stroke:#00b9f2;stroke-width:0.712864;stroke-linecap:butt;stroke-linejoin:miter;stroke-dasharray:none;stroke-opacity:1"
       d="M 3.1378317,6.8454342 C 3.3749508,5.9064575 4.4247751,5.6841134 4.655979,5.2140931 4.9839835,4.5505477 7.5239878,5.4416626 7.0946114,7.0456623 6.763403,7.9741554 7.9239414,8.845392 8.7689651,8.733224 10.105745,8.5335175 10.162823,7.255278 10.752357,6.4257953 c 0.99315,-1.2775484 0.613658,-2.5303609 1.309515,-3.7339854 0.586724,-0.8587403 2.397419,-0.9555125 3.939348,-1.2196023 2.60789,-0.464803 1.726353,2.9692858 2.589054,4.4545349 0.407856,0.8125628 -0.600349,2.2911818 1.474202,2.6410713 0.83898,0.2229972 1.851793,0.034843 2.780339,0.04599 1.398977,-0.0082 1.527266,-2.3333247 2.290897,-3.4999897 0.123083,-0.2343936 0.441021,-0.4584744 0.922434,-0.6739077 1.232254,-0.5871032 0.390236,-1.8303331 1.817559,-1.3278707 1.905986,0.7552545 0.689354,3.3518817 2.493827,3.4952539 0.990075,0.067341 1.29599,0.1883696 1.941261,0.2827673"
       id="path82-8" /><path
       style="fill:none;stroke:#ffea00;stroke-width:0.79375;stroke-linecap:butt;stroke-linejoin:miter;stroke-dasharray:none;stroke-opacity:1"
       d="m 2.6147112,14.400285 c 1.5618689,-2.248954 1.6096705,-2.789742 2.0591697,-2.922977 0.4556105,-0.144789 1.0453437,3.141666 1.7753597,2.922977 0.8804437,-0.474191 1.2110084,-3.289674 2.0383759,-3.091609 1.0040355,0.299485 1.3723652,3.396375 2.4329005,3.035398 1.842477,-0.599513 2.772457,-3.20474 4.569907,-3.260242 1.145274,0.204235 2.053238,3.269711 2.926056,3.372665 0.977543,0.01581 2.55212,-3.477722 4.043876,-3.372665 1.231372,0.439721 2.415182,3.771677 3.517842,3.428876 1.041122,0.01308 1.208941,-3.34907 2.038375,-3.485087 0.458548,-0.13947 0.859581,3.204092 1.972622,3.372664 1.70435,0.260498 1.660867,-2.732045 2.584342,-3.541298"
       id="path97" /></g></svg>
