<?xml version="1.0" encoding="UTF-8" standalone="no"?>
<!-- Created with Inkscape (http://www.inkscape.org/) -->

<svg
   width="127.99999"
   height="63.999996"
   viewBox="0 0 33.866664 16.933332"
   version="1.1"
   id="svg1"
   xml:space="preserve"
   xmlns="http://www.w3.org/2000/svg"
   xmlns:svg="http://www.w3.org/2000/svg"><defs
     id="defs1"><linearGradient
       id="swatch18"><stop
         style="stop-color:#ffeb00;stop-opacity:0.87843137;"
         offset="0"
         id="stop18" /></linearGradient><linearGradient
       id="swatch1"><stop
         style="stop-color:#ffea00;stop-opacity:1;"
         offset="0"
         id="stop1" /></linearGradient></defs><g
     id="layer1"
     style="display:inline"><g
       id="g4"
       transform="translate(1.661373,-57.75785)"><path
         style="fill:none;stroke:#000000;stroke-width:0.603863;stroke-linecap:butt;stroke-linejoin:miter;stroke-dasharray:none;stroke-opacity:1"
         d="m 1.1145434,60.830759 2.2713191,0.0016 -0.060025,11.464348"
         id="path32" /><g
         id="g43"
         transform="translate(0.15375914,58.354598)"><path
           style="fill:#008000;stroke:#000000;stroke-width:0.264583px;stroke-linecap:butt;stroke-linejoin:miter;stroke-opacity:1"
           d="m 3.405956,4.9668662 10.364566,-1.223e-4 -0.0019,7.0406271 -1.939023,-0.01693 -0.05201,1.065769 -2.7514541,9.16e-4 0.015973,-0.966568 c -0.2071882,-0.274827 -0.3654652,-0.21105 -0.5372366,0.0167 l -0.054367,0.939926 -1.2405939,-0.0046 0.023212,-0.740619 -0.7010437,0.0019 -0.010726,0.440795 -0.7896095,0.0036 0.00545,-0.764132 L 4.581294,12.009548 4.5469883,13.81953 3.358806,13.8089"
           id="path41" /></g><rect
         style="fill:#000000;fill-opacity:1;stroke:#000000;stroke-width:0.396875;stroke-dasharray:none;stroke-opacity:1"
         id="rect41"
         width="1.4009472"
         height="1.687959"
         x="4.9132347"
         y="64.630142" /><rect
         style="fill:#000000;fill-opacity:1;stroke:#000000;stroke-width:0.396875;stroke-dasharray:none;stroke-opacity:1"
         id="rect42"
         width="1.985396"
         height="3.7338538"
         x="8.6168098"
         y="64.683594" /><rect
         style="fill:#000000;fill-opacity:1;stroke:#000000;stroke-width:0.396875;stroke-dasharray:none;stroke-opacity:1"
         id="rect43"
         width="1.2917677"
         height="1.3680514"
         x="5.6004152"
         y="67.661148" /><path
         style="fill:none;stroke:#ffea00;stroke-width:0.309157px;stroke-linecap:butt;stroke-linejoin:miter;stroke-opacity:1"
         d="m 7.7269082,71.558309 0.0028,-0.278592"
         id="path43" /><path
         style="display:inline;fill:none;stroke:#ffea00;stroke-width:0.309157px;stroke-linecap:butt;stroke-linejoin:miter;stroke-opacity:1"
         d="m 8.1986205,71.547753 0.0028,-0.278592"
         id="path43-1" /><path
         style="display:inline;fill:none;stroke:#ffea00;stroke-width:0.309157px;stroke-linecap:butt;stroke-linejoin:miter;stroke-opacity:1"
         d="m 9.6404648,71.540405 0.0028,-0.278592"
         id="path43-3" /><path
         style="display:inline;fill:none;stroke:#ffea00;stroke-width:0.309157px;stroke-linecap:butt;stroke-linejoin:miter;stroke-opacity:1"
         d="m 10.114084,71.553268 0.0028,-0.278592"
         id="path43-3-6" /><path
         style="display:inline;fill:none;stroke:#ffea00;stroke-width:0.309157px;stroke-linecap:butt;stroke-linejoin:miter;stroke-opacity:1"
         d="m 10.578837,71.555278 0.0028,-0.278592"
         id="path43-3-2" /><path
         style="display:inline;fill:none;stroke:#ffea00;stroke-width:0.309157px;stroke-linecap:butt;stroke-linejoin:miter;stroke-opacity:1"
         d="m 11.020219,71.558151 0.0028,-0.278592"
         id="path43-3-5" /><path
         style="display:inline;fill:none;stroke:#ffea00;stroke-width:0.309157px;stroke-linecap:butt;stroke-linejoin:miter;stroke-opacity:1"
         d="m 11.494706,71.551927 0.0028,-0.278592"
         id="path43-3-9" /></g><g
       id="g27"
       transform="matrix(0.96337938,0,0,0.96337938,0.10742316,0.99773082)"><path
         style="fill:none;stroke:#ffea00;stroke-width:0.308079;stroke-linecap:butt;stroke-linejoin:miter;stroke-dasharray:none;stroke-opacity:0.862745"
         d="m 19.413808,8.6255447 h 1.916232 l 0.7931,-0.7053346 -0.7931,-0.7233675 H 19.414366 L 18.70261,7.9230629 Z"
         id="path22" /><path
         style="display:inline;fill:none;stroke:#ffea00;stroke-width:0.308079;stroke-linecap:butt;stroke-linejoin:miter;stroke-dasharray:none;stroke-opacity:0.862745"
         d="m 23.241973,8.627148 h 1.916232 l 0.7931,-0.7053346 -0.7931,-0.7233675 h -1.915674 l -0.711756,0.7262203 z"
         id="path22-3" /><path
         style="display:inline;fill:none;stroke:#ffea00;stroke-width:0.308079;stroke-linecap:butt;stroke-linejoin:miter;stroke-dasharray:none;stroke-opacity:0.862745"
         d="m 29.10159,8.6440676 h -1.916232 l -0.7931,-0.7053353 0.7931,-0.7233675 h 1.915674 l 0.711756,0.7262203 z"
         id="path22-1" /><path
         style="display:inline;fill:none;stroke:#ffea00;stroke-width:0.308079;stroke-linecap:butt;stroke-linejoin:miter;stroke-dasharray:none;stroke-opacity:0.862745"
         d="m 30.931955,8.6387444 h 1.916232 l 0.7931,-0.7053346 -0.7931,-0.7233675 h -1.915674 l -0.711756,0.7262203 z"
         id="path22-36" /></g></g></svg>
