<?xml version="1.0" encoding="UTF-8" standalone="no"?>
<!-- Created with Inkscape (http://www.inkscape.org/) -->

<svg
   width="128"
   height="64"
   viewBox="0 0 33.866666 16.933333"
   version="1.1"
   id="svg1"
   inkscape:version="1.3.1 (91b66b0783, 2023-11-16)"
   sodipodi:docname="filter-deskew.svg"
   inkscape:export-filename="filter-deskew.png"
   inkscape:export-xdpi="96"
   inkscape:export-ydpi="96"
   xmlns:inkscape="http://www.inkscape.org/namespaces/inkscape"
   xmlns:sodipodi="http://sodipodi.sourceforge.net/DTD/sodipodi-0.dtd"
   xmlns="http://www.w3.org/2000/svg"
   xmlns:svg="http://www.w3.org/2000/svg">
  <sodipodi:namedview
     id="namedview1"
     pagecolor="#ffffff"
     bordercolor="#000000"
     borderopacity="0.25"
     inkscape:showpageshadow="2"
     inkscape:pageopacity="0.0"
     inkscape:pagecheckerboard="0"
     inkscape:deskcolor="#d1d1d1"
     inkscape:document-units="px"
     inkscape:zoom="256"
     inkscape:cx="72.03125"
     inkscape:cy="62.669922"
     inkscape:window-width="1920"
     inkscape:window-height="1051"
     inkscape:window-x="-9"
     inkscape:window-y="-9"
     inkscape:window-maximized="1"
     inkscape:current-layer="layer1" />
  <defs
     id="defs1" />
  <g
     inkscape:label="Layer 1"
     inkscape:groupmode="layer"
     id="layer1">
    <path
       style="fill:none;stroke:#ec008c;stroke-width:1.06188;stroke-miterlimit:10;stroke-dasharray:none;stroke-opacity:1"
       d="M 0.29104167,8.4666667 H 33.602083"
       id="path2"
       sodipodi:nodetypes="cc" />
    <path
       style="fill:none;stroke:#00b9f2;stroke-width:1.04155;stroke-miterlimit:10;stroke-dasharray:none;stroke-opacity:1"
       d="M 0.75683747,8.4666723 C 1.3264446,7.3335751 1.8960527,6.2013077 2.4656708,5.1772719 3.035279,4.1532262 3.6048871,3.2393216 4.1744952,2.5216137 4.7441033,1.8039158 5.3137215,1.2844442 5.8833296,1.0113607 6.4529377,0.73828015 7.0225458,0.71333539 7.5921539,0.93748326 8.1617721,1.1616351 8.7313802,1.6360144 9.3009883,2.314209 c 0.5696081,0.6781946 1.1392667,1.5605045 1.7088347,2.5620841 0.569568,1.0015796 1.139236,2.121829 1.708804,3.2538265 0.569669,1.1319874 1.139236,2.2743534 1.708804,3.3186754 0.569669,1.044322 1.139237,1.988662 1.708905,2.744133 0.569568,0.755372 1.139236,1.319876 1.708804,1.640821 0.569568,0.321045 1.139237,0.396832 1.708805,0.221562 0.569668,-0.17527 1.139236,-0.602797 1.708804,-1.240589 0.569668,-0.637791 1.139236,-1.486247 1.708905,-2.463581 0.569568,-0.977433 1.139236,-2.083245 1.708804,-3.2120131 0.569568,-1.128718 1.139236,-2.2789823 1.708804,-3.3415515 0.569669,-1.0625692 1.139236,-2.0356037 1.708804,-2.827309 0.569669,-0.7917153 1.139237,-1.4000518 1.708905,-1.7683591 0.569568,-0.36830437 1.139236,-0.49473986 1.708804,-0.3686893 0.569568,0.12605155 1.139237,0.5058759 1.708805,1.1020045"
       title="sin(x)*2"
       id="path3" />
    <path
       style="fill:none;stroke:#ffea00;stroke-width:1.04385;stroke-miterlimit:10;stroke-dasharray:none;stroke-opacity:1"
       d="M 0.57650571,15.726093 C 1.1487179,15.356011 1.720931,14.745705 2.2931542,13.953157 2.8653673,13.160509 3.4375804,12.186019 4.0097935,11.123158 4.5820066,10.060196 5.1542298,8.9097221 5.7264429,7.7813012 6.2986561,6.6528703 6.8708692,5.5480619 7.4430823,4.5715326 8.0153055,3.5949934 8.5875186,2.7487127 9.1597317,2.1122153 9.7319448,1.4757178 10.304208,1.051013 10.876381,0.87717629 11.448553,0.70334261 12.020827,0.78203957 12.593,1.104366 c 0.572274,0.3223174 1.144446,0.889257 1.716619,1.6456363 0.572274,0.7563793 1.144446,1.7023283 1.71672,2.7470358 0.572173,1.0447176 1.144447,2.1874239 1.716619,3.3191838 0.572173,1.1317598 1.144447,2.2510541 1.716619,3.2518351 0.572274,1.000782 1.144447,1.881001 1.71662,2.557986 0.572273,0.676985 1.144446,1.148535 1.71672,1.371264 0.572172,0.222729 1.144446,0.194838 1.716619,-0.07957 0.572173,-0.274413 1.144446,-0.796447 1.716619,-1.515218 0.572274,-0.718671 1.144446,-1.63428 1.716619,-2.658754 0.572274,-1.024474 1.144447,-2.1572333 1.71672,-3.2901527 0.572173,-1.1329195 1.144447,-2.2645794 1.716619,-3.2876538 0.572173,-1.0230645 1.144447,-1.9356141 1.71662,-2.6517162"
       title="sin(x)*2"
       id="path4" />
  </g>
</svg>
