<?xml version="1.0" encoding="UTF-8" standalone="no"?>
<!-- Created with Inkscape (http://www.inkscape.org/) -->

<svg
   width="127.99999"
   height="63.999996"
   viewBox="0 0 33.866664 16.933332"
   version="1.1"
   id="svg1"
   xml:space="preserve"
   xmlns="http://www.w3.org/2000/svg"
   xmlns:svg="http://www.w3.org/2000/svg"><defs
     id="defs1"><linearGradient
       id="swatch18"><stop
         style="stop-color:#ffeb00;stop-opacity:0.87843137;"
         offset="0"
         id="stop18" /></linearGradient><linearGradient
       id="swatch1"><stop
         style="stop-color:#ffea00;stop-opacity:1;"
         offset="0"
         id="stop1" /></linearGradient><marker
       style="overflow:visible"
       id="Triangle"
       refX="0"
       refY="0"
       orient="auto-start-reverse"
       markerWidth="0.40000001"
       markerHeight="0.40000001"
       viewBox="0 0 1 1"
       preserveAspectRatio="xMidYMid"><path
         transform="scale(0.5)"
         style="fill:context-stroke;fill-rule:evenodd;stroke:context-stroke;stroke-width:1pt"
         d="M 5.77,0 -2.88,5 V -5 Z"
         id="path135" /></marker></defs><g
     id="layer1"
     style="display:inline"><g
       id="g53"
       transform="matrix(0.05062869,0,0,0.05062869,35.993333,20.427388)"><g
         id="g49"><g
           id="g50" /><g
           id="g51" /><g
           id="g52"><path
             style="display:inline;fill:#6b8a93;fill-opacity:1;stroke:#6b8a93;stroke-width:0.529167;stroke-dasharray:none;stroke-opacity:1"
             d="m -404.02467,-174.66078 c -0.70345,-1.30628 -1.75763,-2.06105 -2.82223,-2.9835 -1.32961,-1.1521 -3.43929,-3.6827 -5.13755,-4.53183 -1.60507,-0.80253 -3.73205,-1.46068 -4.62955,-3.26091 -0.28405,-0.56979 -0.19899,-1.50154 -0.56316,-2.0448 -0.20381,-0.304 -0.63159,-0.44024 -0.77637,-0.77637 -0.21508,-0.49935 0.17907,-0.77767 -0.195,-1.40112 -0.0748,-0.12463 -0.30167,-0.0796 -0.39002,-0.195 -0.66471,-0.86857 -1.35509,-3.28643 -2.13098,-4.44541 -0.67982,-1.01545 -0.83135,-2.63771 -1.36639,-3.70779 -0.27268,-0.54535 -0.63098,-0.84273 -0.76742,-1.5198 -0.32192,-1.59754 0.20412,-3.40298 -0.19259,-4.98003 -0.19566,-0.77789 -0.56438,-1.53947 -0.77507,-2.34668 -0.21765,-0.83388 0.0135,-1.82517 -0.19251,-2.65213 -0.14359,-0.57619 -0.56071,-0.84137 -0.38762,-1.52942 0.25017,-0.99431 0.7711,-1.58691 1.09313,-2.52507 0.13973,-0.40715 0.16404,-1.09798 0.34914,-1.46589 0.17651,-0.3508 0.63392,-0.73452 0.7493,-1.08829 0.12486,-0.38289 -0.13327,-0.89921 0,-1.27905 0.14253,-0.40622 0.35534,-0.73038 0.585,-1.16749 0.25791,-0.49086 0.13732,-2.12071 0.58256,-3.03023 0.26394,-0.53914 0.81216,-0.42109 1.22814,-0.70078 0.63,-0.42361 1.38229,-1.6534 1.66862,-2.2225 0.44249,-0.87946 -0.0667,-3.45328 0.37431,-4.30386 0.21558,-0.41582 0.70138,-0.55272 0.86415,-1.04346 0.2363,-0.71235 0.54216,-1.8302 0.953,-2.45342 0.22871,-0.34697 4.38717,-4.46761 4.63619,-4.58429 0.54608,-0.25584 1.17343,-0.60229 1.5458,-1.16051 0.55955,-0.83879 1.50845,-3.29178 1.86431,-4.35494 0.18955,-0.56626 0.057,-1.40396 0.38759,-1.90347 0.63545,-0.96018 2.0288,-1.59872 2.94246,-2.09569 0.70233,-0.38202 1.21152,-1.24416 1.88648,-1.69508 0.6359,-0.42481 2.83202,-1.8078 3.49435,-2.13896 0.29644,-0.14823 0.68723,-0.0306 0.97499,-0.19501 0.15616,-0.0892 1.88161,-1.52564 1.95387,-1.5658 0.24571,-0.13657 1.99411,-0.89665 2.54084,-1.17001 1.98771,-0.99385 2.99652,-3.83573 5.0944,-4.89337 1.62324,-0.81836 3.20029,-1.91689 4.77612,-2.86713 0.53462,-0.32238 1.25474,-0.41023 1.74779,-0.78 0.73848,-0.55388 1.51405,-1.34022 2.33616,-1.7513 1.77758,-0.88881 3.52938,-1.56756 5.38173,-2.39084 0.71335,-0.31705 1.28225,-0.83613 1.94511,-1.16755 0.84741,-0.42371 1.82335,-0.40476 2.71783,-0.585 0.65386,-0.13178 3.04501,-1.71706 3.87239,-2.13582 0.47889,-0.24236 0.94919,-1.03089 1.35773,-1.35771 0.35341,-0.28273 0.68411,-0.19859 1.03283,-0.34525 0.47993,-0.20183 2.8352,-0.77999 1.43939,-0.77999 h 0.33657 c 0.34111,0 0.77677,-0.11592 1.08977,-0.28332 1.41692,-0.75782 2.67613,-1.75604 4.16938,-2.50261 0.12931,-0.0646 0.37431,0.0727 0.49866,0 0.27782,-0.16241 0.46395,-0.45966 0.77187,-0.52433 1.2504,-0.26254 2.31064,-0.69985 3.64998,-0.97253 1.14258,-0.23262 5.83134,0.084 6.52119,-0.39002 0.85511,-0.58761 4.43518,-1.30426 5.61922,-1.36038 0.92869,-0.044 1.92487,0.34258 2.78918,0 0.33481,-0.13269 0.58008,-0.45956 0.90911,-0.61442 1.24037,-0.5838 2.94558,-0.31885 4.26972,-0.58499 0.4455,-0.0896 0.97107,-0.57084 1.38181,-0.67255 3.24191,-0.80279 6.65131,-1.97278 10.12931,-2.85228 1.35289,-0.34211 2.61231,-1.19208 3.90001,-1.56001 1.62946,-0.46556 3.30975,-0.7937 4.97615,-1.34917 0.43553,-0.14517 1.16652,0.003 1.56001,-0.19499 0.94694,-0.47348 1.78686,-0.44366 2.78762,-0.78 0.46379,-0.15589 0.94353,-0.64275 1.47011,-0.74805 0.55702,-0.11142 1.19996,0.1375 1.74995,0 1.84685,-0.46173 4.13896,-1.04857 5.80739,-1.93575 0.54097,-0.28765 2.65123,-0.49188 3.61135,-0.97499 1.12731,-0.56721 3.38392,0.11425 4.52308,-0.34141 0.17068,-0.0683 0.23823,-0.28623 0.39,-0.39 0.32866,-0.22474 3.59772,-0.35364 4.37496,-0.58007 2.20411,-0.64212 3.87131,-2.53532 6.00848,-3.39019 2.09238,-0.83695 4.39729,-1.25039 6.31536,-2.26785 1.26254,-0.66971 5.18155,-5.16022 5.68127,-6.52965 0.14237,-0.39018 0.006,-0.63751 0.19256,-1.09969 0.11901,-0.29514 0.48337,-0.50257 0.57582,-0.76165 0.43656,-1.22362 -0.32959,-2.86348 0,-4.1261 0.51882,-1.98763 0.52287,-4.0009 1.12204,-5.83912 0.59493,-1.82528 -0.7933,-5.32318 0.003,-6.903 0.54155,-1.07519 0.55993,-2.40163 1.135,-3.54402 2.318,-4.60481 2.99536,-9.67263 4.51166,-14.58605 0.57541,-1.86452 1.78705,-3.0602 2.73311,-4.7429 1.04159,-1.85256 1.37617,-3.88657 2.26611,-5.66642 0.3413,-0.6826 1.02371,-1.26741 1.36501,-1.95 0.34079,-0.6816 0.46391,-1.62883 0.78,-2.34003 0.71485,-1.6084 1.63933,-3.10036 2.34537,-4.68895 0.51725,-1.16382 0.64809,-2.49669 0.98056,-3.66689 0.0561,-0.19737 0.571,-0.26296 0.7114,-0.33316 1.06788,-0.53395 2.04507,-1.91632 2.70359,-2.83826 0.94532,-1.32342 4.97079,-8.10451 6.03752,-8.5856 1.53259,-0.6912 5.19391,-1.16425 6.23318,-2.02337 0.25275,-0.20892 0.35969,-0.55386 0.59027,-0.78703 0.25295,-0.2558 1.83119,-0.82844 2.1531,-0.92605 1.19675,-0.36287 3.32632,1.0237 3.68058,2.09384 0.20132,0.60814 0.27292,1.22727 0.56746,1.85803 0.45382,0.97184 1.69754,1.50196 2.02371,2.55561 0.47973,1.54969 0,5.11178 0,6.96831 0,1.86134 -0.47191,7.20926 0,8.59533 0.55027,1.61624 0.88224,3.49351 1.1676,5.20568 0.22451,1.34705 -0.34678,2.91356 0,4.22907 0.23867,0.90541 0.64059,8.18893 0.68475,8.81524 0.0807,1.14485 0.38924,1.61363 0.38924,2.74652 0,2.37493 -0.12378,3.52525 0.23682,5.82165 0.31803,2.0252 -0.77292,4.3034 0.31685,6.11487 0.59491,0.98891 -0.38857,4.32214 0.16237,5.41759 0.22493,0.44723 -0.10079,1.43006 0.11592,1.86352 1.30463,2.60941 2.1971,5.48085 1.31712,8.9943 -0.0737,0.29415 3.05086,4.46678 3.33562,5.60582 0.16846,0.67381 0.79857,1.35386 1.14757,1.93808 0.19891,0.33298 0.39376,0.84298 0.60834,1.18266 0.27836,0.44061 0.4679,0.84467 0.62583,1.23448 0.28664,0.70736 0.9057,1.65305 1.4897,2.08771 0.45692,0.34007 0.4799,1.51198 0.85628,1.73894 0.65256,0.39351 1.98709,1.39105 2.40229,2.03806 0.75937,1.18337 1.84925,2.34264 2.44656,3.50906 0.16123,0.31485 0.0866,0.82151 0.195,1.1467 0.17651,0.52952 0.68743,1.01518 1.06931,1.24127 0.11426,0.0677 -0.0714,0.53785 0.18039,0.70541 1.01315,0.67415 2.50011,0.61341 3.36063,1.47388 0.95202,0.95195 0.77108,2.25425 1.97986,3.06018 1.4632,0.97551 3.33203,1.01671 4.9145,2.07171 1.47636,0.98422 2.67282,2.36098 4.06694,3.44191 0.55687,0.43177 1.29828,0.55901 1.85265,0.86797 2.5545,1.42369 4.76225,1.81313 7.77868,1.19821 0.74755,-0.15237 1.9453,-0.0185 2.57833,-0.37168 1.03047,-0.57489 2.20783,0.94655 3.17092,0.53255 0.96459,-0.41465 3.46344,-1.10606 4.00671,-1.84266 0.21064,-0.28559 -1.47065,-2.86994 -1.55515,-4.00558 -0.0115,-0.15523 0.52103,-0.3759 0.56586,-0.41881 0.44983,-0.43051 0.6582,-1.55472 1.44651,-1.85375 0.12436,-0.0472 -0.16948,0.29562 0,1.64941 0.44458,3.55119 -0.079,1.26008 -1.2257,3.53904 -0.15354,0.30517 -0.11542,0.65281 -0.37382,0.91117"
             id="path44" /><path
             style="display:inline;fill:#6b8a93;fill-opacity:1;stroke:#6b8a93;stroke-width:0.529167;stroke-dasharray:none;stroke-opacity:1"
             d="m -167.42757,-284.18522 c 0.77825,1.02095 -0.28866,0.90496 0.10104,0.21394 0.37863,-0.67138 2.07958,-4.79176 2.53038,-5.71013 0.36138,-0.73618 1.40338,-2.34734 1.95589,-3.27661 0.31314,-0.52666 2.33107,-2.09351 2.66049,-2.24951 0.43164,-0.20439 4.73493,0.10552 5.77115,0.5311 0.56217,0.23088 2.42063,1.60533 2.65299,2.06423 0.75771,1.49656 1.73973,2.59453 2.32835,4.02442 0.2419,0.58763 0,2.05983 0,2.68237 0,0.84907 -0.1514,1.09401 0.0675,1.92756 0.12146,0.46249 -0.0358,1.6208 0.007,1.77877 0.12754,0.4694 0.3049,4.25591 0.49374,4.80595 0.8064,2.34889 3.73772,3.46503 5.7691,4.14216 0.59414,0.19804 1.28924,1.02565 1.89612,1.32908 0.90529,0.45265 1.9268,0.87744 2.79015,1.25992 0.87846,0.38917 1.99448,0.30678 2.84356,0.56792 0.2752,0.0846 1.14375,1.18126 1.39867,1.31358 0.38675,0.20074 1.0476,0.15936 1.44787,0.35949 0.24666,0.12332 0.33834,0.46167 0.585,0.58499 1.25927,0.62963 6.14833,2.12659 7.47763,1.69638 1.53732,-0.49755 0.80351,-1.58628 1.20043,-2.77275 0.0917,-0.27395 0.43527,-0.18069 0.59048,-0.41347 0.42807,-0.64209 0.54813,-1.77339 0.54813,-2.54629 0,-1.21031 1.07544,-2.14014 1.50838,-3.00602 0.69178,-1.38358 1.17056,-3.01601 1.74101,-4.43142 0.2013,-0.49948 0.15385,-1.26127 0.39,-1.7336 0.49323,-0.9865 1.4976,-2.9931 2.09829,-3.79815 0.4512,-0.60471 1.3485,-1.38134 1.73944,-2.13183 0.37807,-0.72578 0.43156,-1.5884 0.73671,-2.34746 0.71712,-1.78385 1.42364,-3.64906 2.1358,-5.42944 1.00083,-2.50208 -1.4228,1.87061 0.195,-1.36501 0.0517,-0.29832 0.46168,-0.33835 0.585,-0.58499 0.14753,-0.29507 0.047,-0.6754 0.19501,-0.9702 1.2883,-2.56601 3.876,-4.2468 6.1512,-5.76361 1.13035,-0.75356 1.82401,-1.98927 3.06041,-2.48383 0.82117,-0.32845 1.52135,-1.03745 2.335021,-1.36249 0.780796,-0.31192 4.883166,-1.56531 5.812496,-0.94727 6.363864,4.2322 5.913689,14.6576 5.913689,21.47708 0,0.21238 -0.67981,1.74808 -0.891336,1.96673 -0.129355,0.13372 -0.610402,0.28683 -0.750869,0.56864 -0.364128,0.73046 0.08437,5.14268 -0.657794,6.35826 -0.666864,1.09227 0.662149,5.0216 1.088072,5.87076 0.776473,1.54799 0.02117,3.92138 0.575768,5.54939 0.12423,0.36468 0.492427,0.91419 0.575768,1.33096 0.211106,1.05567 0.226883,3.60173 -0.195001,4.44029 -0.648718,1.28944 0.848381,10.51057 1.356606,11.89354 0.721405,1.96308 -0.716491,12.45183 0.195001,13.81907 0.454321,0.68148 1.90513,0.77011 2.159201,1.5826 0.106442,0.34039 -0.11266,0.78727 0,1.12526 0.563293,1.68987 0.797158,3.32794 1.229066,5.0164 0.07649,0.29904 0.60819,0.49787 0.771626,0.77162 0.579572,0.97079 0.757605,2.12556 1.352415,3.11691 0.778968,1.29828 1.587058,2.43034 1.88655,3.92773 0.0898,0.44899 0.586706,0.89382 0.763059,1.33473 0.359095,0.89779 0.733679,1.84248 1.167603,2.71033 0.701482,1.40297 2.167729,2.50709 2.674983,4.02247 0.588557,1.75828 1.312661,3.68802 1.704856,5.5115 0.240408,1.11776 -0.283782,2.44507 0,3.55342 0.82831,3.23508 1.65703,8.27425 0.763341,11.71492 -0.139729,0.53796 -1.028062,0.91601 -1.419995,1.43937 -0.613299,0.81897 -1.048697,1.92762 -1.8841,2.48456 -1.969037,1.31269 -5.391746,2.67622 -7.685717,1.11911 -1.966177,-1.3346 -3.802751,-2.37363 -5.688553,-3.62961 -0.387281,-0.25794 -0.702143,-0.80943 -1.155559,-0.96056 -0.623345,-0.20777 -1.137084,-0.36677 -1.749108,-0.82997 -1.365379,-1.03336 -2.831901,-2.54651 -4.451297,-3.08631 -0.729528,-0.24318 -4.784522,-5.64243 -5.350632,-6.49998 -1.33233,-2.01821 -4.0207,-3.606 -5.20698,-5.58448 -0.54987,-0.91709 -1.16392,-1.72471 -1.71718,-2.6422 -0.72172,-1.19686 -2.64897,-1.89062 -3.15454,-3.15454 -0.0724,-0.18105 0.0473,-0.39582 0,-0.585 -0.21254,-0.85016 -1.38776,-1.88663 -1.89433,-2.64649 -0.5245,-0.78675 -1.61397,-2.97094 -2.60286,-3.57239 -0.74556,-0.45346 -0.9018,-0.0575 -1.48257,-0.79122 -0.35794,-0.45221 -0.15537,-1.40052 -0.71196,-1.73611 -0.0615,-0.0371 -0.77262,-0.0558 -0.8656,0 -0.68174,0.40906 -1.4944,1.03199 -2.26053,1.29803 -0.60245,0.20919 -2.6894,0.65612 -3.13247,1.07669 -0.43832,0.41606 -0.55541,0.80817 -1.12319,1.2349 -1.16154,0.873 0.36371,-0.37684 -0.77274,0.19138 -0.9384,0.4692 -1.9349,1.3435 -2.91052,1.74652 -0.42666,0.17624 -1.03457,0.0888 -1.48967,0.19257 -0.95574,0.21803 -2.12898,1.29113 -3.16051,1.48834 -1.99263,0.38094 -3.52587,0.38342 -5.23547,1.52316 -0.54707,0.36471 -0.38548,0.97905 -0.78001,1.51666 -0.22382,0.305 -0.98898,0.0173 -1.26607,0.1691 -0.48444,0.26541 -1.01214,1.28995 -1.34864,1.73861 -0.4301,0.57347 -1.11929,0.7792 -1.56001,1.36501 -0.7341,0.97579 -2.65025,3.84708 -3.01625,4.94511 -0.18394,0.55181 -1.74097,1.5643 -2.08848,1.91038 -0.92234,0.91853 -2.50442,1.14505 -3.50762,1.94761 -0.51412,0.41129 -2.51397,2.18581 -3.08489,2.32787 -0.75125,0.18693 -1.57196,0.3996 -2.32801,0.77763 -1.43789,0.71894 -3.42816,3.05576 -4.73059,3.31754 -0.69095,0.13887 -4.7847,-0.40591 -5.46935,-0.68391 -0.34374,-0.13959 -1.04301,-0.0786 -1.41402,-0.0786 -2.12845,0 -4.12134,0.19644 -6.15904,1.21523 -0.32178,0.16087 -0.629,0.42087 -0.89004,0.6696 -0.59726,0.56903 -0.43601,-0.2029 -1.46252,1.29063 -0.61909,0.90076 -0.24549,0.18927 0.006,0.78781 1.26471,3.01532 2.05253,3.98734 4.03082,5.62797 0.5641,0.46781 2.35802,1.45994 2.75517,1.7528 1.92258,1.41771 4.38451,2.68141 5.93324,4.74639 1.03045,1.37393 2.16682,2.69047 3.4334,3.89366 0.40632,0.38598 0.58035,0.55494 0.8254,0.76855 1.3865,1.20864 2.03483,1.49302 3.29991,2.5032 0.35488,0.28337 0.95431,0.63138 1.32888,0.99558 0.48386,0.40007 0.6791,0.46914 0.81253,0.59938 0.95184,0.92923 2.38609,1.81368 3.43533,2.49302 1.34388,0.87012 2.85557,5.17508 4.05366,6.36898 0.98966,0.9862 1.18114,1.29722 1.97891,1.94545 0.50957,0.41405 1.286,0.93293 1.77581,1.42274 0.89113,0.89113 1.45571,0.99699 2.2935,1.9903 0.67427,0.79943 1.60362,1.86978 2.43252,2.50903 0.11509,0.0888 0.31586,0.12557 0.44556,0.1911 0.36169,0.18268 0.89174,0.2573 1.30162,0.3939 0.67139,0.2238 1.65842,0.89336 2.23694,1.32818 1.72813,1.29889 2.82702,3.67955 4.54254,4.5991 0.51084,0.27382 0.77349,1.03936 1.29329,1.29329 1.18757,0.58014 2.58042,1.30238 3.85501,1.9224 0.5109,0.24852 1.18533,0.26226 1.75013,0.585 0.93608,0.53491 1.7756,1.22478 2.73002,1.75501 0.23427,0.13016 0.55273,0.053 0.78,0.195 0.41176,0.25735 0.88667,1.11325 1.36501,1.36501 0.70111,0.36901 1.5118,0.65035 2.26201,1.15049 0.45152,0.30101 0.50145,0.87556 0.95746,1.15249 1.2867,0.78137 2.27049,1.56322 3.30941,2.77529 0.83948,0.97941 3.78978,3.99571 4.09365,5.20428 0.0939,0.37328 0.1879,1.37732 0.36691,1.70937 0.98733,1.83184 0.38265,2.48043 -0.45247,5.0271 -0.3655,1.11458 -4.55527,1.83669 -5.718,2.25328 -1.03959,0.37247 -1.94111,1.07433 -2.88217,1.54489 -0.40939,0.20471 -1.06172,0.15365 -1.51052,0.38079 -0.84485,0.42759 -1.84214,1.07608 -2.80063,1.2875 -2.07002,0.45658 -6.54639,-0.72426 -8.34352,-0.12398 -0.17438,0.0582 -2.13902,0.12947 -2.30973,0.19775 -1.04685,0.41874 -5.18047,-0.14373 -6.36224,-0.46313 -0.56702,-0.15324 -2.29713,-0.14422 -2.76038,-0.45306 -0.98809,-0.65873 -2.09371,-0.58223 -3.11373,-1.09383 -0.44551,-0.22345 -1.65876,-0.4885 -2.13458,-0.6471 -1.02241,-0.34081 -2.13894,-0.60559 -2.87412,-1.09574 -1.16242,-0.77494 -0.86262,-0.42544 -1.89004,-0.63243 -1.26065,-0.25397 -0.73531,-0.46052 -1.95571,-0.86898 -0.30668,-0.10265 -1.24269,-0.19999 -1.55644,-0.27839 -1.37004,-0.34251 -2.28006,0.19663 -4.55019,-0.79328 -1.13983,-0.49703 -2.20377,-0.7265 -3.34927,-1.1847 -0.56744,-0.22698 -1.30703,-0.41332 -1.82526,-0.67243 -0.60079,-0.3004 -1.307,-0.39562 -1.99757,-0.60153 -0.34599,-0.10317 -0.84397,-0.29298 -1.19003,-0.38028 -0.43183,-0.10899 -1.39853,-0.57749 -1.71182,-0.78887 -0.93312,-0.6296 -2.07805,-1.06492 -2.99467,-1.79915 -1.08131,-0.86615 -2.19136,-1.29811 -3.72807,-2.01987 -0.91416,-0.42936 -2.72427,-1.15295 -3.58854,-1.71846 -1.77288,-1.16002 -1.34541,-0.74533 -3.05288,-1.81401 -0.40485,-0.25339 -1.89001,-1.72975 -2.32864,-1.90152 -0.48139,-0.18852 -1.21866,-0.33365 -1.7135,-0.70478 -1.4494,-1.08704 -1.94242,-2.45458 -3.40337,-3.58437 -1.27731,-0.98777 -2.48071,-1.94087 -3.72738,-3.00873 -0.20231,-0.17329 -0.4853,-0.69136 -0.72387,-0.72154 -1.95026,-0.24678 -6.77681,-2.72829 -8.56137,-3.918 -0.99746,-0.66498 -1.80014,-1.64535 -2.8448,-2.26339 -1.38115,-0.81712 -4.34603,-1.99869 -5.28731,-3.41062 -0.46104,-0.69155 -0.86696,-1.39679 -1.33595,-2.10138 -0.5961,-0.89556 -1.75684,-1.46107 -2.24763,-2.44266 -0.29197,-0.58393 -0.187,-0.96608 -0.75849,-1.34349 -0.8366,-0.55249 -1.68191,-1.05359 -2.32744,-1.74472 -0.72067,-0.77157 -3.46012,-1.87563 -4.49062,-2.84233 -0.64945,-0.60923 -3.84935,-5.09226 -4.01812,-5.73256 -0.15214,-0.57719 -0.5435,-1.10259 -0.66096,-1.68991 -0.11906,-0.59526 -0.46305,-1.63958 -0.195,-2.25577 0.66302,-1.52416 1.81949,-2.25431 1.19371,-4.13164 -0.0713,-0.21386 -0.0171,-0.95276 -0.28774,-1.01604 -0.42563,-0.0995 -1.52978,-0.74324 -2.00724,-0.49676 -1.07076,0.55276 -2.65256,1.11558 -4.06319,0.76069 -0.22663,-0.057 -0.35589,-0.33315 -0.58256,-0.39 -0.4585,-0.11498 -1.08358,0.15437 -1.53311,0 -1.30569,-0.44836 -2.80524,-0.40083 -4.2786,-0.585 -1.85288,-0.23161 -3.67611,0.85349 -5.49828,0.39656 -1.5448,-0.38739 -2.8886,0.0863 -4.38007,-0.45818 -0.84912,-0.30998 -1.32731,0.0988 -1.85069,0.23438 -0.86248,0.22346 -1.40792,0.21222 -2.4584,-0.0271 -1.44698,-0.32961 -3.08242,-0.71789 -4.57043,-0.16478 -1.1241,0.41783 -5.52275,0 -7.00756,0 -0.83019,0 -3.4158,0.42689 -4.04273,0 -1.31077,-0.89254 -3.04602,-0.57453 -4.65082,-0.77513 -1.28074,-0.16009 -2.28947,-0.57573 -3.51002,-0.78 -0.95334,-0.15956 -1.81853,0.0956 -2.69425,0.38755 -0.72257,0.24085 -1.70561,0.034 -2.45382,0.18362 -1.46042,0.29209 -2.80678,0.74129 -4.34012,0.89462 -2.24785,0.22479 -7.38783,-0.36352 -8.81063,0.58501 -0.65055,0.4337 -3.16973,0 -4.00674,0 -4.01397,0 -7.01338,1.30019 -10.91189,0.81288 -1.54892,-0.19361 -3.27967,0.19063 -4.83489,0.19063 -1.80263,0 -3.42726,-0.41119 -5.02045,0.37564 -0.83421,0.41197 -1.17183,-0.74673 -2.18548,-0.40884 -0.73017,0.24339 -1.32477,-0.36086 -1.97223,-0.0371 -0.63606,0.31803 -2.21663,-0.0687 -2.90163,0 -2.73749,0.27443 -5.39896,0.39 -8.16774,0.39 -4.00344,0 -8.1429,-0.18138 -11.97645,0.78001 -2.24877,0.56394 -5.5214,-0.23743 -7.89567,0 -4.69662,0.46966 -9.51261,0.39 -14.30239,0.39 -1.7498,0 -4.01982,-0.38238 -5.73813,0 -2.5545,0.56845 -5.24967,0.59746 -7.83587,0.975 -0.82362,0.12024 -1.94921,-0.26026 -2.73002,0 -1.61092,0.53697 0.70567,0.3962 -1.56001,0.58501 -2.60909,0.21742 -13.3367,0.90121 -14.85392,0.36122 -0.6793,-0.24176 -1.44817,-0.61929 -2.13056,-0.87291"
             id="path45" /><path
             style="display:inline;fill:#e1e1e1;fill-opacity:1;stroke:#6b8a93;stroke-width:0.529167;stroke-dasharray:none;stroke-opacity:1"
             d="m -403.05106,-173.27494 c 0.3815,0.15202 0.78526,0.25704 1.14448,0.45607 7.9331,10.18545 22.0026,11.48217 32.01826,18.32619 3.89288,2.92568 5.63317,3.86506 10.11873,4.57164 4.19105,0.98455 8.18945,2.45841 11.91519,4.59353 0.41857,0.23255 0.94615,0.37558 1.36501,0.585 0.3238,0.16191 0.89527,0.0365 1.26373,0.19501 0.72364,0.31127 1.49665,0.53257 2.2315,0.77752 0.32607,0.1087 0.82828,0.0567 1.1484,0.18717 1.09532,0.44652 2.28668,0.63971 3.46194,0.87476 0.32377,0.0648 0.62328,0.30641 0.94705,0.38539 0.78248,0.19089 2.41204,0.39964 3.09605,0.68251 0.72089,0.29813 4.04416,1.43488 18.62941,3.70543 1.7371,0.15792 3.41511,0.36145 5.13787,0.60756 2.90726,0.22993 6.4437,0.6352 12.53215,1.45891 8.2897,1.12152 15.95096,3.10688 26.51503,3.29568 0.48741,-0.007 1.89902,-0.0114 2.34014,-0.0851 1.7066,-0.28504 5.17685,0.19136 10.99395,-0.77815 0.69854,-0.11642 1.54705,-1.52704 2.2456,-1.64347 0.80202,-0.13367 1.61174,-0.19619 2.34003,-0.4875 0.3396,-0.13584 0.98675,0 1.36501,0 0.83346,0 1.62275,-0.0799 2.44539,-0.19709 0.40282,-0.0574 0.2352,-0.23518 0.69386,-0.29817 5.08946,-0.69899 10.29003,-1.50462 15.28165,-3.50794 5.02734,-1.16042 4.08766,-1.25014 8.23859,-2.423 1.12424,-0.24983 2.4901,-0.87742 3.48362,-1.43995 6.92401,-3.92033 8.71362,-3.03335 13.48272,-6.25813 -0.042,-0.62302 -0.18894,-0.87261 -0.61877,-1.24103 -0.6883,-0.58998 -0.85337,-0.20621 -1.30351,-0.3894 -0.28155,-0.11458 -0.62493,-0.40081 -0.82876,-0.63375 -0.2299,-0.26275 -0.48169,-0.51242 -0.6819,-0.77879 -0.0504,-0.0671 -0.0556,-0.25438 -0.0969,-0.33687 -0.16476,-0.32957 -0.45398,-0.91714 -0.71799,-1.18115 -0.11399,-0.11399 -0.32015,-0.17447 -0.43578,-0.29011 -0.1768,-0.1768 -0.32389,-0.42521 -0.53356,-0.58232 -0.0983,-0.0737 -0.24728,-0.11771 -0.33823,-0.19378 -0.13944,-0.11663 -0.0672,-0.15415 -0.14625,-0.29251 -0.17346,-0.30354 -0.40839,-0.58313 -0.58501,-0.8775 -0.13591,-0.22653 -0.11229,-0.35802 -0.29019,-0.5804 -0.32239,-0.40299 -0.85454,-0.72878 -1.26751,-1.02376 -2.04005,-1.52065 -1.6104,-2.25307 -4.28541,-3.26511 -0.28346,-0.11324 -0.46727,-0.34914 -0.77878,-0.43814 -0.24989,-0.0714 -0.60833,-0.16399 -0.77755,-0.38939 -0.11795,-0.1571 -0.27225,-0.28155 -0.38879,-0.43694 -1.79709,-2.83118 -6.01402,-7.3066 -5.20309,-10.44585 0.39793,-0.89534 1.28924,-1.52564 1.60815,-2.48442 0.0311,-0.0935 0.15426,-0.19906 0.0969,-0.27912 -0.17363,-0.24234 -0.34832,-0.47155 -0.528,-0.71112 -0.17084,-0.22779 -0.26004,-0.61265 -0.51764,-0.7614 -0.25491,-0.14719 -0.58573,-0.18244 -0.82467,-0.34125 -0.33157,-0.22037 -0.88385,-0.77828 -1.37364,-0.58139 -1.05979,0.42602 -1.37558,1.2657 -2.69948,1.00092 -0.25191,-0.0504 -0.49045,-0.18346 -0.73126,-0.24375 -0.37411,-0.0937 -0.83216,-0.10265 -1.21692,-0.14564 -0.6761,-0.0755 -1.35724,0.0642 -2.03472,-0.0487 -0.30409,-0.0507 -0.58862,-0.20997 -0.87751,-0.29251 -0.1932,-0.0552 -0.48107,-0.0354 -0.6825,-0.0488 -0.82003,-0.0543 -1.61232,-0.0975 -2.44094,-0.0975 -0.3259,0 -0.85697,-0.10394 -1.16879,0 -0.21472,0.0716 -0.5089,-0.0249 -0.73002,0.0488 -0.26277,0.0876 -0.55045,0.32043 -0.82875,0.39001 -0.77112,0.19278 -3.08875,0.33166 -3.90873,0.195 -0.2913,-0.0486 -0.58056,-0.10349 -0.87567,-0.14625 -0.41249,-0.0598 -0.89017,0.10157 -1.2932,0 -0.44558,-0.1123 -0.85775,-0.14477 -1.31231,-0.19527 -0.39481,-0.0439 -0.9286,-0.34704 -1.31168,-0.38542 -0.9727,-0.0975 -1.98943,0 -2.97049,0 -0.72334,0 -1.83612,-0.12002 -2.55623,0 -0.46311,0.0772 -0.94459,0.15844 -1.41376,0.24375 -0.5251,0.0955 -1.23842,0 -1.76335,0 -0.97474,0 -1.94854,0.0488 -2.92839,0.0488 -1.19999,0 -2.46289,0.11915 -3.65443,0 -0.40179,-0.0402 -0.82097,-0.0483 -1.22392,-0.0985 -0.18576,-0.0232 -0.4123,-0.13221 -0.58563,-0.19532 -0.23026,-0.0838 -0.42983,-0.0295 -0.63376,-0.0975 -0.26963,-0.0899 -0.45717,-0.16113 -0.73125,-0.195 -1.02274,-0.12641 -2.1227,0.17485 -3.12821,-0.0481 -0.63226,-0.14022 -1.19333,-0.59933 -1.84903,-0.68168 -0.73488,-0.0923 -1.45872,-0.12834 -2.19194,-0.195 -0.99524,-0.0905 -2.05615,-0.4147 -3.07048,-0.24565 -1.00702,0.16784 -1.97862,0.50057 -2.98491,0.73566 -0.56088,0.13104 -1.19565,0.20353 -1.7532,0.3894 -0.30841,0.10282 -0.61576,0.3126 -0.92874,0.39085 -0.1302,0.0326 -0.31524,-0.0103 -0.43755,0.0488 -0.44721,0.21594 -4.42562,-0.13973 -4.87327,0.0844 -35.31647,-0.1828 -68.9326,3.251 -104.85024,3.70316 -0.62421,0.005 -1.22124,-0.12749 -1.84393,-0.15287 -0.6587,-0.0269 -1.32648,0 -1.98661,0 -0.31826,0 -1.31705,-0.0968 -1.61634,0 -0.29742,0.0962 -0.61237,0.21094 -0.92163,0.34437 -0.19235,0.083 -0.47644,-0.004 -0.68004,0.0975 -0.38884,0.19442 0.30272,0.0141 -0.2925,0.14625 -0.0292,0.006 -0.47573,0.0465 -0.44395,0.1419 0.0555,0.16634 0.7693,0.43491 0.80778,0.45547 z"
             id="path46" /><path
             style="display:inline;fill:#e1e1e1;fill-opacity:1;stroke:#6b8a93;stroke-width:0.529167;stroke-dasharray:none;stroke-opacity:1"
             d="m -171.11255,-182.19867 c -0.0963,-0.18645 -0.24348,-0.035 -0.36137,-0.0686 -0.0249,-0.007 -0.0296,-0.0375 -0.0499,-0.0499 -0.1277,-0.0778 -0.26365,-0.14145 -0.39599,-0.20762 -0.10148,-0.0507 -0.19886,-0.18164 -0.27577,-0.25854 -0.0896,0.004 -0.0202,-0.0474 -0.0345,-0.0687 -0.0537,-0.0804 -0.15932,-0.16442 -0.23753,-0.22029 -0.0912,-0.0651 -0.19544,-0.0719 -0.29258,-0.12044 -0.11883,-0.0594 -0.24846,-0.13873 -0.36195,-0.20683 -0.13033,-0.0782 -0.2079,-0.24236 -0.31024,-0.34471 -0.064,-0.064 -0.15165,-0.10339 -0.22407,-0.15512 -0.0455,-0.0325 -0.0781,-0.0842 -0.12065,-0.12066 -0.23371,-0.20031 -0.51069,-0.34978 -0.74277,-0.55268 -0.21752,-0.19017 -0.42054,-0.39582 -0.63778,-0.5859 -0.14658,-0.12826 -0.31675,-0.22087 -0.46537,-0.34472 -0.0346,-0.0288 -0.0499,-0.0776 -0.0865,-0.10387 -0.0193,-0.0138 -0.0498,-0.004 -0.0691,-0.0174 -0.0479,-0.0342 -0.056,-0.0927 -0.0862,-0.13789 -0.0331,-0.0496 -0.0835,-0.0915 -0.12065,-0.13789 -0.0197,-0.0246 -0.0208,-0.0588 -0.0343,-0.0857 -0.0225,-0.0451 -0.0577,-0.0654 -0.0862,-0.10342 -0.0497,-0.0663 -0.0654,-0.13086 -0.10341,-0.20683 -0.082,-0.16399 -0.20349,-0.30422 -0.29301,-0.46537 -0.0242,-0.0435 -0.0283,-0.095 -0.0517,-0.13788 -0.2731,-0.50048 0.0363,0.0827 -0.13838,-0.20765 -0.0292,-0.0486 -0.0514,-0.11945 -0.0689,-0.17194 -0.0142,-0.0426 -0.0601,-0.0669 -0.0862,-0.10341 -0.0293,-0.041 -0.0274,-0.0954 -0.0517,-0.13789 -0.0427,-0.0747 -0.0936,-0.14963 -0.13788,-0.22406 -0.0351,-0.0589 -0.11123,-0.0953 -0.15115,-0.15115 -0.0552,-0.0772 -0.12928,-0.17304 -0.17193,-0.25832 -0.0264,-0.0528 -0.0113,-0.14838 -0.0343,-0.20557 -0.0756,-0.18853 -0.16072,-0.40989 -0.25904,-0.58687 -0.18569,-0.33424 -0.38427,-0.32302 -0.3237,-0.74329 0.009,-0.0622 0.0443,-0.11201 0.0517,-0.1715 0.009,-0.0716 -0.005,-0.13654 0.017,-0.20576 0.0183,-0.0581 0.27374,-0.15562 0.30724,-0.17085 0.0117,-0.005 0.023,-0.0115 0.0345,-0.0172 0.023,-0.0173 0.0433,-0.0389 0.069,-0.0517 0.22485,-0.11243 0.4642,-0.17119 0.65496,-0.36195 0.17829,-0.1783 0.35686,-0.35775 0.53178,-0.53268 2.04289,-1.27776 4.9755,-1.66542 7.39237,-1.79959 0.14898,-0.0225 0.32736,-0.0904 0.48668,-0.0533 0.0642,0.0176 0.12833,0.0352 0.1925,0.0528 0.0365,0.0184 0.0704,0.0432 0.10941,0.0553 0.0481,0.0149 0.12074,0.009 0.17236,0.0173 0.076,0.0127 0.41564,0.14749 0.49984,0.18959 0.0682,0.0341 0.12033,0.11017 0.18977,0.13813 0.11499,0.0463 0.21327,0.12098 0.3281,0.17318 0.0892,0.0405 0.18787,0.0633 0.27765,0.10421 0.0591,0.0269 0.11043,0.0745 0.17407,0.0873 0.0951,0.0191 0.82812,0.0241 0.90005,0 0.0654,-0.0219 0.11745,-0.0512 0.18963,-0.0693 0.19535,-0.0488 0.43605,-0.0172 0.63772,-0.0172 h -0.015 c -0.0505,0 -0.10145,-0.006 -0.15158,0 -0.0518,0.006 -0.13766,0.0863 -0.13768,0.0862 -0.006,-0.046 0.14914,-0.0251 0.24453,-0.0379 0.24629,-0.0328 0.0974,-0.0454 0.35973,-0.12634 0.0888,-0.0274 0.22597,-0.0234 0.32405,-0.0172 0.41689,0.0264 0.83478,0.0182 1.25262,0.0182 0.47971,0.0932 0.85837,-0.0941 1.2761,-0.27656 0.15858,-0.0951 0.30216,-0.23452 0.46948,-0.31282 0.48389,-0.22902 0.95178,-0.51606 1.28357,-0.93654 0.0766,-0.0689 0.15718,-0.13393 0.24285,-0.19114 0.0706,-0.0471 0.17478,-0.0722 0.24895,-0.12546 0.36269,-0.26341 0.69924,-0.56615 0.91637,-0.6891 0.19416,-0.11088 0.39213,-0.2544 0.5994,-0.33731 1.27337,-0.50935 -0.14439,-0.17478 1.13724,-0.60308 0.0992,-0.0331 0.15921,-0.12091 0.2579,-0.15469 0.007,-0.002 0.21783,-0.0832 0.19745,-0.0359 -0.0848,0.19667 -0.35143,0.2726 -0.45027,0.4656 -0.043,0.084 -0.0662,0.18428 -0.10179,0.27334 -0.0526,0.13149 -0.17181,0.2632 -0.25832,0.37854 -1.16497,1.31544 -1.0637,0.86803 -1.79327,1.84231 -0.0399,0.0534 -0.10059,0.0996 -0.13746,0.15491 -0.0709,0.10636 -0.10416,0.23679 -0.18774,0.34127 -0.0772,0.0964 -0.12938,0.18763 -0.1896,0.29301 -0.0205,0.0359 -0.0672,0.0656 -0.0862,0.10341 -0.0915,0.23522 -0.21311,0.45316 -0.34328,0.66822 -0.0473,0.0697 -0.13972,0.108 -0.17235,0.18959 -0.0271,0.0678 -0.0614,0.15296 -0.10261,0.22163 -0.008,0.0139 -0.0293,0.019 -0.0345,0.0345 -0.0132,0.19271 -0.0698,0.27649 -0.086,0.32262 -0.0334,0.13421 0.0336,0.30433 -0.0325,0.43385 -0.0453,0.0887 -0.10959,0.16739 -0.15392,0.25591 -0.0323,0.0644 -0.0741,0.16534 -0.12012,0.22173 -0.0413,0.0506 -0.12353,0.0329 -0.17716,0.0686 -0.11924,0.0795 -0.22356,0.12946 -0.34384,0.18959 -0.11161,0.0558 -0.31292,-0.0406 -0.42852,0.0172 -0.0461,0.0231 -0.11179,0.0138 -0.15263,0.0343 -0.14439,0.0722 0.0895,0.002 -0.0862,0.0517 -0.81632,0.37208 -1.64786,0.86641 -2.25213,1.54361 -0.065,0.0557 -0.15787,0.0849 -0.22407,0.13788 -0.0381,0.0305 -0.0628,0.0764 -0.10341,0.10342 -0.10428,0.0695 -0.007,-0.025 -0.0862,0.0345 -0.1719,0.12892 -0.32338,0.28766 -0.49889,0.41302 -0.0696,0.0497 -0.1611,0.0853 -0.22644,0.1398 -0.10024,0.0835 -0.17773,0.22647 -0.25854,0.32748 -0.0358,0.0447 5.3e-4,0.0422 -0.0345,0.10341 -0.0121,0.0212 -0.0382,0.0314 -0.0517,0.0517 -0.0589,0.0883 -0.0749,0.21888 -0.12174,0.31221 -0.0804,0.16033 -0.35688,0.55602 -0.51655,0.63635 -0.087,0.0438 -0.20557,0.0627 -0.29086,0.1032 -2.37721,0.5291 -2.88162,1.22883 -4.63976,3.11498 -0.0132,0.0212 -0.003,0.0797 -0.0172,0.10672 -0.0302,0.0593 -0.065,0.11623 -0.0975,0.17434 z"
             id="path47" /><path
             style="fill:#000000;fill-opacity:1;stroke:#6b8a93;stroke-width:0.403279;stroke-dasharray:none;stroke-opacity:1"
             id="path48"
             d="m -304.12645,-202.24841 a 10.219432,6.1784096 0 0 1 4.57926,8.22982 10.219432,6.1784096 0 0 1 -13.55449,2.87079 10.219432,6.1784096 0 0 1 -4.91692,-8.1583 10.219432,6.1784096 0 0 1 13.432,-3.07404" /><path
             style="fill:#ffffff;fill-opacity:1;stroke:#ffffff;stroke-width:0.529167;stroke-dasharray:none;stroke-opacity:1"
             id="path49"
             d="m -305.61188,-197.98621 a 0.93447411,1.1459833 0 0 1 0.45313,1.42897 0.93447411,1.1459833 0 0 1 -1.1112,0.70267 0.93447411,1.1459833 0 0 1 -0.6865,-1.28139 0.93447411,1.1459833 0 0 1 0.96702,-0.97179 l -0.0433,1.14475 z" /></g></g></g><path
       style="fill:none;stroke:#00b9f2;stroke-width:2.64583;stroke-miterlimit:10;stroke-dasharray:none;stroke-opacity:1;marker-end:url(#Triangle)"
       d="m 1.5754735,8.9874428 h 8.311357"
       id="path10-5" /></g></svg>
