<?xml version="1.0" encoding="UTF-8" standalone="no"?>
<!-- Created with Inkscape (http://www.inkscape.org/) -->

<svg
   width="127.99999"
   height="63.999996"
   viewBox="0 0 33.866664 16.933332"
   version="1.1"
   id="svg1"
   xml:space="preserve"
   xmlns="http://www.w3.org/2000/svg"
   xmlns:svg="http://www.w3.org/2000/svg"><defs
     id="defs1"><linearGradient
       id="swatch18"><stop
         style="stop-color:#ffeb00;stop-opacity:0.87843137;"
         offset="0"
         id="stop18" /></linearGradient><linearGradient
       id="swatch1"><stop
         style="stop-color:#ffea00;stop-opacity:1;"
         offset="0"
         id="stop1" /></linearGradient><style
       id="style1">.c{fill:#ec008c;}.c,.d{stroke-width:0px;}.d{fill:#00b9f2;}</style><linearGradient
       id="swatch16"><stop
         style="stop-color:#00b9f2;stop-opacity:1;"
         offset="0"
         id="stop17" /></linearGradient><style
       id="style1-0">.c{fill:#ec008c;}.c,.d{stroke-width:0px;}.d{fill:#00b9f2;}</style><style
       id="style1-9">.c{fill:#ec008c;}.c,.d{stroke-width:0px;}.d{fill:#00b9f2;}</style><style
       id="style1-94">.c{fill:#ec008c;}.c,.d{stroke-width:0px;}.d{fill:#00b9f2;}</style><style
       id="style1-7">.c{fill:#ec008c;}.c,.d{stroke-width:0px;}.d{fill:#00b9f2;}</style><style
       id="style1-6">.c{fill:#ec008c;}.c,.d{stroke-width:0px;}.d{fill:#00b9f2;}</style><style
       id="style1-0-2">.c{fill:#ec008c;}.c,.d{stroke-width:0px;}.d{fill:#00b9f2;}</style><style
       id="style1-9-6">.c{fill:#ec008c;}.c,.d{stroke-width:0px;}.d{fill:#00b9f2;}</style><style
       id="style1-94-1">.c{fill:#ec008c;}.c,.d{stroke-width:0px;}.d{fill:#00b9f2;}</style><style
       id="style1-7-8">.c{fill:#ec008c;}.c,.d{stroke-width:0px;}.d{fill:#00b9f2;}</style><style
       id="style1-73">.c{fill:#ec008c;}.c,.d{stroke-width:0px;}.d{fill:#00b9f2;}</style><style
       id="style1-0-9">.c{fill:#ec008c;}.c,.d{stroke-width:0px;}.d{fill:#00b9f2;}</style><style
       id="style1-9-3">.c{fill:#ec008c;}.c,.d{stroke-width:0px;}.d{fill:#00b9f2;}</style><style
       id="style1-94-19">.c{fill:#ec008c;}.c,.d{stroke-width:0px;}.d{fill:#00b9f2;}</style><style
       id="style1-7-4">.c{fill:#ec008c;}.c,.d{stroke-width:0px;}.d{fill:#00b9f2;}</style><style
       id="style1-69">.c{fill:#ec008c;}.c,.d{stroke-width:0px;}.d{fill:#00b9f2;}</style><style
       id="style1-0-4">.c{fill:#ec008c;}.c,.d{stroke-width:0px;}.d{fill:#00b9f2;}</style><style
       id="style1-9-5">.c{fill:#ec008c;}.c,.d{stroke-width:0px;}.d{fill:#00b9f2;}</style><style
       id="style1-94-2">.c{fill:#ec008c;}.c,.d{stroke-width:0px;}.d{fill:#00b9f2;}</style><style
       id="style1-7-5">.c{fill:#ec008c;}.c,.d{stroke-width:0px;}.d{fill:#00b9f2;}</style></defs><g
     id="layer1"
     style="display:inline"><g
       id="g148"><path
         style="fill:#ffef43;fill-opacity:1;stroke:none;stroke-width:0.264583px;stroke-linecap:butt;stroke-linejoin:miter;stroke-opacity:1"
         d="m 15.478125,9.5249999 -1.223698,-0.79375 0.01654,-2.1001302 1.901693,-0.8433594 0.09922,1.3890625 z"
         id="path148" /><path
         style="fill:#ffef43;fill-opacity:1;stroke:#ffef43;stroke-width:0.264583px;stroke-linecap:butt;stroke-linejoin:miter;stroke-opacity:1"
         d="m 7.3587239,6.3996093 2.7285151,-1.8190104 2.315105,-0.033073 0.08268,2.8938802 1.570963,-0.016536 1.405599,-2.4308593 0.380339,-3.0096354 0.644922,-0.1322917 -0.01654,2.7119791 0.08268,0.8929688 L 15.957682,5.8869791 15.544271,6.3830728 14.370182,7.689453 13.659114,8.4501301 13.080338,8.4170572 11.988932,8.8304686 10.219531,9.7234374 9.4257811,9.6903645 7.4248697,9.0454426 Z"
         id="path147" /><path
         style="fill:#ffef43;fill-opacity:1;stroke:#ffea00;stroke-width:0.264583px;stroke-linecap:butt;stroke-linejoin:miter;stroke-opacity:1"
         d="M 9.8805337,4.6302083 9.9053384,2.4639323 9.6572915,2.0422526 9.5994139,2.2985677 9.7234374,2.5218099 9.566341,4.8203775 Z"
         id="path144" /><path
         style="fill:#ffef43;fill-opacity:1;stroke:#ec008c;stroke-width:0.264583px;stroke-linecap:butt;stroke-linejoin:miter;stroke-opacity:1"
         d="M 15.709635,9.6614254 C 13.83996,10.171086 14.271983,8.9134978 14.171744,8.5204101"
         id="path130" /><path
         style="fill:#ffef43;fill-opacity:1;stroke:#ec008c;stroke-width:0.264583px;stroke-linecap:butt;stroke-linejoin:miter;stroke-opacity:1"
         d="M 8.7814744,7.7992588 8.8750187,6.3727078 12.043833,4.6304445"
         id="path140" /><path
         style="fill:#ffef43;fill-opacity:1;stroke:#ffef43;stroke-width:0.264583px;stroke-linecap:butt;stroke-linejoin:miter;stroke-opacity:1"
         d="M 1.5048177,7.759733 2.5135416,7.7431965 4.7624999,8.7312499 6.9453124,8.7477863 8.0367186,9.3430988 7.7390624,10.847917 5.1097656,14.915885 2.9930989,12.270052 Z"
         id="path146" /><path
         style="fill:#ffef43;fill-opacity:1;stroke:#ec008c;stroke-width:0.264583px;stroke-linecap:butt;stroke-linejoin:miter;stroke-opacity:1"
         d="M 4.6567539,15.43043 4.8409193,15.08987 V 14.382441 L 5.1215522,14.218739 6.1739261,12.441396 5.6126602,10.03263 C 5.5737272,9.8398962 5.6254455,9.7535032 5.7295904,9.7286108 L 6.735192,9.5415221 8.41899,11.482567 c 0.086273,0.115507 0.1241227,0.266524 0.093544,0.467722 l -0.2104748,1.473323 -2.5958553,1.216076 0.046772,0.233861 -0.8185131,0.397563 -0.280633,0.163703 -3.90547584,-4.373197 0.17539565,-0.128624 -0.0350791,-0.38587 0.17539559,-0.09355 0.841899,-0.958829 -0.4326425,-1.6487189 4.197802,2.0345893"
         id="path86" /><path
         style="fill:#ffef43;fill-opacity:1;stroke:#ec008c;stroke-width:0.264583px;stroke-linecap:butt;stroke-linejoin:miter;stroke-opacity:1"
         d="M 4.747375,8.7347022 6.1037678,6.2323913 c 0.094858,-0.056495 0.1817901,-0.1248784 0.3975635,0 l 1.1926903,1.964431 c 0.047012,0.1413271 0.072853,0.2917275 0.011692,0.4794146 L 7.5303179,9.0270281"
         id="path127" /><path
         style="fill:#ffef43;fill-opacity:1;stroke:#ec008c;stroke-width:0.264583px;stroke-linecap:butt;stroke-linejoin:miter;stroke-opacity:1"
         d="M 1.4148581,7.7407936 2.4789248,7.7291016 6.735192,9.5766024"
         id="path88" /><path
         style="fill:#ffef43;fill-opacity:1;stroke:#ec008c;stroke-width:0.264583px;stroke-linecap:butt;stroke-linejoin:miter;stroke-opacity:1"
         d="M 5.5658879,9.0387214 6.5364103,7.1093694 7.3549231,8.395604 7.0625972,8.8516327"
         id="path123" /><path
         style="fill:#ffef43;fill-opacity:1;stroke:#ec008c;stroke-width:0.264583px;stroke-linecap:butt;stroke-linejoin:miter;stroke-opacity:1"
         d="M 7.9395753,9.2608891 6.0102233,8.407297"
         id="path124" /><path
         style="fill:#ffef43;fill-opacity:1;stroke:#ec008c;stroke-width:0.264583px;stroke-linecap:butt;stroke-linejoin:miter;stroke-opacity:1"
         d="M 7.6121701,9.8689273 5.7178974,8.8984046"
         id="path125" /><path
         style="fill:#ffef43;fill-opacity:1;stroke:#ec008c;stroke-width:0.264583px;stroke-linecap:butt;stroke-linejoin:miter;stroke-opacity:1"
         d="m 12.828728,8.715701 c -1.481308,-1.8879812 -3.8591743,1.449211 -2.033923,2.712169 0.272386,0.227368 0.531388,0.294707 0.801977,0.298123"
         id="path132" /><path
         style="fill:#ffef43;fill-opacity:1;stroke:#ec008c;stroke-width:0.264583px;stroke-linecap:butt;stroke-linejoin:miter;stroke-opacity:1"
         d="M 12.400424,8.4599157 C 13.16585,8.438024 13.259725,10.216529 12.523201,11.22532 10.640653,13.133683 10.698959,8.8951293 12.400424,8.4599157 Z"
         id="path129" /><path
         style="fill:#ffef43;fill-opacity:1;stroke:#ec008c;stroke-width:0.264583px;stroke-linecap:butt;stroke-linejoin:miter;stroke-opacity:1"
         d="M 7.8577241,10.757598 C 8.0518796,10.515277 8.2511001,10.284353 8.430683,10.009244 L 9.4596708,8.372218 c 0.144181,-0.130229 0.2882153,-0.2370989 0.5028007,-0.2923262 0.1246505,-0.015475 0.1897675,-0.059344 0.2446375,-0.097003 0.07972,-0.054716 0.11255,-0.1560349 0.19396,-0.3764569 0.26671,-0.7221256 1.507168,-1.6218859 2.154334,-2.2977914 0.0757,-0.3104448 0.0306,-0.3994165 -0.03215,-0.4560282 L 9.4128986,6.7936572 7.3900024,10.289877"
         id="path116" /><path
         style="display:inline;fill:#ffef43;fill-opacity:1;stroke:#ec008c;stroke-width:0.215462px;stroke-linecap:butt;stroke-linejoin:miter;stroke-opacity:1"
         d="m 16.071818,6.6233233 c 0.539183,-0.02061 0.60531,1.6537137 0.08648,2.6034114 -1.326105,1.7965753 -1.285033,-2.193692 -0.08648,-2.6034114 z"
         id="path129-2" /><path
         style="fill:#ffef43;fill-opacity:1;stroke:#ec008c;stroke-width:0.264583px;stroke-linecap:butt;stroke-linejoin:miter;stroke-opacity:1"
         d="m 8.842871,9.5249999 0.5539713,0.1943034 0.7524087,0.078548"
         id="path131" /><path
         style="fill:#ffef43;fill-opacity:1;stroke:#ec008c;stroke-width:0.264583px;stroke-linecap:butt;stroke-linejoin:miter;stroke-opacity:1"
         d="m 12.926658,8.8282464 1.572714,-0.3858702 -0.0058,-0.6080381 0.192935,-0.011692 C 15.31586,7.0643418 15.970251,5.1542414 16.557393,6.3376299 L 17.030961,6.3142429 17.533762,5.1624784 17.171278,4.9929291 16.639245,5.530809 16.376151,5.472344 16.194909,5.6009675"
         id="path133" /><path
         style="fill:#ffef43;fill-opacity:1;stroke:#ec008c;stroke-width:0.264583px;stroke-linecap:butt;stroke-linejoin:miter;stroke-opacity:1"
         d="m 15.486393,5.0477539 c 0.463171,0.2370539 0.681076,0.7420271 0.971517,1.1410156"
         id="path136" /><path
         style="fill:#ffef43;fill-opacity:1;stroke:#ec008c;stroke-width:0.264583px;stroke-linecap:butt;stroke-linejoin:miter;stroke-opacity:1"
         d="M 15.504973,5.063087 15.750527,2.0579753 13.961492,1.1926902 13.213137,7.4601606 14.078422,7.3666164 Z"
         id="path137" /><path
         style="fill:#ffef43;fill-opacity:1;stroke:#ec008c;stroke-width:0.264583px;stroke-linecap:butt;stroke-linejoin:miter;stroke-opacity:1"
         d="m 13.266374,8.7105793 0.02894,-0.5663737 -0.16123,-0.1860351 -1.44694,-0.2067058 -0.04961,0.3472657"
         id="path134" /><path
         style="fill:#ffef43;fill-opacity:1;stroke:#ec008c;stroke-width:0.264583px;stroke-linecap:butt;stroke-linejoin:miter;stroke-opacity:1"
         d="m 13.941531,1.1368189 -3.464566,0.6639095 -0.38587,2.8297161 2.361994,-0.035079 0.01169,2.7946371 0.671935,0.070746"
         id="path138" /><path
         style="fill:#ffef43;fill-opacity:1;stroke:#ec008c;stroke-width:0.264583px;stroke-linecap:butt;stroke-linejoin:miter;stroke-opacity:1"
         d="M 10.03263,4.6070586 7.2146066,6.0920748 7.0509042,7.1210624"
         id="path139" /><path
         style="fill:#ffef43;fill-opacity:1;stroke:#f0337c;stroke-width:0.264583px;stroke-linecap:butt;stroke-linejoin:miter;stroke-opacity:1"
         d="m 15.841927,2.0835937 0.06615,-0.057878 0.587044,-1.19062496 0.248047,0.23977866 -0.239779,2.9434895 0.04961,1.0996745 0.132291,0.3141927"
         id="path141" /><path
         style="fill:#ffef43;fill-opacity:1;stroke:#ec008c;stroke-width:0.264583px;stroke-linecap:butt;stroke-linejoin:miter;stroke-opacity:1"
         d="m 15.709635,3.9439453 0.09095,-0.1322917 0.413411,-1.1244792 0.04961,1.3477214 V 4.332552"
         id="path142" /><path
         style="fill:#ffef43;fill-opacity:1;stroke:#ec008c;stroke-width:0.264583px;stroke-linecap:butt;stroke-linejoin:miter;stroke-opacity:1"
         d="m 15.643489,4.3242838 0.79375,-0.00827"
         id="path143" /><path
         style="fill:#ffef43;fill-opacity:1;stroke:#ec008c;stroke-width:0.264583px;stroke-linecap:butt;stroke-linejoin:miter;stroke-opacity:1"
         d="M 7.2098957,6.135026 8.8470051,6.3996093"
         id="path145" /></g><path
       style="fill:none;stroke:#00b9f2;stroke-width:0.79375;stroke-linecap:butt;stroke-linejoin:miter;stroke-dasharray:none;stroke-opacity:1"
       d="m 20.857232,6.0225381 h 3.042943 L 25.159604,4.8023068 23.900175,3.5508786 h -3.042057 l -1.130256,1.2563636 z"
       id="path22-7-4" /><path
       style="display:inline;fill:none;stroke:#00b9f2;stroke-width:0.79375;stroke-linecap:butt;stroke-linejoin:miter;stroke-dasharray:none;stroke-opacity:1"
       d="m 26.936291,6.0253118 h 3.042943 L 31.238663,4.8050805 29.979234,3.5536523 h -3.042057 l -1.130256,1.2563636 z"
       id="path22-3-2-4" /><path
       style="display:inline;fill:none;fill-opacity:1;stroke:#ffea00;stroke-width:1.05833;stroke-miterlimit:10;stroke-dasharray:none;stroke-opacity:1"
       d="m 19.050224,9.8747798 h 6.746375"
       id="path13-2-6-3-7" /><path
       style="display:inline;fill:none;fill-opacity:1;stroke:#ffea00;stroke-width:1.05833;stroke-miterlimit:10;stroke-dasharray:none;stroke-opacity:1"
       d="m 19.050224,13.84353 h 6.746375"
       id="path14-7-1-1-8" /><path
       style="display:inline;fill:none;fill-opacity:1;stroke:#ffea00;stroke-width:1.05833;stroke-miterlimit:10;stroke-dasharray:none;stroke-opacity:1"
       d="M 19.575177,9.8486228 V 13.894528"
       id="path15-0-8-1-6" /><path
       style="display:inline;fill:none;fill-opacity:1;stroke:#ffea00;stroke-width:1.05833;stroke-miterlimit:10;stroke-dasharray:none;stroke-opacity:1"
       d="M 22.423186,9.8486228 V 13.894528"
       id="path15-9-7-0-8" /><path
       style="display:inline;fill:none;fill-opacity:1;stroke:#ffea00;stroke-width:1.05833;stroke-miterlimit:10;stroke-dasharray:none;stroke-opacity:1"
       d="M 25.271195,9.8486228 V 13.894528"
       id="path15-94-9-3-8" /><path
       style="display:inline;fill:none;fill-opacity:1;stroke:#ffea00;stroke-width:1.05833;stroke-miterlimit:10;stroke-dasharray:none;stroke-opacity:1"
       d="m 25.545144,9.8696658 h 6.746375"
       id="path13-2-6-9-4" /><path
       style="display:inline;fill:none;fill-opacity:1;stroke:#ffea00;stroke-width:1.05833;stroke-miterlimit:10;stroke-dasharray:none;stroke-opacity:1"
       d="m 25.545144,13.838416 h 6.746375"
       id="path14-7-1-19-3" /><path
       style="display:inline;fill:none;fill-opacity:1;stroke:#ffea00;stroke-width:1.05833;stroke-miterlimit:10;stroke-dasharray:none;stroke-opacity:1"
       d="M 28.918106,9.8435088 V 13.889414"
       id="path15-9-7-3-1" /><path
       style="display:inline;fill:none;fill-opacity:1;stroke:#ffea00;stroke-width:1.05833;stroke-miterlimit:10;stroke-dasharray:none;stroke-opacity:1"
       d="M 31.766115,9.8435088 V 13.889414"
       id="path15-94-9-38-4" /><path
       style="display:inline;fill:none;fill-opacity:1;stroke:#ffea00;stroke-width:1.05833;stroke-miterlimit:10;stroke-dasharray:none;stroke-opacity:1"
       d="M 31.791712,9.8486228 V 13.894528"
       id="path15-0-8-1-0-0" /></g></svg>
