<?xml version="1.0" encoding="UTF-8" standalone="no"?>
<!-- Created with Inkscape (http://www.inkscape.org/) -->

<svg
   width="128"
   height="64"
   viewBox="0 0 33.866666 16.933333"
   version="1.1"
   id="svg1"
   inkscape:version="1.3.1 (91b66b0783, 2023-11-16)"
   sodipodi:docname="filter-prbs.svg"
   inkscape:export-filename="filter-prbs.png"
   inkscape:export-xdpi="96"
   inkscape:export-ydpi="96"
   xmlns:inkscape="http://www.inkscape.org/namespaces/inkscape"
   xmlns:sodipodi="http://sodipodi.sourceforge.net/DTD/sodipodi-0.dtd"
   xmlns="http://www.w3.org/2000/svg"
   xmlns:svg="http://www.w3.org/2000/svg">
  <sodipodi:namedview
     id="namedview1"
     pagecolor="#ffffff"
     bordercolor="#000000"
     borderopacity="0.25"
     inkscape:showpageshadow="2"
     inkscape:pageopacity="0.0"
     inkscape:pagecheckerboard="0"
     inkscape:deskcolor="#d1d1d1"
     inkscape:document-units="mm"
     inkscape:zoom="8.4359982"
     inkscape:cx="67.093424"
     inkscape:cy="33.487442"
     inkscape:window-width="1920"
     inkscape:window-height="1051"
     inkscape:window-x="-9"
     inkscape:window-y="-9"
     inkscape:window-maximized="1"
     inkscape:current-layer="layer1"
     showguides="false" />
  <defs
     id="defs1" />
  <g
     inkscape:label="Layer 1"
     inkscape:groupmode="layer"
     id="layer1">
    <path
       style="fill:none;stroke:#00b9f2;stroke-width:1.3664;stroke-miterlimit:10;stroke-dasharray:none;stroke-opacity:1"
       d="m 1.9769648,6.8820973 c 0.9145247,-6.05806899 1.7170615,-6.46882545 2.3831739,0 2.8120035,15.5653427 4.9787545,3.8932207 7.3297863,0 0.52112,-0.9028241 1.104802,-0.6358457 1.708213,0 0.54555,0.6855621 0.810093,0.2565771 1.118103,0 2.58181,-9.8610527 2.860609,-0.7596889 4.192886,0 0.400742,0.2647578 0.737457,0.148719 1.055987,0 2.849971,-3.9010576 2.799133,-2.4669956 3.882301,0 0.901575,3.2875077 2.011895,5.7166427 4.223945,0 1.074228,-2.1624602 2.103053,-4.7930186 4.061444,0"
       id="path1"
       sodipodi:nodetypes="cccccccccc" />
    <path
       style="fill:none;stroke:#ffea00;stroke-width:1.5875;stroke-miterlimit:10;stroke-dasharray:none;stroke-opacity:1"
       d="m 7.0193796,10.908529 c 1.985356,1.529824 3.1705424,2.83441 4.2737554,4.115921 C 16.325446,9.6334815 21.565602,5.368754 26.851526,1.3520258"
       id="path2"
       sodipodi:nodetypes="ccc" />
  </g>
</svg>
