<?xml version="1.0" encoding="UTF-8" standalone="no"?>
<!-- Created with Inkscape (http://www.inkscape.org/) -->

<svg
   width="127.99999"
   height="63.999996"
   viewBox="0 0 33.866664 16.933332"
   version="1.1"
   id="svg1"
   xml:space="preserve"
   xmlns="http://www.w3.org/2000/svg"
   xmlns:svg="http://www.w3.org/2000/svg"><defs
     id="defs1"><linearGradient
       id="swatch18"><stop
         style="stop-color:#ffeb00;stop-opacity:0.87843137;"
         offset="0"
         id="stop18" /></linearGradient><linearGradient
       id="swatch1"><stop
         style="stop-color:#ffea00;stop-opacity:1;"
         offset="0"
         id="stop1" /></linearGradient></defs><g
     id="layer1"
     style="display:inline"><g
       id="g1"><g
         id="g37"
         style="stroke:#ffea00;stroke-opacity:0.989478"><g
           id="g36"
           style="stroke:#ffea00;stroke-width:0.529167;stroke-dasharray:none;stroke-opacity:0.989478"><path
             style="fill:none;stroke:#ffea00;stroke-width:0.529167;stroke-linecap:butt;stroke-linejoin:miter;stroke-dasharray:none;stroke-opacity:0.989478"
             d="m 9.7766239,6.5438404 0.017584,4.9165266 3.3267401,-2.46932 z"
             id="path35" /></g><path
           style="fill:none;stroke:#ffea00;stroke-width:0.529167;stroke-linecap:butt;stroke-linejoin:miter;stroke-dasharray:none;stroke-opacity:0.989478"
           d="M 9.6734129,9.0109409 5.7613324,9.0290861"
           id="path36" /><path
           style="display:inline;fill:none;stroke:#ffea00;stroke-width:0.529167;stroke-linecap:butt;stroke-linejoin:miter;stroke-dasharray:none;stroke-opacity:0.989478"
           d="m 16.932583,8.965522 -3.91208,0.018145"
           id="path36-9" /></g><path
         style="fill:none;stroke:#02bcf5;stroke-width:1;stroke-linecap:butt;stroke-linejoin:miter;stroke-dasharray:none;stroke-opacity:0.991751"
         d="m 22.133691,3.5000231 -0.0014,8.0254379"
         id="path37" /><path
         style="display:inline;fill:none;stroke:#02bcf5;stroke-width:1;stroke-linecap:butt;stroke-linejoin:miter;stroke-dasharray:none;stroke-opacity:0.991751"
         d="m 24.633691,3.5000231 -0.0014,8.0254379"
         id="path37-8" /><path
         style="fill:none;stroke:#02bcf5;stroke-width:1;stroke-linecap:butt;stroke-linejoin:miter;stroke-dasharray:none;stroke-opacity:0.991751"
         d="m 22.137588,3.5748949 c 0.01011,-1.750902 2.144954,-2.5625379 2.499187,-0.00397"
         id="path38" /><path
         style="color:#000000;fill:#ffea00;fill-opacity:0.823529;stroke:#02bcf5;stroke-width:1;stroke-dasharray:none;stroke-opacity:0.991751"
         d="m 22.232422,10.972656 -0.169922,0.04102 c -0.680871,0.165887 -1.229439,0.453844 -1.587891,0.835937 -0.358451,0.382094 -0.516585,0.890166 -0.353515,1.375 0.163069,0.484835 0.585813,0.859779 1.130859,1.123047 0.545047,0.263269 1.226326,0.419038 1.960938,0.431641 0.734612,0.0126 1.427327,-0.118701 1.996093,-0.361328 0.568767,-0.242627 1.022736,-0.598687 1.234375,-1.070313 0.21164,-0.471626 0.110819,-0.990913 -0.210937,-1.390625 -0.321756,-0.399712 -0.843915,-0.706982 -1.507813,-0.896484 l -0.160156,-0.04687 -0.109375,0.125 -1.130859,1.269531 z m -0.1875,0.628907 1.246094,1.638671 1.419921,-1.595703 c 0.493995,0.168357 0.906409,0.39239 1.109375,0.644532 0.22692,0.281898 0.273723,0.54715 0.140625,0.84375 -0.133097,0.296599 -0.470895,0.590617 -0.958984,0.798828 -0.488089,0.208211 -1.11602,0.329772 -1.78125,0.318359 -0.665229,-0.01141 -1.276664,-0.155936 -1.738281,-0.378906 -0.461618,-0.222971 -0.760559,-0.520656 -0.859375,-0.814453 -0.09882,-0.293798 -0.02388,-0.564294 0.238281,-0.84375 0.233938,-0.249368 0.671913,-0.459542 1.183594,-0.611328 z"
         id="path39" /><path
         style="fill:#ff0000;fill-opacity:1;stroke:#ea0000;stroke-width:1.35843;stroke-dasharray:none;stroke-opacity:1"
         id="path40"
         d="m 23.977642,12.640533 a 1.5827668,0.26305434 0 0 1 0.82132,0.299626 1.5827668,0.26305434 0 0 1 -1.582022,0.198181 1.5827668,0.26305434 0 0 1 -1.506891,-0.213743 1.5827668,0.26305434 0 0 1 0.929009,-0.290808 l 0.625838,0.241617 z" /><rect
         style="fill:#ff0000;fill-opacity:1;stroke:#ea0000;stroke-width:0.905614;stroke-dasharray:none;stroke-opacity:1"
         id="rect40"
         width="0.69677609"
         height="5.3274508"
         x="23.016434"
         y="6.8779845" /></g></g></svg>
