<?xml version="1.0" encoding="UTF-8" standalone="no"?>
<!-- Created with Inkscape (http://www.inkscape.org/) -->

<svg
   width="127.99999"
   height="63.999996"
   viewBox="0 0 33.866664 16.933332"
   version="1.1"
   id="svg1"
   xml:space="preserve"
   xmlns="http://www.w3.org/2000/svg"
   xmlns:svg="http://www.w3.org/2000/svg"><defs
     id="defs1"><linearGradient
       id="swatch1"><stop
         style="stop-color:#ffea00;stop-opacity:1;"
         offset="0"
         id="stop1" /></linearGradient></defs><g
     id="layer1"
     style="display:inline"><g
       id="g20"
       transform="translate(-19.37121,71.123314)"
       style="fill:none"><rect
         style="display:inline;fill:none;fill-opacity:1;stroke-width:0.264583"
         id="rect1-56-4"
         width="33.866665"
         height="16.933332"
         x="19.37121"
         y="-71.123314" /><path
         style="display:inline;fill:none;fill-opacity:1;stroke:#00b9f2;stroke-width:0.661458;stroke-linecap:butt;stroke-linejoin:miter;stroke-dasharray:none;stroke-opacity:1"
         d="m 27.008314,-56.718729 0.008,-11.982657 7.0996,0.08369 1.69007,2.121565 0.0581,9.780482 z"
         id="path16-5" /><path
         style="fill:none;fill-opacity:1;stroke:#20908c;stroke-width:0.899448;stroke-linecap:butt;stroke-linejoin:miter;stroke-dasharray:none;stroke-opacity:1"
         d="m 28.382609,-68.367202 0.01335,1.518186"
         id="path3" /><path
         style="display:inline;fill:none;fill-opacity:1;stroke:#20908c;stroke-width:0.899448;stroke-linecap:butt;stroke-linejoin:miter;stroke-dasharray:none;stroke-opacity:1"
         d="m 29.782609,-68.367565 0.01335,1.518186"
         id="path3-2" /><path
         style="display:inline;fill:none;fill-opacity:1;stroke:#20908c;stroke-width:0.899448;stroke-linecap:butt;stroke-linejoin:miter;stroke-dasharray:none;stroke-opacity:1"
         d="m 31.182609,-68.367565 0.01335,1.518186"
         id="path3-7" /><path
         style="display:inline;fill:none;fill-opacity:1;stroke:#20908c;stroke-width:0.899448;stroke-linecap:butt;stroke-linejoin:miter;stroke-dasharray:none;stroke-opacity:1"
         d="m 32.582609,-68.367565 0.01335,1.518186"
         id="path3-6" /><path
         style="fill:none;fill-opacity:1;stroke:#ffea00;stroke-width:0.249684px;stroke-linecap:butt;stroke-linejoin:miter;stroke-opacity:1"
         d="m 37.333176,-63.658599 3.373015,-0.0074 -0.0061,-1.599607 1.219894,0.01038 -0.02615,1.590118 3.867789,-0.01944 -0.02043,-1.423745 0.83247,-0.02817 0.01147,1.401411 2.918354,0.02429"
         id="path4" /><path
         style="fill:none;fill-opacity:1;stroke:#ffea00;stroke-width:0.26248px;stroke-linecap:butt;stroke-linejoin:miter;stroke-opacity:1"
         d="m 37.335934,-61.802648 1.054427,-0.02437 -0.0057,-1.228361 0.785268,0.02866 -0.0011,1.136538 10.343246,-0.06408"
         id="path6" /><path
         style="fill:none;fill-opacity:1;stroke:#ffea00;stroke-width:0.264583px;stroke-linecap:butt;stroke-linejoin:miter;stroke-opacity:1"
         d="m 37.333953,-59.782234 7.158684,-0.05688 -0.01599,-1.218007 1.13699,0.01773 -0.01438,1.25689 3.925677,-0.05487"
         id="path7" /><path
         style="fill:none;fill-opacity:1;stroke:#ffea00;stroke-width:0.2514px;stroke-linecap:butt;stroke-linejoin:miter;stroke-opacity:1"
         d="m 37.333854,-57.796086 3.485966,-0.02641 -0.03594,-1.236532 1.305987,-0.0062 0.0148,1.296701 7.426978,-0.05599"
         id="path16" /></g></g></svg>
