<?xml version="1.0" encoding="UTF-8" standalone="no"?>
<!-- Created with Inkscape (http://www.inkscape.org/) -->

<svg
   width="127.99999"
   height="63.999996"
   viewBox="0 0 33.866664 16.933332"
   version="1.1"
   id="svg1"
   xml:space="preserve"
   xmlns="http://www.w3.org/2000/svg"
   xmlns:svg="http://www.w3.org/2000/svg"><defs
     id="defs1"><linearGradient
       id="swatch18"><stop
         style="stop-color:#ffeb00;stop-opacity:0.87843137;"
         offset="0"
         id="stop18" /></linearGradient><linearGradient
       id="swatch1"><stop
         style="stop-color:#ffea00;stop-opacity:1;"
         offset="0"
         id="stop1" /></linearGradient><style
       id="style1">.c{fill:#ec008c;}.c,.d{stroke-width:0px;}.d{fill:#00b9f2;}</style><linearGradient
       id="swatch16"><stop
         style="stop-color:#00b9f2;stop-opacity:1;"
         offset="0"
         id="stop17" /></linearGradient><style
       id="style1-0">.c{fill:#ec008c;}.c,.d{stroke-width:0px;}.d{fill:#00b9f2;}</style><style
       id="style1-9">.c{fill:#ec008c;}.c,.d{stroke-width:0px;}.d{fill:#00b9f2;}</style></defs><g
     id="layer1"
     style="display:inline"><path
       style="display:inline;fill:none;stroke:#ffea00;stroke-width:0.659103;stroke-linecap:butt;stroke-linejoin:miter;stroke-dasharray:none;stroke-opacity:1"
       d="M 0.79375336,15.322282 H 3.7871724 v -5.13699 h 9.6350706 v 5.13699 h 6.17392 v -5.13699 h 8.79317 v 5.13699 h 4.02241"
       id="path96-6-1" /><path
       style="display:inline;fill:none;stroke:#00b9f2;stroke-width:0.659103;stroke-linecap:butt;stroke-linejoin:miter;stroke-dasharray:none;stroke-opacity:1"
       d="m 0.99218733,8.1123758 c 1.05228607,0.24515 2.11249107,0.52595 2.99342007,0 1.21957,-1.10435 1.70342,-4.2650796 2.38125,-5.2031398 0.82656,-1.20886 2.58574,-3.60970996 5.3025196,0.7937502 0.45376,0.47892 1.16831,3.4112596 1.75286,4.1778796 0.69594,0.99653 3.59751,1.51046 5.87627,0.19844 0.76271,-0.70613 0.0219,-4.3543496 2.05052,-5.4346498 2.6869,-2.52103996 4.71215,-0.73214 5.41973,0.9260402 0.26831,0.91604 0.49044,3.6014096 1.81901,4.5416796 1.06557,0.82569 2.68158,7e-5 4.02241,0"
       id="path96-6-1-7" /></g></svg>
