<?xml version="1.0" encoding="UTF-8" standalone="no"?>
<!-- Created with Inkscape (http://www.inkscape.org/) -->

<svg
   width="127.99999"
   height="63.999996"
   viewBox="0 0 33.866664 16.933332"
   version="1.1"
   id="svg1"
   xml:space="preserve"
   xmlns="http://www.w3.org/2000/svg"
   xmlns:svg="http://www.w3.org/2000/svg"><defs
     id="defs1"><linearGradient
       id="swatch18"><stop
         style="stop-color:#ffeb00;stop-opacity:0.87843137;"
         offset="0"
         id="stop18" /></linearGradient><linearGradient
       id="swatch1"><stop
         style="stop-color:#ffea00;stop-opacity:1;"
         offset="0"
         id="stop1" /></linearGradient><style
       id="style1">.c{fill:#ec008c;}.c,.d{stroke-width:0px;}.d{fill:#00b9f2;}</style><linearGradient
       id="swatch16"><stop
         style="stop-color:#00b9f2;stop-opacity:1;"
         offset="0"
         id="stop17" /></linearGradient><style
       id="style1-0">.c{fill:#ec008c;}.c,.d{stroke-width:0px;}.d{fill:#00b9f2;}</style><style
       id="style1-9">.c{fill:#ec008c;}.c,.d{stroke-width:0px;}.d{fill:#00b9f2;}</style><style
       id="style1-94">.c{fill:#ec008c;}.c,.d{stroke-width:0px;}.d{fill:#00b9f2;}</style><style
       id="style1-7">.c{fill:#ec008c;}.c,.d{stroke-width:0px;}.d{fill:#00b9f2;}</style><style
       id="style1-6">.c{fill:#ec008c;}.c,.d{stroke-width:0px;}.d{fill:#00b9f2;}</style><style
       id="style1-0-2">.c{fill:#ec008c;}.c,.d{stroke-width:0px;}.d{fill:#00b9f2;}</style><style
       id="style1-9-6">.c{fill:#ec008c;}.c,.d{stroke-width:0px;}.d{fill:#00b9f2;}</style><style
       id="style1-94-1">.c{fill:#ec008c;}.c,.d{stroke-width:0px;}.d{fill:#00b9f2;}</style><style
       id="style1-7-8">.c{fill:#ec008c;}.c,.d{stroke-width:0px;}.d{fill:#00b9f2;}</style><style
       id="style1-73">.c{fill:#ec008c;}.c,.d{stroke-width:0px;}.d{fill:#00b9f2;}</style><style
       id="style1-0-9">.c{fill:#ec008c;}.c,.d{stroke-width:0px;}.d{fill:#00b9f2;}</style><style
       id="style1-9-3">.c{fill:#ec008c;}.c,.d{stroke-width:0px;}.d{fill:#00b9f2;}</style><style
       id="style1-94-19">.c{fill:#ec008c;}.c,.d{stroke-width:0px;}.d{fill:#00b9f2;}</style><style
       id="style1-7-4">.c{fill:#ec008c;}.c,.d{stroke-width:0px;}.d{fill:#00b9f2;}</style><style
       id="style1-69">.c{fill:#ec008c;}.c,.d{stroke-width:0px;}.d{fill:#00b9f2;}</style><style
       id="style1-0-4">.c{fill:#ec008c;}.c,.d{stroke-width:0px;}.d{fill:#00b9f2;}</style><style
       id="style1-9-5">.c{fill:#ec008c;}.c,.d{stroke-width:0px;}.d{fill:#00b9f2;}</style><style
       id="style1-94-2">.c{fill:#ec008c;}.c,.d{stroke-width:0px;}.d{fill:#00b9f2;}</style><style
       id="style1-7-5">.c{fill:#ec008c;}.c,.d{stroke-width:0px;}.d{fill:#00b9f2;}</style><style
       id="style1-1">.c{fill:#ec008c;}.c,.d{stroke-width:0px;}.d{fill:#00b9f2;}</style><style
       id="style1-0-7">.c{fill:#ec008c;}.c,.d{stroke-width:0px;}.d{fill:#00b9f2;}</style><style
       id="style1-9-2">.c{fill:#ec008c;}.c,.d{stroke-width:0px;}.d{fill:#00b9f2;}</style><style
       id="style1-94-26">.c{fill:#ec008c;}.c,.d{stroke-width:0px;}.d{fill:#00b9f2;}</style><style
       id="style1-7-1">.c{fill:#ec008c;}.c,.d{stroke-width:0px;}.d{fill:#00b9f2;}</style><style
       id="style1-09">.c{fill:#ec008c;}.c,.d{stroke-width:0px;}.d{fill:#00b9f2;}</style><style
       id="style1-0-8">.c{fill:#ec008c;}.c,.d{stroke-width:0px;}.d{fill:#00b9f2;}</style><style
       id="style1-9-56">.c{fill:#ec008c;}.c,.d{stroke-width:0px;}.d{fill:#00b9f2;}</style><style
       id="style1-94-11">.c{fill:#ec008c;}.c,.d{stroke-width:0px;}.d{fill:#00b9f2;}</style><style
       id="style1-7-59">.c{fill:#ec008c;}.c,.d{stroke-width:0px;}.d{fill:#00b9f2;}</style></defs><g
     id="layer1"
     style="display:inline"><path
       style="display:inline;fill:none;stroke:#00b9f2;stroke-width:0.727469;stroke-miterlimit:10;stroke-dasharray:none;stroke-opacity:1"
       d="M 8.8808281,5.9061409 C 9.1606345,5.1293301 9.3567539,4.0484624 9.6365602,3.5221 9.9163666,2.9957459 10.267932,3.3875688 10.547738,3.4514086 c 0.279806,0.063831 0.679194,-0.022337 0.959001,0.5904615 0.279816,0.6128152 0.02149,1.6727514 0.301353,2.439013 0.279816,0.7662699 0.990085,1.3599523 1.269901,1.7851131 0.279807,0.4251273 0.559613,0.5631301 0.839429,0.3727236 0.279817,-0.1903732 0.344407,-1.5276206 0.624173,-2.2106336 0.279816,-0.6830464 0.858576,-0.5916077 1.138392,-1.3264387 0.279817,-0.7348143 0.717616,-7.3732967 1.595161,-1.7769063 0.06052,0.3860045 0.428103,0.9979872 0.707919,1.7326007 0.279766,0.7346135 0.798735,1.2190798 1.078552,1.9024442 0.279816,0.6833141 0.487894,1.4657886 0.76771,1.656781 0.279816,0.1910257 0.475886,-0.3912206 0.755702,-0.8158041 0.279816,-0.424617 0.571601,-1.3069547 0.851417,-2.0731075 0.279817,-0.7661611 0.979435,0.1511106 1.259201,-0.4620977 0.279827,-0.6132084 0.199622,-2.1706013 0.479448,-2.2350685 0.279817,-0.064501 0.284606,0.6303666 0.564382,1.1562439 0.279816,0.5258856 0.810744,0.9426136 1.09056,1.7194244"
       title="sin(x)*3.5"
       id="path1-7-5-6-1" /><path
       style="fill:none;stroke:#ffea00;stroke-width:0.79375;stroke-linecap:butt;stroke-linejoin:miter;stroke-dasharray:none;stroke-opacity:1"
       d="M 8.3343749,12.865364 C 9.2200766,9.8314852 10.211511,8.4255696 11.6007,12.374852 c 0.602834,1.713776 2.532095,4.233562 2.686797,2.375544 0.395052,-4.744698 2.642184,-6.1909683 3.440794,-4.254884 1.858917,4.506607 3.638915,5.812569 4.20843,4.075702 1.883078,-5.742878 3.210042,-2.508648 3.992445,-1.70585"
       id="path150" /></g></svg>
