<?xml version="1.0" encoding="UTF-8" standalone="no"?>
<!-- Created with Inkscape (http://www.inkscape.org/) -->

<svg
   width="127.99999"
   height="63.999996"
   viewBox="0 0 33.866664 16.933332"
   version="1.1"
   id="svg1"
   xml:space="preserve"
   xmlns="http://www.w3.org/2000/svg"
   xmlns:svg="http://www.w3.org/2000/svg"><defs
     id="defs1"><linearGradient
       id="swatch1"><stop
         style="stop-color:#ffea00;stop-opacity:1;"
         offset="0"
         id="stop1" /></linearGradient></defs><g
     id="layer1"
     style="display:inline"><g
       id="g4"
       style="fill:none"><rect
         style="display:inline;fill:none;fill-opacity:1;stroke-width:0.264583"
         id="rect1-6"
         width="33.866665"
         height="16.933332"
         x="-1.3877788e-17"
         y="0" /><path
         style="fill:none;fill-opacity:1;stroke:#3dbb74;stroke-width:0.494465;stroke-linecap:butt;stroke-linejoin:miter;stroke-dasharray:none;stroke-opacity:1"
         d="m 4.114274,6.0276438 0.0058,5.1026592"
         id="path8-6" /><path
         style="fill:none;fill-opacity:1;stroke:#3dbb74;stroke-width:0.449514;stroke-linecap:butt;stroke-linejoin:miter;stroke-dasharray:none;stroke-opacity:1"
         d="m 13.245726,6.1907415 -0.04436,9.7481375"
         id="path9-3" /><path
         style="fill:none;fill-opacity:1;stroke:#26818e;stroke-width:0.449514;stroke-linecap:butt;stroke-linejoin:miter;stroke-dasharray:none;stroke-opacity:1"
         d="m 9.156994,6.245194 -0.02897,3.843512"
         id="path10-2" /><path
         style="fill:none;fill-opacity:1;stroke:#26818e;stroke-width:0.449514;stroke-linecap:butt;stroke-linejoin:miter;stroke-dasharray:none;stroke-opacity:1"
         d="m 9.126265,13.313339 0.031,2.850638"
         id="path11-0" /><path
         style="fill:none;fill-opacity:1;stroke:#26818e;stroke-width:0.449514;stroke-linecap:butt;stroke-linejoin:miter;stroke-dasharray:none;stroke-opacity:1"
         d="m 20.754851,11.912713 0.04864,3.936658"
         id="path12-6" /><path
         style="fill:none;fill-opacity:1;stroke:#3dbb74;stroke-width:0.449514;stroke-linecap:butt;stroke-linejoin:miter;stroke-dasharray:none;stroke-opacity:1"
         d="m 16.879096,9.8799524 -0.01958,4.0653916"
         id="path13-1" /><path
         style="fill:none;fill-opacity:1;stroke:#26ac81;stroke-width:0.449514;stroke-linecap:butt;stroke-linejoin:miter;stroke-dasharray:none;stroke-opacity:1"
         d="m 25.24824,5.3033448 0.0092,2.1440978"
         id="path14-5" /><path
         style="fill:none;fill-opacity:1;stroke:#3dbb74;stroke-width:0.449963;stroke-linecap:butt;stroke-linejoin:miter;stroke-dasharray:none;stroke-opacity:1"
         d="m 29.755079,7.6022995 -0.06281,5.2241135"
         id="path15-5" /><path
         style="fill:none;fill-opacity:1;stroke:#00b9f2;stroke-width:0.511471;stroke-dasharray:none;stroke-opacity:1"
         d="M 1.1585398,4.7315547 C 1.3836773,4.6437916 1.5326807,4.5379744 1.6963047,4.361794 1.7780662,4.2737585 1.9169156,4.093169 1.9545485,3.9739252 c 0.014415,-0.045674 -0.027432,-0.1355933 0,-0.1694243 0.030343,-0.037422 0.2171251,-0.1134563 0.236985,-0.1325523 0.048788,-0.046912 0.075841,-0.1509834 0.1549012,-0.166788 0.1649929,-0.032983 0.4576579,0.7254638 0.5762391,0.8023212 0.158905,0.1029933 0.3285419,0.1052241 0.5102322,0.1372641 0.1298832,0.022904 0.2733651,0.1233825 0.3909314,0.059678 C 3.9546834,4.4335248 3.9605186,4.211268 3.9810508,4.0809434 4.0138807,3.8725582 4.0889848,3.6857246 4.1129273,3.4831221 4.1428278,3.2301039 4.0011958,3.1197287 4.3185921,3.0265232 4.5163904,2.9684376 4.4981196,2.9253529 4.7549676,2.9439653 4.9194552,2.9558859 5.0135017,3.2309945 5.13999,3.3027444 c 0.069555,0.039454 0.2159592,0.095273 0.2372908,0.2050017 0.016993,0.087411 0.00312,0.7737582 0.048973,0.7737582 0.1484265,0 0.3292441,-0.4672248 0.388654,-0.5063619 0.041595,-0.027401 0.046681,0.4004897 0.1683979,0.2662994 0.055472,-0.061156 0.1501844,-0.4317286 0.2507843,-0.4317286 0.068088,0 0.1297512,0.051502 0.1977587,0.055067 0.3090239,0.016195 0.6714884,-0.092502 0.963377,0.052901 0.1630321,0.081214 0.2574387,0.2119586 0.3721719,0.3407722 0.043198,0.048498 0.1994111,-0.034497 0.262858,0.024531 0.053013,0.04932 0.1371353,0.2508824 0.2054554,0.2765064 C 8.2720817,4.3731329 8.79455,3.8019304 8.8623516,3.836971 9.0734367,3.9460629 9.0269114,4.3585297 9.2294973,4.5062782 9.3681511,4.6074 10.041785,4.2442237 10.130387,4.2032026 c 0.408536,-0.189146 0.879462,0.1562678 1.273475,0.025181 0.03088,-0.010275 0.04411,-0.051063 0.06856,-0.073827 0.125768,-0.1170993 0.258364,-0.2258187 0.380343,-0.3474742 0.03138,-0.031297 0.04411,-0.1401421 0.07692,-0.1105996 0.01862,0.01676 -0.0089,0.1658632 0,0.1858695 0.03489,0.078638 0.257686,0.00904 0.302215,-0.00161 0.325752,-0.077945 0.303556,-0.031089 0.558665,0.1651156 0.110495,0.084983 0.518374,2.192e-4 0.589914,-0.029163 0.181504,-0.074548 0.347324,-0.1896529 0.508958,-0.3056787 0.02004,-0.014391 0.02703,-0.054195 0.05112,-0.055039 0.101009,-0.00354 0.0042,0.3798332 0.09728,0.3261318 0.10403,-0.060076 0.199924,-0.1355599 0.295547,-0.2100927 0.05705,-0.04447 0.09488,-0.1226087 0.161775,-0.1463593 0.112775,-0.040042 0.194609,0.1553177 0.308323,0.1921449 0.251362,0.081404 0.626642,-0.041433 0.851419,-0.1335755 0.04956,-0.020316 0.0296,0.165429 0.09838,0.15813 0.318278,-0.033774 0.65767,-0.076607 0.971496,-0.139753 0.04522,-0.0091 0.213652,-0.153396 0.255579,-0.1100773 0.06672,0.068931 0.07435,0.4593484 0.156022,0.4433131 0.400064,-0.078548 0.413613,-0.8369395 0.503301,-1.0677063 0.03763,-0.096822 0.09111,-0.1858751 0.129021,-0.2825676 0.0176,-0.0449 0.013,-0.1665487 0.04863,-0.1365101 0.111303,0.093802 0.278962,0.5104131 0.38332,0.6349976 0.320659,0.382812 0.444412,0.2801266 0.833494,0.3845844 0.12935,0.034727 0.265376,0.1291508 0.382422,0.192296 0.02332,0.012584 0.110495,-0.00399 0.124964,0 0.03955,0.010914 0.0447,0.074378 0.07372,0.1053095 0.03896,0.041551 0.09595,0.063097 0.12852,0.1106013 0.157661,0.2299244 0.157074,0.5162685 0.34499,0.7230631 0.08397,0.092412 0.454614,-0.049568 0.52348,-0.089551 0.240181,-0.1394406 0.429519,-0.3714251 0.67475,-0.5034409 0.231981,-0.124884 0.558873,-0.144062 0.798563,-0.2413869 0.152465,-0.061908 0.229578,-0.1617198 0.366036,-0.2445675 0.07025,-0.042654 0.138369,-0.028031 0.205049,-0.055038 0.270578,-0.1095855 0.304292,-0.6657731 0.385441,-0.898121 0.004,-0.011616 0.02163,0.014296 0.02445,0.026328 0.01741,0.074064 -0.0071,0.2527888 0.07667,0.297912 0.06206,0.033416 0.411085,0.022849 0.450176,0.027519 0.400799,0.047907 0.929453,-0.061463 1.299797,0.058065 0.113518,0.036638 0.230728,0.2022544 0.291041,0.2864309 0.08952,0.1249319 0.316966,0.4952729 0.387108,0.5668789 0.120695,0.1232113 1.006895,-0.1539948 1.162755,-0.2529076 0.188628,-0.1197071 0.278007,0.1878757 0.369762,0.2514915 0.04376,0.030342 0.33409,0.00348 0.383369,-0.027519 0.846397,-0.5324978 0.404483,-0.3678487 1.124155,-0.7233907 0.09924,-0.049026 0.510089,0 0.608337,0 0.383046,0 0.780273,-0.074416 1.161276,0.00396 0.0547,0.011254 0.105176,0.03971 0.158783,0.055964 0.03838,0.011637 0.089,-0.015146 0.125842,0 0.04368,0.017957 -0.0013,0.2369705 0.01503,0.3531284 0.02125,0.1510978 0.112784,0.2377467 0.220462,0.3265333 0.05639,0.046488 0.281477,-0.013427 0.347897,0 0.160279,0.032405 0.25246,0.1754472 0.411116,0.1944285 0.127683,0.015273 0.257776,-0.026224 0.381191,0.026933 0.196031,0.084433 0.336111,0.3980254 0.572683,0.3980254"
         id="path4" /></g></g></svg>
