<?xml version="1.0" encoding="UTF-8" standalone="no"?>
<!-- Created with Inkscape (http://www.inkscape.org/) -->

<svg
   width="128"
   height="64"
   viewBox="0 0 33.866666 16.933333"
   version="1.1"
   id="svg1"
   xmlns="http://www.w3.org/2000/svg"
   xmlns:svg="http://www.w3.org/2000/svg">
  <defs
     id="defs1" />
  <g
     id="layer1">
    <path
       style="fill:none;stroke:#00b9f2;stroke-width:1.05833333;stroke-miterlimit:10;stroke-dasharray:none;stroke-opacity:1"
       d="M 0.76970734,8.4681566 C 1.3367041,6.4525762 1.9037067,4.4528039 2.4706996,3.0870756 3.0377022,1.7213475 3.6046951,1.0135255 4.1716978,1.1791402 4.7386905,1.3447549 5.3056834,2.3857471 5.872686,3.97581 c 0.5669928,1.5900629 1.1339954,3.7079657 1.7009883,5.6961821 0.5670026,1.9882269 1.1339955,3.8160609 1.7009981,4.9192249 0.5669928,1.103064 1.1339846,1.461147 1.7009976,0.967094 0.567012,-0.493952 1.134025,-1.836839 1.700939,-3.609045 0.567012,-1.772306 1.134025,-3.9493187 1.701038,-5.8559635 0.567012,-1.9066347 1.134025,-3.5126958 1.701037,-4.3231101 0.566914,-0.81040833 1.133927,-0.80888255 1.700939,0 0.567013,0.8088835 1.134026,2.4170156 1.701038,4.3231101 0.566914,1.9060945 1.133927,4.0828565 1.700939,5.8559635 0.567012,1.773006 1.134024,3.113492 1.701037,3.609045 0.567012,0.495654 1.133926,0.134568 1.700939,-0.967094 0.567013,-1.101763 1.134025,-2.931299 1.701038,-4.9192249 0.567012,-1.9879463 1.134025,-4.1050987 1.700939,-5.6961821 0.567012,-1.5910834 1.134025,-2.6293943 1.701038,-2.7966698 0.567012,-0.1672755 1.134025,0.5434379 1.700939,1.9079354 0.567012,1.3644976 1.134025,3.3655006 1.701037,5.381081"
       title="sin(x)*3.5"
       id="path1" />
    <path
       id="path3"
       style="color:#000000;fill:#ffea00;stroke-miterlimit:10;-inkscape-stroke:none"
       d="M 1.4949992 4.2028442 C 1.0779126 5.4295196 0.66902759 6.8697736 0.25993245 8.3240397 L 1.2795085 8.6113607 C 1.72761 7.0184332 2.1762372 5.4433909 2.6137939 4.2028442 L 1.4949992 4.2028442 z M 5.3908854 4.2028442 C 5.9403164 5.7536097 6.5015055 7.8416101 7.0646851 9.8164551 C 7.6337445 11.811894 8.1945574 13.647275 8.8046305 14.834237 C 9.1102694 15.428846 9.4138767 15.871721 9.8572795 16.130798 C 10.07898 16.260338 10.352131 16.330278 10.61899 16.295129 C 10.885849 16.259979 11.125818 16.130172 11.324373 15.957166 C 11.72109 15.611566 12.008891 15.103721 12.306742 14.453381 C 12.604593 13.803042 12.89232 13.009326 13.179557 12.111405 C 13.753692 10.316835 14.321763 8.1376034 14.88488 6.2440633 C 15.107018 5.4970997 15.33217 4.8200915 15.554089 4.2028442 L 14.422892 4.2028442 C 14.238966 4.7480755 14.05608 5.3209165 13.870988 5.9433065 C 13.30008 7.8630484 12.731753 10.036843 12.171867 11.786877 C 11.892191 12.66116 11.614696 13.425973 11.345561 14.013615 C 11.076425 14.601255 10.799102 15.011964 10.628809 15.160315 C 10.543859 15.234335 10.497139 15.243908 10.480497 15.246098 C 10.463857 15.248298 10.454447 15.252742 10.392647 15.216642 C 10.269052 15.144428 10.007528 14.857964 9.7461751 14.349512 C 9.2222453 13.330151 8.6471375 11.50859 8.082194 9.5275838 C 7.5607492 7.6990861 7.0381725 5.7691912 6.5055461 4.2028442 L 5.3908854 4.2028442 z M 18.303276 4.2028442 C 18.525222 4.8202641 18.750407 5.4975152 18.972485 6.2440633 C 19.535501 8.1370498 20.1037 10.31611 20.677808 12.111405 C 20.965116 13.009798 21.252753 13.803344 21.550623 14.453381 C 21.848493 15.103419 22.139347 15.611325 22.535059 15.957166 C 22.733677 16.130788 22.97115 16.259995 23.238375 16.295129 C 23.505601 16.330259 23.778521 16.260561 24.000085 16.130798 C 24.443215 15.871278 24.749222 15.427955 25.054801 14.834237 C 25.665201 13.648172 26.224151 11.811507 26.793197 9.8164551 C 27.356393 7.8418866 27.919083 5.7547551 28.468547 4.2028442 L 27.352336 4.2028442 C 26.819776 5.7698259 26.29667 7.6992043 25.775171 9.5275838 C 25.210192 11.508376 24.636882 13.332056 24.113257 14.349512 C 23.851825 14.857454 23.588549 15.144119 23.464718 15.216642 C 23.402798 15.252902 23.393128 15.248238 23.376868 15.246098 C 23.360608 15.243998 23.315507 15.234525 23.230623 15.160315 C 23.059324 15.010604 22.783012 14.59889 22.513871 14.011548 C 22.24473 13.424204 21.965201 12.661489 21.685498 11.786877 C 21.125584 10.035966 20.559254 7.8625014 19.988444 5.9433065 C 19.803363 5.3211302 19.620142 4.7481437 19.436023 4.2028442 L 18.303276 4.2028442 z M 31.243571 4.2028442 C 31.681743 5.442702 32.131647 7.0178552 32.579924 8.6113607 L 33.597432 8.3240397 C 33.188391 6.8700035 32.78091 5.4293494 32.364433 4.2028442 L 31.243571 4.2028442 z " />
    <path
       style="fill:none;stroke:#ec008c;stroke-width:1.0623;stroke-miterlimit:10;stroke-dasharray:none;stroke-opacity:1"
       d="M 0.26458317,4.2027234 H 33.602083"
       id="path2" />
  </g>
</svg>
