<?xml version="1.0" encoding="UTF-8" standalone="no"?>
<!-- Created with Inkscape (http://www.inkscape.org/) -->

<svg
   width="127.99999"
   height="63.999996"
   viewBox="0 0 33.866664 16.933332"
   version="1.1"
   id="svg1"
   xml:space="preserve"
   xmlns="http://www.w3.org/2000/svg"
   xmlns:svg="http://www.w3.org/2000/svg"><defs
     id="defs1"><linearGradient
       id="swatch18"><stop
         style="stop-color:#ffeb00;stop-opacity:0.87843137;"
         offset="0"
         id="stop18" /></linearGradient><linearGradient
       id="swatch1"><stop
         style="stop-color:#ffea00;stop-opacity:1;"
         offset="0"
         id="stop1" /></linearGradient><style
       id="style1">.c{fill:#ec008c;}.c,.d{stroke-width:0px;}.d{fill:#00b9f2;}</style><linearGradient
       id="swatch16"><stop
         style="stop-color:#00b9f2;stop-opacity:1;"
         offset="0"
         id="stop17" /></linearGradient><style
       id="style1-0">.c{fill:#ec008c;}.c,.d{stroke-width:0px;}.d{fill:#00b9f2;}</style></defs><g
     id="layer1"
     style="display:inline"><path
       style="display:inline;fill:none;stroke:#00b9f2;stroke-width:0.79375;stroke-linecap:butt;stroke-linejoin:miter;stroke-dasharray:none;stroke-opacity:1"
       d="M 13.672656,6.640707 C 10.904836,0.22725999 10.147406,4.113896 9.1873063,6.809716 7.9503363,9.082127 6.8775163,4.641056 5.9972563,3.282794 5.4557063,2.447161 4.6869761,2.89286 4.6197061,2.926811 c -1.40757,0.710401 -2.14371,3.172743 -2.75038,5.455201"
       id="path79-2-2" /><path
       style="display:inline;fill:none;stroke:#00b9f2;stroke-width:0.79375;stroke-linecap:butt;stroke-linejoin:miter;stroke-dasharray:none;stroke-opacity:1"
       d="m 13.807826,11.981985 c -0.0124,1.055537 -0.51548,1.620443 -1.27454,1.929352 -1.12162,0.0041 -1.70581,-3.957851 -3.2155897,-3.683308 -1.45438,-8.9e-5 -0.84986,3.370042 -2.50231,3.683308 -1.92011,0.01375 -2.2504102,-3.39027 -3.7300802,-3.671615 -0.81519,-0.331193 -1.28349,1.082689 -1.36808,1.824114"
       id="path110-2" /><path
       style="fill:none;stroke:#ffea00;stroke-width:0.79375;stroke-linecap:butt;stroke-linejoin:miter;stroke-dasharray:none;stroke-opacity:1"
       d="m 17.065625,12.236979 c 1.189159,-7.7365846 2.544373,-7.775022 2.782893,-3.3650435 0.103015,1.9046575 0.595652,4.4988505 2.091146,3.5759685 0.444579,-0.274353 0.326205,-7.8455018 1.397399,-6.4002528 0.70296,0.9484303 1.086267,10.1641408 2.387703,5.3825288 3.295958,-12.10969549 3.034289,2.442591 6.422109,0.806799"
       id="path115" /></g></svg>
