<?xml version="1.0" encoding="UTF-8" standalone="no"?>
<!-- Created with Inkscape (http://www.inkscape.org/) -->

<svg
   width="128"
   height="64"
   viewBox="0 0 33.866666 16.933333"
   version="1.1"
   id="svg1"
   xmlns="http://www.w3.org/2000/svg"
   xmlns:svg="http://www.w3.org/2000/svg">
  <defs
     id="defs1" />
  <g
     id="layer1">
    <path
       style="fill:none;stroke:#ffea00;stroke-width:1.05833;stroke-miterlimit:10;stroke-dasharray:none;stroke-opacity:1"
       d="M 0.72683334,5.6212414 C 1.2975841,4.9332038 1.8683358,4.2454684 2.4390875,3.6235601 3.0098282,3.0016509 3.5805799,2.4465323 4.1513316,2.0104098 4.7220833,1.5742864 5.292835,1.2583958 5.8635857,1.0919774 6.4343374,0.92555893 7.0050791,0.90967673 7.5758308,1.044978 8.1465815,1.1802812 8.7173332,1.4674596 9.288085,1.8784516 c 0.5707517,0.410992 1.141533,0.9459839 1.712295,1.5535866 0.570661,0.6076018 1.141422,1.2874605 1.712184,1.9747641 0.570762,0.6873036 1.141522,1.3812095 1.712284,2.015987 0.570763,0.6347775 1.141524,1.2092449 1.712285,1.6693386 0.570661,0.4600357 1.141423,0.8045454 1.712184,1.0014361 0.570761,0.196892 1.141524,0.245067 1.712286,0.140887 0.57076,-0.104178 1.141522,-0.3615617 1.712183,-0.7467854 0.570761,-0.3852227 1.141523,-0.8985894 1.712285,-1.4907127 0.570761,-0.5921838 1.141522,-1.2627591 1.712284,-1.9479037 0.570762,-0.6851253 1.141523,-1.3839632 1.712184,-2.0302453 0.570762,-0.646276 1.141523,-1.2388732 1.712285,-1.7219583 0.570761,-0.4830789 1.141523,-0.8554151 1.712285,-1.0823502 0.570761,-0.22694217 1.141523,-0.30736837 1.712183,-0.23449837 0.570762,0.072873 1.141524,0.29982607 1.712284,0.65848027"
       title="sin(x)*2"
       id="path1" />
    <path
       style="fill:none;stroke:#ffea00;stroke-width:1.05833333;stroke-miterlimit:10;stroke-dasharray:none;stroke-opacity:1"
       d="M 0.72683334,11.485958 C 1.2975841,10.797918 1.8683358,10.11022 2.4390875,9.4883105 3.0098282,8.8664013 3.5805799,8.3112091 4.1513316,7.8750857 4.7220833,7.4389623 5.292835,7.1230726 5.8635857,6.9566541 6.4343374,6.7902348 7.0050791,6.7743535 7.5758308,6.9096548 8.1465815,7.0449579 8.7173332,7.3321374 9.288085,7.7431285 c 0.5707517,0.4109919 1.141533,0.9459847 1.712295,1.5535865 0.570661,0.6076018 1.141422,1.287461 1.712184,1.974766 0.570762,0.687305 1.141522,1.381211 1.712284,2.015988 0.570763,0.634778 1.141524,1.209245 1.712285,1.669341 0.570661,0.460035 1.141423,0.804546 1.712184,1.001435 0.570761,0.196889 1.141524,0.245065 1.712286,0.140886 0.57076,-0.104177 1.141522,-0.36156 1.712183,-0.746783 0.570761,-0.385223 1.141523,-0.898592 1.712285,-1.490715 0.570761,-0.592184 1.141522,-1.262759 1.712284,-1.947905 0.570762,-0.685125 1.141523,-1.383965 1.712184,-2.0302473 0.570762,-0.646276 1.141523,-1.2388723 1.712285,-1.7219583 0.570761,-0.4830789 1.141523,-0.8554151 1.712285,-1.0823503 0.570761,-0.2269422 1.141523,-0.3073683 1.712183,-0.2344983 0.570762,0.072873 1.141524,0.2998271 1.712284,0.6584804"
       title="sin(x)*2"
       id="path1-6" />
    <path
       style="fill:none;stroke:#00b9f2;stroke-width:1.05833;stroke-miterlimit:10;stroke-dasharray:none;stroke-opacity:1"
       d="M 0.72683334,9.8073104 C 1.2975841,9.1192728 1.8683358,8.1670312 2.4390875,7.5451229 3.0098282,6.9232137 3.5805799,4.2514142 4.1513316,3.8152917 4.7220833,3.3791683 5.292835,3.3279249 5.8635857,3.1615062 6.4343374,2.9950877 7.0050791,6.6832757 7.5758308,6.8185771 8.1465815,6.9538803 8.7173332,6.1826893 9.288085,6.5936812 c 0.5707517,0.410992 1.141533,-0.1123027 1.712295,0.4953 0.570661,0.6076018 1.141422,0.4937964 1.712184,1.1811 0.570762,0.6873037 1.141522,2.1748338 1.712284,2.8096108 0.570763,0.634778 1.141524,1.47401 1.712285,1.934104 0.570661,0.460036 1.141423,-1.841544 1.712184,-1.64465 0.570761,0.196889 1.141524,1.038952 1.712286,0.934773 0.57076,-0.104178 1.141522,0.961222 1.712183,0.575998 0.570761,-0.385223 1.141523,-1.692289 1.712285,-2.284413 0.570761,-0.592184 1.141522,-2.3210509 1.712284,-3.0061957 0.570762,-0.6851254 1.141523,2.5848847 1.712184,1.9386021 0.570762,-0.646276 1.141523,-4.4138232 1.712285,-4.8969083 0.570761,-0.4830789 1.141523,-1.1200586 1.712285,-1.3469938 0.570761,-0.2269423 1.141523,-2.1593741 1.712183,-2.0865041 0.570762,0.072873 1.141524,0.5642125 1.712284,0.9228666"
       title="sin(x)*2"
       id="path2" />
  </g>
</svg>
