<?xml version="1.0" encoding="UTF-8" standalone="no"?>
<!-- Created with Inkscape (http://www.inkscape.org/) -->

<svg
   width="127.99999"
   height="63.999996"
   viewBox="0 0 33.866664 16.933332"
   version="1.1"
   id="svg1"
   xml:space="preserve"
   xmlns="http://www.w3.org/2000/svg"
   xmlns:svg="http://www.w3.org/2000/svg"><defs
     id="defs1"><linearGradient
       id="swatch18"><stop
         style="stop-color:#ffeb00;stop-opacity:0.87843137;"
         offset="0"
         id="stop18" /></linearGradient><linearGradient
       id="swatch1"><stop
         style="stop-color:#ffea00;stop-opacity:1;"
         offset="0"
         id="stop1" /></linearGradient></defs><g
     id="layer1"
     style="display:inline"><g
       id="g61"
       transform="translate(88.953354,-48.39181)"><path
         style="fill:#79d151;fill-opacity:1;stroke:#000000;stroke-width:0.0819239px;stroke-linecap:butt;stroke-linejoin:miter;stroke-opacity:1"
         d="m -79.277489,54.684146 c 1.193218,-0.258486 1.849029,-0.332115 2.548134,-0.395422 l 1.173595,-0.738216 c 0.02944,-0.02326 0.06295,-0.02173 0.09906,-0.02584 l 2.848166,-0.08107 1.639168,0.73638 0.284535,0.02476 0.09567,0.285144 0.04374,0.04438 0.0162,0.02653 c 0.03825,0.09684 0.0313,0.199309 0.01006,0.298088 l -0.01914,0.03322 -0.03098,0.122924 -0.01941,0.0049 0.0012,0.02728 0.05872,5.58e-4 h 0.130185 v 0.348131 l -0.360869,0.02486 -0.146077,0.146077 -0.902866,0.05826 c 0.239504,-0.755311 -1.450203,-1.218329 -1.69797,0.04677 h -3.620334 c -0.383208,-1.06705 -1.648311,-0.869189 -1.482042,-0.08495 l -0.355619,-0.0117 -0.03412,-0.102372 -0.107749,-0.04064 -0.327079,-0.05957 v -0.242611 h 0.173678 c -0.02092,-0.119246 -0.03612,-0.237671 -0.03041,-0.358142 z"
         id="path23-9" /><circle
         style="fill:#000000;fill-opacity:0;stroke:#ffea00;stroke-width:0.842453;stroke-dasharray:none;stroke-opacity:1"
         id="path50"
         cx="-74.946815"
         cy="55.083214"
         r="5.4473004" /><path
         style="fill:none;stroke:#ffea00;stroke-width:0.561635;stroke-linecap:butt;stroke-linejoin:miter;stroke-dasharray:none;stroke-opacity:1"
         d="m -69.661201,56.754546 8.017984,4.629185 -1.710574,2.962803 -8.379214,-4.837742"
         id="path51" /><circle
         style="fill:#000000;fill-opacity:0;stroke:#000000;stroke-width:0.264583;stroke-dasharray:none;stroke-opacity:1"
         id="path54"
         cx="-72.625473"
         cy="55.589775"
         r="0.37685999" /><circle
         style="display:inline;fill:#000000;fill-opacity:0;stroke:#000000;stroke-width:0.264583;stroke-dasharray:none;stroke-opacity:1"
         id="path54-1"
         cx="-77.93116"
         cy="55.625916"
         r="0.37685999" /></g></g></svg>
