<?xml version="1.0" encoding="UTF-8" standalone="no"?>
<!-- Created with Inkscape (http://www.inkscape.org/) -->

<svg
   width="127.99999"
   height="63.999996"
   viewBox="0 0 33.866664 16.933332"
   version="1.1"
   id="svg1"
   xml:space="preserve"
   xmlns="http://www.w3.org/2000/svg"
   xmlns:svg="http://www.w3.org/2000/svg"><defs
     id="defs1"><linearGradient
       id="swatch18"><stop
         style="stop-color:#ffeb00;stop-opacity:0.87843137;"
         offset="0"
         id="stop18" /></linearGradient><linearGradient
       id="swatch1"><stop
         style="stop-color:#ffea00;stop-opacity:1;"
         offset="0"
         id="stop1" /></linearGradient><style
       id="style1">.c{fill:#ec008c;}.c,.d{stroke-width:0px;}.d{fill:#00b9f2;}</style><linearGradient
       id="swatch16"><stop
         style="stop-color:#00b9f2;stop-opacity:1;"
         offset="0"
         id="stop17" /></linearGradient><style
       id="style1-0">.c{fill:#ec008c;}.c,.d{stroke-width:0px;}.d{fill:#00b9f2;}</style><style
       id="style1-9">.c{fill:#ec008c;}.c,.d{stroke-width:0px;}.d{fill:#00b9f2;}</style><style
       id="style1-94">.c{fill:#ec008c;}.c,.d{stroke-width:0px;}.d{fill:#00b9f2;}</style><style
       id="style1-7">.c{fill:#ec008c;}.c,.d{stroke-width:0px;}.d{fill:#00b9f2;}</style><style
       id="style1-6">.c{fill:#ec008c;}.c,.d{stroke-width:0px;}.d{fill:#00b9f2;}</style><style
       id="style1-0-2">.c{fill:#ec008c;}.c,.d{stroke-width:0px;}.d{fill:#00b9f2;}</style><style
       id="style1-9-6">.c{fill:#ec008c;}.c,.d{stroke-width:0px;}.d{fill:#00b9f2;}</style><style
       id="style1-94-1">.c{fill:#ec008c;}.c,.d{stroke-width:0px;}.d{fill:#00b9f2;}</style><style
       id="style1-7-8">.c{fill:#ec008c;}.c,.d{stroke-width:0px;}.d{fill:#00b9f2;}</style><style
       id="style1-73">.c{fill:#ec008c;}.c,.d{stroke-width:0px;}.d{fill:#00b9f2;}</style><style
       id="style1-0-9">.c{fill:#ec008c;}.c,.d{stroke-width:0px;}.d{fill:#00b9f2;}</style><style
       id="style1-9-3">.c{fill:#ec008c;}.c,.d{stroke-width:0px;}.d{fill:#00b9f2;}</style><style
       id="style1-94-19">.c{fill:#ec008c;}.c,.d{stroke-width:0px;}.d{fill:#00b9f2;}</style><style
       id="style1-7-4">.c{fill:#ec008c;}.c,.d{stroke-width:0px;}.d{fill:#00b9f2;}</style><style
       id="style1-69">.c{fill:#ec008c;}.c,.d{stroke-width:0px;}.d{fill:#00b9f2;}</style><style
       id="style1-0-4">.c{fill:#ec008c;}.c,.d{stroke-width:0px;}.d{fill:#00b9f2;}</style><style
       id="style1-9-5">.c{fill:#ec008c;}.c,.d{stroke-width:0px;}.d{fill:#00b9f2;}</style><style
       id="style1-94-2">.c{fill:#ec008c;}.c,.d{stroke-width:0px;}.d{fill:#00b9f2;}</style><style
       id="style1-7-5">.c{fill:#ec008c;}.c,.d{stroke-width:0px;}.d{fill:#00b9f2;}</style><style
       id="style1-1">.c{fill:#ec008c;}.c,.d{stroke-width:0px;}.d{fill:#00b9f2;}</style><style
       id="style1-0-7">.c{fill:#ec008c;}.c,.d{stroke-width:0px;}.d{fill:#00b9f2;}</style><style
       id="style1-9-2">.c{fill:#ec008c;}.c,.d{stroke-width:0px;}.d{fill:#00b9f2;}</style><style
       id="style1-94-26">.c{fill:#ec008c;}.c,.d{stroke-width:0px;}.d{fill:#00b9f2;}</style><style
       id="style1-7-1">.c{fill:#ec008c;}.c,.d{stroke-width:0px;}.d{fill:#00b9f2;}</style><style
       id="style1-09">.c{fill:#ec008c;}.c,.d{stroke-width:0px;}.d{fill:#00b9f2;}</style><style
       id="style1-0-8">.c{fill:#ec008c;}.c,.d{stroke-width:0px;}.d{fill:#00b9f2;}</style><style
       id="style1-9-56">.c{fill:#ec008c;}.c,.d{stroke-width:0px;}.d{fill:#00b9f2;}</style><style
       id="style1-94-11">.c{fill:#ec008c;}.c,.d{stroke-width:0px;}.d{fill:#00b9f2;}</style><style
       id="style1-7-59">.c{fill:#ec008c;}.c,.d{stroke-width:0px;}.d{fill:#00b9f2;}</style></defs><g
     id="layer1"
     style="display:inline"><path
       style="display:inline;fill:none;stroke:#ffea00;stroke-width:0.727469;stroke-miterlimit:10;stroke-dasharray:none;stroke-opacity:1"
       d="m 7.8625279,12.611841 c 0.279807,-0.77681 0.475926,-1.85768 0.755732,-2.38404 0.279807,-0.52635 0.631372,-0.13453 0.911178,-0.0707 0.279806,0.0638 0.6791941,-0.0223 0.9590011,0.59046 0.279816,0.61282 0.02149,1.67275 0.301353,2.43901 0.279816,0.76627 0.990085,1.35996 1.269901,1.78512 0.279807,0.42512 0.559613,0.56313 0.839429,0.37272 0.279817,-0.19037 0.344407,-1.52762 0.624178,-2.21063 0.27981,-0.68305 0.85857,-0.59161 1.13839,-1.32644 0.27981,-0.73482 0.71761,-7.3733001 1.59516,-1.77691 0.0605,0.38601 0.4281,0.99799 0.70792,1.7326 0.27976,0.73462 0.79873,1.21908 1.07855,1.90245 0.27982,0.68331 0.48789,1.46578 0.76771,1.65678 0.27982,0.19102 0.47589,-0.39122 0.7557,-0.81581 0.27982,-0.42461 0.5716,-1.30695 0.85142,-2.0731 0.27982,-0.76617 0.97943,0.15111 1.2592,-0.4621 0.27983,-0.61321 0.19962,-2.1706 0.47945,-2.23507 0.27981,-0.0645 0.2846,0.63037 0.56438,1.15624 0.27982,0.52589 0.81074,0.94262 1.09056,1.71943"
       title="sin(x)*3.5"
       id="path1-7-5-6-1-1" /><path
       style="display:inline;fill:none;stroke:#00baf2;stroke-width:0.79375;stroke-linecap:butt;stroke-linejoin:miter;stroke-dasharray:none;stroke-opacity:0.878431"
       d="m 7.2225306,4.9781445 c 0.885702,-3.03388 1.877136,-4.43978995 3.2663254,-0.49051 0.602834,1.71378 2.532095,4.2335604 2.6868,2.3755504 0.39505,-4.7447004 2.64218,-6.19097035 3.44079,-4.2548904 1.85892,4.5066104 3.63892,5.8125704 4.20843,4.0757004 1.88308,-5.74287035 3.21004,-2.5086404 3.99245,-1.7058504"
       id="path150-2" /></g></svg>
