<?xml version="1.0" encoding="UTF-8" standalone="no"?>
<!-- Created with Inkscape (http://www.inkscape.org/) -->

<svg
   width="128"
   height="64"
   viewBox="0 0 33.866666 16.933333"
   version="1.1"
   id="svg1"
   xmlns="http://www.w3.org/2000/svg"
   xmlns:svg="http://www.w3.org/2000/svg">
  <defs
     id="defs1" />
  <g
     id="layer1">
    <path
       style="fill:none;stroke:#ec008c;stroke-width:1.0623;stroke-miterlimit:10;stroke-dasharray:none;stroke-opacity:1"
       d="M 0.26458342,10.803467 H 33.602083"
       id="path2" />
    <path
       style="fill:none;stroke:#00b9f2;stroke-width:1.05833;stroke-miterlimit:10;stroke-dasharray:none;stroke-opacity:1"
       d="M 0.7547944,6.166166 C 1.3245602,5.3806206 1.894327,4.5954212 2.4640937,3.8853765 3.0338505,3.1753318 3.6036172,2.5415432 4.1733841,2.0436134 4.7431508,1.5456836 5.3129176,1.1850259 5.8826844,0.99502313 6.4524511,0.80501953 7.0222078,0.78688723 7.5919747,0.94136533 8.1617415,1.0958434 8.7315082,1.4237211 9.301275,1.8929578 c 0.5697668,0.4692368 1.139564,1.0800474 1.709341,1.7737575 0.569676,0.69371 1.139453,1.4699177 1.70923,2.2546249 0.569777,0.7847068 1.139553,1.5769518 1.70933,2.3016885 0.569778,0.7247369 1.139554,1.3806166 1.709331,1.9059153 0.569676,0.525231 1.139453,0.918565 1.70923,1.143357 0.569776,0.224792 1.139554,0.279795 1.709331,0.160852 0.569776,-0.118941 1.139553,-0.412799 1.709229,-0.852616 0.569777,-0.439816 1.139554,-1.0259377 1.709331,-1.7019751 0.569777,-0.6761073 1.139553,-1.4417153 1.70933,-2.2239575 0.569777,-0.7822194 1.139554,-1.5800958 1.70923,-2.3179675 0.569777,-0.7378649 1.139554,-1.4144437 1.709331,-1.965991 0.569776,-0.5515404 1.139553,-0.9766432 1.709331,-1.2357393 0.569776,-0.25910367 1.139553,-0.35092827 1.709229,-0.26773097 0.569777,0.083197 1.139554,0.34231757 1.70933,0.75179917"
       title="sin(x)*2"
       id="path1" />
    <path
       style="fill:none;stroke:#ffea00;stroke-width:1.05833;stroke-miterlimit:10;stroke-dasharray:none;stroke-opacity:1"
       d="M 0.75479405,10.803467 C 1.32456,10.017919 1.894327,9.2327607 2.464094,8.522716 3.03385,7.8126713 3.603617,7.1787977 4.173384,6.6808679 4.743151,6.1829381 5.312918,5.8222804 5.882684,5.6322776 6.452451,5.442274 7.022208,5.4241417 7.591975,5.5786196 c 0.569766,0.1544781 1.139533,0.4823558 1.7093,0.9515925 0.569767,0.4692368 1.139564,1.0800474 1.709341,1.7737575 0.569676,0.69371 1.139453,1.4699179 1.70923,2.2546274 0.569777,0.784708 1.139553,1.576953 1.70933,2.30169 0.569778,0.724737 1.139554,1.380617 1.709331,1.905916 0.569676,0.525231 1.139453,0.918565 1.70923,1.143357 0.569776,0.224792 1.139554,0.279795 1.709331,0.160852 0.569776,-0.118941 1.139553,-0.412799 1.709229,-0.852616 0.569777,-0.439816 1.139554,-1.025938 1.709331,-1.701976 0.569777,-0.676107 1.139553,-1.441715 1.70933,-2.223958 0.569777,-0.78222 1.139554,-1.5800995 1.70923,-2.3179708 0.569777,-0.7378649 1.139554,-1.4144437 1.709331,-1.965991 0.569776,-0.5515404 1.139553,-0.9766432 1.709331,-1.2357393 0.569776,-0.2591037 1.139553,-0.3509283 1.709229,-0.267731 0.569777,0.083197 1.139554,0.3423176 1.70933,0.7517992"
       title="sin(x)*2"
       id="path1-6" />
  </g>
</svg>
