<?xml version="1.0" encoding="UTF-8" standalone="no"?>
<!-- Created with Inkscape (http://www.inkscape.org/) -->

<svg
   width="128"
   height="64"
   viewBox="0 0 33.866666 16.933333"
   version="1.1"
   id="svg1"
   inkscape:version="1.3.1 (91b66b0783, 2023-11-16)"
   sodipodi:docname="filter-sine.svg"
   inkscape:export-filename="filter-sine.png"
   inkscape:export-xdpi="96"
   inkscape:export-ydpi="96"
   xmlns:inkscape="http://www.inkscape.org/namespaces/inkscape"
   xmlns:sodipodi="http://sodipodi.sourceforge.net/DTD/sodipodi-0.dtd"
   xmlns="http://www.w3.org/2000/svg"
   xmlns:svg="http://www.w3.org/2000/svg">
  <sodipodi:namedview
     id="namedview1"
     pagecolor="#ffffff"
     bordercolor="#000000"
     borderopacity="0.25"
     inkscape:showpageshadow="2"
     inkscape:pageopacity="0.0"
     inkscape:pagecheckerboard="0"
     inkscape:deskcolor="#d1d1d1"
     inkscape:document-units="px"
     inkscape:zoom="256"
     inkscape:cx="125.89648"
     inkscape:cy="6.5996094"
     inkscape:window-width="1920"
     inkscape:window-height="1051"
     inkscape:window-x="-9"
     inkscape:window-y="-9"
     inkscape:window-maximized="1"
     inkscape:current-layer="layer1" />
  <defs
     id="defs1" />
  <g
     inkscape:label="Layer 1"
     inkscape:groupmode="layer"
     id="layer1">
    <path
       style="fill:none;stroke:#ffea00;stroke-width:1.0575;stroke-miterlimit:10;stroke-dasharray:none;stroke-opacity:1"
       d="M 0.80003912,8.4681575 C 1.3661189,6.4524636 1.9322045,4.4525786 2.4982804,3.0867733 3.064366,1.7209683 3.6304419,1.0131064 4.1965276,1.1787304 4.7626033,1.3443545 5.3286793,2.3854053 5.8947649,3.9755578 6.4608407,5.5657103 7.0269263,7.6837324 7.5930022,9.6720609 8.1590878,11.6604 8.7251637,13.488337 9.2912493,14.591563 c 0.5660759,1.103126 1.1321507,1.461229 1.6982467,0.967148 0.566095,-0.493979 1.132191,-1.836942 1.698189,-3.609248 0.566095,-1.772406 1.132191,-3.9495412 1.698287,-5.8562934 0.566095,-1.9067421 1.132191,-3.5128937 1.698286,-4.3233537 0.565997,-0.81045396 1.132093,-0.8089281 1.698188,0 0.566096,0.8089291 1.132192,2.4171518 1.698287,4.3233537 0.565997,1.9062019 1.132093,4.0830864 1.698188,5.8562934 0.566095,1.773106 1.13219,3.113668 1.698286,3.609248 0.566095,0.495682 1.132092,0.134576 1.698188,-0.967148 0.566096,-1.101825 1.132191,-2.931464 1.698287,-4.9195021 0.566095,-1.9880584 1.132191,-4.10533 1.698188,-5.6965031 0.566095,-1.591173 1.132191,-2.6295424 1.698287,-2.7968274 0.566095,-0.1672849 1.132191,0.5434685 1.698188,1.9080429 0.566095,1.3645745 1.132191,3.3656903 1.698286,5.3813842"
       title="sin(x)*3.5"
       id="path1" />
  </g>
</svg>
